<svg width="140" height="88" viewBox="0 0 140 88" fill="none" xmlns="http://www.w3.org/2000/svg">
<g clip-path="url(#clip0_10_893)">
<rect x="6" y="6" width="128" height="76" rx="4" fill="#5E609C"/>
<path d="M80.4914 45.3125H70.7588L77.2405 51.7942C77.4883 52.042 77.8959 52.0621 78.1507 51.8221C79.738 50.3267 80.8298 48.3107 81.1501 46.0446C81.2051 45.6566 80.8831 45.3125 80.4914 45.3125ZM79.8421 42.6546C79.5042 37.7548 75.5888 33.8395 70.6891 33.5015C70.3151 33.4756 70.0001 33.7911 70.0001 34.1659V43.3437H79.1781C79.553 43.3437 79.868 43.0287 79.8421 42.6546ZM68.0313 45.3125V35.5798C68.0313 35.1881 67.6872 34.8661 67.2996 34.921C62.4118 35.6118 58.6757 39.8819 58.8496 44.9995C59.0284 50.2553 63.5536 54.5653 68.8118 54.4993C70.879 54.4734 72.7891 53.8073 74.3596 52.6933C74.6836 52.4636 74.7049 51.9866 74.424 51.7056L68.0313 45.3125Z" fill="#393C78"/>
</g>
<defs>
<clipPath id="clip0_10_893">
<rect width="140" height="88" fill="white"/>
</clipPath>
</defs>
</svg>
