<svg width="140" height="88" viewBox="0 0 140 88" fill="none" xmlns="http://www.w3.org/2000/svg">
<g clip-path="url(#clip0_10_897)">
<rect x="6" y="6" width="60" height="35.625" rx="4" fill="#5E609C"/>
<path d="M40.0058 23.0395L32.9344 18.4432C32.2996 18.0651 31.5 18.5505 31.5 19.3453V28.2803C31.5 29.0707 32.2955 29.5604 32.9344 29.1824L40.0058 24.8437C40.6647 24.4528 40.6647 23.4348 40.0058 23.0395Z" fill="#393C78"/>
<rect x="74" y="6" width="60" height="35.625" rx="4" fill="#5E609C"/>
<path d="M109.642 24.5H104.408L107.894 27.8952C108.027 28.025 108.247 28.0355 108.384 27.9098C109.237 27.1265 109.824 26.0705 109.997 24.8835C110.026 24.6802 109.853 24.5 109.642 24.5ZM109.293 23.1078C109.111 20.5412 107.006 18.4903 104.371 18.3133C104.169 18.2997 104 18.465 104 18.6613V23.4687H108.936C109.138 23.4687 109.307 23.3037 109.293 23.1078ZM102.941 24.5V19.4019C102.941 19.1967 102.756 19.0281 102.548 19.0569C99.9189 19.4187 97.9096 21.6554 98.0031 24.3361C98.0993 27.0891 100.533 29.3467 103.361 29.3121C104.473 29.2986 105.5 28.9497 106.345 28.3661C106.519 28.2458 106.53 27.996 106.379 27.8488L102.941 24.5Z" fill="#393C78"/>
</g>
<defs>
<clipPath id="clip0_10_897">
<rect width="140" height="88" fill="white"/>
</clipPath>
</defs>
</svg>
