<svg width="140" height="88" viewBox="0 0 140 88" fill="none" xmlns="http://www.w3.org/2000/svg">
<g clip-path="url(#clip0_10_896)">
<rect x="6.5" y="6" width="41" height="25" rx="4" fill="#5E609C"/>
<path d="M31.0058 17.727L23.9344 13.1307C23.2996 12.7526 22.5 13.238 22.5 14.0328V22.9678C22.5 23.7582 23.2955 24.2479 23.9344 23.8699L31.0058 19.5312C31.6647 19.1403 31.6647 18.1223 31.0058 17.727Z" fill="#393C78"/>
<rect x="55.5" y="6" width="78" height="48" rx="4" fill="#5E609C"/>
<path d="M102.493 31H95.0782L100.017 35.9385C100.205 36.1272 100.516 36.1425 100.71 35.9597C101.919 34.8203 102.751 33.2844 102.995 31.5578C103.037 31.2622 102.792 31 102.493 31ZM101.999 28.975C101.741 25.2418 98.7582 22.2586 95.025 22.0011C94.74 21.9814 94.5 22.2218 94.5 22.5074V29.5H101.493C101.778 29.5 102.018 29.26 101.999 28.975ZM93 31V23.5846C93 23.2861 92.7379 23.0408 92.4425 23.0827C88.7185 23.609 85.8719 26.8624 86.0044 30.7615C86.1407 34.766 89.5885 38.0497 93.5947 37.9994C95.1697 37.9797 96.625 37.4722 97.8216 36.6235C98.0685 36.4485 98.0847 36.085 97.8707 35.871L93 31Z" fill="#393C78"/>
</g>
<defs>
<clipPath id="clip0_10_896">
<rect width="140" height="88" fill="white"/>
</clipPath>
</defs>
</svg>
