<svg width="140" height="88" viewBox="0 0 140 88" fill="none" xmlns="http://www.w3.org/2000/svg">
<g clip-path="url(#clip0_10_895)">
<rect x="6.5" y="6" width="78" height="48" rx="4" fill="#5E609C"/>
<path d="M51.7312 28.8757L40.7313 22.19C39.7438 21.6402 38.5 22.3463 38.5 23.5022V36.4986C38.5 37.6483 39.7375 38.3606 40.7313 37.8108L51.7312 31.5C52.7562 30.9314 52.7562 29.4505 51.7312 28.8757Z" fill="#393C78"/>
<rect x="92.5" y="6" width="41" height="25" rx="4" fill="#5E609C"/>
<path d="M118.642 19.1875H113.408L116.894 22.5827C117.027 22.7125 117.247 22.723 117.384 22.5973C118.237 21.814 118.824 20.758 118.997 19.571C119.026 19.3677 118.853 19.1875 118.642 19.1875ZM118.293 17.7953C118.111 15.2287 116.006 13.1778 113.371 13.0008C113.169 12.9872 113 13.1525 113 13.3488V18.1562H117.936C118.138 18.1562 118.307 17.9912 118.293 17.7953ZM111.941 19.1875V14.0894C111.941 13.8842 111.756 13.7156 111.548 13.7444C108.919 14.1062 106.91 16.3429 107.003 19.0236C107.099 21.7766 109.533 24.0342 112.361 23.9996C113.473 23.9861 114.5 23.6372 115.345 23.0536C115.519 22.9333 115.53 22.6835 115.379 22.5363L111.941 19.1875Z" fill="#393C78"/>
</g>
<defs>
<clipPath id="clip0_10_895">
<rect width="140" height="88" fill="white"/>
</clipPath>
</defs>
</svg>
