<svg width="140" height="88" viewBox="0 0 140 88" fill="none" xmlns="http://www.w3.org/2000/svg">
<rect x="6" y="46" width="18" height="9.3" rx="0.62069" fill="#5E609C"/>
<path fill-rule="evenodd" clip-rule="evenodd" d="M14.9483 50.65C15.4453 50.65 15.8483 50.2471 15.8483 49.75C15.8483 49.2529 15.4453 48.85 14.9483 48.85C14.4512 48.85 14.0483 49.2529 14.0483 49.75C14.0483 50.2471 14.4512 50.65 14.9483 50.65ZM15.4364 50.875H15.5483C16.0451 50.875 16.4483 51.2983 16.4483 51.82V52.1125V52.45H13.4483V52.1125V51.82C13.4483 51.2983 13.8514 50.875 14.3483 50.875H14.4601C14.6094 50.9467 14.7742 50.9875 14.9483 50.9875C15.1224 50.9875 15.2878 50.9467 15.4364 50.875Z" fill="#393C78"/>
<rect x="28" y="46" width="18" height="9.3" rx="0.62069" fill="#5E609C"/>
<path fill-rule="evenodd" clip-rule="evenodd" d="M36.9483 50.65C37.4453 50.65 37.8483 50.2471 37.8483 49.75C37.8483 49.2529 37.4453 48.85 36.9483 48.85C36.4512 48.85 36.0483 49.2529 36.0483 49.75C36.0483 50.2471 36.4512 50.65 36.9483 50.65ZM37.4364 50.875H37.5483C38.0451 50.875 38.4483 51.2983 38.4483 51.82V52.1125V52.45H35.4483V52.1125V51.82C35.4483 51.2983 35.8514 50.875 36.3483 50.875H36.4601C36.6094 50.9467 36.7742 50.9875 36.9483 50.9875C37.1224 50.9875 37.2878 50.9467 37.4364 50.875Z" fill="#393C78"/>
<rect x="50" y="46" width="18" height="9.3" rx="0.62069" fill="#5E609C"/>
<path fill-rule="evenodd" clip-rule="evenodd" d="M58.9483 50.65C59.4453 50.65 59.8483 50.2471 59.8483 49.75C59.8483 49.2529 59.4453 48.85 58.9483 48.85C58.4512 48.85 58.0483 49.2529 58.0483 49.75C58.0483 50.2471 58.4512 50.65 58.9483 50.65ZM59.4364 50.875H59.5483C60.0451 50.875 60.4483 51.2983 60.4483 51.82V52.1125V52.45H57.4483V52.1125V51.82C57.4483 51.2983 57.8514 50.875 58.3483 50.875H58.4601C58.6094 50.9467 58.7742 50.9875 58.9483 50.9875C59.1224 50.9875 59.2878 50.9467 59.4364 50.875Z" fill="#393C78"/>
<rect x="72" y="46" width="18" height="9.3" rx="0.62069" fill="#5E609C"/>
<path fill-rule="evenodd" clip-rule="evenodd" d="M80.9483 50.65C81.4453 50.65 81.8483 50.2471 81.8483 49.75C81.8483 49.2529 81.4453 48.85 80.9483 48.85C80.4512 48.85 80.0483 49.2529 80.0483 49.75C80.0483 50.2471 80.4512 50.65 80.9483 50.65ZM81.4364 50.875H81.5483C82.0451 50.875 82.4483 51.2983 82.4483 51.82V52.1125V52.45H79.4483V52.1125V51.82C79.4483 51.2983 79.8514 50.875 80.3483 50.875H80.4601C80.6094 50.9467 80.7742 50.9875 80.9483 50.9875C81.1224 50.9875 81.2878 50.9467 81.4364 50.875Z" fill="#393C78"/>
<rect x="94" y="46" width="18" height="9.3" rx="0.62069" fill="#5E609C"/>
<path fill-rule="evenodd" clip-rule="evenodd" d="M102.948 50.65C103.445 50.65 103.848 50.2471 103.848 49.75C103.848 49.2529 103.445 48.85 102.948 48.85C102.451 48.85 102.048 49.2529 102.048 49.75C102.048 50.2471 102.451 50.65 102.948 50.65ZM103.436 50.875H103.548C104.045 50.875 104.448 51.2983 104.448 51.82V52.1125V52.45H101.448V52.1125V51.82C101.448 51.2983 101.851 50.875 102.348 50.875H102.46C102.609 50.9467 102.774 50.9875 102.948 50.9875C103.122 50.9875 103.288 50.9467 103.436 50.875Z" fill="#393C78"/>
<rect x="116" y="46" width="18" height="9.3" rx="0.62069" fill="#5E609C"/>
<path fill-rule="evenodd" clip-rule="evenodd" d="M124.948 50.65C125.445 50.65 125.848 50.2471 125.848 49.75C125.848 49.2529 125.445 48.85 124.948 48.85C124.451 48.85 124.048 49.2529 124.048 49.75C124.048 50.2471 124.451 50.65 124.948 50.65ZM125.436 50.875H125.548C126.045 50.875 126.448 51.2983 126.448 51.82V52.1125V52.45H123.448V52.1125V51.82C123.448 51.2983 123.851 50.875 124.348 50.875H124.46C124.609 50.9467 124.774 50.9875 124.948 50.9875C125.122 50.9875 125.288 50.9467 125.436 50.875Z" fill="#393C78"/>
<rect x="6" y="59.3" width="18" height="9.3" rx="0.62069" fill="#5E609C"/>
<path fill-rule="evenodd" clip-rule="evenodd" d="M14.9483 63.9501C15.4453 63.9501 15.8483 63.5471 15.8483 63.0501C15.8483 62.553 15.4453 62.1501 14.9483 62.1501C14.4512 62.1501 14.0483 62.553 14.0483 63.0501C14.0483 63.5471 14.4512 63.9501 14.9483 63.9501ZM15.4364 64.1751H15.5483C16.0451 64.1751 16.4483 64.5983 16.4483 65.1201V65.4126V65.7501H13.4483V65.4126V65.1201C13.4483 64.5983 13.8514 64.1751 14.3483 64.1751H14.4601C14.6094 64.2468 14.7742 64.2876 14.9483 64.2876C15.1224 64.2876 15.2878 64.2468 15.4364 64.1751Z" fill="#393C78"/>
<rect x="28" y="59.3" width="18" height="9.3" rx="0.62069" fill="#5E609C"/>
<path fill-rule="evenodd" clip-rule="evenodd" d="M36.9483 63.9501C37.4453 63.9501 37.8483 63.5471 37.8483 63.0501C37.8483 62.553 37.4453 62.1501 36.9483 62.1501C36.4512 62.1501 36.0483 62.553 36.0483 63.0501C36.0483 63.5471 36.4512 63.9501 36.9483 63.9501ZM37.4364 64.1751H37.5483C38.0451 64.1751 38.4483 64.5983 38.4483 65.1201V65.4126V65.7501H35.4483V65.4126V65.1201C35.4483 64.5983 35.8514 64.1751 36.3483 64.1751H36.4601C36.6094 64.2468 36.7742 64.2876 36.9483 64.2876C37.1224 64.2876 37.2878 64.2468 37.4364 64.1751Z" fill="#393C78"/>
<rect x="50" y="59.3" width="18" height="9.3" rx="0.62069" fill="#5E609C"/>
<path fill-rule="evenodd" clip-rule="evenodd" d="M58.9483 63.9501C59.4453 63.9501 59.8483 63.5471 59.8483 63.0501C59.8483 62.553 59.4453 62.1501 58.9483 62.1501C58.4512 62.1501 58.0483 62.553 58.0483 63.0501C58.0483 63.5471 58.4512 63.9501 58.9483 63.9501ZM59.4364 64.1751H59.5483C60.0451 64.1751 60.4483 64.5983 60.4483 65.1201V65.4126V65.7501H57.4483V65.4126V65.1201C57.4483 64.5983 57.8514 64.1751 58.3483 64.1751H58.4601C58.6094 64.2468 58.7742 64.2876 58.9483 64.2876C59.1224 64.2876 59.2878 64.2468 59.4364 64.1751Z" fill="#393C78"/>
<rect x="72" y="59.3" width="18" height="9.3" rx="0.62069" fill="#5E609C"/>
<path fill-rule="evenodd" clip-rule="evenodd" d="M80.9483 63.9501C81.4453 63.9501 81.8483 63.5471 81.8483 63.0501C81.8483 62.553 81.4453 62.1501 80.9483 62.1501C80.4512 62.1501 80.0483 62.553 80.0483 63.0501C80.0483 63.5471 80.4512 63.9501 80.9483 63.9501ZM81.4364 64.1751H81.5483C82.0451 64.1751 82.4483 64.5983 82.4483 65.1201V65.4126V65.7501H79.4483V65.4126V65.1201C79.4483 64.5983 79.8514 64.1751 80.3483 64.1751H80.4601C80.6094 64.2468 80.7742 64.2876 80.9483 64.2876C81.1224 64.2876 81.2878 64.2468 81.4364 64.1751Z" fill="#393C78"/>
<rect x="94" y="59.3" width="18" height="9.3" rx="0.62069" fill="#5E609C"/>
<path fill-rule="evenodd" clip-rule="evenodd" d="M102.948 63.9501C103.445 63.9501 103.848 63.5471 103.848 63.0501C103.848 62.553 103.445 62.1501 102.948 62.1501C102.451 62.1501 102.048 62.553 102.048 63.0501C102.048 63.5471 102.451 63.9501 102.948 63.9501ZM103.436 64.1751H103.548C104.045 64.1751 104.448 64.5983 104.448 65.1201V65.4126V65.7501H101.448V65.4126V65.1201C101.448 64.5983 101.851 64.1751 102.348 64.1751H102.46C102.609 64.2468 102.774 64.2876 102.948 64.2876C103.122 64.2876 103.288 64.2468 103.436 64.1751Z" fill="#393C78"/>
<rect x="116" y="59.3" width="18" height="9.3" rx="0.62069" fill="#5E609C"/>
<path fill-rule="evenodd" clip-rule="evenodd" d="M124.948 63.9501C125.445 63.9501 125.848 63.5471 125.848 63.0501C125.848 62.553 125.445 62.1501 124.948 62.1501C124.451 62.1501 124.048 62.553 124.048 63.0501C124.048 63.5471 124.451 63.9501 124.948 63.9501ZM125.436 64.1751H125.548C126.045 64.1751 126.448 64.5983 126.448 65.1201V65.4126V65.7501H123.448V65.4126V65.1201C123.448 64.5983 123.851 64.1751 124.348 64.1751H124.46C124.609 64.2468 124.774 64.2876 124.948 64.2876C125.122 64.2876 125.288 64.2468 125.436 64.1751Z" fill="#393C78"/>
<rect x="6" y="72.6001" width="18" height="9.3" rx="0.62069" fill="#5E609C"/>
<path fill-rule="evenodd" clip-rule="evenodd" d="M14.9483 77.2501C15.4453 77.2501 15.8483 76.8472 15.8483 76.3501C15.8483 75.853 15.4453 75.4501 14.9483 75.4501C14.4512 75.4501 14.0483 75.853 14.0483 76.3501C14.0483 76.8472 14.4512 77.2501 14.9483 77.2501ZM15.4364 77.4751H15.5483C16.0451 77.4751 16.4483 77.8984 16.4483 78.4201V78.7126V79.0501H13.4483V78.7126V78.4201C13.4483 77.8984 13.8514 77.4751 14.3483 77.4751H14.4601C14.6094 77.5468 14.7742 77.5876 14.9483 77.5876C15.1224 77.5876 15.2878 77.5468 15.4364 77.4751Z" fill="#393C78"/>
<rect x="28" y="72.6001" width="18" height="9.3" rx="0.62069" fill="#5E609C"/>
<path fill-rule="evenodd" clip-rule="evenodd" d="M36.9483 77.2501C37.4453 77.2501 37.8483 76.8472 37.8483 76.3501C37.8483 75.853 37.4453 75.4501 36.9483 75.4501C36.4512 75.4501 36.0483 75.853 36.0483 76.3501C36.0483 76.8472 36.4512 77.2501 36.9483 77.2501ZM37.4364 77.4751H37.5483C38.0451 77.4751 38.4483 77.8984 38.4483 78.4201V78.7126V79.0501H35.4483V78.7126V78.4201C35.4483 77.8984 35.8514 77.4751 36.3483 77.4751H36.4601C36.6094 77.5468 36.7742 77.5876 36.9483 77.5876C37.1224 77.5876 37.2878 77.5468 37.4364 77.4751Z" fill="#393C78"/>
<rect x="50" y="72.6001" width="18" height="9.3" rx="0.62069" fill="#5E609C"/>
<path fill-rule="evenodd" clip-rule="evenodd" d="M58.9483 77.2501C59.4453 77.2501 59.8483 76.8472 59.8483 76.3501C59.8483 75.853 59.4453 75.4501 58.9483 75.4501C58.4512 75.4501 58.0483 75.853 58.0483 76.3501C58.0483 76.8472 58.4512 77.2501 58.9483 77.2501ZM59.4364 77.4751H59.5483C60.0451 77.4751 60.4483 77.8984 60.4483 78.4201V78.7126V79.0501H57.4483V78.7126V78.4201C57.4483 77.8984 57.8514 77.4751 58.3483 77.4751H58.4601C58.6094 77.5468 58.7742 77.5876 58.9483 77.5876C59.1224 77.5876 59.2878 77.5468 59.4364 77.4751Z" fill="#393C78"/>
<rect x="72" y="72.6001" width="18" height="9.3" rx="0.62069" fill="#5E609C"/>
<path fill-rule="evenodd" clip-rule="evenodd" d="M80.9483 77.2501C81.4453 77.2501 81.8483 76.8472 81.8483 76.3501C81.8483 75.853 81.4453 75.4501 80.9483 75.4501C80.4512 75.4501 80.0483 75.853 80.0483 76.3501C80.0483 76.8472 80.4512 77.2501 80.9483 77.2501ZM81.4364 77.4751H81.5483C82.0451 77.4751 82.4483 77.8984 82.4483 78.4201V78.7126V79.0501H79.4483V78.7126V78.4201C79.4483 77.8984 79.8514 77.4751 80.3483 77.4751H80.4601C80.6094 77.5468 80.7742 77.5876 80.9483 77.5876C81.1224 77.5876 81.2878 77.5468 81.4364 77.4751Z" fill="#393C78"/>
<rect x="94" y="72.6001" width="18" height="9.3" rx="0.62069" fill="#5E609C"/>
<path fill-rule="evenodd" clip-rule="evenodd" d="M102.948 77.2501C103.445 77.2501 103.848 76.8472 103.848 76.3501C103.848 75.853 103.445 75.4501 102.948 75.4501C102.451 75.4501 102.048 75.853 102.048 76.3501C102.048 76.8472 102.451 77.2501 102.948 77.2501ZM103.436 77.4751H103.548C104.045 77.4751 104.448 77.8984 104.448 78.4201V78.7126V79.0501H101.448V78.7126V78.4201C101.448 77.8984 101.851 77.4751 102.348 77.4751H102.46C102.609 77.5468 102.774 77.5876 102.948 77.5876C103.122 77.5876 103.288 77.5468 103.436 77.4751Z" fill="#393C78"/>
<rect x="116" y="72.6001" width="18" height="9.3" rx="0.62069" fill="#5E609C"/>
<path fill-rule="evenodd" clip-rule="evenodd" d="M124.948 77.2501C125.445 77.2501 125.848 76.8472 125.848 76.3501C125.848 75.853 125.445 75.4501 124.948 75.4501C124.451 75.4501 124.048 75.853 124.048 76.3501C124.048 76.8472 124.451 77.2501 124.948 77.2501ZM125.436 77.4751H125.548C126.045 77.4751 126.448 77.8984 126.448 78.4201V78.7126V79.0501H123.448V78.7126V78.4201C123.448 77.8984 123.851 77.4751 124.348 77.4751H124.46C124.609 77.5468 124.774 77.5876 124.948 77.5876C125.122 77.5876 125.288 77.5468 125.436 77.4751Z" fill="#393C78"/>
<rect x="39" y="6" width="62" height="36" rx="2.13793" fill="#5E609C"/>
<path fill-rule="evenodd" clip-rule="evenodd" d="M69.9999 24C71.7711 24 73.2068 22.5642 73.2068 20.7931C73.2068 19.022 71.7711 17.5862 69.9999 17.5862C68.2288 17.5862 66.793 19.022 66.793 20.7931C66.793 22.5642 68.2288 24 69.9999 24ZM71.7394 24.8017H72.1379C73.9084 24.8017 75.3448 26.3099 75.3448 28.1689V29.2112V30.4138H64.6552V29.2112V28.1689C64.6552 26.3099 66.0916 24.8017 67.8621 24.8017H68.2605C68.7926 25.0572 69.3796 25.2026 70 25.2026C70.6204 25.2026 71.2097 25.0572 71.7394 24.8017Z" fill="#393C78"/>
</svg>
