<svg width="140" height="88" viewBox="0 0 140 88" fill="none" xmlns="http://www.w3.org/2000/svg">
<g clip-path="url(#clip0_16_1904)">
<g clip-path="url(#clip1_16_1904)">
<rect x="6" y="6" width="29" height="16" rx="1" fill="#5E609C"/>
<rect x="6" y="26" width="29" height="16" rx="1" fill="#5E609C"/>
<rect x="6" y="46" width="29" height="16" rx="1" fill="#5E609C"/>
<rect x="6" y="66" width="29" height="16" rx="1" fill="#5E609C"/>
<rect x="39" y="6" width="29" height="16" rx="1" fill="#5E609C"/>
<rect x="39" y="26" width="29" height="16" rx="1" fill="#5E609C"/>
<rect x="39" y="46" width="29" height="16" rx="1" fill="#5E609C"/>
<rect x="39" y="66" width="29" height="16" rx="1" fill="#5E609C"/>
<rect x="72" y="6" width="29" height="16" rx="1" fill="#5E609C"/>
<rect x="72" y="26" width="29" height="16" rx="1" fill="#5E609C"/>
<rect x="72" y="46" width="29" height="16" rx="1" fill="#5E609C"/>
<rect x="72" y="66" width="29" height="16" rx="1" fill="#5E609C"/>
<rect x="105" y="6" width="29" height="16" rx="1" fill="#5E609C"/>
<rect x="105" y="26" width="29" height="16" rx="1" fill="#5E609C"/>
<rect x="105" y="46" width="29" height="16" rx="1" fill="#5E609C"/>
<rect x="105" y="66" width="29" height="16" rx="1" fill="#5E609C"/>
</g>
<path d="M21.9823 9.696C21.9823 11.064 21.9823 12.448 21.9823 13.848C21.9823 15.248 21.9823 16.632 21.9823 18C21.6383 18 21.2903 18 20.9383 18C20.5863 18 20.2343 18 19.8823 18C19.8823 17.024 19.8823 16.04 19.8823 15.048C19.8823 14.048 19.8823 13.064 19.8823 12.096C19.6503 12.144 19.4143 12.196 19.1743 12.252C18.9423 12.3 18.7103 12.348 18.4783 12.396C18.4783 12.076 18.4783 11.752 18.4783 11.424C18.4783 11.096 18.4783 10.772 18.4783 10.452C19.0543 10.324 19.6383 10.2 20.2303 10.08C20.8223 9.952 21.4063 9.824 21.9823 9.696Z" fill="#393C78"/>
<path d="M18.0247 34.58C18.0967 33.796 18.1687 33.004 18.2407 32.204C18.3127 31.404 18.3847 30.616 18.4567 29.84C19.1927 29.84 19.9407 29.84 20.7007 29.84C21.4607 29.84 22.2087 29.84 22.9447 29.84C22.9447 30.152 22.9447 30.472 22.9447 30.8C22.9447 31.12 22.9447 31.436 22.9447 31.748C22.5047 31.748 22.0567 31.748 21.6007 31.748C21.1447 31.748 20.6927 31.748 20.2447 31.748C20.2287 31.9 20.2087 32.06 20.1847 32.228C20.1607 32.388 20.1407 32.548 20.1247 32.708C20.8047 32.7 21.3847 32.796 21.8647 32.996C22.3527 33.196 22.7247 33.492 22.9807 33.884C23.2447 34.276 23.3767 34.764 23.3767 35.348C23.3767 35.972 23.2287 36.488 22.9327 36.896C22.6367 37.296 22.2327 37.596 21.7207 37.796C21.2167 37.988 20.6367 38.08 19.9807 38.072C19.3327 38.064 18.6487 37.956 17.9287 37.748C17.9287 37.42 17.9287 37.088 17.9287 36.752C17.9287 36.408 17.9287 36.072 17.9287 35.744C18.5927 35.952 19.1767 36.088 19.6807 36.152C20.1927 36.208 20.5927 36.176 20.8807 36.056C21.1687 35.936 21.3127 35.72 21.3127 35.408C21.3127 35.096 21.1647 34.864 20.8687 34.712C20.5807 34.56 20.1887 34.476 19.6927 34.46C19.1967 34.436 18.6407 34.476 18.0247 34.58Z" fill="#393C78"/>
<path d="M17.9471 55.732C18.3631 55.924 18.7751 56.048 19.1831 56.104C19.5911 56.152 19.9631 56.136 20.2991 56.056C20.6351 55.968 20.9071 55.816 21.1151 55.6C21.3311 55.376 21.4551 55.088 21.4871 54.736C21.1991 54.96 20.8711 55.112 20.5031 55.192C20.1431 55.272 19.7791 55.28 19.4111 55.216C19.0431 55.152 18.6991 55.016 18.3791 54.808C18.0671 54.592 17.8151 54.304 17.6231 53.944C17.4311 53.576 17.3351 53.132 17.3351 52.612C17.3351 52.196 17.4071 51.812 17.5511 51.46C17.6951 51.1 17.8991 50.788 18.1631 50.524C18.4351 50.252 18.7591 50.044 19.1351 49.9C19.5111 49.748 19.9311 49.672 20.3951 49.672C20.8591 49.672 21.2831 49.756 21.6671 49.924C22.0591 50.092 22.3951 50.344 22.6751 50.68C22.9631 51.008 23.1831 51.42 23.3351 51.916C23.4951 52.412 23.5751 52.988 23.5751 53.644C23.5751 54.348 23.4871 54.972 23.3111 55.516C23.1351 56.052 22.8831 56.508 22.5551 56.884C22.2271 57.252 21.8311 57.536 21.3671 57.736C20.9031 57.928 20.3831 58.032 19.8071 58.048C19.2311 58.064 18.6111 57.984 17.9471 57.808C17.9471 57.464 17.9471 57.12 17.9471 56.776C17.9471 56.424 17.9471 56.076 17.9471 55.732ZM20.4071 51.556C20.1111 51.556 19.8711 51.652 19.6871 51.844C19.5031 52.028 19.4111 52.272 19.4111 52.576C19.4111 52.88 19.5031 53.128 19.6871 53.32C19.8711 53.504 20.1111 53.596 20.4071 53.596C20.6951 53.596 20.9271 53.508 21.1031 53.332C21.2871 53.148 21.3791 52.908 21.3791 52.612C21.3791 52.3 21.2871 52.048 21.1031 51.856C20.9271 51.656 20.6951 51.556 20.4071 51.556Z" fill="#393C78"/>
<path d="M18.8475 69.696C18.8475 71.064 18.8475 72.448 18.8475 73.848C18.8475 75.248 18.8475 76.632 18.8475 78C18.5035 78 18.1555 78 17.8035 78C17.4515 78 17.0995 78 16.7475 78C16.7475 77.024 16.7475 76.04 16.7475 75.048C16.7475 74.048 16.7475 73.064 16.7475 72.096C16.5155 72.144 16.2795 72.196 16.0395 72.252C15.8075 72.3 15.5755 72.348 15.3435 72.396C15.3435 72.076 15.3435 71.752 15.3435 71.424C15.3435 71.096 15.3435 70.772 15.3435 70.452C15.9195 70.324 16.5035 70.2 17.0955 70.08C17.6875 69.952 18.2715 69.824 18.8475 69.696ZM20.707 73.356C21.043 73.092 21.379 72.824 21.715 72.552C22.059 72.28 22.399 72.012 22.735 71.748C22.327 71.748 21.911 71.748 21.487 71.748C21.071 71.748 20.659 71.748 20.251 71.748C20.251 71.436 20.251 71.12 20.251 70.8C20.251 70.472 20.251 70.152 20.251 69.84C21.091 69.84 21.935 69.84 22.783 69.84C23.639 69.84 24.487 69.84 25.327 69.84C25.327 70.152 25.327 70.472 25.327 70.8C25.327 71.12 25.327 71.436 25.327 71.748C25.039 71.98 24.751 72.216 24.463 72.456C24.175 72.696 23.887 72.932 23.599 73.164C24.255 73.292 24.759 73.564 25.111 73.98C25.471 74.388 25.651 74.904 25.651 75.528C25.651 76.12 25.507 76.608 25.219 76.992C24.931 77.376 24.535 77.66 24.031 77.844C23.527 78.028 22.947 78.112 22.291 78.096C21.643 78.08 20.955 77.964 20.227 77.748C20.227 77.42 20.227 77.088 20.227 76.752C20.227 76.408 20.227 76.072 20.227 75.744C20.811 75.952 21.359 76.084 21.871 76.14C22.383 76.196 22.795 76.176 23.107 76.08C23.427 75.976 23.587 75.796 23.587 75.54C23.587 75.292 23.463 75.104 23.215 74.976C22.967 74.848 22.623 74.768 22.183 74.736C21.751 74.696 21.259 74.7 20.707 74.748C20.707 74.516 20.707 74.284 20.707 74.052C20.707 73.812 20.707 73.58 20.707 73.356Z" fill="#393C78"/>
<path d="M50.8472 18C50.8472 17.688 50.8472 17.372 50.8472 17.052C50.8472 16.724 50.8472 16.404 50.8472 16.092C51.1672 15.788 51.4872 15.48 51.8072 15.168C52.1272 14.848 52.4472 14.536 52.7672 14.232C53.1352 13.872 53.4152 13.584 53.6072 13.368C53.7992 13.144 53.9312 12.956 54.0032 12.804C54.0832 12.652 54.1232 12.512 54.1232 12.384C54.1232 12.12 53.9712 11.932 53.6672 11.82C53.3632 11.7 52.9712 11.664 52.4912 11.712C52.0112 11.76 51.4992 11.892 50.9552 12.108C50.9552 11.78 50.9552 11.448 50.9552 11.112C50.9552 10.768 50.9552 10.432 50.9552 10.104C51.7552 9.84 52.4792 9.708 53.1272 9.708C53.7832 9.708 54.3432 9.816 54.8072 10.032C55.2792 10.24 55.6392 10.532 55.8872 10.908C56.1432 11.284 56.2712 11.72 56.2712 12.216C56.2712 12.712 56.1392 13.18 55.8752 13.62C55.6112 14.052 55.2072 14.532 54.6632 15.06C54.4872 15.228 54.3112 15.4 54.1352 15.576C53.9592 15.752 53.7832 15.924 53.6072 16.092C54.0392 16.092 54.4712 16.092 54.9032 16.092C55.3432 16.092 55.7792 16.092 56.2112 16.092C56.2112 16.404 56.2112 16.724 56.2112 17.052C56.2112 17.372 56.2112 17.688 56.2112 18C55.3232 18 54.4272 18 53.5232 18C52.6272 18 51.7352 18 50.8472 18Z" fill="#393C78"/>
<path d="M56.0471 32.096C55.6311 31.904 55.2191 31.784 54.8111 31.736C54.4031 31.68 54.0311 31.696 53.6951 31.784C53.3591 31.864 53.0831 32.016 52.8671 32.24C52.6591 32.456 52.5391 32.74 52.5071 33.092C52.7951 32.868 53.1191 32.716 53.4791 32.636C53.8471 32.556 54.2151 32.548 54.5831 32.612C54.9511 32.676 55.2911 32.816 55.6031 33.032C55.9231 33.24 56.1791 33.528 56.3711 33.896C56.5631 34.256 56.6591 34.696 56.6591 35.216C56.6591 35.632 56.5871 36.02 56.4431 36.38C56.2991 36.732 56.0911 37.044 55.8191 37.316C55.5551 37.58 55.2351 37.788 54.8591 37.94C54.4831 38.084 54.0631 38.156 53.5991 38.156C53.1351 38.156 52.7071 38.072 52.3151 37.904C51.9311 37.736 51.5951 37.488 51.3071 37.16C51.0271 36.824 50.8071 36.408 50.6471 35.912C50.4951 35.416 50.4191 34.84 50.4191 34.184C50.4191 33.48 50.5071 32.86 50.6831 32.324C50.8591 31.78 51.1111 31.324 51.4391 30.956C51.7671 30.58 52.1631 30.296 52.6271 30.104C53.0911 29.904 53.6111 29.796 54.1871 29.78C54.7631 29.764 55.3831 29.844 56.0471 30.02C56.0471 30.364 56.0471 30.712 56.0471 31.064C56.0471 31.408 56.0471 31.752 56.0471 32.096ZM53.5871 36.272C53.8831 36.272 54.1231 36.176 54.3071 35.984C54.4911 35.792 54.5831 35.548 54.5831 35.252C54.5831 34.948 54.4911 34.704 54.3071 34.52C54.1231 34.328 53.8831 34.232 53.5871 34.232C53.2991 34.232 53.0631 34.324 52.8791 34.508C52.7031 34.684 52.6151 34.92 52.6151 35.216C52.6151 35.528 52.7031 35.784 52.8791 35.984C53.0631 36.176 53.2991 36.272 53.5871 36.272Z" fill="#393C78"/>
<path d="M51.1034 49.696C51.1034 51.064 51.1034 52.448 51.1034 53.848C51.1034 55.248 51.1034 56.632 51.1034 58C50.7594 58 50.4114 58 50.0594 58C49.7074 58 49.3554 58 49.0034 58C49.0034 57.024 49.0034 56.04 49.0034 55.048C49.0034 54.048 49.0034 53.064 49.0034 52.096C48.7714 52.144 48.5354 52.196 48.2954 52.252C48.0634 52.3 47.8314 52.348 47.5994 52.396C47.5994 52.076 47.5994 51.752 47.5994 51.424C47.5994 51.096 47.5994 50.772 47.5994 50.452C48.1754 50.324 48.7594 50.2 49.3514 50.08C49.9434 49.952 50.5274 49.824 51.1034 49.696ZM55.7588 58.168C55.2308 58.168 54.7468 58.064 54.3068 57.856C53.8668 57.64 53.4868 57.34 53.1668 56.956C52.8548 56.572 52.6108 56.12 52.4348 55.6C52.2668 55.08 52.1828 54.516 52.1828 53.908C52.1828 53.3 52.2668 52.74 52.4348 52.228C52.6108 51.708 52.8548 51.26 53.1668 50.884C53.4868 50.5 53.8668 50.204 54.3068 49.996C54.7468 49.78 55.2308 49.672 55.7588 49.672C56.2868 49.672 56.7668 49.78 57.1988 49.996C57.6388 50.204 58.0188 50.5 58.3388 50.884C58.6588 51.26 58.9028 51.708 59.0708 52.228C59.2468 52.74 59.3348 53.3 59.3348 53.908C59.3348 54.516 59.2468 55.08 59.0708 55.6C58.9028 56.12 58.6588 56.572 58.3388 56.956C58.0188 57.34 57.6388 57.64 57.1988 57.856C56.7668 58.064 56.2868 58.168 55.7588 58.168ZM55.7588 56.188C56.0788 56.188 56.3468 56.096 56.5628 55.912C56.7868 55.72 56.9588 55.452 57.0788 55.108C57.1988 54.764 57.2588 54.364 57.2588 53.908C57.2588 53.452 57.1988 53.056 57.0788 52.72C56.9588 52.376 56.7868 52.112 56.5628 51.928C56.3468 51.744 56.0788 51.652 55.7588 51.652C55.4468 51.652 55.1788 51.744 54.9548 51.928C54.7308 52.112 54.5588 52.372 54.4388 52.708C54.3188 53.044 54.2588 53.444 54.2588 53.908C54.2588 54.364 54.3188 54.764 54.4388 55.108C54.5588 55.452 54.7308 55.72 54.9548 55.912C55.1788 56.096 55.4468 56.188 55.7588 56.188Z" fill="#393C78"/>
<path d="M51.4842 69.696C51.4842 71.064 51.4842 72.448 51.4842 73.848C51.4842 75.248 51.4842 76.632 51.4842 78C51.1402 78 50.7922 78 50.4402 78C50.0882 78 49.7362 78 49.3842 78C49.3842 77.024 49.3842 76.04 49.3842 75.048C49.3842 74.048 49.3842 73.064 49.3842 72.096C49.1522 72.144 48.9162 72.196 48.6762 72.252C48.4442 72.3 48.2122 72.348 47.9802 72.396C47.9802 72.076 47.9802 71.752 47.9802 71.424C47.9802 71.096 47.9802 70.772 47.9802 70.452C48.5562 70.324 49.1402 70.2 49.7322 70.08C50.3242 69.952 50.9082 69.824 51.4842 69.696ZM52.5637 76.452C52.5637 76.14 52.5637 75.824 52.5637 75.504C52.5637 75.176 52.5637 74.856 52.5637 74.544C52.9637 73.768 53.3677 72.984 53.7757 72.192C54.1837 71.4 54.5837 70.616 54.9757 69.84C55.4877 69.84 55.9997 69.84 56.5117 69.84C57.0317 69.84 57.5477 69.84 58.0597 69.84C58.0597 70.616 58.0597 71.4 58.0597 72.192C58.0597 72.984 58.0597 73.768 58.0597 74.544C58.2437 74.544 58.4317 74.544 58.6237 74.544C58.8237 74.544 59.0157 74.544 59.1997 74.544C59.1997 74.856 59.1997 75.176 59.1997 75.504C59.1997 75.824 59.1997 76.14 59.1997 76.452C59.0157 76.452 58.8237 76.452 58.6237 76.452C58.4317 76.452 58.2437 76.452 58.0597 76.452C58.0597 76.708 58.0597 76.968 58.0597 77.232C58.0597 77.488 58.0597 77.744 58.0597 78C57.7237 78 57.3797 78 57.0277 78C56.6837 78 56.3437 78 56.0077 78C56.0077 77.744 56.0077 77.488 56.0077 77.232C56.0077 76.968 56.0077 76.708 56.0077 76.452C55.4397 76.452 54.8637 76.452 54.2797 76.452C53.7037 76.452 53.1317 76.452 52.5637 76.452ZM54.7237 74.544C54.9317 74.544 55.1437 74.544 55.3597 74.544C55.5837 74.544 55.7997 74.544 56.0077 74.544C56.0077 74.096 56.0077 73.64 56.0077 73.176C56.0077 72.712 56.0077 72.256 56.0077 71.808C55.7997 72.256 55.5837 72.712 55.3597 73.176C55.1437 73.64 54.9317 74.096 54.7237 74.544Z" fill="#393C78"/>
<path d="M84.4452 13.356C84.7812 13.092 85.1172 12.824 85.4532 12.552C85.7972 12.28 86.1372 12.012 86.4732 11.748C86.0652 11.748 85.6492 11.748 85.2252 11.748C84.8092 11.748 84.3972 11.748 83.9892 11.748C83.9892 11.436 83.9892 11.12 83.9892 10.8C83.9892 10.472 83.9892 10.152 83.9892 9.84C84.8292 9.84 85.6732 9.84 86.5212 9.84C87.3772 9.84 88.2252 9.84 89.0652 9.84C89.0652 10.152 89.0652 10.472 89.0652 10.8C89.0652 11.12 89.0652 11.436 89.0652 11.748C88.7772 11.98 88.4892 12.216 88.2012 12.456C87.9132 12.696 87.6252 12.932 87.3372 13.164C87.9932 13.292 88.4972 13.564 88.8492 13.98C89.2092 14.388 89.3892 14.904 89.3892 15.528C89.3892 16.12 89.2452 16.608 88.9572 16.992C88.6692 17.376 88.2732 17.66 87.7692 17.844C87.2652 18.028 86.6852 18.112 86.0292 18.096C85.3812 18.08 84.6932 17.964 83.9652 17.748C83.9652 17.42 83.9652 17.088 83.9652 16.752C83.9652 16.408 83.9652 16.072 83.9652 15.744C84.5492 15.952 85.0972 16.084 85.6092 16.14C86.1212 16.196 86.5332 16.176 86.8452 16.08C87.1652 15.976 87.3252 15.796 87.3252 15.54C87.3252 15.292 87.2012 15.104 86.9532 14.976C86.7052 14.848 86.3612 14.768 85.9212 14.736C85.4892 14.696 84.9972 14.7 84.4452 14.748C84.4452 14.516 84.4452 14.284 84.4452 14.052C84.4452 13.812 84.4452 13.58 84.4452 13.356Z" fill="#393C78"/>
<path d="M89.2268 29.84C89.2268 30.152 89.2268 30.472 89.2268 30.8C89.2268 31.12 89.2268 31.436 89.2268 31.748C88.7708 32.78 88.3108 33.824 87.8468 34.88C87.3908 35.928 86.9348 36.968 86.4788 38C86.1268 38 85.7668 38 85.3988 38C85.0308 38 84.6708 38 84.3188 38C84.7748 36.968 85.2308 35.928 85.6868 34.88C86.1508 33.824 86.6108 32.78 87.0668 31.748C86.5308 31.748 85.9828 31.748 85.4228 31.748C84.8708 31.748 84.3228 31.748 83.7788 31.748C83.7788 31.436 83.7788 31.12 83.7788 30.8C83.7788 30.472 83.7788 30.152 83.7788 29.84C84.6828 29.84 85.5908 29.84 86.5028 29.84C87.4228 29.84 88.3308 29.84 89.2268 29.84Z" fill="#393C78"/>
<path d="M85.7206 49.696C85.7206 51.064 85.7206 52.448 85.7206 53.848C85.7206 55.248 85.7206 56.632 85.7206 58C85.3766 58 85.0286 58 84.6766 58C84.3246 58 83.9726 58 83.6206 58C83.6206 57.024 83.6206 56.04 83.6206 55.048C83.6206 54.048 83.6206 53.064 83.6206 52.096C83.3886 52.144 83.1526 52.196 82.9126 52.252C82.6806 52.3 82.4486 52.348 82.2166 52.396C82.2166 52.076 82.2166 51.752 82.2166 51.424C82.2166 51.096 82.2166 50.772 82.2166 50.452C82.7926 50.324 83.3766 50.2 83.9686 50.08C84.5606 49.952 85.1446 49.824 85.7206 49.696ZM90.244 49.696C90.244 51.064 90.244 52.448 90.244 53.848C90.244 55.248 90.244 56.632 90.244 58C89.9 58 89.552 58 89.2 58C88.848 58 88.496 58 88.144 58C88.144 57.024 88.144 56.04 88.144 55.048C88.144 54.048 88.144 53.064 88.144 52.096C87.912 52.144 87.676 52.196 87.436 52.252C87.204 52.3 86.972 52.348 86.74 52.396C86.74 52.076 86.74 51.752 86.74 51.424C86.74 51.096 86.74 50.772 86.74 50.452C87.316 50.324 87.9 50.2 88.492 50.08C89.084 49.952 89.668 49.824 90.244 49.696Z" fill="#393C78"/>
<path d="M84.871 69.696C84.871 71.064 84.871 72.448 84.871 73.848C84.871 75.248 84.871 76.632 84.871 78C84.527 78 84.179 78 83.827 78C83.475 78 83.123 78 82.771 78C82.771 77.024 82.771 76.04 82.771 75.048C82.771 74.048 82.771 73.064 82.771 72.096C82.539 72.144 82.303 72.196 82.063 72.252C81.831 72.3 81.599 72.348 81.367 72.396C81.367 72.076 81.367 71.752 81.367 71.424C81.367 71.096 81.367 70.772 81.367 70.452C81.943 70.324 82.527 70.2 83.119 70.08C83.711 69.952 84.295 69.824 84.871 69.696ZM86.2864 74.58C86.3584 73.796 86.4304 73.004 86.5024 72.204C86.5744 71.404 86.6464 70.616 86.7184 69.84C87.4544 69.84 88.2024 69.84 88.9624 69.84C89.7224 69.84 90.4704 69.84 91.2064 69.84C91.2064 70.152 91.2064 70.472 91.2064 70.8C91.2064 71.12 91.2064 71.436 91.2064 71.748C90.7664 71.748 90.3184 71.748 89.8624 71.748C89.4064 71.748 88.9544 71.748 88.5064 71.748C88.4904 71.9 88.4704 72.06 88.4464 72.228C88.4224 72.388 88.4024 72.548 88.3864 72.708C89.0664 72.7 89.6464 72.796 90.1264 72.996C90.6144 73.196 90.9864 73.492 91.2424 73.884C91.5064 74.276 91.6384 74.764 91.6384 75.348C91.6384 75.972 91.4904 76.488 91.1944 76.896C90.8984 77.296 90.4944 77.596 89.9824 77.796C89.4784 77.988 88.8984 78.08 88.2424 78.072C87.5944 78.064 86.9104 77.956 86.1904 77.748C86.1904 77.42 86.1904 77.088 86.1904 76.752C86.1904 76.408 86.1904 76.072 86.1904 75.744C86.8544 75.952 87.4384 76.088 87.9424 76.152C88.4544 76.208 88.8544 76.176 89.1424 76.056C89.4304 75.936 89.5744 75.72 89.5744 75.408C89.5744 75.096 89.4264 74.864 89.1304 74.712C88.8424 74.56 88.4504 74.476 87.9544 74.46C87.4584 74.436 86.9024 74.476 86.2864 74.58Z" fill="#393C78"/>
<path d="M116.302 16.452C116.302 16.14 116.302 15.824 116.302 15.504C116.302 15.176 116.302 14.856 116.302 14.544C116.702 13.768 117.106 12.984 117.514 12.192C117.922 11.4 118.322 10.616 118.714 9.84C119.226 9.84 119.738 9.84 120.25 9.84C120.77 9.84 121.286 9.84 121.798 9.84C121.798 10.616 121.798 11.4 121.798 12.192C121.798 12.984 121.798 13.768 121.798 14.544C121.982 14.544 122.17 14.544 122.362 14.544C122.562 14.544 122.754 14.544 122.938 14.544C122.938 14.856 122.938 15.176 122.938 15.504C122.938 15.824 122.938 16.14 122.938 16.452C122.754 16.452 122.562 16.452 122.362 16.452C122.17 16.452 121.982 16.452 121.798 16.452C121.798 16.708 121.798 16.968 121.798 17.232C121.798 17.488 121.798 17.744 121.798 18C121.462 18 121.118 18 120.766 18C120.422 18 120.082 18 119.746 18C119.746 17.744 119.746 17.488 119.746 17.232C119.746 16.968 119.746 16.708 119.746 16.452C119.178 16.452 118.602 16.452 118.018 16.452C117.442 16.452 116.87 16.452 116.302 16.452ZM118.462 14.544C118.67 14.544 118.882 14.544 119.098 14.544C119.322 14.544 119.538 14.544 119.746 14.544C119.746 14.096 119.746 13.64 119.746 13.176C119.746 12.712 119.746 12.256 119.746 11.808C119.538 12.256 119.322 12.712 119.098 13.176C118.882 13.64 118.67 14.096 118.462 14.544Z" fill="#393C78"/>
<path d="M119.515 38.18C118.931 38.18 118.407 38.076 117.943 37.868C117.479 37.652 117.111 37.352 116.839 36.968C116.575 36.584 116.443 36.136 116.443 35.624C116.443 35.2 116.531 34.832 116.707 34.52C116.891 34.208 117.139 33.956 117.451 33.764C117.187 33.58 116.979 33.352 116.827 33.08C116.683 32.808 116.611 32.488 116.611 32.12C116.611 31.64 116.735 31.216 116.983 30.848C117.239 30.48 117.587 30.192 118.027 29.984C118.467 29.768 118.963 29.66 119.515 29.66C120.067 29.66 120.559 29.768 120.991 29.984C121.431 30.192 121.775 30.48 122.023 30.848C122.271 31.216 122.395 31.64 122.395 32.12C122.395 32.488 122.319 32.808 122.167 33.08C122.023 33.352 121.823 33.58 121.567 33.764C121.871 33.956 122.111 34.208 122.287 34.52C122.471 34.832 122.563 35.2 122.563 35.624C122.563 36.136 122.427 36.584 122.155 36.968C121.891 37.352 121.531 37.652 121.075 37.868C120.619 38.076 120.099 38.18 119.515 38.18ZM119.515 32.996C119.771 32.996 119.975 32.924 120.127 32.78C120.279 32.636 120.355 32.452 120.355 32.228C120.355 32.012 120.279 31.836 120.127 31.7C119.975 31.564 119.771 31.496 119.515 31.496C119.259 31.496 119.051 31.564 118.891 31.7C118.731 31.836 118.651 32.012 118.651 32.228C118.651 32.452 118.731 32.636 118.891 32.78C119.059 32.924 119.267 32.996 119.515 32.996ZM119.515 36.344C119.795 36.344 120.027 36.26 120.211 36.092C120.395 35.924 120.487 35.712 120.487 35.456C120.487 35.184 120.395 34.968 120.211 34.808C120.027 34.64 119.795 34.556 119.515 34.556C119.235 34.556 118.999 34.64 118.807 34.808C118.615 34.968 118.519 35.184 118.519 35.456C118.519 35.712 118.615 35.924 118.807 36.092C118.999 36.26 119.235 36.344 119.515 36.344Z" fill="#393C78"/>
<path d="M117.765 49.696C117.765 51.064 117.765 52.448 117.765 53.848C117.765 55.248 117.765 56.632 117.765 58C117.421 58 117.073 58 116.721 58C116.369 58 116.017 58 115.665 58C115.665 57.024 115.665 56.04 115.665 55.048C115.665 54.048 115.665 53.064 115.665 52.096C115.433 52.144 115.197 52.196 114.957 52.252C114.725 52.3 114.493 52.348 114.261 52.396C114.261 52.076 114.261 51.752 114.261 51.424C114.261 51.096 114.261 50.772 114.261 50.452C114.837 50.324 115.421 50.2 116.013 50.08C116.605 49.952 117.189 49.824 117.765 49.696ZM119.109 58C119.109 57.688 119.109 57.372 119.109 57.052C119.109 56.724 119.109 56.404 119.109 56.092C119.429 55.788 119.749 55.48 120.069 55.168C120.389 54.848 120.709 54.536 121.029 54.232C121.397 53.872 121.677 53.584 121.869 53.368C122.061 53.144 122.193 52.956 122.265 52.804C122.345 52.652 122.385 52.512 122.385 52.384C122.385 52.12 122.233 51.932 121.929 51.82C121.625 51.7 121.233 51.664 120.753 51.712C120.273 51.76 119.761 51.892 119.217 52.108C119.217 51.78 119.217 51.448 119.217 51.112C119.217 50.768 119.217 50.432 119.217 50.104C120.017 49.84 120.741 49.708 121.389 49.708C122.045 49.708 122.605 49.816 123.069 50.032C123.541 50.24 123.901 50.532 124.149 50.908C124.405 51.284 124.533 51.72 124.533 52.216C124.533 52.712 124.401 53.18 124.137 53.62C123.873 54.052 123.469 54.532 122.925 55.06C122.749 55.228 122.573 55.4 122.397 55.576C122.221 55.752 122.045 55.924 121.869 56.092C122.301 56.092 122.733 56.092 123.165 56.092C123.605 56.092 124.041 56.092 124.473 56.092C124.473 56.404 124.473 56.724 124.473 57.052C124.473 57.372 124.473 57.688 124.473 58C123.585 58 122.689 58 121.785 58C120.889 58 119.997 58 119.109 58Z" fill="#393C78"/>
<path d="M117.601 69.696C117.601 71.064 117.601 72.448 117.601 73.848C117.601 75.248 117.601 76.632 117.601 78C117.257 78 116.909 78 116.557 78C116.205 78 115.853 78 115.501 78C115.501 77.024 115.501 76.04 115.501 75.048C115.501 74.048 115.501 73.064 115.501 72.096C115.269 72.144 115.033 72.196 114.793 72.252C114.561 72.3 114.329 72.348 114.097 72.396C114.097 72.076 114.097 71.752 114.097 71.424C114.097 71.096 114.097 70.772 114.097 70.452C114.673 70.324 115.257 70.2 115.849 70.08C116.441 69.952 117.025 69.824 117.601 69.696ZM124.309 72.096C123.893 71.904 123.481 71.784 123.073 71.736C122.665 71.68 122.293 71.696 121.957 71.784C121.621 71.864 121.345 72.016 121.129 72.24C120.921 72.456 120.801 72.74 120.769 73.092C121.057 72.868 121.381 72.716 121.741 72.636C122.109 72.556 122.477 72.548 122.845 72.612C123.213 72.676 123.553 72.816 123.865 73.032C124.185 73.24 124.441 73.528 124.633 73.896C124.825 74.256 124.921 74.696 124.921 75.216C124.921 75.632 124.849 76.02 124.705 76.38C124.561 76.732 124.353 77.044 124.081 77.316C123.817 77.58 123.497 77.788 123.121 77.94C122.745 78.084 122.325 78.156 121.861 78.156C121.397 78.156 120.969 78.072 120.577 77.904C120.193 77.736 119.857 77.488 119.569 77.16C119.289 76.824 119.069 76.408 118.909 75.912C118.757 75.416 118.681 74.84 118.681 74.184C118.681 73.48 118.769 72.86 118.945 72.324C119.121 71.78 119.373 71.324 119.701 70.956C120.029 70.58 120.425 70.296 120.889 70.104C121.353 69.904 121.873 69.796 122.449 69.78C123.025 69.764 123.645 69.844 124.309 70.02C124.309 70.364 124.309 70.712 124.309 71.064C124.309 71.408 124.309 71.752 124.309 72.096ZM121.849 76.272C122.145 76.272 122.385 76.176 122.569 75.984C122.753 75.792 122.845 75.548 122.845 75.252C122.845 74.948 122.753 74.704 122.569 74.52C122.385 74.328 122.145 74.232 121.849 74.232C121.561 74.232 121.325 74.324 121.141 74.508C120.965 74.684 120.877 74.92 120.877 75.216C120.877 75.528 120.965 75.784 121.141 75.984C121.325 76.176 121.561 76.272 121.849 76.272Z" fill="#393C78"/>
</g>
<defs>
<clipPath id="clip0_16_1904">
<rect width="140" height="88" rx="3" fill="white"/>
</clipPath>
<clipPath id="clip1_16_1904">
<rect width="140" height="88" rx="3" fill="white"/>
</clipPath>
</defs>
</svg>
