<svg width="140" height="88" viewBox="0 0 140 88" fill="none" xmlns="http://www.w3.org/2000/svg">
<g clip-path="url(#clip0_16_1889)">
<rect x="6" y="6" width="128" height="76" rx="4" fill="#5E609C"/>
<path d="M72.9646 36.392C72.9646 39.128 72.9646 41.896 72.9646 44.696C72.9646 47.496 72.9646 50.264 72.9646 53C72.2766 53 71.5806 53 70.8766 53C70.1726 53 69.4686 53 68.7646 53C68.7646 51.048 68.7646 49.08 68.7646 47.096C68.7646 45.096 68.7646 43.128 68.7646 41.192C68.3006 41.288 67.8286 41.392 67.3486 41.504C66.8846 41.6 66.4206 41.696 65.9566 41.792C65.9566 41.152 65.9566 40.504 65.9566 39.848C65.9566 39.192 65.9566 38.544 65.9566 37.904C67.1086 37.648 68.2766 37.4 69.4606 37.16C70.6446 36.904 71.8126 36.648 72.9646 36.392Z" fill="#393C78"/>
</g>
<defs>
<clipPath id="clip0_16_1889">
<rect width="140" height="88" rx="3" fill="white"/>
</clipPath>
</defs>
</svg>
