<svg width="140" height="88" viewBox="0 0 140 88" fill="none" xmlns="http://www.w3.org/2000/svg">
<g clip-path="url(#clip0_16_1908)">
<rect x="6" y="46" width="18" height="9.3" rx="0.62069" fill="#5E609C"/>
<rect x="28" y="46" width="18" height="9.3" rx="0.62069" fill="#5E609C"/>
<rect x="50" y="46" width="18" height="9.3" rx="0.62069" fill="#5E609C"/>
<rect x="72" y="46" width="18" height="9.3" rx="0.62069" fill="#5E609C"/>
<rect x="94" y="46" width="18" height="9.3" rx="0.62069" fill="#5E609C"/>
<rect x="116" y="46" width="18" height="9.3" rx="0.62069" fill="#5E609C"/>
<rect x="6" y="59.3" width="18" height="9.3" rx="0.62069" fill="#5E609C"/>
<rect x="28" y="59.3" width="18" height="9.3" rx="0.62069" fill="#5E609C"/>
<rect x="50" y="59.3" width="18" height="9.3" rx="0.62069" fill="#5E609C"/>
<rect x="72" y="59.3" width="18" height="9.3" rx="0.62069" fill="#5E609C"/>
<rect x="94" y="59.3" width="18" height="9.3" rx="0.62069" fill="#5E609C"/>
<rect x="116" y="59.3" width="18" height="9.3" rx="0.62069" fill="#5E609C"/>
<rect x="6" y="72.6001" width="18" height="9.3" rx="0.62069" fill="#5E609C"/>
<rect x="28" y="72.6001" width="18" height="9.3" rx="0.62069" fill="#5E609C"/>
<rect x="50" y="72.6001" width="18" height="9.3" rx="0.62069" fill="#5E609C"/>
<rect x="72" y="72.6001" width="18" height="9.3" rx="0.62069" fill="#5E609C"/>
<rect x="94" y="72.6001" width="18" height="9.3" rx="0.62069" fill="#5E609C"/>
<rect x="116" y="72.6001" width="18" height="9.3" rx="0.62069" fill="#5E609C"/>
<rect x="6" y="6" width="62" height="36" rx="2.13793" fill="#5E609C"/>
<rect x="72" y="6" width="62" height="36" rx="2.13793" fill="#5E609C"/>
<path d="M39.9646 16.392C39.9646 19.128 39.9646 21.896 39.9646 24.696C39.9646 27.496 39.9646 30.264 39.9646 33C39.2766 33 38.5806 33 37.8766 33C37.1726 33 36.4686 33 35.7646 33C35.7646 31.048 35.7646 29.08 35.7646 27.096C35.7646 25.096 35.7646 23.128 35.7646 21.192C35.3006 21.288 34.8286 21.392 34.3486 21.504C33.8846 21.6 33.4206 21.696 32.9566 21.792C32.9566 21.152 32.9566 20.504 32.9566 19.848C32.9566 19.192 32.9566 18.544 32.9566 17.904C34.1086 17.648 35.2766 17.4 36.4606 17.16C37.6446 16.904 38.8126 16.648 39.9646 16.392Z" fill="#393C78"/>
<path d="M97.6944 33C97.6944 32.376 97.6944 31.744 97.6944 31.104C97.6944 30.448 97.6944 29.808 97.6944 29.184C98.3344 28.576 98.9744 27.96 99.6144 27.336C100.254 26.696 100.894 26.072 101.534 25.464C102.27 24.744 102.83 24.168 103.214 23.736C103.598 23.288 103.862 22.912 104.006 22.608C104.166 22.304 104.246 22.024 104.246 21.768C104.246 21.24 103.942 20.864 103.334 20.64C102.726 20.4 101.942 20.328 100.982 20.424C100.022 20.52 98.9984 20.784 97.9104 21.216C97.9104 20.56 97.9104 19.896 97.9104 19.224C97.9104 18.536 97.9104 17.864 97.9104 17.208C99.5104 16.68 100.958 16.416 102.254 16.416C103.566 16.416 104.686 16.632 105.614 17.064C106.558 17.48 107.278 18.064 107.774 18.816C108.286 19.568 108.542 20.44 108.542 21.432C108.542 22.424 108.278 23.36 107.75 24.24C107.222 25.104 106.414 26.064 105.326 27.12C104.974 27.456 104.622 27.8 104.27 28.152C103.918 28.504 103.566 28.848 103.214 29.184C104.078 29.184 104.942 29.184 105.806 29.184C106.686 29.184 107.558 29.184 108.422 29.184C108.422 29.808 108.422 30.448 108.422 31.104C108.422 31.744 108.422 32.376 108.422 33C106.646 33 104.854 33 103.046 33C101.254 33 99.4704 33 97.6944 33Z" fill="#393C78"/>
<path d="M13.6302 49.904C13.8542 49.728 14.0782 49.5493 14.3022 49.368C14.5315 49.1867 14.7582 49.008 14.9822 48.832C14.7102 48.832 14.4328 48.832 14.1502 48.832C13.8728 48.832 13.5982 48.832 13.3262 48.832C13.3262 48.624 13.3262 48.4133 13.3262 48.2C13.3262 47.9813 13.3262 47.768 13.3262 47.56C13.8862 47.56 14.4488 47.56 15.0142 47.56C15.5848 47.56 16.1502 47.56 16.7102 47.56C16.7102 47.768 16.7102 47.9813 16.7102 48.2C16.7102 48.4133 16.7102 48.624 16.7102 48.832C16.5182 48.9867 16.3262 49.144 16.1342 49.304C15.9422 49.464 15.7502 49.6213 15.5582 49.776C15.9955 49.8613 16.3315 50.0427 16.5662 50.32C16.8062 50.592 16.9262 50.936 16.9262 51.352C16.9262 51.7467 16.8302 52.072 16.6382 52.328C16.4462 52.584 16.1822 52.7733 15.8462 52.896C15.5102 53.0187 15.1235 53.0747 14.6862 53.064C14.2542 53.0533 13.7955 52.976 13.3102 52.832C13.3102 52.6133 13.3102 52.392 13.3102 52.168C13.3102 51.9387 13.3102 51.7147 13.3102 51.496C13.6995 51.6347 14.0648 51.7227 14.4062 51.76C14.7475 51.7973 15.0222 51.784 15.2302 51.72C15.4435 51.6507 15.5502 51.5307 15.5502 51.36C15.5502 51.1947 15.4675 51.0693 15.3022 50.984C15.1368 50.8987 14.9075 50.8453 14.6142 50.824C14.3262 50.7973 13.9982 50.8 13.6302 50.832C13.6302 50.6773 13.6302 50.5227 13.6302 50.368C13.6302 50.208 13.6302 50.0533 13.6302 49.904Z" fill="#393C78"/>
<path d="M13.2981 65.488C13.5754 65.616 13.8501 65.6987 14.1221 65.736C14.3941 65.768 14.6421 65.7573 14.8661 65.704C15.0901 65.6453 15.2714 65.544 15.4101 65.4C15.5541 65.2507 15.6368 65.0587 15.6581 64.824C15.4661 64.9733 15.2474 65.0747 15.0021 65.128C14.7621 65.1813 14.5194 65.1867 14.2741 65.144C14.0288 65.1013 13.7994 65.0107 13.5861 64.872C13.3781 64.728 13.2101 64.536 13.0821 64.296C12.9541 64.0507 12.8901 63.7547 12.8901 63.408C12.8901 63.1307 12.9381 62.8747 13.0341 62.64C13.1301 62.4 13.2661 62.192 13.4421 62.016C13.6234 61.8347 13.8394 61.696 14.0901 61.6C14.3408 61.4987 14.6208 61.448 14.9301 61.448C15.2394 61.448 15.5221 61.504 15.7781 61.616C16.0394 61.728 16.2634 61.896 16.4501 62.12C16.6421 62.3387 16.7888 62.6133 16.8901 62.944C16.9968 63.2747 17.0501 63.6587 17.0501 64.096C17.0501 64.5653 16.9914 64.9813 16.8741 65.344C16.7568 65.7013 16.5888 66.0053 16.3701 66.256C16.1514 66.5013 15.8874 66.6907 15.5781 66.824C15.2688 66.952 14.9221 67.0213 14.5381 67.032C14.1541 67.0427 13.7408 66.9893 13.2981 66.872C13.2981 66.6427 13.2981 66.4133 13.2981 66.184C13.2981 65.9493 13.2981 65.7173 13.2981 65.488ZM14.9381 62.704C14.7408 62.704 14.5808 62.768 14.4581 62.896C14.3354 63.0187 14.2741 63.1813 14.2741 63.384C14.2741 63.5867 14.3354 63.752 14.4581 63.88C14.5808 64.0027 14.7408 64.064 14.9381 64.064C15.1301 64.064 15.2848 64.0053 15.4021 63.888C15.5248 63.7653 15.5861 63.6053 15.5861 63.408C15.5861 63.2 15.5248 63.032 15.4021 62.904C15.2848 62.7707 15.1301 62.704 14.9381 62.704Z" fill="#393C78"/>
<path d="M13.914 74.464C13.914 75.376 13.914 76.2987 13.914 77.232C13.914 78.1653 13.914 79.088 13.914 80C13.6846 80 13.4526 80 13.218 80C12.9833 80 12.7486 80 12.514 80C12.514 79.3493 12.514 78.6933 12.514 78.032C12.514 77.3653 12.514 76.7093 12.514 76.064C12.3593 76.096 12.202 76.1307 12.042 76.168C11.8873 76.2 11.7326 76.232 11.578 76.264C11.578 76.0507 11.578 75.8347 11.578 75.616C11.578 75.3973 11.578 75.1813 11.578 74.968C11.962 74.8827 12.3513 74.8 12.746 74.72C13.1406 74.6347 13.53 74.5493 13.914 74.464ZM14.8576 77.72C14.9056 77.1973 14.9536 76.6693 15.0016 76.136C15.0496 75.6027 15.0976 75.0773 15.1456 74.56C15.6363 74.56 16.1349 74.56 16.6416 74.56C17.1483 74.56 17.6469 74.56 18.1376 74.56C18.1376 74.768 18.1376 74.9813 18.1376 75.2C18.1376 75.4133 18.1376 75.624 18.1376 75.832C17.8443 75.832 17.5456 75.832 17.2416 75.832C16.9376 75.832 16.6363 75.832 16.3376 75.832C16.3269 75.9333 16.3136 76.04 16.2976 76.152C16.2816 76.2587 16.2683 76.3653 16.2576 76.472C16.7109 76.4667 17.0976 76.5307 17.4176 76.664C17.7429 76.7973 17.9909 76.9947 18.1616 77.256C18.3376 77.5173 18.4256 77.8427 18.4256 78.232C18.4256 78.648 18.3269 78.992 18.1296 79.264C17.9323 79.5307 17.6629 79.7307 17.3216 79.864C16.9856 79.992 16.5989 80.0533 16.1616 80.048C15.7296 80.0427 15.2736 79.9707 14.7936 79.832C14.7936 79.6133 14.7936 79.392 14.7936 79.168C14.7936 78.9387 14.7936 78.7147 14.7936 78.496C15.2363 78.6347 15.6256 78.7253 15.9616 78.768C16.3029 78.8053 16.5696 78.784 16.7616 78.704C16.9536 78.624 17.0496 78.48 17.0496 78.272C17.0496 78.064 16.9509 77.9093 16.7536 77.808C16.5616 77.7067 16.3003 77.6507 15.9696 77.64C15.6389 77.624 15.2683 77.6507 14.8576 77.72Z" fill="#393C78"/>
<path d="M57.3498 50.72C57.3978 50.1973 57.4458 49.6693 57.4938 49.136C57.5418 48.6027 57.5898 48.0773 57.6378 47.56C58.1284 47.56 58.6271 47.56 59.1338 47.56C59.6404 47.56 60.1391 47.56 60.6298 47.56C60.6298 47.768 60.6298 47.9813 60.6298 48.2C60.6298 48.4133 60.6298 48.624 60.6298 48.832C60.3364 48.832 60.0378 48.832 59.7338 48.832C59.4298 48.832 59.1284 48.832 58.8298 48.832C58.8191 48.9333 58.8058 49.04 58.7898 49.152C58.7738 49.2587 58.7604 49.3653 58.7498 49.472C59.2031 49.4667 59.5898 49.5307 59.9098 49.664C60.2351 49.7973 60.4831 49.9947 60.6538 50.256C60.8298 50.5173 60.9178 50.8427 60.9178 51.232C60.9178 51.648 60.8191 51.992 60.6218 52.264C60.4244 52.5307 60.1551 52.7307 59.8138 52.864C59.4778 52.992 59.0911 53.0533 58.6538 53.048C58.2218 53.0427 57.7658 52.9707 57.2858 52.832C57.2858 52.6133 57.2858 52.392 57.2858 52.168C57.2858 51.9387 57.2858 51.7147 57.2858 51.496C57.7284 51.6347 58.1178 51.7253 58.4538 51.768C58.7951 51.8053 59.0618 51.784 59.2538 51.704C59.4458 51.624 59.5418 51.48 59.5418 51.272C59.5418 51.064 59.4431 50.9093 59.2458 50.808C59.0538 50.7067 58.7924 50.6507 58.4618 50.64C58.1311 50.624 57.7604 50.6507 57.3498 50.72Z" fill="#393C78"/>
<path d="M58.4804 61.464C58.4804 62.376 58.4804 63.2987 58.4804 64.232C58.4804 65.1653 58.4804 66.088 58.4804 67C58.251 67 58.019 67 57.7844 67C57.5497 67 57.315 67 57.0804 67C57.0804 66.3493 57.0804 65.6933 57.0804 65.032C57.0804 64.3653 57.0804 63.7093 57.0804 63.064C56.9257 63.096 56.7684 63.1307 56.6084 63.168C56.4537 63.2 56.299 63.232 56.1444 63.264C56.1444 63.0507 56.1444 62.8347 56.1444 62.616C56.1444 62.3973 56.1444 62.1813 56.1444 61.968C56.5284 61.8827 56.9177 61.8 57.3124 61.72C57.707 61.6347 58.0964 61.5493 58.4804 61.464ZM61.496 61.464C61.496 62.376 61.496 63.2987 61.496 64.232C61.496 65.1653 61.496 66.088 61.496 67C61.2667 67 61.0347 67 60.8 67C60.5653 67 60.3307 67 60.096 67C60.096 66.3493 60.096 65.6933 60.096 65.032C60.096 64.3653 60.096 63.7093 60.096 63.064C59.9413 63.096 59.784 63.1307 59.624 63.168C59.4693 63.2 59.3147 63.232 59.16 63.264C59.16 63.0507 59.16 62.8347 59.16 62.616C59.16 62.3973 59.16 62.1813 59.16 61.968C59.544 61.8827 59.9333 61.8 60.328 61.72C60.7227 61.6347 61.112 61.5493 61.496 61.464Z" fill="#393C78"/>
<path d="M57.9101 74.464C57.9101 75.376 57.9101 76.2987 57.9101 77.232C57.9101 78.1653 57.9101 79.088 57.9101 80C57.6807 80 57.4487 80 57.2141 80C56.9794 80 56.7447 80 56.5101 80C56.5101 79.3493 56.5101 78.6933 56.5101 78.032C56.5101 77.3653 56.5101 76.7093 56.5101 76.064C56.3554 76.096 56.1981 76.1307 56.0381 76.168C55.8834 76.2 55.7287 76.232 55.5741 76.264C55.5741 76.0507 55.5741 75.8347 55.5741 75.616C55.5741 75.3973 55.5741 75.1813 55.5741 74.968C55.9581 74.8827 56.3474 74.8 56.7421 74.72C57.1367 74.6347 57.5261 74.5493 57.9101 74.464ZM62.3257 74.56C62.3257 74.768 62.3257 74.9813 62.3257 75.2C62.3257 75.4133 62.3257 75.624 62.3257 75.832C62.0217 76.52 61.715 77.216 61.4057 77.92C61.1017 78.6187 60.7977 79.312 60.4937 80C60.259 80 60.019 80 59.7737 80C59.5284 80 59.2884 80 59.0537 80C59.3577 79.312 59.6617 78.6187 59.9657 77.92C60.275 77.216 60.5817 76.52 60.8857 75.832C60.5284 75.832 60.163 75.832 59.7897 75.832C59.4217 75.832 59.0564 75.832 58.6937 75.832C58.6937 75.624 58.6937 75.4133 58.6937 75.2C58.6937 74.9813 58.6937 74.768 58.6937 74.56C59.2964 74.56 59.9017 74.56 60.5097 74.56C61.123 74.56 61.7284 74.56 62.3257 74.56Z" fill="#393C78"/>
<path d="M104.818 47.56C104.818 47.768 104.818 47.9813 104.818 48.2C104.818 48.4133 104.818 48.624 104.818 48.832C104.514 49.52 104.207 50.216 103.898 50.92C103.594 51.6187 103.29 52.312 102.986 53C102.751 53 102.511 53 102.266 53C102.021 53 101.781 53 101.546 53C101.85 52.312 102.154 51.6187 102.458 50.92C102.767 50.216 103.074 49.52 103.378 48.832C103.021 48.832 102.655 48.832 102.282 48.832C101.914 48.832 101.549 48.832 101.186 48.832C101.186 48.624 101.186 48.4133 101.186 48.2C101.186 47.9813 101.186 47.768 101.186 47.56C101.789 47.56 102.394 47.56 103.002 47.56C103.615 47.56 104.221 47.56 104.818 47.56Z" fill="#393C78"/>
<path d="M101.898 61.464C101.898 62.376 101.898 63.2987 101.898 64.232C101.898 65.1653 101.898 66.088 101.898 67C101.669 67 101.437 67 101.202 67C100.968 67 100.733 67 100.498 67C100.498 66.3493 100.498 65.6933 100.498 65.032C100.498 64.3653 100.498 63.7093 100.498 63.064C100.344 63.096 100.186 63.1307 100.026 63.168C99.8717 63.2 99.717 63.232 99.5623 63.264C99.5623 63.0507 99.5623 62.8347 99.5623 62.616C99.5623 62.3973 99.5623 62.1813 99.5623 61.968C99.9463 61.8827 100.336 61.8 100.73 61.72C101.125 61.6347 101.514 61.5493 101.898 61.464ZM103.138 63.904C103.362 63.728 103.586 63.5493 103.81 63.368C104.039 63.1867 104.266 63.008 104.49 62.832C104.218 62.832 103.941 62.832 103.658 62.832C103.381 62.832 103.106 62.832 102.834 62.832C102.834 62.624 102.834 62.4133 102.834 62.2C102.834 61.9813 102.834 61.768 102.834 61.56C103.394 61.56 103.957 61.56 104.522 61.56C105.093 61.56 105.658 61.56 106.218 61.56C106.218 61.768 106.218 61.9813 106.218 62.2C106.218 62.4133 106.218 62.624 106.218 62.832C106.026 62.9867 105.834 63.144 105.642 63.304C105.45 63.464 105.258 63.6213 105.066 63.776C105.503 63.8613 105.839 64.0427 106.074 64.32C106.314 64.592 106.434 64.936 106.434 65.352C106.434 65.7467 106.338 66.072 106.146 66.328C105.954 66.584 105.69 66.7733 105.354 66.896C105.018 67.0187 104.631 67.0747 104.194 67.064C103.762 67.0533 103.303 66.976 102.818 66.832C102.818 66.6133 102.818 66.392 102.818 66.168C102.818 65.9387 102.818 65.7147 102.818 65.496C103.207 65.6347 103.573 65.7227 103.914 65.76C104.255 65.7973 104.53 65.784 104.738 65.72C104.951 65.6507 105.058 65.5307 105.058 65.36C105.058 65.1947 104.975 65.0693 104.81 64.984C104.645 64.8987 104.415 64.8453 104.122 64.824C103.834 64.7973 103.506 64.8 103.138 64.832C103.138 64.6773 103.138 64.5227 103.138 64.368C103.138 64.208 103.138 64.0533 103.138 63.904Z" fill="#393C78"/>
<path d="M101.734 74.464C101.734 75.376 101.734 76.2987 101.734 77.232C101.734 78.1653 101.734 79.088 101.734 80C101.505 80 101.273 80 101.038 80C100.804 80 100.569 80 100.334 80C100.334 79.3493 100.334 78.6933 100.334 78.032C100.334 77.3653 100.334 76.7093 100.334 76.064C100.18 76.096 100.022 76.1307 99.8623 76.168C99.7076 76.2 99.5529 76.232 99.3983 76.264C99.3983 76.0507 99.3983 75.8347 99.3983 75.616C99.3983 75.3973 99.3983 75.1813 99.3983 74.968C99.7823 74.8827 100.172 74.8 100.566 74.72C100.961 74.6347 101.35 74.5493 101.734 74.464ZM102.806 78.488C103.083 78.616 103.358 78.6987 103.63 78.736C103.902 78.768 104.15 78.7573 104.374 78.704C104.598 78.6453 104.779 78.544 104.918 78.4C105.062 78.2507 105.145 78.0587 105.166 77.824C104.974 77.9733 104.755 78.0747 104.51 78.128C104.27 78.1813 104.027 78.1867 103.782 78.144C103.537 78.1013 103.307 78.0107 103.094 77.872C102.886 77.728 102.718 77.536 102.59 77.296C102.462 77.0507 102.398 76.7547 102.398 76.408C102.398 76.1307 102.446 75.8747 102.542 75.64C102.638 75.4 102.774 75.192 102.95 75.016C103.131 74.8347 103.347 74.696 103.598 74.6C103.849 74.4987 104.129 74.448 104.438 74.448C104.747 74.448 105.03 74.504 105.286 74.616C105.547 74.728 105.771 74.896 105.958 75.12C106.15 75.3387 106.297 75.6133 106.398 75.944C106.505 76.2747 106.558 76.6587 106.558 77.096C106.558 77.5653 106.499 77.9813 106.382 78.344C106.265 78.7013 106.097 79.0053 105.878 79.256C105.659 79.5013 105.395 79.6907 105.086 79.824C104.777 79.952 104.43 80.0213 104.046 80.032C103.662 80.0427 103.249 79.9893 102.806 79.872C102.806 79.6427 102.806 79.4133 102.806 79.184C102.806 78.9493 102.806 78.7173 102.806 78.488ZM104.446 75.704C104.249 75.704 104.089 75.768 103.966 75.896C103.843 76.0187 103.782 76.1813 103.782 76.384C103.782 76.5867 103.843 76.752 103.966 76.88C104.089 77.0027 104.249 77.064 104.446 77.064C104.638 77.064 104.793 77.0053 104.91 76.888C105.033 76.7653 105.094 76.6053 105.094 76.408C105.094 76.2 105.033 76.032 104.91 75.904C104.793 75.7707 104.638 75.704 104.446 75.704Z" fill="#393C78"/>
<path d="M34.868 51.968C34.868 51.76 34.868 51.5493 34.868 51.336C34.868 51.1173 34.868 50.904 34.868 50.696C35.1346 50.1787 35.404 49.656 35.676 49.128C35.948 48.6 36.2146 48.0773 36.476 47.56C36.8173 47.56 37.1586 47.56 37.5 47.56C37.8466 47.56 38.1906 47.56 38.532 47.56C38.532 48.0773 38.532 48.6 38.532 49.128C38.532 49.656 38.532 50.1787 38.532 50.696C38.6546 50.696 38.78 50.696 38.908 50.696C39.0413 50.696 39.1693 50.696 39.292 50.696C39.292 50.904 39.292 51.1173 39.292 51.336C39.292 51.5493 39.292 51.76 39.292 51.968C39.1693 51.968 39.0413 51.968 38.908 51.968C38.78 51.968 38.6546 51.968 38.532 51.968C38.532 52.1387 38.532 52.312 38.532 52.488C38.532 52.6587 38.532 52.8293 38.532 53C38.308 53 38.0786 53 37.844 53C37.6146 53 37.388 53 37.164 53C37.164 52.8293 37.164 52.6587 37.164 52.488C37.164 52.312 37.164 52.1387 37.164 51.968C36.7853 51.968 36.4013 51.968 36.012 51.968C35.628 51.968 35.2466 51.968 34.868 51.968ZM36.308 50.696C36.4466 50.696 36.588 50.696 36.732 50.696C36.8813 50.696 37.0253 50.696 37.164 50.696C37.164 50.3973 37.164 50.0933 37.164 49.784C37.164 49.4747 37.164 49.1707 37.164 48.872C37.0253 49.1707 36.8813 49.4747 36.732 49.784C36.588 50.0933 36.4466 50.3973 36.308 50.696Z" fill="#393C78"/>
<path d="M35.4023 61.464C35.4023 62.376 35.4023 63.2987 35.4023 64.232C35.4023 65.1653 35.4023 66.088 35.4023 67C35.1729 67 34.9409 67 34.7063 67C34.4716 67 34.2369 67 34.0023 67C34.0023 66.3493 34.0023 65.6933 34.0023 65.032C34.0023 64.3653 34.0023 63.7093 34.0023 63.064C33.8476 63.096 33.6903 63.1307 33.5303 63.168C33.3756 63.2 33.2209 63.232 33.0663 63.264C33.0663 63.0507 33.0663 62.8347 33.0663 62.616C33.0663 62.3973 33.0663 62.1813 33.0663 61.968C33.4503 61.8827 33.8396 61.8 34.2343 61.72C34.6289 61.6347 35.0183 61.5493 35.4023 61.464ZM38.5059 67.112C38.1539 67.112 37.8312 67.0427 37.5379 66.904C37.2445 66.76 36.9912 66.56 36.7779 66.304C36.5699 66.048 36.4072 65.7467 36.2899 65.4C36.1779 65.0533 36.1219 64.6773 36.1219 64.272C36.1219 63.8667 36.1779 63.4933 36.2899 63.152C36.4072 62.8053 36.5699 62.5067 36.7779 62.256C36.9912 62 37.2445 61.8027 37.5379 61.664C37.8312 61.52 38.1539 61.448 38.5059 61.448C38.8579 61.448 39.1779 61.52 39.4659 61.664C39.7592 61.8027 40.0125 62 40.2259 62.256C40.4392 62.5067 40.6019 62.8053 40.7139 63.152C40.8312 63.4933 40.8899 63.8667 40.8899 64.272C40.8899 64.6773 40.8312 65.0533 40.7139 65.4C40.6019 65.7467 40.4392 66.048 40.2259 66.304C40.0125 66.56 39.7592 66.76 39.4659 66.904C39.1779 67.0427 38.8579 67.112 38.5059 67.112ZM38.5059 65.792C38.7192 65.792 38.8979 65.7307 39.0419 65.608C39.1912 65.48 39.3059 65.3013 39.3859 65.072C39.4659 64.8427 39.5059 64.576 39.5059 64.272C39.5059 63.968 39.4659 63.704 39.3859 63.48C39.3059 63.2507 39.1912 63.0747 39.0419 62.952C38.8979 62.8293 38.7192 62.768 38.5059 62.768C38.2979 62.768 38.1192 62.8293 37.9699 62.952C37.8205 63.0747 37.7059 63.248 37.6259 63.472C37.5459 63.696 37.5059 63.9627 37.5059 64.272C37.5059 64.576 37.5459 64.8427 37.6259 65.072C37.7059 65.3013 37.8205 65.48 37.9699 65.608C38.1192 65.7307 38.2979 65.792 38.5059 65.792Z" fill="#393C78"/>
<path d="M35.7343 74.464C35.7343 75.376 35.7343 76.2987 35.7343 77.232C35.7343 78.1653 35.7343 79.088 35.7343 80C35.5049 80 35.2729 80 35.0383 80C34.8036 80 34.5689 80 34.3343 80C34.3343 79.3493 34.3343 78.6933 34.3343 78.032C34.3343 77.3653 34.3343 76.7093 34.3343 76.064C34.1796 76.096 34.0223 76.1307 33.8623 76.168C33.7076 76.2 33.5529 76.232 33.3983 76.264C33.3983 76.0507 33.3983 75.8347 33.3983 75.616C33.3983 75.3973 33.3983 75.1813 33.3983 74.968C33.7823 74.8827 34.1716 74.8 34.5663 74.72C34.9609 74.6347 35.3503 74.5493 35.7343 74.464ZM40.2059 76.064C39.9286 75.936 39.6539 75.856 39.3819 75.824C39.1099 75.7867 38.8619 75.7973 38.6379 75.856C38.4139 75.9093 38.2299 76.0107 38.0859 76.16C37.9472 76.304 37.8672 76.4933 37.8459 76.728C38.0379 76.5787 38.2539 76.4773 38.4939 76.424C38.7392 76.3707 38.9846 76.3653 39.2299 76.408C39.4752 76.4507 39.7019 76.544 39.9099 76.688C40.1232 76.8267 40.2939 77.0187 40.4219 77.264C40.5499 77.504 40.6139 77.7973 40.6139 78.144C40.6139 78.4213 40.5659 78.68 40.4699 78.92C40.3739 79.1547 40.2352 79.3627 40.0539 79.544C39.8779 79.72 39.6646 79.8587 39.4139 79.96C39.1632 80.056 38.8832 80.104 38.5739 80.104C38.2646 80.104 37.9792 80.048 37.7179 79.936C37.4619 79.824 37.2379 79.6587 37.0459 79.44C36.8592 79.216 36.7126 78.9387 36.6059 78.608C36.5046 78.2773 36.4539 77.8933 36.4539 77.456C36.4539 76.9867 36.5126 76.5733 36.6299 76.216C36.7472 75.8533 36.9152 75.5493 37.1339 75.304C37.3526 75.0533 37.6166 74.864 37.9259 74.736C38.2352 74.6027 38.5819 74.5307 38.9659 74.52C39.3499 74.5093 39.7632 74.5627 40.2059 74.68C40.2059 74.9093 40.2059 75.1413 40.2059 75.376C40.2059 75.6053 40.2059 75.8347 40.2059 76.064ZM38.5659 78.848C38.7632 78.848 38.9232 78.784 39.0459 78.656C39.1686 78.528 39.2299 78.3653 39.2299 78.168C39.2299 77.9653 39.1686 77.8027 39.0459 77.68C38.9232 77.552 38.7632 77.488 38.5659 77.488C38.3739 77.488 38.2166 77.5493 38.0939 77.672C37.9766 77.7893 37.9179 77.9467 37.9179 78.144C37.9179 78.352 37.9766 78.5227 38.0939 78.656C38.2166 78.784 38.3739 78.848 38.5659 78.848Z" fill="#393C78"/>
<path d="M82.6981 49.064C82.4208 48.936 82.1461 48.856 81.8741 48.824C81.6021 48.7867 81.3541 48.7973 81.1301 48.856C80.9061 48.9093 80.7221 49.0107 80.5781 49.16C80.4394 49.304 80.3594 49.4933 80.3381 49.728C80.5301 49.5787 80.7461 49.4773 80.9861 49.424C81.2314 49.3707 81.4768 49.3653 81.7221 49.408C81.9674 49.4507 82.1941 49.544 82.4021 49.688C82.6154 49.8267 82.7861 50.0187 82.9141 50.264C83.0421 50.504 83.1061 50.7973 83.1061 51.144C83.1061 51.4213 83.0581 51.68 82.9621 51.92C82.8661 52.1547 82.7274 52.3627 82.5461 52.544C82.3701 52.72 82.1568 52.8587 81.9061 52.96C81.6554 53.056 81.3754 53.104 81.0661 53.104C80.7568 53.104 80.4714 53.048 80.2101 52.936C79.9541 52.824 79.7301 52.6587 79.5381 52.44C79.3514 52.216 79.2048 51.9387 79.0981 51.608C78.9968 51.2773 78.9461 50.8933 78.9461 50.456C78.9461 49.9867 79.0048 49.5733 79.1221 49.216C79.2394 48.8533 79.4074 48.5493 79.6261 48.304C79.8448 48.0533 80.1088 47.864 80.4181 47.736C80.7274 47.6027 81.0741 47.5307 81.4581 47.52C81.8421 47.5093 82.2554 47.5627 82.6981 47.68C82.6981 47.9093 82.6981 48.1413 82.6981 48.376C82.6981 48.6053 82.6981 48.8347 82.6981 49.064ZM81.0581 51.848C81.2554 51.848 81.4154 51.784 81.5381 51.656C81.6608 51.528 81.7221 51.3653 81.7221 51.168C81.7221 50.9653 81.6608 50.8027 81.5381 50.68C81.4154 50.552 81.2554 50.488 81.0581 50.488C80.8661 50.488 80.7088 50.5493 80.5861 50.672C80.4688 50.7893 80.4101 50.9467 80.4101 51.144C80.4101 51.352 80.4688 51.5227 80.5861 51.656C80.7088 51.784 80.8661 51.848 81.0581 51.848Z" fill="#393C78"/>
<path d="M79.8437 61.464C79.8437 62.376 79.8437 63.2987 79.8437 64.232C79.8437 65.1653 79.8437 66.088 79.8437 67C79.6143 67 79.3823 67 79.1477 67C78.913 67 78.6783 67 78.4437 67C78.4437 66.3493 78.4437 65.6933 78.4437 65.032C78.4437 64.3653 78.4437 63.7093 78.4437 63.064C78.289 63.096 78.1317 63.1307 77.9717 63.168C77.817 63.2 77.6623 63.232 77.5077 63.264C77.5077 63.0507 77.5077 62.8347 77.5077 62.616C77.5077 62.3973 77.5077 62.1813 77.5077 61.968C77.8917 61.8827 78.281 61.8 78.6757 61.72C79.0703 61.6347 79.4597 61.5493 79.8437 61.464ZM80.7393 67C80.7393 66.792 80.7393 66.5813 80.7393 66.368C80.7393 66.1493 80.7393 65.936 80.7393 65.728C80.9526 65.5253 81.1659 65.32 81.3793 65.112C81.5926 64.8987 81.8059 64.6907 82.0193 64.488C82.2646 64.248 82.4513 64.056 82.5793 63.912C82.7073 63.7627 82.7953 63.6373 82.8433 63.536C82.8966 63.4347 82.9233 63.3413 82.9233 63.256C82.9233 63.08 82.8219 62.9547 82.6193 62.88C82.4166 62.8 82.1553 62.776 81.8353 62.808C81.5153 62.84 81.1739 62.928 80.8113 63.072C80.8113 62.8533 80.8113 62.632 80.8113 62.408C80.8113 62.1787 80.8113 61.9547 80.8113 61.736C81.3446 61.56 81.8273 61.472 82.2593 61.472C82.6966 61.472 83.0699 61.544 83.3793 61.688C83.6939 61.8267 83.9339 62.0213 84.0993 62.272C84.2699 62.5227 84.3553 62.8133 84.3553 63.144C84.3553 63.4747 84.2673 63.7867 84.0913 64.08C83.9153 64.368 83.6459 64.688 83.2833 65.04C83.1659 65.152 83.0486 65.2667 82.9313 65.384C82.8139 65.5013 82.6966 65.616 82.5793 65.728C82.8673 65.728 83.1553 65.728 83.4433 65.728C83.7366 65.728 84.0273 65.728 84.3153 65.728C84.3153 65.936 84.3153 66.1493 84.3153 66.368C84.3153 66.5813 84.3153 66.792 84.3153 67C83.7233 67 83.1259 67 82.5233 67C81.9259 67 81.3313 67 80.7393 67Z" fill="#393C78"/>
<path d="M79.7499 74.464C79.7499 75.376 79.7499 76.2987 79.7499 77.232C79.7499 78.1653 79.7499 79.088 79.7499 80C79.5206 80 79.2886 80 79.0539 80C78.8192 80 78.5846 80 78.3499 80C78.3499 79.3493 78.3499 78.6933 78.3499 78.032C78.3499 77.3653 78.3499 76.7093 78.3499 76.064C78.1952 76.096 78.0379 76.1307 77.8779 76.168C77.7232 76.2 77.5686 76.232 77.4139 76.264C77.4139 76.0507 77.4139 75.8347 77.4139 75.616C77.4139 75.3973 77.4139 75.1813 77.4139 74.968C77.7979 74.8827 78.1872 74.8 78.5819 74.72C78.9766 74.6347 79.3659 74.5493 79.7499 74.464ZM82.5175 80.12C82.1282 80.12 81.7789 80.0507 81.4695 79.912C81.1602 79.768 80.9149 79.568 80.7335 79.312C80.5575 79.056 80.4695 78.7573 80.4695 78.416C80.4695 78.1333 80.5282 77.888 80.6455 77.68C80.7682 77.472 80.9335 77.304 81.1415 77.176C80.9655 77.0533 80.8269 76.9013 80.7255 76.72C80.6295 76.5387 80.5815 76.3253 80.5815 76.08C80.5815 75.76 80.6642 75.4773 80.8295 75.232C81.0002 74.9867 81.2322 74.7947 81.5255 74.656C81.8189 74.512 82.1495 74.44 82.5175 74.44C82.8855 74.44 83.2135 74.512 83.5015 74.656C83.7949 74.7947 84.0242 74.9867 84.1895 75.232C84.3549 75.4773 84.4375 75.76 84.4375 76.08C84.4375 76.3253 84.3869 76.5387 84.2855 76.72C84.1895 76.9013 84.0562 77.0533 83.8855 77.176C84.0882 77.304 84.2482 77.472 84.3655 77.68C84.4882 77.888 84.5495 78.1333 84.5495 78.416C84.5495 78.7573 84.4589 79.056 84.2775 79.312C84.1015 79.568 83.8615 79.768 83.5575 79.912C83.2535 80.0507 82.9069 80.12 82.5175 80.12ZM82.5175 76.664C82.6882 76.664 82.8242 76.616 82.9255 76.52C83.0269 76.424 83.0775 76.3013 83.0775 76.152C83.0775 76.008 83.0269 75.8907 82.9255 75.8C82.8242 75.7093 82.6882 75.664 82.5175 75.664C82.3469 75.664 82.2082 75.7093 82.1015 75.8C81.9949 75.8907 81.9415 76.008 81.9415 76.152C81.9415 76.3013 81.9949 76.424 82.1015 76.52C82.2135 76.616 82.3522 76.664 82.5175 76.664ZM82.5175 78.896C82.7042 78.896 82.8589 78.84 82.9815 78.728C83.1042 78.616 83.1655 78.4747 83.1655 78.304C83.1655 78.1227 83.1042 77.9787 82.9815 77.872C82.8589 77.76 82.7042 77.704 82.5175 77.704C82.3309 77.704 82.1735 77.76 82.0455 77.872C81.9175 77.9787 81.8535 78.1227 81.8535 78.304C81.8535 78.4747 81.9175 78.616 82.0455 78.728C82.1735 78.84 82.3309 78.896 82.5175 78.896Z" fill="#393C78"/>
<path d="M125.01 53.12C124.62 53.12 124.271 53.0507 123.962 52.912C123.652 52.768 123.407 52.568 123.226 52.312C123.05 52.056 122.962 51.7573 122.962 51.416C122.962 51.1333 123.02 50.888 123.138 50.68C123.26 50.472 123.426 50.304 123.634 50.176C123.458 50.0533 123.319 49.9013 123.218 49.72C123.122 49.5387 123.074 49.3253 123.074 49.08C123.074 48.76 123.156 48.4773 123.322 48.232C123.492 47.9867 123.724 47.7947 124.018 47.656C124.311 47.512 124.642 47.44 125.01 47.44C125.378 47.44 125.706 47.512 125.994 47.656C126.287 47.7947 126.516 47.9867 126.682 48.232C126.847 48.4773 126.93 48.76 126.93 49.08C126.93 49.3253 126.879 49.5387 126.778 49.72C126.682 49.9013 126.548 50.0533 126.378 50.176C126.58 50.304 126.74 50.472 126.858 50.68C126.98 50.888 127.042 51.1333 127.042 51.416C127.042 51.7573 126.951 52.056 126.77 52.312C126.594 52.568 126.354 52.768 126.05 52.912C125.746 53.0507 125.399 53.12 125.01 53.12ZM125.01 49.664C125.18 49.664 125.316 49.616 125.418 49.52C125.519 49.424 125.57 49.3013 125.57 49.152C125.57 49.008 125.519 48.8907 125.418 48.8C125.316 48.7093 125.18 48.664 125.01 48.664C124.839 48.664 124.7 48.7093 124.594 48.8C124.487 48.8907 124.434 49.008 124.434 49.152C124.434 49.3013 124.487 49.424 124.594 49.52C124.706 49.616 124.844 49.664 125.01 49.664ZM125.01 51.896C125.196 51.896 125.351 51.84 125.474 51.728C125.596 51.616 125.658 51.4747 125.658 51.304C125.658 51.1227 125.596 50.9787 125.474 50.872C125.351 50.76 125.196 50.704 125.01 50.704C124.823 50.704 124.666 50.76 124.538 50.872C124.41 50.9787 124.346 51.1227 124.346 51.304C124.346 51.4747 124.41 51.616 124.538 51.728C124.666 51.84 124.823 51.896 125.01 51.896Z" fill="#393C78"/>
<path d="M123.656 61.464C123.656 62.376 123.656 63.2987 123.656 64.232C123.656 65.1653 123.656 66.088 123.656 67C123.427 67 123.195 67 122.96 67C122.725 67 122.491 67 122.256 67C122.256 66.3493 122.256 65.6933 122.256 65.032C122.256 64.3653 122.256 63.7093 122.256 63.064C122.101 63.096 121.944 63.1307 121.784 63.168C121.629 63.2 121.475 63.232 121.32 63.264C121.32 63.0507 121.32 62.8347 121.32 62.616C121.32 62.3973 121.32 62.1813 121.32 61.968C121.704 61.8827 122.093 61.8 122.488 61.72C122.883 61.6347 123.272 61.5493 123.656 61.464ZM124.376 65.968C124.376 65.76 124.376 65.5493 124.376 65.336C124.376 65.1173 124.376 64.904 124.376 64.696C124.642 64.1787 124.912 63.656 125.184 63.128C125.456 62.6 125.722 62.0773 125.984 61.56C126.325 61.56 126.666 61.56 127.008 61.56C127.354 61.56 127.698 61.56 128.04 61.56C128.04 62.0773 128.04 62.6 128.04 63.128C128.04 63.656 128.04 64.1787 128.04 64.696C128.162 64.696 128.288 64.696 128.416 64.696C128.549 64.696 128.677 64.696 128.8 64.696C128.8 64.904 128.8 65.1173 128.8 65.336C128.8 65.5493 128.8 65.76 128.8 65.968C128.677 65.968 128.549 65.968 128.416 65.968C128.288 65.968 128.162 65.968 128.04 65.968C128.04 66.1387 128.04 66.312 128.04 66.488C128.04 66.6587 128.04 66.8293 128.04 67C127.816 67 127.586 67 127.352 67C127.122 67 126.896 67 126.672 67C126.672 66.8293 126.672 66.6587 126.672 66.488C126.672 66.312 126.672 66.1387 126.672 65.968C126.293 65.968 125.909 65.968 125.52 65.968C125.136 65.968 124.754 65.968 124.376 65.968ZM125.816 64.696C125.954 64.696 126.096 64.696 126.24 64.696C126.389 64.696 126.533 64.696 126.672 64.696C126.672 64.3973 126.672 64.0933 126.672 63.784C126.672 63.4747 126.672 63.1707 126.672 62.872C126.533 63.1707 126.389 63.4747 126.24 63.784C126.096 64.0933 125.954 64.3973 125.816 64.696Z" fill="#393C78"/>
<path d="M120.646 80C120.646 79.792 120.646 79.5813 120.646 79.368C120.646 79.1493 120.646 78.936 120.646 78.728C120.859 78.5253 121.072 78.32 121.286 78.112C121.499 77.8987 121.712 77.6907 121.926 77.488C122.171 77.248 122.358 77.056 122.486 76.912C122.614 76.7627 122.702 76.6373 122.75 76.536C122.803 76.4347 122.83 76.3413 122.83 76.256C122.83 76.08 122.728 75.9547 122.526 75.88C122.323 75.8 122.062 75.776 121.742 75.808C121.422 75.84 121.08 75.928 120.718 76.072C120.718 75.8533 120.718 75.632 120.718 75.408C120.718 75.1787 120.718 74.9547 120.718 74.736C121.251 74.56 121.734 74.472 122.166 74.472C122.603 74.472 122.976 74.544 123.286 74.688C123.6 74.8267 123.84 75.0213 124.006 75.272C124.176 75.5227 124.262 75.8133 124.262 76.144C124.262 76.4747 124.174 76.7867 123.998 77.08C123.822 77.368 123.552 77.688 123.19 78.04C123.072 78.152 122.955 78.2667 122.838 78.384C122.72 78.5013 122.603 78.616 122.486 78.728C122.774 78.728 123.062 78.728 123.35 78.728C123.643 78.728 123.934 78.728 124.222 78.728C124.222 78.936 124.222 79.1493 124.222 79.368C124.222 79.5813 124.222 79.792 124.222 80C123.63 80 123.032 80 122.43 80C121.832 80 121.238 80 120.646 80ZM127.143 80.112C126.791 80.112 126.468 80.0427 126.175 79.904C125.881 79.76 125.628 79.56 125.415 79.304C125.207 79.048 125.044 78.7467 124.927 78.4C124.815 78.0533 124.759 77.6773 124.759 77.272C124.759 76.8667 124.815 76.4933 124.927 76.152C125.044 75.8053 125.207 75.5067 125.415 75.256C125.628 75 125.881 74.8027 126.175 74.664C126.468 74.52 126.791 74.448 127.143 74.448C127.495 74.448 127.815 74.52 128.103 74.664C128.396 74.8027 128.649 75 128.863 75.256C129.076 75.5067 129.239 75.8053 129.351 76.152C129.468 76.4933 129.527 76.8667 129.527 77.272C129.527 77.6773 129.468 78.0533 129.351 78.4C129.239 78.7467 129.076 79.048 128.863 79.304C128.649 79.56 128.396 79.76 128.103 79.904C127.815 80.0427 127.495 80.112 127.143 80.112ZM127.143 78.792C127.356 78.792 127.535 78.7307 127.679 78.608C127.828 78.48 127.943 78.3013 128.023 78.072C128.103 77.8427 128.143 77.576 128.143 77.272C128.143 76.968 128.103 76.704 128.023 76.48C127.943 76.2507 127.828 76.0747 127.679 75.952C127.535 75.8293 127.356 75.768 127.143 75.768C126.935 75.768 126.756 75.8293 126.607 75.952C126.457 76.0747 126.343 76.248 126.263 76.472C126.183 76.696 126.143 76.9627 126.143 77.272C126.143 77.576 126.183 77.8427 126.263 78.072C126.343 78.3013 126.457 78.48 126.607 78.608C126.756 78.7307 126.935 78.792 127.143 78.792Z" fill="#393C78"/>
</g>
<defs>
<clipPath id="clip0_16_1908">
<rect width="140" height="88" fill="white"/>
</clipPath>
</defs>
</svg>
