<svg width="140" height="88" viewBox="0 0 140 88" fill="none" xmlns="http://www.w3.org/2000/svg">
<g clip-path="url(#clip0_16_1892)">
<rect x="6" y="6" width="128" height="76" rx="4" fill="#5E609C"/>
<rect x="10" y="55" width="40" height="23" rx="1.37931" fill="#24253C"/>
<path d="M72.9646 36.392C72.9646 39.128 72.9646 41.896 72.9646 44.696C72.9646 47.496 72.9646 50.264 72.9646 53C72.2766 53 71.5806 53 70.8766 53C70.1726 53 69.4686 53 68.7646 53C68.7646 51.048 68.7646 49.08 68.7646 47.096C68.7646 45.096 68.7646 43.128 68.7646 41.192C68.3006 41.288 67.8286 41.392 67.3486 41.504C66.8846 41.6 66.4206 41.696 65.9566 41.792C65.9566 41.152 65.9566 40.504 65.9566 39.848C65.9566 39.192 65.9566 38.544 65.9566 37.904C67.1086 37.648 68.2766 37.4 69.4606 37.16C70.6446 36.904 71.8126 36.648 72.9646 36.392Z" fill="#393C78"/>
<path d="M24.6944 75C24.6944 74.376 24.6944 73.744 24.6944 73.104C24.6944 72.448 24.6944 71.808 24.6944 71.184C25.3344 70.576 25.9744 69.96 26.6144 69.336C27.2544 68.696 27.8944 68.072 28.5344 67.464C29.2704 66.744 29.8304 66.168 30.2144 65.736C30.5984 65.288 30.8624 64.912 31.0064 64.608C31.1664 64.304 31.2464 64.024 31.2464 63.768C31.2464 63.24 30.9424 62.864 30.3344 62.64C29.7264 62.4 28.9424 62.328 27.9824 62.424C27.0224 62.52 25.9984 62.784 24.9104 63.216C24.9104 62.56 24.9104 61.896 24.9104 61.224C24.9104 60.536 24.9104 59.864 24.9104 59.208C26.5104 58.68 27.9584 58.416 29.2544 58.416C30.5664 58.416 31.6864 58.632 32.6144 59.064C33.5584 59.48 34.2784 60.064 34.7744 60.816C35.2864 61.568 35.5424 62.44 35.5424 63.432C35.5424 64.424 35.2784 65.36 34.7504 66.24C34.2224 67.104 33.4144 68.064 32.3264 69.12C31.9744 69.456 31.6224 69.8 31.2704 70.152C30.9184 70.504 30.5664 70.848 30.2144 71.184C31.0784 71.184 31.9424 71.184 32.8064 71.184C33.6864 71.184 34.5584 71.184 35.4224 71.184C35.4224 71.808 35.4224 72.448 35.4224 73.104C35.4224 73.744 35.4224 74.376 35.4224 75C33.6464 75 31.8544 75 30.0464 75C28.2544 75 26.4704 75 24.6944 75Z" fill="#393C78"/>
</g>
<defs>
<clipPath id="clip0_16_1892">
<rect width="140" height="88" rx="3" fill="white"/>
</clipPath>
</defs>
</svg>
