<svg width="140" height="88" viewBox="0 0 140 88" fill="none" xmlns="http://www.w3.org/2000/svg">
<g id="layoutPresenter_Individual">
<g id="Screen">
<rect x="6" y="6" width="128" height="76" rx="4" fill="#5E609C"/>
<g id="Person Icon">
<path id="Union" fill-rule="evenodd" clip-rule="evenodd" d="M69.7221 44C73.3627 44 76.3141 41.0487 76.3141 37.4081C76.3141 33.7674 73.3627 30.8161 69.7221 30.8161C66.0815 30.8161 63.1302 33.7674 63.1302 37.4081C63.1302 41.0487 66.0815 44 69.7221 44ZM73.2978 45.6479H74.1169C77.7562 45.6479 80.7088 48.7481 80.7088 52.5694V54.7118V57.1838H58.7356V54.7118V52.5694C58.7356 48.7481 61.6883 45.6479 65.3276 45.6479H66.1467C67.2404 46.1732 68.447 46.4719 69.7222 46.4719C70.9974 46.4719 72.2089 46.1732 73.2978 45.6479Z" fill="#393C78"/>
</g>
</g>
</g>
</svg>
