<svg width="140" height="88" viewBox="0 0 140 88" fill="none" xmlns="http://www.w3.org/2000/svg">
<g clip-path="url(#clip0_16_1918)">
<g clip-path="url(#clip1_16_1918)">
<rect x="6" y="59" width="15" height="9" rx="0.62069" fill="#5E609C"/>
<rect x="24.8" y="59" width="15" height="9" rx="0.62069" fill="#5E609C"/>
<rect x="43.6" y="59" width="15" height="9" rx="0.62069" fill="#5E609C"/>
<rect x="62.4" y="59" width="15" height="9" rx="0.62069" fill="#5E609C"/>
<rect x="81.2" y="59" width="15" height="9" rx="0.62069" fill="#5E609C"/>
<rect x="100" y="59" width="15" height="9" rx="0.62069" fill="#5E609C"/>
<rect x="118.8" y="59" width="15" height="9" rx="0.62069" fill="#5E609C"/>
<rect x="6" y="20" width="15" height="9" rx="0.62069" fill="#5E609C"/>
<rect x="24.8" y="20" width="15" height="9" rx="0.62069" fill="#5E609C"/>
<rect x="6" y="33" width="15" height="9" rx="0.62069" fill="#5E609C"/>
<rect x="24.8" y="33" width="15" height="9" rx="0.62069" fill="#5E609C"/>
<rect x="6" y="46" width="15" height="9" rx="0.62069" fill="#5E609C"/>
<rect x="24.8" y="46" width="15" height="9" rx="0.62069" fill="#5E609C"/>
<rect x="100" y="20" width="15" height="9" rx="0.62069" fill="#5E609C"/>
<rect x="118.8" y="20" width="15" height="9" rx="0.62069" fill="#5E609C"/>
<rect x="100" y="33" width="15" height="9" rx="0.62069" fill="#5E609C"/>
<rect x="118.8" y="33" width="15" height="9" rx="0.62069" fill="#5E609C"/>
<rect x="100" y="46" width="15" height="9" rx="0.62069" fill="#5E609C"/>
<rect x="118.8" y="46" width="15" height="9" rx="0.62069" fill="#5E609C"/>
<rect x="44" y="20" width="52" height="35" rx="2.13793" fill="#5E609C"/>
</g>
<path d="M72.9646 29.392C72.9646 32.128 72.9646 34.896 72.9646 37.696C72.9646 40.496 72.9646 43.264 72.9646 46C72.2766 46 71.5806 46 70.8766 46C70.1726 46 69.4686 46 68.7646 46C68.7646 44.048 68.7646 42.08 68.7646 40.096C68.7646 38.096 68.7646 36.128 68.7646 34.192C68.3006 34.288 67.8286 34.392 67.3486 34.504C66.8846 34.6 66.4206 34.696 65.9566 34.792C65.9566 34.152 65.9566 33.504 65.9566 32.848C65.9566 32.192 65.9566 31.544 65.9566 30.904C67.1086 30.648 68.2766 30.4 69.4606 30.16C70.6446 29.904 71.8126 29.648 72.9646 29.392Z" fill="#393C78"/>
<path d="M109.545 47.88C109.545 48.114 109.545 48.354 109.545 48.6C109.545 48.84 109.545 49.077 109.545 49.311C109.203 50.085 108.858 50.868 108.51 51.66C108.168 52.446 107.826 53.226 107.484 54C107.22 54 106.95 54 106.674 54C106.398 54 106.128 54 105.864 54C106.206 53.226 106.548 52.446 106.89 51.66C107.238 50.868 107.583 50.085 107.925 49.311C107.523 49.311 107.112 49.311 106.692 49.311C106.278 49.311 105.867 49.311 105.459 49.311C105.459 49.077 105.459 48.84 105.459 48.6C105.459 48.354 105.459 48.114 105.459 47.88C106.137 47.88 106.818 47.88 107.502 47.88C108.192 47.88 108.873 47.88 109.545 47.88Z" fill="#393C78"/>
<path d="M32.5109 67.135C32.0729 67.135 31.6799 67.057 31.3319 66.901C30.9839 66.739 30.7079 66.514 30.5039 66.226C30.3059 65.938 30.2069 65.602 30.2069 65.218C30.2069 64.9 30.2729 64.624 30.4049 64.39C30.5429 64.156 30.7289 63.967 30.9629 63.823C30.7649 63.685 30.6089 63.514 30.4949 63.31C30.3869 63.106 30.3329 62.866 30.3329 62.59C30.3329 62.23 30.4259 61.912 30.6119 61.636C30.8039 61.36 31.0649 61.144 31.3949 60.988C31.7249 60.826 32.0969 60.745 32.5109 60.745C32.9249 60.745 33.2939 60.826 33.6179 60.988C33.9479 61.144 34.2059 61.36 34.3919 61.636C34.5779 61.912 34.6709 62.23 34.6709 62.59C34.6709 62.866 34.6139 63.106 34.4999 63.31C34.3919 63.514 34.2419 63.685 34.0499 63.823C34.2779 63.967 34.4579 64.156 34.5899 64.39C34.7279 64.624 34.7969 64.9 34.7969 65.218C34.7969 65.602 34.6949 65.938 34.4909 66.226C34.2929 66.514 34.0229 66.739 33.6809 66.901C33.3389 67.057 32.9489 67.135 32.5109 67.135ZM32.5109 63.247C32.7029 63.247 32.8559 63.193 32.9699 63.085C33.0839 62.977 33.1409 62.839 33.1409 62.671C33.1409 62.509 33.0839 62.377 32.9699 62.275C32.8559 62.173 32.7029 62.122 32.5109 62.122C32.3189 62.122 32.1629 62.173 32.0429 62.275C31.9229 62.377 31.8629 62.509 31.8629 62.671C31.8629 62.839 31.9229 62.977 32.0429 63.085C32.1689 63.193 32.3249 63.247 32.5109 63.247ZM32.5109 65.758C32.7209 65.758 32.8949 65.695 33.0329 65.569C33.1709 65.443 33.2399 65.284 33.2399 65.092C33.2399 64.888 33.1709 64.726 33.0329 64.606C32.8949 64.48 32.7209 64.417 32.5109 64.417C32.3009 64.417 32.1239 64.48 31.9799 64.606C31.8359 64.726 31.7639 64.888 31.7639 65.092C31.7639 65.284 31.8359 65.443 31.9799 65.569C32.1239 65.695 32.3009 65.758 32.5109 65.758Z" fill="#393C78"/>
<path d="M49.5854 65.299C49.8974 65.443 50.2064 65.536 50.5124 65.578C50.8184 65.614 51.0974 65.602 51.3494 65.542C51.6014 65.476 51.8054 65.362 51.9614 65.2C52.1234 65.032 52.2164 64.816 52.2404 64.552C52.0244 64.72 51.7784 64.834 51.5024 64.894C51.2324 64.954 50.9594 64.96 50.6834 64.912C50.4074 64.864 50.1494 64.762 49.9094 64.606C49.6754 64.444 49.4864 64.228 49.3424 63.958C49.1984 63.682 49.1264 63.349 49.1264 62.959C49.1264 62.647 49.1804 62.359 49.2884 62.095C49.3964 61.825 49.5494 61.591 49.7474 61.393C49.9514 61.189 50.1944 61.033 50.4764 60.925C50.7584 60.811 51.0734 60.754 51.4214 60.754C51.7694 60.754 52.0874 60.817 52.3754 60.943C52.6694 61.069 52.9214 61.258 53.1314 61.51C53.3474 61.756 53.5124 62.065 53.6264 62.437C53.7464 62.809 53.8064 63.241 53.8064 63.733C53.8064 64.261 53.7404 64.729 53.6084 65.137C53.4764 65.539 53.2874 65.881 53.0414 66.163C52.7954 66.439 52.4984 66.652 52.1504 66.802C51.8024 66.946 51.4124 67.024 50.9804 67.036C50.5484 67.048 50.0834 66.988 49.5854 66.856C49.5854 66.598 49.5854 66.34 49.5854 66.082C49.5854 65.818 49.5854 65.557 49.5854 65.299ZM51.4304 62.167C51.2084 62.167 51.0284 62.239 50.8904 62.383C50.7524 62.521 50.6834 62.704 50.6834 62.932C50.6834 63.16 50.7524 63.346 50.8904 63.49C51.0284 63.628 51.2084 63.697 51.4304 63.697C51.6464 63.697 51.8204 63.631 51.9524 63.499C52.0904 63.361 52.1594 63.181 52.1594 62.959C52.1594 62.725 52.0904 62.536 51.9524 62.392C51.8204 62.242 51.6464 62.167 51.4304 62.167Z" fill="#393C78"/>
<path d="M68.7025 60.772C68.7025 61.798 68.7025 62.836 68.7025 63.886C68.7025 64.936 68.7025 65.974 68.7025 67C68.4445 67 68.1835 67 67.9195 67C67.6555 67 67.3915 67 67.1275 67C67.1275 66.268 67.1275 65.53 67.1275 64.786C67.1275 64.036 67.1275 63.298 67.1275 62.572C66.9535 62.608 66.7765 62.647 66.5965 62.689C66.4225 62.725 66.2485 62.761 66.0745 62.797C66.0745 62.557 66.0745 62.314 66.0745 62.068C66.0745 61.822 66.0745 61.579 66.0745 61.339C66.5065 61.243 66.9445 61.15 67.3885 61.06C67.8325 60.964 68.2705 60.868 68.7025 60.772ZM72.1941 67.126C71.7981 67.126 71.4351 67.048 71.1051 66.892C70.7751 66.73 70.4901 66.505 70.2501 66.217C70.0161 65.929 69.8331 65.59 69.7011 65.2C69.5751 64.81 69.5121 64.387 69.5121 63.931C69.5121 63.475 69.5751 63.055 69.7011 62.671C69.8331 62.281 70.0161 61.945 70.2501 61.663C70.4901 61.375 70.7751 61.153 71.1051 60.997C71.4351 60.835 71.7981 60.754 72.1941 60.754C72.5901 60.754 72.9501 60.835 73.2741 60.997C73.6041 61.153 73.8891 61.375 74.1291 61.663C74.3691 61.945 74.5521 62.281 74.6781 62.671C74.8101 63.055 74.8761 63.475 74.8761 63.931C74.8761 64.387 74.8101 64.81 74.6781 65.2C74.5521 65.59 74.3691 65.929 74.1291 66.217C73.8891 66.505 73.6041 66.73 73.2741 66.892C72.9501 67.048 72.5901 67.126 72.1941 67.126ZM72.1941 65.641C72.4341 65.641 72.6351 65.572 72.7971 65.434C72.9651 65.29 73.0941 65.089 73.1841 64.831C73.2741 64.573 73.3191 64.273 73.3191 63.931C73.3191 63.589 73.2741 63.292 73.1841 63.04C73.0941 62.782 72.9651 62.584 72.7971 62.446C72.6351 62.308 72.4341 62.239 72.1941 62.239C71.9601 62.239 71.7591 62.308 71.5911 62.446C71.4231 62.584 71.2941 62.779 71.2041 63.031C71.1141 63.283 71.0691 63.583 71.0691 63.931C71.0691 64.273 71.1141 64.573 71.2041 64.831C71.2941 65.089 71.4231 65.29 71.5911 65.434C71.7591 65.572 71.9601 65.641 72.1941 65.641Z" fill="#393C78"/>
<path d="M87.9154 60.772C87.9154 61.798 87.9154 62.836 87.9154 63.886C87.9154 64.936 87.9154 65.974 87.9154 67C87.6574 67 87.3964 67 87.1324 67C86.8684 67 86.6044 67 86.3404 67C86.3404 66.268 86.3404 65.53 86.3404 64.786C86.3404 64.036 86.3404 63.298 86.3404 62.572C86.1664 62.608 85.9894 62.647 85.8094 62.689C85.6354 62.725 85.4614 62.761 85.2874 62.797C85.2874 62.557 85.2874 62.314 85.2874 62.068C85.2874 61.822 85.2874 61.579 85.2874 61.339C85.7194 61.243 86.1574 61.15 86.6014 61.06C87.0454 60.964 87.4834 60.868 87.9154 60.772ZM91.308 60.772C91.308 61.798 91.308 62.836 91.308 63.886C91.308 64.936 91.308 65.974 91.308 67C91.05 67 90.789 67 90.525 67C90.261 67 89.997 67 89.733 67C89.733 66.268 89.733 65.53 89.733 64.786C89.733 64.036 89.733 63.298 89.733 62.572C89.559 62.608 89.382 62.647 89.202 62.689C89.028 62.725 88.854 62.761 88.68 62.797C88.68 62.557 88.68 62.314 88.68 62.068C88.68 61.822 88.68 61.579 88.68 61.339C89.112 61.243 89.55 61.15 89.994 61.06C90.438 60.964 90.876 60.868 91.308 60.772Z" fill="#393C78"/>
<path d="M106.199 60.772C106.199 61.798 106.199 62.836 106.199 63.886C106.199 64.936 106.199 65.974 106.199 67C105.941 67 105.68 67 105.416 67C105.152 67 104.888 67 104.624 67C104.624 66.268 104.624 65.53 104.624 64.786C104.624 64.036 104.624 63.298 104.624 62.572C104.45 62.608 104.273 62.647 104.093 62.689C103.919 62.725 103.745 62.761 103.571 62.797C103.571 62.557 103.571 62.314 103.571 62.068C103.571 61.822 103.571 61.579 103.571 61.339C104.003 61.243 104.441 61.15 104.885 61.06C105.329 60.964 105.767 60.868 106.199 60.772ZM107.207 67C107.207 66.766 107.207 66.529 107.207 66.289C107.207 66.043 107.207 65.803 107.207 65.569C107.447 65.341 107.687 65.11 107.927 64.876C108.167 64.636 108.407 64.402 108.647 64.174C108.923 63.904 109.133 63.688 109.277 63.526C109.421 63.358 109.52 63.217 109.574 63.103C109.634 62.989 109.664 62.884 109.664 62.788C109.664 62.59 109.55 62.449 109.322 62.365C109.094 62.275 108.8 62.248 108.44 62.284C108.08 62.32 107.696 62.419 107.288 62.581C107.288 62.335 107.288 62.086 107.288 61.834C107.288 61.576 107.288 61.324 107.288 61.078C107.888 60.88 108.431 60.781 108.917 60.781C109.409 60.781 109.829 60.862 110.177 61.024C110.531 61.18 110.801 61.399 110.987 61.681C111.179 61.963 111.275 62.29 111.275 62.662C111.275 63.034 111.176 63.385 110.978 63.715C110.78 64.039 110.477 64.399 110.069 64.795C109.937 64.921 109.805 65.05 109.673 65.182C109.541 65.314 109.409 65.443 109.277 65.569C109.601 65.569 109.925 65.569 110.249 65.569C110.579 65.569 110.906 65.569 111.23 65.569C111.23 65.803 111.23 66.043 111.23 66.289C111.23 66.529 111.23 66.766 111.23 67C110.564 67 109.892 67 109.214 67C108.542 67 107.873 67 107.207 67Z" fill="#393C78"/>
<path d="M30.5104 28C30.5104 27.766 30.5104 27.529 30.5104 27.289C30.5104 27.043 30.5104 26.803 30.5104 26.569C30.7504 26.341 30.9904 26.11 31.2304 25.876C31.4704 25.636 31.7104 25.402 31.9504 25.174C32.2264 24.904 32.4364 24.688 32.5804 24.526C32.7244 24.358 32.8234 24.217 32.8774 24.103C32.9374 23.989 32.9674 23.884 32.9674 23.788C32.9674 23.59 32.8534 23.449 32.6254 23.365C32.3974 23.275 32.1034 23.248 31.7434 23.284C31.3834 23.32 30.9994 23.419 30.5914 23.581C30.5914 23.335 30.5914 23.086 30.5914 22.834C30.5914 22.576 30.5914 22.324 30.5914 22.078C31.1914 21.88 31.7344 21.781 32.2204 21.781C32.7124 21.781 33.1324 21.862 33.4804 22.024C33.8344 22.18 34.1044 22.399 34.2904 22.681C34.4824 22.963 34.5784 23.29 34.5784 23.662C34.5784 24.034 34.4794 24.385 34.2814 24.715C34.0834 25.039 33.7804 25.399 33.3724 25.795C33.2404 25.921 33.1084 26.05 32.9764 26.182C32.8444 26.314 32.7124 26.443 32.5804 26.569C32.9044 26.569 33.2284 26.569 33.5524 26.569C33.8824 26.569 34.2094 26.569 34.5334 26.569C34.5334 26.803 34.5334 27.043 34.5334 27.289C34.5334 27.529 34.5334 27.766 34.5334 28C33.8674 28 33.1954 28 32.5174 28C31.8454 28 31.1764 28 30.5104 28Z" fill="#393C78"/>
<path d="M12.2606 21.772C12.2606 22.798 12.2606 23.836 12.2606 24.886C12.2606 25.936 12.2606 26.974 12.2606 28C12.0026 28 11.7416 28 11.4776 28C11.2136 28 10.9496 28 10.6856 28C10.6856 27.268 10.6856 26.53 10.6856 25.786C10.6856 25.036 10.6856 24.298 10.6856 23.572C10.5116 23.608 10.3346 23.647 10.1546 23.689C9.98064 23.725 9.80664 23.761 9.63264 23.797C9.63264 23.557 9.63264 23.314 9.63264 23.068C9.63264 22.822 9.63264 22.579 9.63264 22.339C10.0646 22.243 10.5026 22.15 10.9466 22.06C11.3906 21.964 11.8286 21.868 12.2606 21.772ZM13.6552 24.517C13.9072 24.319 14.1592 24.118 14.4112 23.914C14.6692 23.71 14.9242 23.509 15.1762 23.311C14.8702 23.311 14.5582 23.311 14.2402 23.311C13.9282 23.311 13.6192 23.311 13.3132 23.311C13.3132 23.077 13.3132 22.84 13.3132 22.6C13.3132 22.354 13.3132 22.114 13.3132 21.88C13.9432 21.88 14.5762 21.88 15.2122 21.88C15.8542 21.88 16.4902 21.88 17.1202 21.88C17.1202 22.114 17.1202 22.354 17.1202 22.6C17.1202 22.84 17.1202 23.077 17.1202 23.311C16.9042 23.485 16.6882 23.662 16.4722 23.842C16.2562 24.022 16.0402 24.199 15.8242 24.373C16.3162 24.469 16.6942 24.673 16.9582 24.985C17.2282 25.291 17.3632 25.678 17.3632 26.146C17.3632 26.59 17.2552 26.956 17.0392 27.244C16.8232 27.532 16.5262 27.745 16.1482 27.883C15.7702 28.021 15.3352 28.084 14.8432 28.072C14.3572 28.06 13.8412 27.973 13.2952 27.811C13.2952 27.565 13.2952 27.316 13.2952 27.064C13.2952 26.806 13.2952 26.554 13.2952 26.308C13.7332 26.464 14.1442 26.563 14.5282 26.605C14.9122 26.647 15.2212 26.632 15.4552 26.56C15.6952 26.482 15.8152 26.347 15.8152 26.155C15.8152 25.969 15.7222 25.828 15.5362 25.732C15.3502 25.636 15.0922 25.576 14.7622 25.552C14.4382 25.522 14.0692 25.525 13.6552 25.561C13.6552 25.387 13.6552 25.213 13.6552 25.039C13.6552 24.859 13.6552 24.685 13.6552 24.517Z" fill="#393C78"/>
<path d="M11.9882 34.772C11.9882 35.798 11.9882 36.836 11.9882 37.886C11.9882 38.936 11.9882 39.974 11.9882 41C11.7302 41 11.4692 41 11.2052 41C10.9412 41 10.6772 41 10.4132 41C10.4132 40.268 10.4132 39.53 10.4132 38.786C10.4132 38.036 10.4132 37.298 10.4132 36.572C10.2392 36.608 10.0622 36.647 9.88218 36.689C9.70818 36.725 9.53418 36.761 9.36018 36.797C9.36018 36.557 9.36018 36.314 9.36018 36.068C9.36018 35.822 9.36018 35.579 9.36018 35.339C9.79218 35.243 10.2302 35.15 10.6742 35.06C11.1182 34.964 11.5562 34.868 11.9882 34.772ZM12.7978 39.839C12.7978 39.605 12.7978 39.368 12.7978 39.128C12.7978 38.882 12.7978 38.642 12.7978 38.408C13.0978 37.826 13.4008 37.238 13.7068 36.644C14.0128 36.05 14.3128 35.462 14.6068 34.88C14.9908 34.88 15.3748 34.88 15.7588 34.88C16.1488 34.88 16.5358 34.88 16.9198 34.88C16.9198 35.462 16.9198 36.05 16.9198 36.644C16.9198 37.238 16.9198 37.826 16.9198 38.408C17.0578 38.408 17.1988 38.408 17.3428 38.408C17.4928 38.408 17.6368 38.408 17.7748 38.408C17.7748 38.642 17.7748 38.882 17.7748 39.128C17.7748 39.368 17.7748 39.605 17.7748 39.839C17.6368 39.839 17.4928 39.839 17.3428 39.839C17.1988 39.839 17.0578 39.839 16.9198 39.839C16.9198 40.031 16.9198 40.226 16.9198 40.424C16.9198 40.616 16.9198 40.808 16.9198 41C16.6678 41 16.4098 41 16.1458 41C15.8878 41 15.6328 41 15.3808 41C15.3808 40.808 15.3808 40.616 15.3808 40.424C15.3808 40.226 15.3808 40.031 15.3808 39.839C14.9548 39.839 14.5228 39.839 14.0848 39.839C13.6528 39.839 13.2238 39.839 12.7978 39.839ZM14.4178 38.408C14.5738 38.408 14.7328 38.408 14.8948 38.408C15.0628 38.408 15.2248 38.408 15.3808 38.408C15.3808 38.072 15.3808 37.73 15.3808 37.382C15.3808 37.034 15.3808 36.692 15.3808 36.356C15.2248 36.692 15.0628 37.034 14.8948 37.382C14.7328 37.73 14.5738 38.072 14.4178 38.408Z" fill="#393C78"/>
<path d="M12.2782 47.772C12.2782 48.798 12.2782 49.836 12.2782 50.886C12.2782 51.936 12.2782 52.974 12.2782 54C12.0202 54 11.7592 54 11.4952 54C11.2312 54 10.9672 54 10.7032 54C10.7032 53.268 10.7032 52.53 10.7032 51.786C10.7032 51.036 10.7032 50.298 10.7032 49.572C10.5292 49.608 10.3522 49.647 10.1722 49.689C9.99821 49.725 9.82421 49.761 9.65021 49.797C9.65021 49.557 9.65021 49.314 9.65021 49.068C9.65021 48.822 9.65021 48.579 9.65021 48.339C10.0822 48.243 10.5202 48.15 10.9642 48.06C11.4082 47.964 11.8462 47.868 12.2782 47.772ZM13.3398 51.435C13.3938 50.847 13.4478 50.253 13.5018 49.653C13.5558 49.053 13.6098 48.462 13.6638 47.88C14.2158 47.88 14.7768 47.88 15.3468 47.88C15.9168 47.88 16.4778 47.88 17.0298 47.88C17.0298 48.114 17.0298 48.354 17.0298 48.6C17.0298 48.84 17.0298 49.077 17.0298 49.311C16.6998 49.311 16.3638 49.311 16.0218 49.311C15.6798 49.311 15.3408 49.311 15.0048 49.311C14.9928 49.425 14.9778 49.545 14.9598 49.671C14.9418 49.791 14.9268 49.911 14.9148 50.031C15.4248 50.025 15.8598 50.097 16.2198 50.247C16.5858 50.397 16.8648 50.619 17.0568 50.913C17.2548 51.207 17.3538 51.573 17.3538 52.011C17.3538 52.479 17.2428 52.866 17.0208 53.172C16.7988 53.472 16.4958 53.697 16.1118 53.847C15.7338 53.991 15.2988 54.06 14.8068 54.054C14.3208 54.048 13.8078 53.967 13.2678 53.811C13.2678 53.565 13.2678 53.316 13.2678 53.064C13.2678 52.806 13.2678 52.554 13.2678 52.308C13.7658 52.464 14.2038 52.566 14.5818 52.614C14.9658 52.656 15.2658 52.632 15.4818 52.542C15.6978 52.452 15.8058 52.29 15.8058 52.056C15.8058 51.822 15.6948 51.648 15.4728 51.534C15.2568 51.42 14.9628 51.357 14.5908 51.345C14.2188 51.327 13.8018 51.357 13.3398 51.435Z" fill="#393C78"/>
<path d="M12.0761 60.772C12.0761 61.798 12.0761 62.836 12.0761 63.886C12.0761 64.936 12.0761 65.974 12.0761 67C11.8181 67 11.5571 67 11.2931 67C11.0291 67 10.7651 67 10.5011 67C10.5011 66.268 10.5011 65.53 10.5011 64.786C10.5011 64.036 10.5011 63.298 10.5011 62.572C10.3271 62.608 10.1501 62.647 9.97007 62.689C9.79607 62.725 9.62207 62.761 9.44807 62.797C9.44807 62.557 9.44807 62.314 9.44807 62.068C9.44807 61.822 9.44807 61.579 9.44807 61.339C9.88007 61.243 10.3181 61.15 10.7621 61.06C11.2061 60.964 11.6441 60.868 12.0761 60.772ZM17.1066 62.572C16.7946 62.428 16.4856 62.338 16.1796 62.302C15.8736 62.26 15.5946 62.272 15.3426 62.338C15.0906 62.398 14.8836 62.512 14.7216 62.68C14.5656 62.842 14.4756 63.055 14.4516 63.319C14.6676 63.151 14.9106 63.037 15.1806 62.977C15.4566 62.917 15.7326 62.911 16.0086 62.959C16.2846 63.007 16.5396 63.112 16.7736 63.274C17.0136 63.43 17.2056 63.646 17.3496 63.922C17.4936 64.192 17.5656 64.522 17.5656 64.912C17.5656 65.224 17.5116 65.515 17.4036 65.785C17.2956 66.049 17.1396 66.283 16.9356 66.487C16.7376 66.685 16.4976 66.841 16.2156 66.955C15.9336 67.063 15.6186 67.117 15.2706 67.117C14.9226 67.117 14.6016 67.054 14.3076 66.928C14.0196 66.802 13.7676 66.616 13.5516 66.37C13.3416 66.118 13.1766 65.806 13.0566 65.434C12.9426 65.062 12.8856 64.63 12.8856 64.138C12.8856 63.61 12.9516 63.145 13.0836 62.743C13.2156 62.335 13.4046 61.993 13.6506 61.717C13.8966 61.435 14.1936 61.222 14.5416 61.078C14.8896 60.928 15.2796 60.847 15.7116 60.835C16.1436 60.823 16.6086 60.883 17.1066 61.015C17.1066 61.273 17.1066 61.534 17.1066 61.798C17.1066 62.056 17.1066 62.314 17.1066 62.572ZM15.2616 65.704C15.4836 65.704 15.6636 65.632 15.8016 65.488C15.9396 65.344 16.0086 65.161 16.0086 64.939C16.0086 64.711 15.9396 64.528 15.8016 64.39C15.6636 64.246 15.4836 64.174 15.2616 64.174C15.0456 64.174 14.8686 64.243 14.7306 64.381C14.5986 64.513 14.5326 64.69 14.5326 64.912C14.5326 65.146 14.5986 65.338 14.7306 65.488C14.8686 65.632 15.0456 65.704 15.2616 65.704Z" fill="#393C78"/>
<path d="M125.274 21.772C125.274 22.798 125.274 23.836 125.274 24.886C125.274 25.936 125.274 26.974 125.274 28C125.016 28 124.755 28 124.491 28C124.227 28 123.963 28 123.699 28C123.699 27.268 123.699 26.53 123.699 25.786C123.699 25.036 123.699 24.298 123.699 23.572C123.525 23.608 123.348 23.647 123.168 23.689C122.994 23.725 122.82 23.761 122.646 23.797C122.646 23.557 122.646 23.314 122.646 23.068C122.646 22.822 122.646 22.579 122.646 22.339C123.078 22.243 123.516 22.15 123.96 22.06C124.404 21.964 124.842 21.868 125.274 21.772ZM130.241 21.88C130.241 22.114 130.241 22.354 130.241 22.6C130.241 22.84 130.241 23.077 130.241 23.311C129.899 24.085 129.554 24.868 129.206 25.66C128.864 26.446 128.522 27.226 128.18 28C127.916 28 127.646 28 127.37 28C127.094 28 126.824 28 126.56 28C126.902 27.226 127.244 26.446 127.586 25.66C127.934 24.868 128.279 24.085 128.621 23.311C128.219 23.311 127.808 23.311 127.388 23.311C126.974 23.311 126.563 23.311 126.155 23.311C126.155 23.077 126.155 22.84 126.155 22.6C126.155 22.354 126.155 22.114 126.155 21.88C126.833 21.88 127.514 21.88 128.198 21.88C128.888 21.88 129.569 21.88 130.241 21.88Z" fill="#393C78"/>
<path d="M125.094 34.772C125.094 35.798 125.094 36.836 125.094 37.886C125.094 38.936 125.094 39.974 125.094 41C124.836 41 124.575 41 124.311 41C124.047 41 123.783 41 123.519 41C123.519 40.268 123.519 39.53 123.519 38.786C123.519 38.036 123.519 37.298 123.519 36.572C123.345 36.608 123.168 36.647 122.988 36.689C122.814 36.725 122.64 36.761 122.466 36.797C122.466 36.557 122.466 36.314 122.466 36.068C122.466 35.822 122.466 35.579 122.466 35.339C122.898 35.243 123.336 35.15 123.78 35.06C124.224 34.964 124.662 34.868 125.094 34.772ZM128.207 41.135C127.769 41.135 127.376 41.057 127.028 40.901C126.68 40.739 126.404 40.514 126.2 40.226C126.002 39.938 125.903 39.602 125.903 39.218C125.903 38.9 125.969 38.624 126.101 38.39C126.239 38.156 126.425 37.967 126.659 37.823C126.461 37.685 126.305 37.514 126.191 37.31C126.083 37.106 126.029 36.866 126.029 36.59C126.029 36.23 126.122 35.912 126.308 35.636C126.5 35.36 126.761 35.144 127.091 34.988C127.421 34.826 127.793 34.745 128.207 34.745C128.621 34.745 128.99 34.826 129.314 34.988C129.644 35.144 129.902 35.36 130.088 35.636C130.274 35.912 130.367 36.23 130.367 36.59C130.367 36.866 130.31 37.106 130.196 37.31C130.088 37.514 129.938 37.685 129.746 37.823C129.974 37.967 130.154 38.156 130.286 38.39C130.424 38.624 130.493 38.9 130.493 39.218C130.493 39.602 130.391 39.938 130.187 40.226C129.989 40.514 129.719 40.739 129.377 40.901C129.035 41.057 128.645 41.135 128.207 41.135ZM128.207 37.247C128.399 37.247 128.552 37.193 128.666 37.085C128.78 36.977 128.837 36.839 128.837 36.671C128.837 36.509 128.78 36.377 128.666 36.275C128.552 36.173 128.399 36.122 128.207 36.122C128.015 36.122 127.859 36.173 127.739 36.275C127.619 36.377 127.559 36.509 127.559 36.671C127.559 36.839 127.619 36.977 127.739 37.085C127.865 37.193 128.021 37.247 128.207 37.247ZM128.207 39.758C128.417 39.758 128.591 39.695 128.729 39.569C128.867 39.443 128.936 39.284 128.936 39.092C128.936 38.888 128.867 38.726 128.729 38.606C128.591 38.48 128.417 38.417 128.207 38.417C127.997 38.417 127.82 38.48 127.676 38.606C127.532 38.726 127.46 38.888 127.46 39.092C127.46 39.284 127.532 39.443 127.676 39.569C127.82 39.695 127.997 39.758 128.207 39.758Z" fill="#393C78"/>
<path d="M125.076 47.772C125.076 48.798 125.076 49.836 125.076 50.886C125.076 51.936 125.076 52.974 125.076 54C124.818 54 124.557 54 124.293 54C124.029 54 123.765 54 123.501 54C123.501 53.268 123.501 52.53 123.501 51.786C123.501 51.036 123.501 50.298 123.501 49.572C123.327 49.608 123.15 49.647 122.97 49.689C122.796 49.725 122.622 49.761 122.448 49.797C122.448 49.557 122.448 49.314 122.448 49.068C122.448 48.822 122.448 48.579 122.448 48.339C122.88 48.243 123.318 48.15 123.762 48.06C124.206 47.964 124.644 47.868 125.076 47.772ZM126.282 52.299C126.594 52.443 126.903 52.536 127.209 52.578C127.515 52.614 127.794 52.602 128.046 52.542C128.298 52.476 128.502 52.362 128.658 52.2C128.82 52.032 128.913 51.816 128.937 51.552C128.721 51.72 128.475 51.834 128.199 51.894C127.929 51.954 127.656 51.96 127.38 51.912C127.104 51.864 126.846 51.762 126.606 51.606C126.372 51.444 126.183 51.228 126.039 50.958C125.895 50.682 125.823 50.349 125.823 49.959C125.823 49.647 125.877 49.359 125.985 49.095C126.093 48.825 126.246 48.591 126.444 48.393C126.648 48.189 126.891 48.033 127.173 47.925C127.455 47.811 127.77 47.754 128.118 47.754C128.466 47.754 128.784 47.817 129.072 47.943C129.366 48.069 129.618 48.258 129.828 48.51C130.044 48.756 130.209 49.065 130.323 49.437C130.443 49.809 130.503 50.241 130.503 50.733C130.503 51.261 130.437 51.729 130.305 52.137C130.173 52.539 129.984 52.881 129.738 53.163C129.492 53.439 129.195 53.652 128.847 53.802C128.499 53.946 128.109 54.024 127.677 54.036C127.245 54.048 126.78 53.988 126.282 53.856C126.282 53.598 126.282 53.34 126.282 53.082C126.282 52.818 126.282 52.557 126.282 52.299ZM128.127 49.167C127.905 49.167 127.725 49.239 127.587 49.383C127.449 49.521 127.38 49.704 127.38 49.932C127.38 50.16 127.449 50.346 127.587 50.49C127.725 50.628 127.905 50.697 128.127 50.697C128.343 50.697 128.517 50.631 128.649 50.499C128.787 50.361 128.856 50.181 128.856 49.959C128.856 49.725 128.787 49.536 128.649 49.392C128.517 49.242 128.343 49.167 128.127 49.167Z" fill="#393C78"/>
<path d="M121.601 67C121.601 66.766 121.601 66.529 121.601 66.289C121.601 66.043 121.601 65.803 121.601 65.569C121.841 65.341 122.081 65.11 122.321 64.876C122.561 64.636 122.801 64.402 123.041 64.174C123.317 63.904 123.527 63.688 123.671 63.526C123.815 63.358 123.914 63.217 123.968 63.103C124.028 62.989 124.058 62.884 124.058 62.788C124.058 62.59 123.944 62.449 123.716 62.365C123.488 62.275 123.194 62.248 122.834 62.284C122.474 62.32 122.09 62.419 121.682 62.581C121.682 62.335 121.682 62.086 121.682 61.834C121.682 61.576 121.682 61.324 121.682 61.078C122.282 60.88 122.825 60.781 123.311 60.781C123.803 60.781 124.223 60.862 124.571 61.024C124.925 61.18 125.195 61.399 125.381 61.681C125.573 61.963 125.669 62.29 125.669 62.662C125.669 63.034 125.57 63.385 125.372 63.715C125.174 64.039 124.871 64.399 124.463 64.795C124.331 64.921 124.199 65.05 124.067 65.182C123.935 65.314 123.803 65.443 123.671 65.569C123.995 65.569 124.319 65.569 124.643 65.569C124.973 65.569 125.3 65.569 125.624 65.569C125.624 65.803 125.624 66.043 125.624 66.289C125.624 66.529 125.624 66.766 125.624 67C124.958 67 124.286 67 123.608 67C122.936 67 122.267 67 121.601 67ZM128.91 67.126C128.514 67.126 128.151 67.048 127.821 66.892C127.491 66.73 127.206 66.505 126.966 66.217C126.732 65.929 126.549 65.59 126.417 65.2C126.291 64.81 126.228 64.387 126.228 63.931C126.228 63.475 126.291 63.055 126.417 62.671C126.549 62.281 126.732 61.945 126.966 61.663C127.206 61.375 127.491 61.153 127.821 60.997C128.151 60.835 128.514 60.754 128.91 60.754C129.306 60.754 129.666 60.835 129.99 60.997C130.32 61.153 130.605 61.375 130.845 61.663C131.085 61.945 131.268 62.281 131.394 62.671C131.526 63.055 131.592 63.475 131.592 63.931C131.592 64.387 131.526 64.81 131.394 65.2C131.268 65.59 131.085 65.929 130.845 66.217C130.605 66.505 130.32 66.73 129.99 66.892C129.666 67.048 129.306 67.126 128.91 67.126ZM128.91 65.641C129.15 65.641 129.351 65.572 129.513 65.434C129.681 65.29 129.81 65.089 129.9 64.831C129.99 64.573 130.035 64.273 130.035 63.931C130.035 63.589 129.99 63.292 129.9 63.04C129.81 62.782 129.681 62.584 129.513 62.446C129.351 62.308 129.15 62.239 128.91 62.239C128.676 62.239 128.475 62.308 128.307 62.446C128.139 62.584 128.01 62.779 127.92 63.031C127.83 63.283 127.785 63.583 127.785 63.931C127.785 64.273 127.83 64.573 127.92 64.831C128.01 65.089 128.139 65.29 128.307 65.434C128.475 65.572 128.676 65.641 128.91 65.641Z" fill="#393C78"/>
<path d="M30.1015 52.839C30.1015 52.605 30.1015 52.368 30.1015 52.128C30.1015 51.882 30.1015 51.642 30.1015 51.408C30.4015 50.826 30.7045 50.238 31.0105 49.644C31.3165 49.05 31.6165 48.462 31.9105 47.88C32.2945 47.88 32.6785 47.88 33.0625 47.88C33.4525 47.88 33.8395 47.88 34.2235 47.88C34.2235 48.462 34.2235 49.05 34.2235 49.644C34.2235 50.238 34.2235 50.826 34.2235 51.408C34.3615 51.408 34.5025 51.408 34.6465 51.408C34.7965 51.408 34.9405 51.408 35.0785 51.408C35.0785 51.642 35.0785 51.882 35.0785 52.128C35.0785 52.368 35.0785 52.605 35.0785 52.839C34.9405 52.839 34.7965 52.839 34.6465 52.839C34.5025 52.839 34.3615 52.839 34.2235 52.839C34.2235 53.031 34.2235 53.226 34.2235 53.424C34.2235 53.616 34.2235 53.808 34.2235 54C33.9715 54 33.7135 54 33.4495 54C33.1915 54 32.9365 54 32.6845 54C32.6845 53.808 32.6845 53.616 32.6845 53.424C32.6845 53.226 32.6845 53.031 32.6845 52.839C32.2585 52.839 31.8265 52.839 31.3885 52.839C30.9565 52.839 30.5275 52.839 30.1015 52.839ZM31.7215 51.408C31.8775 51.408 32.0365 51.408 32.1985 51.408C32.3665 51.408 32.5285 51.408 32.6845 51.408C32.6845 51.072 32.6845 50.73 32.6845 50.382C32.6845 50.034 32.6845 49.692 32.6845 49.356C32.5285 49.692 32.3665 50.034 32.1985 50.382C32.0365 50.73 31.8775 51.072 31.7215 51.408Z" fill="#393C78"/>
<path d="M30.9589 37.517C31.2109 37.319 31.4629 37.118 31.7149 36.914C31.9729 36.71 32.2279 36.509 32.4799 36.311C32.1739 36.311 31.8619 36.311 31.5439 36.311C31.2319 36.311 30.9229 36.311 30.6169 36.311C30.6169 36.077 30.6169 35.84 30.6169 35.6C30.6169 35.354 30.6169 35.114 30.6169 34.88C31.2469 34.88 31.8799 34.88 32.5159 34.88C33.1579 34.88 33.7939 34.88 34.4239 34.88C34.4239 35.114 34.4239 35.354 34.4239 35.6C34.4239 35.84 34.4239 36.077 34.4239 36.311C34.2079 36.485 33.9919 36.662 33.7759 36.842C33.5599 37.022 33.3439 37.199 33.1279 37.373C33.6199 37.469 33.9979 37.673 34.2619 37.985C34.5319 38.291 34.6669 38.678 34.6669 39.146C34.6669 39.59 34.5589 39.956 34.3429 40.244C34.1269 40.532 33.8299 40.745 33.4519 40.883C33.0739 41.021 32.6389 41.084 32.1469 41.072C31.6609 41.06 31.1449 40.973 30.5989 40.811C30.5989 40.565 30.5989 40.316 30.5989 40.064C30.5989 39.806 30.5989 39.554 30.5989 39.308C31.0369 39.464 31.4479 39.563 31.8319 39.605C32.2159 39.647 32.5249 39.632 32.7589 39.56C32.9989 39.482 33.1189 39.347 33.1189 39.155C33.1189 38.969 33.0259 38.828 32.8399 38.732C32.6539 38.636 32.3959 38.576 32.0659 38.552C31.7419 38.522 31.3729 38.525 30.9589 38.561C30.9589 38.387 30.9589 38.213 30.9589 38.039C30.9589 37.859 30.9589 37.685 30.9589 37.517Z" fill="#393C78"/>
<path d="M109.41 36.572C109.098 36.428 108.789 36.338 108.483 36.302C108.177 36.26 107.898 36.272 107.646 36.338C107.394 36.398 107.187 36.512 107.025 36.68C106.869 36.842 106.779 37.055 106.755 37.319C106.971 37.151 107.214 37.037 107.484 36.977C107.76 36.917 108.036 36.911 108.312 36.959C108.588 37.007 108.843 37.112 109.077 37.274C109.317 37.43 109.509 37.646 109.653 37.922C109.797 38.192 109.869 38.522 109.869 38.912C109.869 39.224 109.815 39.515 109.707 39.785C109.599 40.049 109.443 40.283 109.239 40.487C109.041 40.685 108.801 40.841 108.519 40.955C108.237 41.063 107.922 41.117 107.574 41.117C107.226 41.117 106.905 41.054 106.611 40.928C106.323 40.802 106.071 40.616 105.855 40.37C105.645 40.118 105.48 39.806 105.36 39.434C105.246 39.062 105.189 38.63 105.189 38.138C105.189 37.61 105.255 37.145 105.387 36.743C105.519 36.335 105.708 35.993 105.954 35.717C106.2 35.435 106.497 35.222 106.845 35.078C107.193 34.928 107.583 34.847 108.015 34.835C108.447 34.823 108.912 34.883 109.41 35.015C109.41 35.273 109.41 35.534 109.41 35.798C109.41 36.056 109.41 36.314 109.41 36.572ZM107.565 39.704C107.787 39.704 107.967 39.632 108.105 39.488C108.243 39.344 108.312 39.161 108.312 38.939C108.312 38.711 108.243 38.528 108.105 38.39C107.967 38.246 107.787 38.174 107.565 38.174C107.349 38.174 107.172 38.243 107.034 38.381C106.902 38.513 106.836 38.69 106.836 38.912C106.836 39.146 106.902 39.338 107.034 39.488C107.172 39.632 107.349 39.704 107.565 39.704Z" fill="#393C78"/>
<path d="M106.644 25.435C106.698 24.847 106.752 24.253 106.806 23.653C106.86 23.053 106.914 22.462 106.968 21.88C107.52 21.88 108.081 21.88 108.651 21.88C109.221 21.88 109.782 21.88 110.334 21.88C110.334 22.114 110.334 22.354 110.334 22.6C110.334 22.84 110.334 23.077 110.334 23.311C110.004 23.311 109.668 23.311 109.326 23.311C108.984 23.311 108.645 23.311 108.309 23.311C108.297 23.425 108.282 23.545 108.264 23.671C108.246 23.791 108.231 23.911 108.219 24.031C108.729 24.025 109.164 24.097 109.524 24.247C109.89 24.397 110.169 24.619 110.361 24.913C110.559 25.207 110.658 25.573 110.658 26.011C110.658 26.479 110.547 26.866 110.325 27.172C110.103 27.472 109.8 27.697 109.416 27.847C109.038 27.991 108.603 28.06 108.111 28.054C107.625 28.048 107.112 27.967 106.572 27.811C106.572 27.565 106.572 27.316 106.572 27.064C106.572 26.806 106.572 26.554 106.572 26.308C107.07 26.464 107.508 26.566 107.886 26.614C108.27 26.656 108.57 26.632 108.786 26.542C109.002 26.452 109.11 26.29 109.11 26.056C109.11 25.822 108.999 25.648 108.777 25.534C108.561 25.42 108.267 25.357 107.895 25.345C107.523 25.327 107.106 25.357 106.644 25.435Z" fill="#393C78"/>
</g>
<defs>
<clipPath id="clip0_16_1918">
<rect width="140" height="88" fill="white"/>
</clipPath>
<clipPath id="clip1_16_1918">
<rect width="140" height="88" rx="3" fill="white"/>
</clipPath>
</defs>
</svg>
