<svg width="140" height="88" viewBox="0 0 140 88" fill="none" xmlns="http://www.w3.org/2000/svg">
<g clip-path="url(#clip0_16_1902)">
<g clip-path="url(#clip1_16_1902)">
<rect x="50" y="33" width="40" height="23" rx="1.37931" fill="#5E609C"/>
<rect x="50" y="6" width="40" height="23" rx="1.37931" fill="#5E609C"/>
<rect x="6" y="6" width="40" height="23" rx="1.37931" fill="#5E609C"/>
<rect x="6" y="33" width="40" height="23" rx="1.37931" fill="#5E609C"/>
<rect x="6" y="59" width="40" height="23" rx="1.37931" fill="#5E609C"/>
<rect x="50" y="59" width="40" height="23" rx="1.37931" fill="#5E609C"/>
<rect x="94" y="59" width="40" height="23" rx="1.37931" fill="#5E609C"/>
<rect x="94" y="6" width="40" height="23" rx="1.37931" fill="#5E609C"/>
<rect x="94" y="33" width="40" height="23" rx="1.37931" fill="#5E609C"/>
</g>
<path d="M27.9764 11.928C27.9764 13.752 27.9764 15.5973 27.9764 17.464C27.9764 19.3307 27.9764 21.176 27.9764 23C27.5177 23 27.0537 23 26.5844 23C26.115 23 25.6457 23 25.1764 23C25.1764 21.6987 25.1764 20.3867 25.1764 19.064C25.1764 17.7307 25.1764 16.4187 25.1764 15.128C24.867 15.192 24.5524 15.2613 24.2324 15.336C23.923 15.4 23.6137 15.464 23.3044 15.528C23.3044 15.1013 23.3044 14.6693 23.3044 14.232C23.3044 13.7947 23.3044 13.3627 23.3044 12.936C24.0724 12.7653 24.851 12.6 25.6404 12.44C26.4297 12.2693 27.2084 12.0987 27.9764 11.928Z" fill="#393C78"/>
<path d="M21.7359 47.936C21.7359 47.52 21.7359 47.0987 21.7359 46.672C21.7359 46.2347 21.7359 45.808 21.7359 45.392C22.2693 44.3573 22.8079 43.312 23.3519 42.256C23.8959 41.2 24.4293 40.1547 24.9519 39.12C25.6346 39.12 26.3173 39.12 26.9999 39.12C27.6933 39.12 28.3813 39.12 29.0639 39.12C29.0639 40.1547 29.0639 41.2 29.0639 42.256C29.0639 43.312 29.0639 44.3573 29.0639 45.392C29.3093 45.392 29.5599 45.392 29.8159 45.392C30.0826 45.392 30.3386 45.392 30.5839 45.392C30.5839 45.808 30.5839 46.2347 30.5839 46.672C30.5839 47.0987 30.5839 47.52 30.5839 47.936C30.3386 47.936 30.0826 47.936 29.8159 47.936C29.5599 47.936 29.3093 47.936 29.0639 47.936C29.0639 48.2773 29.0639 48.624 29.0639 48.976C29.0639 49.3173 29.0639 49.6587 29.0639 50C28.6159 50 28.1573 50 27.6879 50C27.2293 50 26.7759 50 26.3279 50C26.3279 49.6587 26.3279 49.3173 26.3279 48.976C26.3279 48.624 26.3279 48.2773 26.3279 47.936C25.5706 47.936 24.8026 47.936 24.0239 47.936C23.2559 47.936 22.4933 47.936 21.7359 47.936ZM24.6159 45.392C24.8933 45.392 25.1759 45.392 25.4639 45.392C25.7626 45.392 26.0506 45.392 26.3279 45.392C26.3279 44.7947 26.3279 44.1867 26.3279 43.568C26.3279 42.9493 26.3279 42.3413 26.3279 41.744C26.0506 42.3413 25.7626 42.9493 25.4639 43.568C25.1759 44.1867 24.8933 44.7947 24.6159 45.392Z" fill="#393C78"/>
<path d="M29.6358 65.12C29.6358 65.536 29.6358 65.9627 29.6358 66.4C29.6358 66.8267 29.6358 67.248 29.6358 67.664C29.0278 69.04 28.4144 70.432 27.7958 71.84C27.1878 73.2373 26.5798 74.624 25.9718 76C25.5024 76 25.0224 76 24.5318 76C24.0411 76 23.5611 76 23.0918 76C23.6998 74.624 24.3078 73.2373 24.9158 71.84C25.5344 70.432 26.1478 69.04 26.7558 67.664C26.0411 67.664 25.3104 67.664 24.5638 67.664C23.8278 67.664 23.0971 67.664 22.3717 67.664C22.3717 67.248 22.3717 66.8267 22.3717 66.4C22.3717 65.9627 22.3717 65.536 22.3717 65.12C23.5771 65.12 24.7878 65.12 26.0038 65.12C27.2304 65.12 28.4411 65.12 29.6358 65.12Z" fill="#393C78"/>
<path d="M66.4629 23C66.4629 22.584 66.4629 22.1627 66.4629 21.736C66.4629 21.2987 66.4629 20.872 66.4629 20.456C66.8896 20.0507 67.3163 19.64 67.7429 19.224C68.1696 18.7973 68.5963 18.3813 69.0229 17.976C69.5136 17.496 69.8869 17.112 70.1429 16.824C70.3989 16.5253 70.5749 16.2747 70.6709 16.072C70.7776 15.8693 70.8309 15.6827 70.8309 15.512C70.8309 15.16 70.6283 14.9093 70.2229 14.76C69.8176 14.6 69.2949 14.552 68.6549 14.616C68.0149 14.68 67.3323 14.856 66.6069 15.144C66.6069 14.7067 66.6069 14.264 66.6069 13.816C66.6069 13.3573 66.6069 12.9093 66.6069 12.472C67.6736 12.12 68.6389 11.944 69.5029 11.944C70.3776 11.944 71.1243 12.088 71.7429 12.376C72.3723 12.6533 72.8523 13.0427 73.1829 13.544C73.5243 14.0453 73.6949 14.6267 73.6949 15.288C73.6949 15.9493 73.5189 16.5733 73.1669 17.16C72.8149 17.736 72.2763 18.376 71.5509 19.08C71.3163 19.304 71.0816 19.5333 70.8469 19.768C70.6123 20.0027 70.3776 20.232 70.1429 20.456C70.7189 20.456 71.2949 20.456 71.8709 20.456C72.4576 20.456 73.0389 20.456 73.6149 20.456C73.6149 20.872 73.6149 21.2987 73.6149 21.736C73.6149 22.1627 73.6149 22.584 73.6149 23C72.4309 23 71.2363 23 70.0309 23C68.8363 23 67.6469 23 66.4629 23Z" fill="#393C78"/>
<path d="M66.6996 45.44C66.7956 44.3947 66.8916 43.3387 66.9876 42.272C67.0836 41.2053 67.1796 40.1547 67.2756 39.12C68.2569 39.12 69.2542 39.12 70.2676 39.12C71.2809 39.12 72.2782 39.12 73.2596 39.12C73.2596 39.536 73.2596 39.9627 73.2596 40.4C73.2596 40.8267 73.2596 41.248 73.2596 41.664C72.6729 41.664 72.0756 41.664 71.4676 41.664C70.8596 41.664 70.2569 41.664 69.6596 41.664C69.6382 41.8667 69.6116 42.08 69.5796 42.304C69.5476 42.5173 69.5209 42.7307 69.4996 42.944C70.4062 42.9333 71.1796 43.0613 71.8196 43.328C72.4702 43.5947 72.9662 43.9893 73.3076 44.512C73.6596 45.0347 73.8356 45.6853 73.8356 46.464C73.8356 47.296 73.6382 47.984 73.2436 48.528C72.8489 49.0613 72.3102 49.4613 71.6276 49.728C70.9556 49.984 70.1822 50.1067 69.3076 50.096C68.4436 50.0853 67.5316 49.9413 66.5716 49.664C66.5716 49.2267 66.5716 48.784 66.5716 48.336C66.5716 47.8773 66.5716 47.4293 66.5716 46.992C67.4569 47.2693 68.2356 47.4507 68.9076 47.536C69.5902 47.6107 70.1236 47.568 70.5076 47.408C70.8916 47.248 71.0836 46.96 71.0836 46.544C71.0836 46.128 70.8862 45.8187 70.4916 45.616C70.1076 45.4133 69.5849 45.3013 68.9236 45.28C68.2622 45.248 67.5209 45.3013 66.6996 45.44Z" fill="#393C78"/>
<path d="M70.0194 76.24C69.2408 76.24 68.5421 76.1013 67.9234 75.824C67.3048 75.536 66.8141 75.136 66.4514 74.624C66.0994 74.112 65.9234 73.5147 65.9234 72.832C65.9234 72.2667 66.0408 71.776 66.2754 71.36C66.5208 70.944 66.8514 70.608 67.2674 70.352C66.9154 70.1067 66.6381 69.8027 66.4354 69.44C66.2434 69.0773 66.1474 68.6507 66.1474 68.16C66.1474 67.52 66.3128 66.9547 66.6434 66.464C66.9848 65.9733 67.4488 65.5893 68.0354 65.312C68.6221 65.024 69.2834 64.88 70.0194 64.88C70.7554 64.88 71.4114 65.024 71.9874 65.312C72.5741 65.5893 73.0328 65.9733 73.3634 66.464C73.6941 66.9547 73.8594 67.52 73.8594 68.16C73.8594 68.6507 73.7581 69.0773 73.5554 69.44C73.3634 69.8027 73.0968 70.1067 72.7554 70.352C73.1608 70.608 73.4808 70.944 73.7154 71.36C73.9608 71.776 74.0834 72.2667 74.0834 72.832C74.0834 73.5147 73.9021 74.112 73.5394 74.624C73.1874 75.136 72.7074 75.536 72.0994 75.824C71.4914 76.1013 70.7981 76.24 70.0194 76.24ZM70.0194 69.328C70.3608 69.328 70.6328 69.232 70.8354 69.04C71.0381 68.848 71.1394 68.6027 71.1394 68.304C71.1394 68.016 71.0381 67.7813 70.8354 67.6C70.6328 67.4187 70.3608 67.328 70.0194 67.328C69.6781 67.328 69.4008 67.4187 69.1874 67.6C68.9741 67.7813 68.8674 68.016 68.8674 68.304C68.8674 68.6027 68.9741 68.848 69.1874 69.04C69.4114 69.232 69.6888 69.328 70.0194 69.328ZM70.0194 73.792C70.3928 73.792 70.7021 73.68 70.9474 73.456C71.1928 73.232 71.3154 72.9493 71.3154 72.608C71.3154 72.2453 71.1928 71.9573 70.9474 71.744C70.7021 71.52 70.3928 71.408 70.0194 71.408C69.6461 71.408 69.3314 71.52 69.0754 71.744C68.8194 71.9573 68.6914 72.2453 68.6914 72.608C68.6914 72.9493 68.8194 73.232 69.0754 73.456C69.3314 73.68 69.6461 73.792 70.0194 73.792Z" fill="#393C78"/>
<path d="M111.26 16.808C111.708 16.456 112.156 16.0987 112.604 15.736C113.063 15.3733 113.516 15.016 113.964 14.664C113.42 14.664 112.866 14.664 112.3 14.664C111.746 14.664 111.196 14.664 110.652 14.664C110.652 14.248 110.652 13.8267 110.652 13.4C110.652 12.9627 110.652 12.536 110.652 12.12C111.772 12.12 112.898 12.12 114.028 12.12C115.17 12.12 116.3 12.12 117.42 12.12C117.42 12.536 117.42 12.9627 117.42 13.4C117.42 13.8267 117.42 14.248 117.42 14.664C117.036 14.9733 116.652 15.288 116.268 15.608C115.884 15.928 115.5 16.2427 115.116 16.552C115.991 16.7227 116.663 17.0853 117.132 17.64C117.612 18.184 117.852 18.872 117.852 19.704C117.852 20.4933 117.66 21.144 117.276 21.656C116.892 22.168 116.364 22.5467 115.692 22.792C115.02 23.0373 114.247 23.1493 113.372 23.128C112.508 23.1067 111.591 22.952 110.62 22.664C110.62 22.2267 110.62 21.784 110.62 21.336C110.62 20.8773 110.62 20.4293 110.62 19.992C111.399 20.2693 112.13 20.4453 112.812 20.52C113.495 20.5947 114.044 20.568 114.46 20.44C114.887 20.3013 115.1 20.0613 115.1 19.72C115.1 19.3893 114.935 19.1387 114.604 18.968C114.274 18.7973 113.815 18.6907 113.228 18.648C112.652 18.5947 111.996 18.6 111.26 18.664C111.26 18.3547 111.26 18.0453 111.26 17.736C111.26 17.416 111.26 17.1067 111.26 16.808Z" fill="#393C78"/>
<path d="M117.396 42.128C116.842 41.872 116.292 41.712 115.748 41.648C115.204 41.5733 114.708 41.5947 114.26 41.712C113.812 41.8187 113.444 42.0213 113.156 42.32C112.879 42.608 112.719 42.9867 112.676 43.456C113.06 43.1573 113.492 42.9547 113.972 42.848C114.463 42.7413 114.954 42.7307 115.444 42.816C115.935 42.9013 116.388 43.088 116.804 43.376C117.231 43.6533 117.572 44.0373 117.828 44.528C118.084 45.008 118.212 45.5947 118.212 46.288C118.212 46.8427 118.116 47.36 117.924 47.84C117.732 48.3093 117.455 48.7253 117.092 49.088C116.74 49.44 116.314 49.7173 115.812 49.92C115.311 50.112 114.751 50.208 114.132 50.208C113.514 50.208 112.943 50.096 112.42 49.872C111.908 49.648 111.46 49.3173 111.076 48.88C110.703 48.432 110.41 47.8773 110.196 47.216C109.994 46.5547 109.892 45.7867 109.892 44.912C109.892 43.9733 110.01 43.1467 110.244 42.432C110.479 41.7067 110.815 41.0987 111.252 40.608C111.69 40.1067 112.218 39.728 112.836 39.472C113.455 39.2053 114.148 39.0613 114.916 39.04C115.684 39.0187 116.511 39.1253 117.396 39.36C117.396 39.8187 117.396 40.2827 117.396 40.752C117.396 41.2107 117.396 41.6693 117.396 42.128ZM114.116 47.696C114.511 47.696 114.831 47.568 115.076 47.312C115.322 47.056 115.444 46.7307 115.444 46.336C115.444 45.9307 115.322 45.6053 115.076 45.36C114.831 45.104 114.511 44.976 114.116 44.976C113.732 44.976 113.418 45.0987 113.172 45.344C112.938 45.5787 112.82 45.8933 112.82 46.288C112.82 46.704 112.938 47.0453 113.172 47.312C113.418 47.568 113.732 47.696 114.116 47.696Z" fill="#393C78"/>
<path d="M110.596 72.976C111.151 73.232 111.7 73.3973 112.244 73.472C112.788 73.536 113.284 73.5147 113.732 73.408C114.18 73.2907 114.543 73.088 114.82 72.8C115.108 72.5013 115.274 72.1173 115.316 71.648C114.932 71.9467 114.495 72.1493 114.004 72.256C113.524 72.3627 113.039 72.3733 112.548 72.288C112.058 72.2027 111.599 72.0213 111.172 71.744C110.756 71.456 110.42 71.072 110.164 70.592C109.908 70.1013 109.78 69.5093 109.78 68.816C109.78 68.2613 109.876 67.7493 110.068 67.28C110.26 66.8 110.532 66.384 110.884 66.032C111.247 65.6693 111.679 65.392 112.18 65.2C112.682 64.9973 113.242 64.896 113.86 64.896C114.479 64.896 115.044 65.008 115.556 65.232C116.079 65.456 116.527 65.792 116.9 66.24C117.284 66.6773 117.578 67.2267 117.78 67.888C117.994 68.5493 118.1 69.3173 118.1 70.192C118.1 71.1307 117.983 71.9627 117.748 72.688C117.514 73.4027 117.178 74.0107 116.74 74.512C116.303 75.0027 115.775 75.3813 115.156 75.648C114.538 75.904 113.844 76.0427 113.076 76.064C112.308 76.0853 111.482 75.9787 110.596 75.744C110.596 75.2853 110.596 74.8267 110.596 74.368C110.596 73.8987 110.596 73.4347 110.596 72.976ZM113.876 67.408C113.482 67.408 113.162 67.536 112.916 67.792C112.671 68.0373 112.548 68.3627 112.548 68.768C112.548 69.1733 112.671 69.504 112.916 69.76C113.162 70.0053 113.482 70.128 113.876 70.128C114.26 70.128 114.57 70.0107 114.804 69.776C115.05 69.5307 115.172 69.2107 115.172 68.816C115.172 68.4 115.05 68.064 114.804 67.808C114.57 67.5413 114.26 67.408 113.876 67.408Z" fill="#393C78"/>
</g>
<defs>
<clipPath id="clip0_16_1902">
<rect width="140" height="88" rx="3" fill="white"/>
</clipPath>
<clipPath id="clip1_16_1902">
<rect width="140" height="88" fill="white"/>
</clipPath>
</defs>
</svg>
