<svg width="140" height="88" viewBox="0 0 140 88" fill="none" xmlns="http://www.w3.org/2000/svg">
<g clip-path="url(#clip0_16_1912)">
<rect x="32" y="6" width="102" height="60" rx="3.51724" fill="#5E609C"/>
<rect x="6" y="70" width="21.8736" height="11.9862" rx="0.758621" fill="#5E609C"/>
<rect x="32.5236" y="70" width="21.8736" height="11.9862" rx="0.758621" fill="#5E609C"/>
<rect x="59.0471" y="70" width="21.8736" height="11.9862" rx="0.758621" fill="#5E609C"/>
<rect x="85.5707" y="70" width="21.8736" height="11.9862" rx="0.758621" fill="#5E609C"/>
<rect x="112.094" y="70" width="21.8736" height="11.9862" rx="0.758621" fill="#5E609C"/>
<rect x="6" y="54" width="21.8736" height="11.9862" rx="0.758621" fill="#5E609C"/>
<rect x="6" y="38" width="21.8736" height="11.9862" rx="0.758621" fill="#5E609C"/>
<rect x="6" y="22" width="21.8736" height="11.9862" rx="0.758621" fill="#5E609C"/>
<rect x="6" y="6" width="21.8736" height="11.9862" rx="0.758621" fill="#5E609C"/>
<path d="M15.0104 15C15.0104 14.766 15.0104 14.529 15.0104 14.289C15.0104 14.043 15.0104 13.803 15.0104 13.569C15.2504 13.341 15.4904 13.11 15.7304 12.876C15.9704 12.636 16.2104 12.402 16.4504 12.174C16.7264 11.904 16.9364 11.688 17.0804 11.526C17.2244 11.358 17.3234 11.217 17.3774 11.103C17.4374 10.989 17.4674 10.884 17.4674 10.788C17.4674 10.59 17.3534 10.449 17.1254 10.365C16.8974 10.275 16.6034 10.248 16.2434 10.284C15.8834 10.32 15.4994 10.419 15.0914 10.581C15.0914 10.335 15.0914 10.086 15.0914 9.834C15.0914 9.576 15.0914 9.324 15.0914 9.078C15.6914 8.88 16.2344 8.781 16.7204 8.781C17.2124 8.781 17.6324 8.862 17.9804 9.024C18.3344 9.18 18.6044 9.399 18.7904 9.681C18.9824 9.963 19.0784 10.29 19.0784 10.662C19.0784 11.034 18.9794 11.385 18.7814 11.715C18.5834 12.039 18.2804 12.399 17.8724 12.795C17.7404 12.921 17.6084 13.05 17.4764 13.182C17.3444 13.314 17.2124 13.443 17.0804 13.569C17.4044 13.569 17.7284 13.569 18.0524 13.569C18.3824 13.569 18.7094 13.569 19.0334 13.569C19.0334 13.803 19.0334 14.043 19.0334 14.289C19.0334 14.529 19.0334 14.766 19.0334 15C18.3674 15 17.6954 15 17.0174 15C16.3454 15 15.6764 15 15.0104 15Z" fill="#393C78"/>
<path d="M15.4589 27.517C15.7109 27.319 15.9629 27.118 16.2149 26.914C16.4729 26.71 16.7279 26.509 16.9799 26.311C16.6739 26.311 16.3619 26.311 16.0439 26.311C15.7319 26.311 15.4229 26.311 15.1169 26.311C15.1169 26.077 15.1169 25.84 15.1169 25.6C15.1169 25.354 15.1169 25.114 15.1169 24.88C15.7469 24.88 16.3799 24.88 17.0159 24.88C17.6579 24.88 18.2939 24.88 18.9239 24.88C18.9239 25.114 18.9239 25.354 18.9239 25.6C18.9239 25.84 18.9239 26.077 18.9239 26.311C18.7079 26.485 18.4919 26.662 18.2759 26.842C18.0599 27.022 17.8439 27.199 17.6279 27.373C18.1199 27.469 18.4979 27.673 18.7619 27.985C19.0319 28.291 19.1669 28.678 19.1669 29.146C19.1669 29.59 19.0589 29.956 18.8429 30.244C18.6269 30.532 18.3299 30.745 17.9519 30.883C17.5739 31.021 17.1389 31.084 16.6469 31.072C16.1609 31.06 15.6449 30.973 15.0989 30.811C15.0989 30.565 15.0989 30.316 15.0989 30.064C15.0989 29.806 15.0989 29.554 15.0989 29.308C15.5369 29.464 15.9479 29.563 16.3319 29.605C16.7159 29.647 17.0249 29.632 17.2589 29.56C17.4989 29.482 17.6189 29.347 17.6189 29.155C17.6189 28.969 17.5259 28.828 17.3399 28.732C17.1539 28.636 16.8959 28.576 16.5659 28.552C16.2419 28.522 15.8729 28.525 15.4589 28.561C15.4589 28.387 15.4589 28.213 15.4589 28.039C15.4589 27.859 15.4589 27.685 15.4589 27.517Z" fill="#393C78"/>
<path d="M14.6015 45.839C14.6015 45.605 14.6015 45.368 14.6015 45.128C14.6015 44.882 14.6015 44.642 14.6015 44.408C14.9015 43.826 15.2045 43.238 15.5105 42.644C15.8165 42.05 16.1165 41.462 16.4105 40.88C16.7945 40.88 17.1785 40.88 17.5625 40.88C17.9525 40.88 18.3395 40.88 18.7235 40.88C18.7235 41.462 18.7235 42.05 18.7235 42.644C18.7235 43.238 18.7235 43.826 18.7235 44.408C18.8615 44.408 19.0025 44.408 19.1465 44.408C19.2965 44.408 19.4405 44.408 19.5785 44.408C19.5785 44.642 19.5785 44.882 19.5785 45.128C19.5785 45.368 19.5785 45.605 19.5785 45.839C19.4405 45.839 19.2965 45.839 19.1465 45.839C19.0025 45.839 18.8615 45.839 18.7235 45.839C18.7235 46.031 18.7235 46.226 18.7235 46.424C18.7235 46.616 18.7235 46.808 18.7235 47C18.4715 47 18.2135 47 17.9495 47C17.6915 47 17.4365 47 17.1845 47C17.1845 46.808 17.1845 46.616 17.1845 46.424C17.1845 46.226 17.1845 46.031 17.1845 45.839C16.7585 45.839 16.3265 45.839 15.8885 45.839C15.4565 45.839 15.0275 45.839 14.6015 45.839ZM16.2215 44.408C16.3775 44.408 16.5365 44.408 16.6985 44.408C16.8665 44.408 17.0285 44.408 17.1845 44.408C17.1845 44.072 17.1845 43.73 17.1845 43.382C17.1845 43.034 17.1845 42.692 17.1845 42.356C17.0285 42.692 16.8665 43.034 16.6985 43.382C16.5365 43.73 16.3775 44.072 16.2215 44.408Z" fill="#393C78"/>
<path d="M15.1435 60.435C15.1975 59.847 15.2515 59.253 15.3055 58.653C15.3595 58.053 15.4135 57.462 15.4675 56.88C16.0195 56.88 16.5805 56.88 17.1505 56.88C17.7205 56.88 18.2815 56.88 18.8335 56.88C18.8335 57.114 18.8335 57.354 18.8335 57.6C18.8335 57.84 18.8335 58.077 18.8335 58.311C18.5035 58.311 18.1675 58.311 17.8255 58.311C17.4835 58.311 17.1445 58.311 16.8085 58.311C16.7965 58.425 16.7815 58.545 16.7635 58.671C16.7455 58.791 16.7305 58.911 16.7185 59.031C17.2285 59.025 17.6635 59.097 18.0235 59.247C18.3895 59.397 18.6685 59.619 18.8605 59.913C19.0585 60.207 19.1575 60.573 19.1575 61.011C19.1575 61.479 19.0465 61.866 18.8245 62.172C18.6025 62.472 18.2995 62.697 17.9155 62.847C17.5375 62.991 17.1025 63.06 16.6105 63.054C16.1245 63.048 15.6115 62.967 15.0715 62.811C15.0715 62.565 15.0715 62.316 15.0715 62.064C15.0715 61.806 15.0715 61.554 15.0715 61.308C15.5695 61.464 16.0075 61.566 16.3855 61.614C16.7695 61.656 17.0695 61.632 17.2855 61.542C17.5015 61.452 17.6095 61.29 17.6095 61.056C17.6095 60.822 17.4985 60.648 17.2765 60.534C17.0605 60.42 16.7665 60.357 16.3945 60.345C16.0225 60.327 15.6055 60.357 15.1435 60.435Z" fill="#393C78"/>
<path d="M18.9104 74.572C18.5984 74.428 18.2894 74.338 17.9834 74.302C17.6774 74.26 17.3984 74.272 17.1464 74.338C16.8944 74.398 16.6874 74.512 16.5254 74.68C16.3694 74.842 16.2794 75.055 16.2554 75.319C16.4714 75.151 16.7144 75.037 16.9844 74.977C17.2604 74.917 17.5364 74.911 17.8124 74.959C18.0884 75.007 18.3434 75.112 18.5774 75.274C18.8174 75.43 19.0094 75.646 19.1534 75.922C19.2974 76.192 19.3694 76.522 19.3694 76.912C19.3694 77.224 19.3154 77.515 19.2074 77.785C19.0994 78.049 18.9434 78.283 18.7394 78.487C18.5414 78.685 18.3014 78.841 18.0194 78.955C17.7374 79.063 17.4224 79.117 17.0744 79.117C16.7264 79.117 16.4054 79.054 16.1114 78.928C15.8234 78.802 15.5714 78.616 15.3554 78.37C15.1454 78.118 14.9804 77.806 14.8604 77.434C14.7464 77.062 14.6894 76.63 14.6894 76.138C14.6894 75.61 14.7554 75.145 14.8874 74.743C15.0194 74.335 15.2084 73.993 15.4544 73.717C15.7004 73.435 15.9974 73.222 16.3454 73.078C16.6934 72.928 17.0834 72.847 17.5154 72.835C17.9474 72.823 18.4124 72.883 18.9104 73.015C18.9104 73.273 18.9104 73.534 18.9104 73.798C18.9104 74.056 18.9104 74.314 18.9104 74.572ZM17.0654 77.704C17.2874 77.704 17.4674 77.632 17.6054 77.488C17.7434 77.344 17.8124 77.161 17.8124 76.939C17.8124 76.711 17.7434 76.528 17.6054 76.39C17.4674 76.246 17.2874 76.174 17.0654 76.174C16.8494 76.174 16.6724 76.243 16.5344 76.381C16.4024 76.513 16.3364 76.69 16.3364 76.912C16.3364 77.146 16.4024 77.338 16.5344 77.488C16.6724 77.632 16.8494 77.704 17.0654 77.704Z" fill="#393C78"/>
<path d="M46.0451 72.88C46.0451 73.114 46.0451 73.354 46.0451 73.6C46.0451 73.84 46.0451 74.077 46.0451 74.311C45.7031 75.085 45.3581 75.868 45.0101 76.66C44.6681 77.446 44.3261 78.226 43.9841 79C43.7201 79 43.4501 79 43.1741 79C42.8981 79 42.6281 79 42.3641 79C42.7061 78.226 43.0481 77.446 43.3901 76.66C43.7381 75.868 44.0831 75.085 44.4251 74.311C44.0231 74.311 43.6121 74.311 43.1921 74.311C42.7781 74.311 42.3671 74.311 41.9591 74.311C41.9591 74.077 41.9591 73.84 41.9591 73.6C41.9591 73.354 41.9591 73.114 41.9591 72.88C42.6371 72.88 43.3181 72.88 44.0021 72.88C44.6921 72.88 45.3731 72.88 46.0451 72.88Z" fill="#393C78"/>
<path d="M46.0451 72.88C46.0451 73.114 46.0451 73.354 46.0451 73.6C46.0451 73.84 46.0451 74.077 46.0451 74.311C45.7031 75.085 45.3581 75.868 45.0101 76.66C44.6681 77.446 44.3261 78.226 43.9841 79C43.7201 79 43.4501 79 43.1741 79C42.8981 79 42.6281 79 42.3641 79C42.7061 78.226 43.0481 77.446 43.3901 76.66C43.7381 75.868 44.0831 75.085 44.4251 74.311C44.0231 74.311 43.6121 74.311 43.1921 74.311C42.7781 74.311 42.3671 74.311 41.9591 74.311C41.9591 74.077 41.9591 73.84 41.9591 73.6C41.9591 73.354 41.9591 73.114 41.9591 72.88C42.6371 72.88 43.3181 72.88 44.0021 72.88C44.6921 72.88 45.3731 72.88 46.0451 72.88Z" fill="#393C78"/>
<path d="M70.0109 79.135C69.5729 79.135 69.1799 79.057 68.8319 78.901C68.4839 78.739 68.2079 78.514 68.0039 78.226C67.8059 77.938 67.7069 77.602 67.7069 77.218C67.7069 76.9 67.7729 76.624 67.9049 76.39C68.0429 76.156 68.2289 75.967 68.4629 75.823C68.2649 75.685 68.1089 75.514 67.9949 75.31C67.8869 75.106 67.8329 74.866 67.8329 74.59C67.8329 74.23 67.9259 73.912 68.1119 73.636C68.3039 73.36 68.5649 73.144 68.8949 72.988C69.2249 72.826 69.5969 72.745 70.0109 72.745C70.4249 72.745 70.7939 72.826 71.1179 72.988C71.4479 73.144 71.7059 73.36 71.8919 73.636C72.0779 73.912 72.1709 74.23 72.1709 74.59C72.1709 74.866 72.1139 75.106 71.9999 75.31C71.8919 75.514 71.7419 75.685 71.5499 75.823C71.7779 75.967 71.9579 76.156 72.0899 76.39C72.2279 76.624 72.2969 76.9 72.2969 77.218C72.2969 77.602 72.1949 77.938 71.9909 78.226C71.7929 78.514 71.5229 78.739 71.1809 78.901C70.8389 79.057 70.4489 79.135 70.0109 79.135ZM70.0109 75.247C70.2029 75.247 70.3559 75.193 70.4699 75.085C70.5839 74.977 70.6409 74.839 70.6409 74.671C70.6409 74.509 70.5839 74.377 70.4699 74.275C70.3559 74.173 70.2029 74.122 70.0109 74.122C69.8189 74.122 69.6629 74.173 69.5429 74.275C69.4229 74.377 69.3629 74.509 69.3629 74.671C69.3629 74.839 69.4229 74.977 69.5429 75.085C69.6689 75.193 69.8249 75.247 70.0109 75.247ZM70.0109 77.758C70.2209 77.758 70.3949 77.695 70.5329 77.569C70.6709 77.443 70.7399 77.284 70.7399 77.092C70.7399 76.888 70.6709 76.726 70.5329 76.606C70.3949 76.48 70.2209 76.417 70.0109 76.417C69.8009 76.417 69.6239 76.48 69.4799 76.606C69.3359 76.726 69.2639 76.888 69.2639 77.092C69.2639 77.284 69.3359 77.443 69.4799 77.569C69.6239 77.695 69.8009 77.758 70.0109 77.758Z" fill="#393C78"/>
<path d="M95.0854 77.299C95.3974 77.443 95.7064 77.536 96.0124 77.578C96.3184 77.614 96.5974 77.602 96.8494 77.542C97.1014 77.476 97.3054 77.362 97.4614 77.2C97.6234 77.032 97.7164 76.816 97.7404 76.552C97.5244 76.72 97.2784 76.834 97.0024 76.894C96.7324 76.954 96.4594 76.96 96.1834 76.912C95.9074 76.864 95.6494 76.762 95.4094 76.606C95.1754 76.444 94.9864 76.228 94.8424 75.958C94.6984 75.682 94.6264 75.349 94.6264 74.959C94.6264 74.647 94.6804 74.359 94.7884 74.095C94.8964 73.825 95.0494 73.591 95.2474 73.393C95.4514 73.189 95.6944 73.033 95.9764 72.925C96.2584 72.811 96.5734 72.754 96.9214 72.754C97.2694 72.754 97.5874 72.817 97.8754 72.943C98.1694 73.069 98.4214 73.258 98.6314 73.51C98.8474 73.756 99.0124 74.065 99.1264 74.437C99.2464 74.809 99.3064 75.241 99.3064 75.733C99.3064 76.261 99.2404 76.729 99.1084 77.137C98.9764 77.539 98.7874 77.881 98.5414 78.163C98.2954 78.439 97.9984 78.652 97.6504 78.802C97.3024 78.946 96.9124 79.024 96.4804 79.036C96.0484 79.048 95.5834 78.988 95.0854 78.856C95.0854 78.598 95.0854 78.34 95.0854 78.082C95.0854 77.818 95.0854 77.557 95.0854 77.299ZM96.9304 74.167C96.7084 74.167 96.5284 74.239 96.3904 74.383C96.2524 74.521 96.1834 74.704 96.1834 74.932C96.1834 75.16 96.2524 75.346 96.3904 75.49C96.5284 75.628 96.7084 75.697 96.9304 75.697C97.1464 75.697 97.3204 75.631 97.4524 75.499C97.5904 75.361 97.6594 75.181 97.6594 74.959C97.6594 74.725 97.5904 74.536 97.4524 74.392C97.3204 74.242 97.1464 74.167 96.9304 74.167Z" fill="#393C78"/>
<path d="M121.203 72.772C121.203 73.798 121.203 74.836 121.203 75.886C121.203 76.936 121.203 77.974 121.203 79C120.945 79 120.684 79 120.42 79C120.156 79 119.892 79 119.628 79C119.628 78.268 119.628 77.53 119.628 76.786C119.628 76.036 119.628 75.298 119.628 74.572C119.454 74.608 119.277 74.647 119.097 74.689C118.923 74.725 118.749 74.761 118.575 74.797C118.575 74.557 118.575 74.314 118.575 74.068C118.575 73.822 118.575 73.579 118.575 73.339C119.007 73.243 119.445 73.15 119.889 73.06C120.333 72.964 120.771 72.868 121.203 72.772ZM124.694 79.126C124.298 79.126 123.935 79.048 123.605 78.892C123.275 78.73 122.99 78.505 122.75 78.217C122.516 77.929 122.333 77.59 122.201 77.2C122.075 76.81 122.012 76.387 122.012 75.931C122.012 75.475 122.075 75.055 122.201 74.671C122.333 74.281 122.516 73.945 122.75 73.663C122.99 73.375 123.275 73.153 123.605 72.997C123.935 72.835 124.298 72.754 124.694 72.754C125.09 72.754 125.45 72.835 125.774 72.997C126.104 73.153 126.389 73.375 126.629 73.663C126.869 73.945 127.052 74.281 127.178 74.671C127.31 75.055 127.376 75.475 127.376 75.931C127.376 76.387 127.31 76.81 127.178 77.2C127.052 77.59 126.869 77.929 126.629 78.217C126.389 78.505 126.104 78.73 125.774 78.892C125.45 79.048 125.09 79.126 124.694 79.126ZM124.694 77.641C124.934 77.641 125.135 77.572 125.297 77.434C125.465 77.29 125.594 77.089 125.684 76.831C125.774 76.573 125.819 76.273 125.819 75.931C125.819 75.589 125.774 75.292 125.684 75.04C125.594 74.782 125.465 74.584 125.297 74.446C125.135 74.308 124.934 74.239 124.694 74.239C124.46 74.239 124.259 74.308 124.091 74.446C123.923 74.584 123.794 74.779 123.704 75.031C123.614 75.283 123.569 75.583 123.569 75.931C123.569 76.273 123.614 76.573 123.704 76.831C123.794 77.089 123.923 77.29 124.091 77.434C124.259 77.572 124.46 77.641 124.694 77.641Z" fill="#393C78"/>
<path d="M85.9646 28.392C85.9646 31.128 85.9646 33.896 85.9646 36.696C85.9646 39.496 85.9646 42.264 85.9646 45C85.2766 45 84.5806 45 83.8766 45C83.1726 45 82.4686 45 81.7646 45C81.7646 43.048 81.7646 41.08 81.7646 39.096C81.7646 37.096 81.7646 35.128 81.7646 33.192C81.3006 33.288 80.8286 33.392 80.3486 33.504C79.8846 33.6 79.4206 33.696 78.9566 33.792C78.9566 33.152 78.9566 32.504 78.9566 31.848C78.9566 31.192 78.9566 30.544 78.9566 29.904C80.1086 29.648 81.2766 29.4 82.4606 29.16C83.6446 28.904 84.8126 28.648 85.9646 28.392Z" fill="#393C78"/>
</g>
<defs>
<clipPath id="clip0_16_1912">
<rect width="140" height="88" fill="white"/>
</clipPath>
</defs>
</svg>
