<svg width="140" height="88" viewBox="0 0 140 88" fill="none" xmlns="http://www.w3.org/2000/svg">
<g clip-path="url(#clip0_16_1898)">
<rect x="39" y="46" width="62" height="36" rx="2.13793" fill="#5E609C"/>
<rect x="6" y="6" width="62" height="36" rx="2.13793" fill="#5E609C"/>
<rect x="72" y="6" width="62" height="36" rx="2.13793" fill="#5E609C"/>
<path d="M39.9646 16.392C39.9646 19.128 39.9646 21.896 39.9646 24.696C39.9646 27.496 39.9646 30.264 39.9646 33C39.2766 33 38.5806 33 37.8766 33C37.1726 33 36.4686 33 35.7646 33C35.7646 31.048 35.7646 29.08 35.7646 27.096C35.7646 25.096 35.7646 23.128 35.7646 21.192C35.3006 21.288 34.8286 21.392 34.3486 21.504C33.8846 21.6 33.4206 21.696 32.9566 21.792C32.9566 21.152 32.9566 20.504 32.9566 19.848C32.9566 19.192 32.9566 18.544 32.9566 17.904C34.1086 17.648 35.2766 17.4 36.4606 17.16C37.6446 16.904 38.8126 16.648 39.9646 16.392Z" fill="#393C78"/>
<path d="M97.6944 33C97.6944 32.376 97.6944 31.744 97.6944 31.104C97.6944 30.448 97.6944 29.808 97.6944 29.184C98.3344 28.576 98.9744 27.96 99.6144 27.336C100.254 26.696 100.894 26.072 101.534 25.464C102.27 24.744 102.83 24.168 103.214 23.736C103.598 23.288 103.862 22.912 104.006 22.608C104.166 22.304 104.246 22.024 104.246 21.768C104.246 21.24 103.942 20.864 103.334 20.64C102.726 20.4 101.942 20.328 100.982 20.424C100.022 20.52 98.9984 20.784 97.9104 21.216C97.9104 20.56 97.9104 19.896 97.9104 19.224C97.9104 18.536 97.9104 17.864 97.9104 17.208C99.5104 16.68 100.958 16.416 102.254 16.416C103.566 16.416 104.686 16.632 105.614 17.064C106.558 17.48 107.278 18.064 107.774 18.816C108.286 19.568 108.542 20.44 108.542 21.432C108.542 22.424 108.278 23.36 107.75 24.24C107.222 25.104 106.414 26.064 105.326 27.12C104.974 27.456 104.622 27.8 104.27 28.152C103.918 28.504 103.566 28.848 103.214 29.184C104.078 29.184 104.942 29.184 105.806 29.184C106.686 29.184 107.558 29.184 108.422 29.184C108.422 29.808 108.422 30.448 108.422 31.104C108.422 31.744 108.422 32.376 108.422 33C106.646 33 104.854 33 103.046 33C101.254 33 99.4704 33 97.6944 33Z" fill="#393C78"/>
<path d="M65.8905 63.712C66.5625 63.184 67.2345 62.648 67.9065 62.104C68.5945 61.56 69.2745 61.024 69.9465 60.496C69.1305 60.496 68.2985 60.496 67.4505 60.496C66.6185 60.496 65.7945 60.496 64.9785 60.496C64.9785 59.872 64.9785 59.24 64.9785 58.6C64.9785 57.944 64.9785 57.304 64.9785 56.68C66.6585 56.68 68.3465 56.68 70.0425 56.68C71.7545 56.68 73.4505 56.68 75.1305 56.68C75.1305 57.304 75.1305 57.944 75.1305 58.6C75.1305 59.24 75.1305 59.872 75.1305 60.496C74.5545 60.96 73.9785 61.432 73.4025 61.912C72.8265 62.392 72.2505 62.864 71.6745 63.328C72.9865 63.584 73.9945 64.128 74.6985 64.96C75.4185 65.776 75.7785 66.808 75.7785 68.056C75.7785 69.24 75.4905 70.216 74.9145 70.984C74.3385 71.752 73.5465 72.32 72.5385 72.688C71.5305 73.056 70.3705 73.224 69.0585 73.192C67.7625 73.16 66.3865 72.928 64.9305 72.496C64.9305 71.84 64.9305 71.176 64.9305 70.504C64.9305 69.816 64.9305 69.144 64.9305 68.488C66.0985 68.904 67.1945 69.168 68.2185 69.28C69.2425 69.392 70.0665 69.352 70.6905 69.16C71.3305 68.952 71.6505 68.592 71.6505 68.08C71.6505 67.584 71.4025 67.208 70.9065 66.952C70.4105 66.696 69.7225 66.536 68.8425 66.472C67.9785 66.392 66.9945 66.4 65.8905 66.496C65.8905 66.032 65.8905 65.568 65.8905 65.104C65.8905 64.624 65.8905 64.16 65.8905 63.712Z" fill="#393C78"/>
</g>
<defs>
<clipPath id="clip0_16_1898">
<rect width="140" height="88" rx="3" fill="white"/>
</clipPath>
</defs>
</svg>
