<svg width="140" height="88" viewBox="0 0 140 88" fill="none" xmlns="http://www.w3.org/2000/svg">
<rect x="72" y="46" width="62" height="36" rx="2.13793" fill="#5E609C"/>
<path fill-rule="evenodd" clip-rule="evenodd" d="M103 64C104.771 64 106.207 62.5642 106.207 60.7931C106.207 59.022 104.771 57.5862 103 57.5862C101.229 57.5862 99.793 59.022 99.793 60.7931C99.793 62.5642 101.229 64 103 64ZM104.739 64.8017H105.138C106.908 64.8017 108.345 66.3099 108.345 68.1689V69.2112V70.4138H97.6552V69.2112V68.1689C97.6552 66.3099 99.0916 64.8017 100.862 64.8017H101.261C101.793 65.0572 102.38 65.2026 103 65.2026C103.62 65.2026 104.21 65.0572 104.739 64.8017Z" fill="#393C78"/>
<rect x="6" y="46" width="62" height="36" rx="2.13793" fill="#5E609C"/>
<path fill-rule="evenodd" clip-rule="evenodd" d="M36.9999 64C38.7711 64 40.2068 62.5642 40.2068 60.7931C40.2068 59.022 38.7711 57.5862 36.9999 57.5862C35.2288 57.5862 33.793 59.022 33.793 60.7931C33.793 62.5642 35.2288 64 36.9999 64ZM38.7394 64.8017H39.1379C40.9084 64.8017 42.3448 66.3099 42.3448 68.1689V69.2112V70.4138H31.6552V69.2112V68.1689C31.6552 66.3099 33.0916 64.8017 34.8621 64.8017H35.2605C35.7926 65.0572 36.3796 65.2026 37 65.2026C37.6204 65.2026 38.2097 65.0572 38.7394 64.8017Z" fill="#393C78"/>
<rect x="6" y="6" width="62" height="36" rx="2.13793" fill="#5E609C"/>
<path fill-rule="evenodd" clip-rule="evenodd" d="M36.9999 24C38.7711 24 40.2068 22.5642 40.2068 20.7931C40.2068 19.022 38.7711 17.5862 36.9999 17.5862C35.2288 17.5862 33.793 19.022 33.793 20.7931C33.793 22.5642 35.2288 24 36.9999 24ZM38.7394 24.8017H39.1379C40.9084 24.8017 42.3448 26.3099 42.3448 28.1689V29.2112V30.4138H31.6552V29.2112V28.1689C31.6552 26.3099 33.0916 24.8017 34.8621 24.8017H35.2605C35.7926 25.0572 36.3796 25.2026 37 25.2026C37.6204 25.2026 38.2097 25.0572 38.7394 24.8017Z" fill="#393C78"/>
<rect x="72" y="6" width="62" height="36" rx="2.13793" fill="#5E609C"/>
<path fill-rule="evenodd" clip-rule="evenodd" d="M103 24C104.771 24 106.207 22.5642 106.207 20.7931C106.207 19.022 104.771 17.5862 103 17.5862C101.229 17.5862 99.793 19.022 99.793 20.7931C99.793 22.5642 101.229 24 103 24ZM104.739 24.8017H105.138C106.908 24.8017 108.345 26.3099 108.345 28.1689V29.2112V30.4138H97.6552V29.2112V28.1689C97.6552 26.3099 99.0916 24.8017 100.862 24.8017H101.261C101.793 25.0572 102.38 25.2026 103 25.2026C103.62 25.2026 104.21 25.0572 104.739 24.8017Z" fill="#393C78"/>
</svg>
