<svg width="140" height="88" viewBox="0 0 140 88" fill="none" xmlns="http://www.w3.org/2000/svg">
<g clip-path="url(#clip0_16_1914)">
<rect x="8" y="52" width="16" height="9" rx="0.62069" fill="#5E609C"/>
<rect x="26" y="52" width="16" height="9" rx="0.62069" fill="#5E609C"/>
<rect x="44" y="52" width="16" height="9" rx="0.62069" fill="#5E609C"/>
<rect x="62" y="52" width="16" height="9" rx="0.62069" fill="#5E609C"/>
<rect x="80" y="52" width="16" height="9" rx="0.62069" fill="#5E609C"/>
<rect x="98" y="52" width="16" height="9" rx="0.62069" fill="#5E609C"/>
<rect x="116" y="52" width="16" height="9" rx="0.62069" fill="#5E609C"/>
<rect x="8" y="63" width="16" height="9" rx="0.62069" fill="#5E609C"/>
<rect x="26" y="63" width="16" height="9" rx="0.62069" fill="#5E609C"/>
<rect x="44" y="63" width="16" height="9" rx="0.62069" fill="#5E609C"/>
<rect x="62" y="63" width="16" height="9" rx="0.62069" fill="#5E609C"/>
<rect x="80" y="63" width="16" height="9" rx="0.62069" fill="#5E609C"/>
<rect x="98" y="63" width="16" height="9" rx="0.62069" fill="#5E609C"/>
<rect x="116" y="63" width="16" height="9" rx="0.62069" fill="#5E609C"/>
<rect x="26" y="74" width="16" height="9" rx="0.62069" fill="#5E609C"/>
<rect x="44" y="74" width="16" height="9" rx="0.62069" fill="#5E609C"/>
<rect x="62" y="74" width="16" height="9" rx="0.62069" fill="#5E609C"/>
<rect x="80" y="74" width="16" height="9" rx="0.62069" fill="#5E609C"/>
<rect x="98" y="74" width="16" height="9" rx="0.62069" fill="#5E609C"/>
<rect x="32" y="6" width="76" height="44" rx="2.13793" fill="#5E609C"/>
<path d="M72.9646 16.392C72.9646 19.128 72.9646 21.896 72.9646 24.696C72.9646 27.496 72.9646 30.264 72.9646 33C72.2766 33 71.5806 33 70.8766 33C70.1726 33 69.4686 33 68.7646 33C68.7646 31.048 68.7646 29.08 68.7646 27.096C68.7646 25.096 68.7646 23.128 68.7646 21.192C68.3006 21.288 67.8286 21.392 67.3486 21.504C66.8846 21.6 66.4206 21.696 65.9566 21.792C65.9566 21.152 65.9566 20.504 65.9566 19.848C65.9566 19.192 65.9566 18.544 65.9566 17.904C67.1086 17.648 68.2766 17.4 69.4606 17.16C70.6446 16.904 71.8126 16.648 72.9646 16.392Z" fill="#393C78"/>
<path d="M14.0104 60C14.0104 59.766 14.0104 59.529 14.0104 59.289C14.0104 59.043 14.0104 58.803 14.0104 58.569C14.2504 58.341 14.4904 58.11 14.7304 57.876C14.9704 57.636 15.2104 57.402 15.4504 57.174C15.7264 56.904 15.9364 56.688 16.0804 56.526C16.2244 56.358 16.3234 56.217 16.3774 56.103C16.4374 55.989 16.4674 55.884 16.4674 55.788C16.4674 55.59 16.3534 55.449 16.1254 55.365C15.8974 55.275 15.6034 55.248 15.2434 55.284C14.8834 55.32 14.4994 55.419 14.0914 55.581C14.0914 55.335 14.0914 55.086 14.0914 54.834C14.0914 54.576 14.0914 54.324 14.0914 54.078C14.6914 53.88 15.2344 53.781 15.7204 53.781C16.2124 53.781 16.6324 53.862 16.9804 54.024C17.3344 54.18 17.6044 54.399 17.7904 54.681C17.9824 54.963 18.0784 55.29 18.0784 55.662C18.0784 56.034 17.9794 56.385 17.7814 56.715C17.5834 57.039 17.2804 57.399 16.8724 57.795C16.7404 57.921 16.6084 58.05 16.4764 58.182C16.3444 58.314 16.2124 58.443 16.0804 58.569C16.4044 58.569 16.7284 58.569 17.0524 58.569C17.3824 58.569 17.7094 58.569 18.0334 58.569C18.0334 58.803 18.0334 59.043 18.0334 59.289C18.0334 59.529 18.0334 59.766 18.0334 60C17.3674 60 16.6954 60 16.0174 60C15.3454 60 14.6764 60 14.0104 60Z" fill="#393C78"/>
<path d="M124.011 60.135C123.573 60.135 123.18 60.057 122.832 59.901C122.484 59.739 122.208 59.514 122.004 59.226C121.806 58.938 121.707 58.602 121.707 58.218C121.707 57.9 121.773 57.624 121.905 57.39C122.043 57.156 122.229 56.967 122.463 56.823C122.265 56.685 122.109 56.514 121.995 56.31C121.887 56.106 121.833 55.866 121.833 55.59C121.833 55.23 121.926 54.912 122.112 54.636C122.304 54.36 122.565 54.144 122.895 53.988C123.225 53.826 123.597 53.745 124.011 53.745C124.425 53.745 124.794 53.826 125.118 53.988C125.448 54.144 125.706 54.36 125.892 54.636C126.078 54.912 126.171 55.23 126.171 55.59C126.171 55.866 126.114 56.106 126 56.31C125.892 56.514 125.742 56.685 125.55 56.823C125.778 56.967 125.958 57.156 126.09 57.39C126.228 57.624 126.297 57.9 126.297 58.218C126.297 58.602 126.195 58.938 125.991 59.226C125.793 59.514 125.523 59.739 125.181 59.901C124.839 60.057 124.449 60.135 124.011 60.135ZM124.011 56.247C124.203 56.247 124.356 56.193 124.47 56.085C124.584 55.977 124.641 55.839 124.641 55.671C124.641 55.509 124.584 55.377 124.47 55.275C124.356 55.173 124.203 55.122 124.011 55.122C123.819 55.122 123.663 55.173 123.543 55.275C123.423 55.377 123.363 55.509 123.363 55.671C123.363 55.839 123.423 55.977 123.543 56.085C123.669 56.193 123.825 56.247 124.011 56.247ZM124.011 58.758C124.221 58.758 124.395 58.695 124.533 58.569C124.671 58.443 124.74 58.284 124.74 58.092C124.74 57.888 124.671 57.726 124.533 57.606C124.395 57.48 124.221 57.417 124.011 57.417C123.801 57.417 123.624 57.48 123.48 57.606C123.336 57.726 123.264 57.888 123.264 58.092C123.264 58.284 123.336 58.443 123.48 58.569C123.624 58.695 123.801 58.758 124.011 58.758Z" fill="#393C78"/>
<path d="M32.4589 56.517C32.7109 56.319 32.9629 56.118 33.2149 55.914C33.4729 55.71 33.7279 55.509 33.9799 55.311C33.6739 55.311 33.3619 55.311 33.0439 55.311C32.7319 55.311 32.4229 55.311 32.1169 55.311C32.1169 55.077 32.1169 54.84 32.1169 54.6C32.1169 54.354 32.1169 54.114 32.1169 53.88C32.7469 53.88 33.3799 53.88 34.0159 53.88C34.6579 53.88 35.2939 53.88 35.9239 53.88C35.9239 54.114 35.9239 54.354 35.9239 54.6C35.9239 54.84 35.9239 55.077 35.9239 55.311C35.7079 55.485 35.4919 55.662 35.2759 55.842C35.0599 56.022 34.8439 56.199 34.6279 56.373C35.1199 56.469 35.4979 56.673 35.7619 56.985C36.0319 57.291 36.1669 57.678 36.1669 58.146C36.1669 58.59 36.0589 58.956 35.8429 59.244C35.6269 59.532 35.3299 59.745 34.9519 59.883C34.5739 60.021 34.1389 60.084 33.6469 60.072C33.1609 60.06 32.6449 59.973 32.0989 59.811C32.0989 59.565 32.0989 59.316 32.0989 59.064C32.0989 58.806 32.0989 58.554 32.0989 58.308C32.5369 58.464 32.9479 58.563 33.3319 58.605C33.7159 58.647 34.0249 58.632 34.2589 58.56C34.4989 58.482 34.6189 58.347 34.6189 58.155C34.6189 57.969 34.5259 57.828 34.3399 57.732C34.1539 57.636 33.8959 57.576 33.5659 57.552C33.2419 57.522 32.8729 57.525 32.4589 57.561C32.4589 57.387 32.4589 57.213 32.4589 57.039C32.4589 56.859 32.4589 56.685 32.4589 56.517Z" fill="#393C78"/>
<path d="M49.6015 58.839C49.6015 58.605 49.6015 58.368 49.6015 58.128C49.6015 57.882 49.6015 57.642 49.6015 57.408C49.9015 56.826 50.2045 56.238 50.5105 55.644C50.8165 55.05 51.1165 54.462 51.4105 53.88C51.7945 53.88 52.1785 53.88 52.5625 53.88C52.9525 53.88 53.3395 53.88 53.7235 53.88C53.7235 54.462 53.7235 55.05 53.7235 55.644C53.7235 56.238 53.7235 56.826 53.7235 57.408C53.8615 57.408 54.0025 57.408 54.1465 57.408C54.2965 57.408 54.4405 57.408 54.5785 57.408C54.5785 57.642 54.5785 57.882 54.5785 58.128C54.5785 58.368 54.5785 58.605 54.5785 58.839C54.4405 58.839 54.2965 58.839 54.1465 58.839C54.0025 58.839 53.8615 58.839 53.7235 58.839C53.7235 59.031 53.7235 59.226 53.7235 59.424C53.7235 59.616 53.7235 59.808 53.7235 60C53.4715 60 53.2135 60 52.9495 60C52.6915 60 52.4365 60 52.1845 60C52.1845 59.808 52.1845 59.616 52.1845 59.424C52.1845 59.226 52.1845 59.031 52.1845 58.839C51.7585 58.839 51.3265 58.839 50.8885 58.839C50.4565 58.839 50.0275 58.839 49.6015 58.839ZM51.2215 57.408C51.3775 57.408 51.5365 57.408 51.6985 57.408C51.8665 57.408 52.0285 57.408 52.1845 57.408C52.1845 57.072 52.1845 56.73 52.1845 56.382C52.1845 56.034 52.1845 55.692 52.1845 55.356C52.0285 55.692 51.8665 56.034 51.6985 56.382C51.5365 56.73 51.3775 57.072 51.2215 57.408Z" fill="#393C78"/>
<path d="M68.1435 57.435C68.1975 56.847 68.2515 56.253 68.3055 55.653C68.3595 55.053 68.4135 54.462 68.4675 53.88C69.0195 53.88 69.5805 53.88 70.1505 53.88C70.7205 53.88 71.2815 53.88 71.8335 53.88C71.8335 54.114 71.8335 54.354 71.8335 54.6C71.8335 54.84 71.8335 55.077 71.8335 55.311C71.5035 55.311 71.1675 55.311 70.8255 55.311C70.4835 55.311 70.1445 55.311 69.8085 55.311C69.7965 55.425 69.7815 55.545 69.7635 55.671C69.7455 55.791 69.7305 55.911 69.7185 56.031C70.2285 56.025 70.6635 56.097 71.0235 56.247C71.3895 56.397 71.6685 56.619 71.8605 56.913C72.0585 57.207 72.1575 57.573 72.1575 58.011C72.1575 58.479 72.0465 58.866 71.8245 59.172C71.6025 59.472 71.2995 59.697 70.9155 59.847C70.5375 59.991 70.1025 60.06 69.6105 60.054C69.1245 60.048 68.6115 59.967 68.0715 59.811C68.0715 59.565 68.0715 59.316 68.0715 59.064C68.0715 58.806 68.0715 58.554 68.0715 58.308C68.5695 58.464 69.0075 58.566 69.3855 58.614C69.7695 58.656 70.0695 58.632 70.2855 58.542C70.5015 58.452 70.6095 58.29 70.6095 58.056C70.6095 57.822 70.4985 57.648 70.2765 57.534C70.0605 57.42 69.7665 57.357 69.3945 57.345C69.0225 57.327 68.6055 57.357 68.1435 57.435Z" fill="#393C78"/>
<path d="M89.9104 55.572C89.5984 55.428 89.2894 55.338 88.9834 55.302C88.6774 55.26 88.3984 55.272 88.1464 55.338C87.8944 55.398 87.6874 55.512 87.5254 55.68C87.3694 55.842 87.2794 56.055 87.2554 56.319C87.4714 56.151 87.7144 56.037 87.9844 55.977C88.2604 55.917 88.5364 55.911 88.8124 55.959C89.0884 56.007 89.3434 56.112 89.5774 56.274C89.8174 56.43 90.0094 56.646 90.1534 56.922C90.2974 57.192 90.3694 57.522 90.3694 57.912C90.3694 58.224 90.3154 58.515 90.2074 58.785C90.0994 59.049 89.9434 59.283 89.7394 59.487C89.5414 59.685 89.3014 59.841 89.0194 59.955C88.7374 60.063 88.4224 60.117 88.0744 60.117C87.7264 60.117 87.4054 60.054 87.1114 59.928C86.8234 59.802 86.5714 59.616 86.3554 59.37C86.1454 59.118 85.9804 58.806 85.8604 58.434C85.7464 58.062 85.6894 57.63 85.6894 57.138C85.6894 56.61 85.7554 56.145 85.8874 55.743C86.0194 55.335 86.2084 54.993 86.4544 54.717C86.7004 54.435 86.9974 54.222 87.3454 54.078C87.6934 53.928 88.0834 53.847 88.5154 53.835C88.9474 53.823 89.4124 53.883 89.9104 54.015C89.9104 54.273 89.9104 54.534 89.9104 54.798C89.9104 55.056 89.9104 55.314 89.9104 55.572ZM88.0654 58.704C88.2874 58.704 88.4674 58.632 88.6054 58.488C88.7434 58.344 88.8124 58.161 88.8124 57.939C88.8124 57.711 88.7434 57.528 88.6054 57.39C88.4674 57.246 88.2874 57.174 88.0654 57.174C87.8494 57.174 87.6724 57.243 87.5344 57.381C87.4024 57.513 87.3364 57.69 87.3364 57.912C87.3364 58.146 87.4024 58.338 87.5344 58.488C87.6724 58.632 87.8494 58.704 88.0654 58.704Z" fill="#393C78"/>
<path d="M108.045 53.88C108.045 54.114 108.045 54.354 108.045 54.6C108.045 54.84 108.045 55.077 108.045 55.311C107.703 56.085 107.358 56.868 107.01 57.66C106.668 58.446 106.326 59.226 105.984 60C105.72 60 105.45 60 105.174 60C104.898 60 104.628 60 104.364 60C104.706 59.226 105.048 58.446 105.39 57.66C105.738 56.868 106.083 56.085 106.425 55.311C106.023 55.311 105.612 55.311 105.192 55.311C104.778 55.311 104.367 55.311 103.959 55.311C103.959 55.077 103.959 54.84 103.959 54.6C103.959 54.354 103.959 54.114 103.959 53.88C104.637 53.88 105.318 53.88 106.002 53.88C106.692 53.88 107.373 53.88 108.045 53.88Z" fill="#393C78"/>
<path d="M104.488 64.772C104.488 65.798 104.488 66.836 104.488 67.886C104.488 68.936 104.488 69.974 104.488 71C104.23 71 103.969 71 103.705 71C103.441 71 103.177 71 102.913 71C102.913 70.268 102.913 69.53 102.913 68.786C102.913 68.036 102.913 67.298 102.913 66.572C102.739 66.608 102.562 66.647 102.382 66.689C102.208 66.725 102.034 66.761 101.86 66.797C101.86 66.557 101.86 66.314 101.86 66.068C101.86 65.822 101.86 65.579 101.86 65.339C102.292 65.243 102.73 65.15 103.174 65.06C103.618 64.964 104.056 64.868 104.488 64.772ZM105.298 69.839C105.298 69.605 105.298 69.368 105.298 69.128C105.298 68.882 105.298 68.642 105.298 68.408C105.598 67.826 105.901 67.238 106.207 66.644C106.513 66.05 106.813 65.462 107.107 64.88C107.491 64.88 107.875 64.88 108.259 64.88C108.649 64.88 109.036 64.88 109.42 64.88C109.42 65.462 109.42 66.05 109.42 66.644C109.42 67.238 109.42 67.826 109.42 68.408C109.558 68.408 109.699 68.408 109.843 68.408C109.993 68.408 110.137 68.408 110.275 68.408C110.275 68.642 110.275 68.882 110.275 69.128C110.275 69.368 110.275 69.605 110.275 69.839C110.137 69.839 109.993 69.839 109.843 69.839C109.699 69.839 109.558 69.839 109.42 69.839C109.42 70.031 109.42 70.226 109.42 70.424C109.42 70.616 109.42 70.808 109.42 71C109.168 71 108.91 71 108.646 71C108.388 71 108.133 71 107.881 71C107.881 70.808 107.881 70.616 107.881 70.424C107.881 70.226 107.881 70.031 107.881 69.839C107.455 69.839 107.023 69.839 106.585 69.839C106.153 69.839 105.724 69.839 105.298 69.839ZM106.918 68.408C107.074 68.408 107.233 68.408 107.395 68.408C107.563 68.408 107.725 68.408 107.881 68.408C107.881 68.072 107.881 67.73 107.881 67.382C107.881 67.034 107.881 66.692 107.881 66.356C107.725 66.692 107.563 67.034 107.395 67.382C107.233 67.73 107.074 68.072 106.918 68.408Z" fill="#393C78"/>
<path d="M14.0854 69.299C14.3974 69.443 14.7064 69.536 15.0124 69.578C15.3184 69.614 15.5974 69.602 15.8494 69.542C16.1014 69.476 16.3054 69.362 16.4614 69.2C16.6234 69.032 16.7164 68.816 16.7404 68.552C16.5244 68.72 16.2784 68.834 16.0024 68.894C15.7324 68.954 15.4594 68.96 15.1834 68.912C14.9074 68.864 14.6494 68.762 14.4094 68.606C14.1754 68.444 13.9864 68.228 13.8424 67.958C13.6984 67.682 13.6264 67.349 13.6264 66.959C13.6264 66.647 13.6804 66.359 13.7884 66.095C13.8964 65.825 14.0494 65.591 14.2474 65.393C14.4514 65.189 14.6944 65.033 14.9764 64.925C15.2584 64.811 15.5734 64.754 15.9214 64.754C16.2694 64.754 16.5874 64.817 16.8754 64.943C17.1694 65.069 17.4214 65.258 17.6314 65.51C17.8474 65.756 18.0124 66.065 18.1264 66.437C18.2464 66.809 18.3064 67.241 18.3064 67.733C18.3064 68.261 18.2404 68.729 18.1084 69.137C17.9764 69.539 17.7874 69.881 17.5414 70.163C17.2954 70.439 16.9984 70.652 16.6504 70.802C16.3024 70.946 15.9124 71.024 15.4804 71.036C15.0484 71.048 14.5834 70.988 14.0854 70.856C14.0854 70.598 14.0854 70.34 14.0854 70.082C14.0854 69.818 14.0854 69.557 14.0854 69.299ZM15.9304 66.167C15.7084 66.167 15.5284 66.239 15.3904 66.383C15.2524 66.521 15.1834 66.704 15.1834 66.932C15.1834 67.16 15.2524 67.346 15.3904 67.49C15.5284 67.628 15.7084 67.697 15.9304 67.697C16.1464 67.697 16.3204 67.631 16.4524 67.499C16.5904 67.361 16.6594 67.181 16.6594 66.959C16.6594 66.725 16.5904 66.536 16.4524 66.392C16.3204 66.242 16.1464 66.167 15.9304 66.167Z" fill="#393C78"/>
<path d="M122.778 64.772C122.778 65.798 122.778 66.836 122.778 67.886C122.778 68.936 122.778 69.974 122.778 71C122.52 71 122.259 71 121.995 71C121.731 71 121.467 71 121.203 71C121.203 70.268 121.203 69.53 121.203 68.786C121.203 68.036 121.203 67.298 121.203 66.572C121.029 66.608 120.852 66.647 120.672 66.689C120.498 66.725 120.324 66.761 120.15 66.797C120.15 66.557 120.15 66.314 120.15 66.068C120.15 65.822 120.15 65.579 120.15 65.339C120.582 65.243 121.02 65.15 121.464 65.06C121.908 64.964 122.346 64.868 122.778 64.772ZM123.84 68.435C123.894 67.847 123.948 67.253 124.002 66.653C124.056 66.053 124.11 65.462 124.164 64.88C124.716 64.88 125.277 64.88 125.847 64.88C126.417 64.88 126.978 64.88 127.53 64.88C127.53 65.114 127.53 65.354 127.53 65.6C127.53 65.84 127.53 66.077 127.53 66.311C127.2 66.311 126.864 66.311 126.522 66.311C126.18 66.311 125.841 66.311 125.505 66.311C125.493 66.425 125.478 66.545 125.46 66.671C125.442 66.791 125.427 66.911 125.415 67.031C125.925 67.025 126.36 67.097 126.72 67.247C127.086 67.397 127.365 67.619 127.557 67.913C127.755 68.207 127.854 68.573 127.854 69.011C127.854 69.479 127.743 69.866 127.521 70.172C127.299 70.472 126.996 70.697 126.612 70.847C126.234 70.991 125.799 71.06 125.307 71.054C124.821 71.048 124.308 70.967 123.768 70.811C123.768 70.565 123.768 70.316 123.768 70.064C123.768 69.806 123.768 69.554 123.768 69.308C124.266 69.464 124.704 69.566 125.082 69.614C125.466 69.656 125.766 69.632 125.982 69.542C126.198 69.452 126.306 69.29 126.306 69.056C126.306 68.822 126.195 68.648 125.973 68.534C125.757 68.42 125.463 68.357 125.091 68.345C124.719 68.327 124.302 68.357 123.84 68.435Z" fill="#393C78"/>
<path d="M32.2025 64.772C32.2025 65.798 32.2025 66.836 32.2025 67.886C32.2025 68.936 32.2025 69.974 32.2025 71C31.9445 71 31.6835 71 31.4195 71C31.1555 71 30.8915 71 30.6275 71C30.6275 70.268 30.6275 69.53 30.6275 68.786C30.6275 68.036 30.6275 67.298 30.6275 66.572C30.4535 66.608 30.2765 66.647 30.0965 66.689C29.9225 66.725 29.7485 66.761 29.5745 66.797C29.5745 66.557 29.5745 66.314 29.5745 66.068C29.5745 65.822 29.5745 65.579 29.5745 65.339C30.0065 65.243 30.4445 65.15 30.8885 65.06C31.3325 64.964 31.7705 64.868 32.2025 64.772ZM35.6941 71.126C35.2981 71.126 34.9351 71.048 34.6051 70.892C34.2751 70.73 33.9901 70.505 33.7501 70.217C33.5161 69.929 33.3331 69.59 33.2011 69.2C33.0751 68.81 33.0121 68.387 33.0121 67.931C33.0121 67.475 33.0751 67.055 33.2011 66.671C33.3331 66.281 33.5161 65.945 33.7501 65.663C33.9901 65.375 34.2751 65.153 34.6051 64.997C34.9351 64.835 35.2981 64.754 35.6941 64.754C36.0901 64.754 36.4501 64.835 36.7741 64.997C37.1041 65.153 37.3891 65.375 37.6291 65.663C37.8691 65.945 38.0521 66.281 38.1781 66.671C38.3101 67.055 38.3761 67.475 38.3761 67.931C38.3761 68.387 38.3101 68.81 38.1781 69.2C38.0521 69.59 37.8691 69.929 37.6291 70.217C37.3891 70.505 37.1041 70.73 36.7741 70.892C36.4501 71.048 36.0901 71.126 35.6941 71.126ZM35.6941 69.641C35.9341 69.641 36.1351 69.572 36.2971 69.434C36.4651 69.29 36.5941 69.089 36.6841 68.831C36.7741 68.573 36.8191 68.273 36.8191 67.931C36.8191 67.589 36.7741 67.292 36.6841 67.04C36.5941 66.782 36.4651 66.584 36.2971 66.446C36.1351 66.308 35.9341 66.239 35.6941 66.239C35.4601 66.239 35.2591 66.308 35.0911 66.446C34.9231 66.584 34.7941 66.779 34.7041 67.031C34.6141 67.283 34.5691 67.583 34.5691 67.931C34.5691 68.273 34.6141 68.573 34.7041 68.831C34.7941 69.089 34.9231 69.29 35.0911 69.434C35.2591 69.572 35.4601 69.641 35.6941 69.641Z" fill="#393C78"/>
<path d="M51.4154 64.772C51.4154 65.798 51.4154 66.836 51.4154 67.886C51.4154 68.936 51.4154 69.974 51.4154 71C51.1574 71 50.8964 71 50.6324 71C50.3684 71 50.1044 71 49.8404 71C49.8404 70.268 49.8404 69.53 49.8404 68.786C49.8404 68.036 49.8404 67.298 49.8404 66.572C49.6664 66.608 49.4894 66.647 49.3094 66.689C49.1354 66.725 48.9614 66.761 48.7874 66.797C48.7874 66.557 48.7874 66.314 48.7874 66.068C48.7874 65.822 48.7874 65.579 48.7874 65.339C49.2194 65.243 49.6574 65.15 50.1014 65.06C50.5454 64.964 50.9834 64.868 51.4154 64.772ZM54.808 64.772C54.808 65.798 54.808 66.836 54.808 67.886C54.808 68.936 54.808 69.974 54.808 71C54.55 71 54.289 71 54.025 71C53.761 71 53.497 71 53.233 71C53.233 70.268 53.233 69.53 53.233 68.786C53.233 68.036 53.233 67.298 53.233 66.572C53.059 66.608 52.882 66.647 52.702 66.689C52.528 66.725 52.354 66.761 52.18 66.797C52.18 66.557 52.18 66.314 52.18 66.068C52.18 65.822 52.18 65.579 52.18 65.339C52.612 65.243 53.05 65.15 53.494 65.06C53.938 64.964 54.376 64.868 54.808 64.772Z" fill="#393C78"/>
<path d="M68.6991 64.772C68.6991 65.798 68.6991 66.836 68.6991 67.886C68.6991 68.936 68.6991 69.974 68.6991 71C68.4411 71 68.1801 71 67.9161 71C67.6521 71 67.3881 71 67.1241 71C67.1241 70.268 67.1241 69.53 67.1241 68.786C67.1241 68.036 67.1241 67.298 67.1241 66.572C66.9501 66.608 66.7731 66.647 66.5931 66.689C66.4191 66.725 66.2451 66.761 66.0711 66.797C66.0711 66.557 66.0711 66.314 66.0711 66.068C66.0711 65.822 66.0711 65.579 66.0711 65.339C66.5031 65.243 66.9411 65.15 67.3851 65.06C67.8291 64.964 68.2671 64.868 68.6991 64.772ZM69.7067 71C69.7067 70.766 69.7067 70.529 69.7067 70.289C69.7067 70.043 69.7067 69.803 69.7067 69.569C69.9467 69.341 70.1867 69.11 70.4267 68.876C70.6667 68.636 70.9067 68.402 71.1467 68.174C71.4227 67.904 71.6327 67.688 71.7767 67.526C71.9207 67.358 72.0197 67.217 72.0737 67.103C72.1337 66.989 72.1637 66.884 72.1637 66.788C72.1637 66.59 72.0497 66.449 71.8217 66.365C71.5937 66.275 71.2997 66.248 70.9397 66.284C70.5797 66.32 70.1957 66.419 69.7877 66.581C69.7877 66.335 69.7877 66.086 69.7877 65.834C69.7877 65.576 69.7877 65.324 69.7877 65.078C70.3877 64.88 70.9307 64.781 71.4167 64.781C71.9087 64.781 72.3287 64.862 72.6767 65.024C73.0307 65.18 73.3007 65.399 73.4867 65.681C73.6787 65.963 73.7747 66.29 73.7747 66.662C73.7747 67.034 73.6757 67.385 73.4777 67.715C73.2797 68.039 72.9767 68.399 72.5687 68.795C72.4367 68.921 72.3047 69.05 72.1727 69.182C72.0407 69.314 71.9087 69.443 71.7767 69.569C72.1007 69.569 72.4247 69.569 72.7487 69.569C73.0787 69.569 73.4057 69.569 73.7297 69.569C73.7297 69.803 73.7297 70.043 73.7297 70.289C73.7297 70.529 73.7297 70.766 73.7297 71C73.0637 71 72.3917 71 71.7137 71C71.0417 71 70.3727 71 69.7067 71Z" fill="#393C78"/>
<path d="M86.7606 64.772C86.7606 65.798 86.7606 66.836 86.7606 67.886C86.7606 68.936 86.7606 69.974 86.7606 71C86.5026 71 86.2416 71 85.9776 71C85.7136 71 85.4496 71 85.1856 71C85.1856 70.268 85.1856 69.53 85.1856 68.786C85.1856 68.036 85.1856 67.298 85.1856 66.572C85.0116 66.608 84.8346 66.647 84.6546 66.689C84.4806 66.725 84.3066 66.761 84.1326 66.797C84.1326 66.557 84.1326 66.314 84.1326 66.068C84.1326 65.822 84.1326 65.579 84.1326 65.339C84.5646 65.243 85.0026 65.15 85.4466 65.06C85.8906 64.964 86.3286 64.868 86.7606 64.772ZM88.1552 67.517C88.4072 67.319 88.6592 67.118 88.9112 66.914C89.1692 66.71 89.4242 66.509 89.6762 66.311C89.3702 66.311 89.0582 66.311 88.7402 66.311C88.4282 66.311 88.1192 66.311 87.8132 66.311C87.8132 66.077 87.8132 65.84 87.8132 65.6C87.8132 65.354 87.8132 65.114 87.8132 64.88C88.4432 64.88 89.0762 64.88 89.7122 64.88C90.3542 64.88 90.9902 64.88 91.6202 64.88C91.6202 65.114 91.6202 65.354 91.6202 65.6C91.6202 65.84 91.6202 66.077 91.6202 66.311C91.4042 66.485 91.1882 66.662 90.9722 66.842C90.7562 67.022 90.5402 67.199 90.3242 67.373C90.8162 67.469 91.1942 67.673 91.4582 67.985C91.7282 68.291 91.8632 68.678 91.8632 69.146C91.8632 69.59 91.7552 69.956 91.5392 70.244C91.3232 70.532 91.0262 70.745 90.6482 70.883C90.2702 71.021 89.8352 71.084 89.3432 71.072C88.8572 71.06 88.3412 70.973 87.7952 70.811C87.7952 70.565 87.7952 70.316 87.7952 70.064C87.7952 69.806 87.7952 69.554 87.7952 69.308C88.2332 69.464 88.6442 69.563 89.0282 69.605C89.4122 69.647 89.7212 69.632 89.9552 69.56C90.1952 69.482 90.3152 69.347 90.3152 69.155C90.3152 68.969 90.2222 68.828 90.0362 68.732C89.8502 68.636 89.5922 68.576 89.2622 68.552C88.9382 68.522 88.5692 68.525 88.1552 68.561C88.1552 68.387 88.1552 68.213 88.1552 68.039C88.1552 67.859 88.1552 67.685 88.1552 67.517Z" fill="#393C78"/>
<path d="M32.5761 75.772C32.5761 76.798 32.5761 77.836 32.5761 78.886C32.5761 79.936 32.5761 80.974 32.5761 82C32.3181 82 32.0571 82 31.7931 82C31.5291 82 31.2651 82 31.0011 82C31.0011 81.268 31.0011 80.53 31.0011 79.786C31.0011 79.036 31.0011 78.298 31.0011 77.572C30.8271 77.608 30.6501 77.647 30.4701 77.689C30.2961 77.725 30.1221 77.761 29.9481 77.797C29.9481 77.557 29.9481 77.314 29.9481 77.068C29.9481 76.822 29.9481 76.579 29.9481 76.339C30.3801 76.243 30.8181 76.15 31.2621 76.06C31.7061 75.964 32.1441 75.868 32.5761 75.772ZM37.6066 77.572C37.2946 77.428 36.9856 77.338 36.6796 77.302C36.3736 77.26 36.0946 77.272 35.8426 77.338C35.5906 77.398 35.3836 77.512 35.2216 77.68C35.0656 77.842 34.9756 78.055 34.9516 78.319C35.1676 78.151 35.4106 78.037 35.6806 77.977C35.9566 77.917 36.2326 77.911 36.5086 77.959C36.7846 78.007 37.0396 78.112 37.2736 78.274C37.5136 78.43 37.7056 78.646 37.8496 78.922C37.9936 79.192 38.0656 79.522 38.0656 79.912C38.0656 80.224 38.0116 80.515 37.9036 80.785C37.7956 81.049 37.6396 81.283 37.4356 81.487C37.2376 81.685 36.9976 81.841 36.7156 81.955C36.4336 82.063 36.1186 82.117 35.7706 82.117C35.4226 82.117 35.1016 82.054 34.8076 81.928C34.5196 81.802 34.2676 81.616 34.0516 81.37C33.8416 81.118 33.6766 80.806 33.5566 80.434C33.4426 80.062 33.3856 79.63 33.3856 79.138C33.3856 78.61 33.4516 78.145 33.5836 77.743C33.7156 77.335 33.9046 76.993 34.1506 76.717C34.3966 76.435 34.6936 76.222 35.0416 76.078C35.3896 75.928 35.7796 75.847 36.2116 75.835C36.6436 75.823 37.1086 75.883 37.6066 76.015C37.6066 76.273 37.6066 76.534 37.6066 76.798C37.6066 77.056 37.6066 77.314 37.6066 77.572ZM35.7616 80.704C35.9836 80.704 36.1636 80.632 36.3016 80.488C36.4396 80.344 36.5086 80.161 36.5086 79.939C36.5086 79.711 36.4396 79.528 36.3016 79.39C36.1636 79.246 35.9836 79.174 35.7616 79.174C35.5456 79.174 35.3686 79.243 35.2306 79.381C35.0986 79.513 35.0326 79.69 35.0326 79.912C35.0326 80.146 35.0986 80.338 35.2306 80.488C35.3686 80.632 35.5456 80.704 35.7616 80.704Z" fill="#393C78"/>
<path d="M50.7738 75.772C50.7738 76.798 50.7738 77.836 50.7738 78.886C50.7738 79.936 50.7738 80.974 50.7738 82C50.5158 82 50.2548 82 49.9908 82C49.7268 82 49.4628 82 49.1988 82C49.1988 81.268 49.1988 80.53 49.1988 79.786C49.1988 79.036 49.1988 78.298 49.1988 77.572C49.0248 77.608 48.8478 77.647 48.6678 77.689C48.4938 77.725 48.3198 77.761 48.1458 77.797C48.1458 77.557 48.1458 77.314 48.1458 77.068C48.1458 76.822 48.1458 76.579 48.1458 76.339C48.5778 76.243 49.0158 76.15 49.4598 76.06C49.9038 75.964 50.3418 75.868 50.7738 75.772ZM55.7414 75.88C55.7414 76.114 55.7414 76.354 55.7414 76.6C55.7414 76.84 55.7414 77.077 55.7414 77.311C55.3994 78.085 55.0544 78.868 54.7064 79.66C54.3644 80.446 54.0224 81.226 53.6804 82C53.4164 82 53.1464 82 52.8704 82C52.5944 82 52.3244 82 52.0604 82C52.4024 81.226 52.7444 80.446 53.0864 79.66C53.4344 78.868 53.7794 78.085 54.1214 77.311C53.7194 77.311 53.3084 77.311 52.8884 77.311C52.4744 77.311 52.0634 77.311 51.6554 77.311C51.6554 77.077 51.6554 76.84 51.6554 76.6C51.6554 76.354 51.6554 76.114 51.6554 75.88C52.3334 75.88 53.0144 75.88 53.6984 75.88C54.3884 75.88 55.0694 75.88 55.7414 75.88Z" fill="#393C78"/>
<path d="M68.5936 75.772C68.5936 76.798 68.5936 77.836 68.5936 78.886C68.5936 79.936 68.5936 80.974 68.5936 82C68.3356 82 68.0746 82 67.8106 82C67.5466 82 67.2826 82 67.0186 82C67.0186 81.268 67.0186 80.53 67.0186 79.786C67.0186 79.036 67.0186 78.298 67.0186 77.572C66.8446 77.608 66.6676 77.647 66.4876 77.689C66.3136 77.725 66.1396 77.761 65.9656 77.797C65.9656 77.557 65.9656 77.314 65.9656 77.068C65.9656 76.822 65.9656 76.579 65.9656 76.339C66.3976 76.243 66.8356 76.15 67.2796 76.06C67.7236 75.964 68.1616 75.868 68.5936 75.772ZM71.7072 82.135C71.2692 82.135 70.8762 82.057 70.5282 81.901C70.1802 81.739 69.9042 81.514 69.7002 81.226C69.5022 80.938 69.4032 80.602 69.4032 80.218C69.4032 79.9 69.4692 79.624 69.6012 79.39C69.7392 79.156 69.9252 78.967 70.1592 78.823C69.9612 78.685 69.8052 78.514 69.6912 78.31C69.5832 78.106 69.5292 77.866 69.5292 77.59C69.5292 77.23 69.6222 76.912 69.8082 76.636C70.0002 76.36 70.2612 76.144 70.5912 75.988C70.9212 75.826 71.2932 75.745 71.7072 75.745C72.1212 75.745 72.4902 75.826 72.8142 75.988C73.1442 76.144 73.4022 76.36 73.5882 76.636C73.7742 76.912 73.8672 77.23 73.8672 77.59C73.8672 77.866 73.8102 78.106 73.6962 78.31C73.5882 78.514 73.4382 78.685 73.2462 78.823C73.4742 78.967 73.6542 79.156 73.7862 79.39C73.9242 79.624 73.9932 79.9 73.9932 80.218C73.9932 80.602 73.8912 80.938 73.6872 81.226C73.4892 81.514 73.2192 81.739 72.8772 81.901C72.5352 82.057 72.1452 82.135 71.7072 82.135ZM71.7072 78.247C71.8992 78.247 72.0522 78.193 72.1662 78.085C72.2802 77.977 72.3372 77.839 72.3372 77.671C72.3372 77.509 72.2802 77.377 72.1662 77.275C72.0522 77.173 71.8992 77.122 71.7072 77.122C71.5152 77.122 71.3592 77.173 71.2392 77.275C71.1192 77.377 71.0592 77.509 71.0592 77.671C71.0592 77.839 71.1192 77.977 71.2392 78.085C71.3652 78.193 71.5212 78.247 71.7072 78.247ZM71.7072 80.758C71.9172 80.758 72.0912 80.695 72.2292 80.569C72.3672 80.443 72.4362 80.284 72.4362 80.092C72.4362 79.888 72.3672 79.726 72.2292 79.606C72.0912 79.48 71.9172 79.417 71.7072 79.417C71.4972 79.417 71.3202 79.48 71.1762 79.606C71.0322 79.726 70.9602 79.888 70.9602 80.092C70.9602 80.284 71.0322 80.443 71.1762 80.569C71.3202 80.695 71.4972 80.758 71.7072 80.758Z" fill="#393C78"/>
<path d="M86.5761 75.772C86.5761 76.798 86.5761 77.836 86.5761 78.886C86.5761 79.936 86.5761 80.974 86.5761 82C86.3181 82 86.0571 82 85.7931 82C85.5291 82 85.2651 82 85.0011 82C85.0011 81.268 85.0011 80.53 85.0011 79.786C85.0011 79.036 85.0011 78.298 85.0011 77.572C84.8271 77.608 84.6501 77.647 84.4701 77.689C84.2961 77.725 84.1221 77.761 83.9481 77.797C83.9481 77.557 83.9481 77.314 83.9481 77.068C83.9481 76.822 83.9481 76.579 83.9481 76.339C84.3801 76.243 84.8181 76.15 85.2621 76.06C85.7061 75.964 86.1441 75.868 86.5761 75.772ZM87.7816 80.299C88.0936 80.443 88.4026 80.536 88.7086 80.578C89.0146 80.614 89.2936 80.602 89.5456 80.542C89.7976 80.476 90.0016 80.362 90.1576 80.2C90.3196 80.032 90.4126 79.816 90.4366 79.552C90.2206 79.72 89.9746 79.834 89.6986 79.894C89.4286 79.954 89.1556 79.96 88.8796 79.912C88.6036 79.864 88.3456 79.762 88.1056 79.606C87.8716 79.444 87.6826 79.228 87.5386 78.958C87.3946 78.682 87.3226 78.349 87.3226 77.959C87.3226 77.647 87.3766 77.359 87.4846 77.095C87.5926 76.825 87.7456 76.591 87.9436 76.393C88.1476 76.189 88.3906 76.033 88.6726 75.925C88.9546 75.811 89.2696 75.754 89.6176 75.754C89.9656 75.754 90.2836 75.817 90.5716 75.943C90.8656 76.069 91.1176 76.258 91.3276 76.51C91.5436 76.756 91.7086 77.065 91.8226 77.437C91.9426 77.809 92.0026 78.241 92.0026 78.733C92.0026 79.261 91.9366 79.729 91.8046 80.137C91.6726 80.539 91.4836 80.881 91.2376 81.163C90.9916 81.439 90.6946 81.652 90.3466 81.802C89.9986 81.946 89.6086 82.024 89.1766 82.036C88.7446 82.048 88.2796 81.988 87.7816 81.856C87.7816 81.598 87.7816 81.34 87.7816 81.082C87.7816 80.818 87.7816 80.557 87.7816 80.299ZM89.6266 77.167C89.4046 77.167 89.2246 77.239 89.0866 77.383C88.9486 77.521 88.8796 77.704 88.8796 77.932C88.8796 78.16 88.9486 78.346 89.0866 78.49C89.2246 78.628 89.4046 78.697 89.6266 78.697C89.8426 78.697 90.0166 78.631 90.1486 78.499C90.2866 78.361 90.3556 78.181 90.3556 77.959C90.3556 77.725 90.2866 77.536 90.1486 77.392C90.0166 77.242 89.8426 77.167 89.6266 77.167Z" fill="#393C78"/>
<path d="M101.101 82C101.101 81.766 101.101 81.529 101.101 81.289C101.101 81.043 101.101 80.803 101.101 80.569C101.341 80.341 101.581 80.11 101.821 79.876C102.061 79.636 102.301 79.402 102.541 79.174C102.817 78.904 103.027 78.688 103.171 78.526C103.315 78.358 103.414 78.217 103.468 78.103C103.528 77.989 103.558 77.884 103.558 77.788C103.558 77.59 103.444 77.449 103.216 77.365C102.988 77.275 102.694 77.248 102.334 77.284C101.974 77.32 101.59 77.419 101.182 77.581C101.182 77.335 101.182 77.086 101.182 76.834C101.182 76.576 101.182 76.324 101.182 76.078C101.782 75.88 102.325 75.781 102.811 75.781C103.303 75.781 103.723 75.862 104.071 76.024C104.425 76.18 104.695 76.399 104.881 76.681C105.073 76.963 105.169 77.29 105.169 77.662C105.169 78.034 105.07 78.385 104.872 78.715C104.674 79.039 104.371 79.399 103.963 79.795C103.831 79.921 103.699 80.05 103.567 80.182C103.435 80.314 103.303 80.443 103.171 80.569C103.495 80.569 103.819 80.569 104.143 80.569C104.473 80.569 104.8 80.569 105.124 80.569C105.124 80.803 105.124 81.043 105.124 81.289C105.124 81.529 105.124 81.766 105.124 82C104.458 82 103.786 82 103.108 82C102.436 82 101.767 82 101.101 82ZM108.41 82.126C108.014 82.126 107.651 82.048 107.321 81.892C106.991 81.73 106.706 81.505 106.466 81.217C106.232 80.929 106.049 80.59 105.917 80.2C105.791 79.81 105.728 79.387 105.728 78.931C105.728 78.475 105.791 78.055 105.917 77.671C106.049 77.281 106.232 76.945 106.466 76.663C106.706 76.375 106.991 76.153 107.321 75.997C107.651 75.835 108.014 75.754 108.41 75.754C108.806 75.754 109.166 75.835 109.49 75.997C109.82 76.153 110.105 76.375 110.345 76.663C110.585 76.945 110.768 77.281 110.894 77.671C111.026 78.055 111.092 78.475 111.092 78.931C111.092 79.387 111.026 79.81 110.894 80.2C110.768 80.59 110.585 80.929 110.345 81.217C110.105 81.505 109.82 81.73 109.49 81.892C109.166 82.048 108.806 82.126 108.41 82.126ZM108.41 80.641C108.65 80.641 108.851 80.572 109.013 80.434C109.181 80.29 109.31 80.089 109.4 79.831C109.49 79.573 109.535 79.273 109.535 78.931C109.535 78.589 109.49 78.292 109.4 78.04C109.31 77.782 109.181 77.584 109.013 77.446C108.851 77.308 108.65 77.239 108.41 77.239C108.176 77.239 107.975 77.308 107.807 77.446C107.639 77.584 107.51 77.779 107.42 78.031C107.33 78.283 107.285 78.583 107.285 78.931C107.285 79.273 107.33 79.573 107.42 79.831C107.51 80.089 107.639 80.29 107.807 80.434C107.975 80.572 108.176 80.641 108.41 80.641Z" fill="#393C78"/>
</g>
<defs>
<clipPath id="clip0_16_1914">
<rect width="140" height="88" fill="white"/>
</clipPath>
</defs>
</svg>
