<svg width="140" height="88" viewBox="0 0 140 88" fill="none" xmlns="http://www.w3.org/2000/svg">
<g clip-path="url(#clip0_16_1896)">
<rect x="6" y="26" width="62" height="36" rx="2.13793" fill="#5E609C"/>
<rect x="72" y="26" width="62" height="36" rx="2.13793" fill="#5E609C"/>
<path d="M39.9646 36.392C39.9646 39.128 39.9646 41.896 39.9646 44.696C39.9646 47.496 39.9646 50.264 39.9646 53C39.2766 53 38.5806 53 37.8766 53C37.1726 53 36.4686 53 35.7646 53C35.7646 51.048 35.7646 49.08 35.7646 47.096C35.7646 45.096 35.7646 43.128 35.7646 41.192C35.3006 41.288 34.8286 41.392 34.3486 41.504C33.8846 41.6 33.4206 41.696 32.9566 41.792C32.9566 41.152 32.9566 40.504 32.9566 39.848C32.9566 39.192 32.9566 38.544 32.9566 37.904C34.1086 37.648 35.2766 37.4 36.4606 37.16C37.6446 36.904 38.8126 36.648 39.9646 36.392Z" fill="#393C78"/>
<path d="M95.6944 53C95.6944 52.376 95.6944 51.744 95.6944 51.104C95.6944 50.448 95.6944 49.808 95.6944 49.184C96.3344 48.576 96.9744 47.96 97.6144 47.336C98.2544 46.696 98.8944 46.072 99.5344 45.464C100.27 44.744 100.83 44.168 101.214 43.736C101.598 43.288 101.862 42.912 102.006 42.608C102.166 42.304 102.246 42.024 102.246 41.768C102.246 41.24 101.942 40.864 101.334 40.64C100.726 40.4 99.9424 40.328 98.9824 40.424C98.0224 40.52 96.9984 40.784 95.9104 41.216C95.9104 40.56 95.9104 39.896 95.9104 39.224C95.9104 38.536 95.9104 37.864 95.9104 37.208C97.5104 36.68 98.9584 36.416 100.254 36.416C101.566 36.416 102.686 36.632 103.614 37.064C104.558 37.48 105.278 38.064 105.774 38.816C106.286 39.568 106.542 40.44 106.542 41.432C106.542 42.424 106.278 43.36 105.75 44.24C105.222 45.104 104.414 46.064 103.326 47.12C102.974 47.456 102.622 47.8 102.27 48.152C101.918 48.504 101.566 48.848 101.214 49.184C102.078 49.184 102.942 49.184 103.806 49.184C104.686 49.184 105.558 49.184 106.422 49.184C106.422 49.808 106.422 50.448 106.422 51.104C106.422 51.744 106.422 52.376 106.422 53C104.646 53 102.854 53 101.046 53C99.2544 53 97.4704 53 95.6944 53Z" fill="#393C78"/>
</g>
<defs>
<clipPath id="clip0_16_1896">
<rect width="140" height="88" rx="3" fill="white"/>
</clipPath>
</defs>
</svg>
