<svg width="140" height="88" viewBox="0 0 140 88" fill="none" xmlns="http://www.w3.org/2000/svg">
<rect x="39" y="46" width="62" height="36" rx="2.13793" fill="#5E609C"/>
<path fill-rule="evenodd" clip-rule="evenodd" d="M69.9999 64C71.7711 64 73.2068 62.5642 73.2068 60.7931C73.2068 59.022 71.7711 57.5862 69.9999 57.5862C68.2288 57.5862 66.793 59.022 66.793 60.7931C66.793 62.5642 68.2288 64 69.9999 64ZM71.7394 64.8017H72.1379C73.9084 64.8017 75.3448 66.3099 75.3448 68.1689V69.2111V70.4137H64.6552V69.2111V68.1689C64.6552 66.3099 66.0916 64.8017 67.8621 64.8017H68.2605C68.7926 65.0572 69.3796 65.2025 70 65.2025C70.6204 65.2025 71.2097 65.0572 71.7394 64.8017Z" fill="#393C78"/>
<rect x="6" y="6" width="62" height="36" rx="2.13793" fill="#5E609C"/>
<path fill-rule="evenodd" clip-rule="evenodd" d="M36.9999 24C38.7711 24 40.2068 22.5642 40.2068 20.7931C40.2068 19.022 38.7711 17.5862 36.9999 17.5862C35.2288 17.5862 33.793 19.022 33.793 20.7931C33.793 22.5642 35.2288 24 36.9999 24ZM38.7394 24.8017H39.1379C40.9084 24.8017 42.3448 26.3099 42.3448 28.1689V29.2111V30.4137H31.6552V29.2111V28.1689C31.6552 26.3099 33.0916 24.8017 34.8621 24.8017H35.2605C35.7926 25.0572 36.3796 25.2025 37 25.2025C37.6204 25.2025 38.2097 25.0572 38.7394 24.8017Z" fill="#393C78"/>
<rect x="72" y="6" width="62" height="36" rx="2.13793" fill="#5E609C"/>
<path fill-rule="evenodd" clip-rule="evenodd" d="M103 24C104.771 24 106.207 22.5642 106.207 20.7931C106.207 19.022 104.771 17.5862 103 17.5862C101.229 17.5862 99.793 19.022 99.793 20.7931C99.793 22.5642 101.229 24 103 24ZM104.739 24.8017H105.138C106.908 24.8017 108.345 26.3099 108.345 28.1689V29.2111V30.4137H97.6552V29.2111V28.1689C97.6552 26.3099 99.0916 24.8017 100.862 24.8017H101.261C101.793 25.0572 102.38 25.2025 103 25.2025C103.62 25.2025 104.21 25.0572 104.739 24.8017Z" fill="#393C78"/>
</svg>
