<svg width="140" height="88" viewBox="0 0 140 88" fill="none" xmlns="http://www.w3.org/2000/svg">
<g clip-path="url(#clip0_16_1910)">
<rect x="6" y="6" width="29" height="16" rx="1" fill="#5E609C"/>
<rect x="39" y="6" width="29" height="16" rx="1" fill="#5E609C"/>
<rect x="72" y="6" width="29" height="16" rx="1" fill="#5E609C"/>
<rect x="105" y="6" width="29" height="16" rx="1" fill="#5E609C"/>
<rect x="6" y="26" width="62" height="36" rx="2.13793" fill="#5E609C"/>
<rect x="72" y="26" width="62" height="36" rx="2.13793" fill="#5E609C"/>
<rect x="6" y="66" width="29" height="16" rx="1" fill="#5E609C"/>
<rect x="39" y="66" width="29" height="16" rx="1" fill="#5E609C"/>
<rect x="72" y="66" width="29" height="16" rx="1" fill="#5E609C"/>
<rect x="105" y="66" width="29" height="16" rx="1" fill="#5E609C"/>
<path d="M39.9646 36.392C39.9646 39.128 39.9646 41.896 39.9646 44.696C39.9646 47.496 39.9646 50.264 39.9646 53C39.2766 53 38.5806 53 37.8766 53C37.1726 53 36.4686 53 35.7646 53C35.7646 51.048 35.7646 49.08 35.7646 47.096C35.7646 45.096 35.7646 43.128 35.7646 41.192C35.3006 41.288 34.8286 41.392 34.3486 41.504C33.8846 41.6 33.4206 41.696 32.9566 41.792C32.9566 41.152 32.9566 40.504 32.9566 39.848C32.9566 39.192 32.9566 38.544 32.9566 37.904C34.1086 37.648 35.2766 37.4 36.4606 37.16C37.6446 36.904 38.8126 36.648 39.9646 36.392Z" fill="#393C78"/>
<path d="M97.6944 53C97.6944 52.376 97.6944 51.744 97.6944 51.104C97.6944 50.448 97.6944 49.808 97.6944 49.184C98.3344 48.576 98.9744 47.96 99.6144 47.336C100.254 46.696 100.894 46.072 101.534 45.464C102.27 44.744 102.83 44.168 103.214 43.736C103.598 43.288 103.862 42.912 104.006 42.608C104.166 42.304 104.246 42.024 104.246 41.768C104.246 41.24 103.942 40.864 103.334 40.64C102.726 40.4 101.942 40.328 100.982 40.424C100.022 40.52 98.9984 40.784 97.9104 41.216C97.9104 40.56 97.9104 39.896 97.9104 39.224C97.9104 38.536 97.9104 37.864 97.9104 37.208C99.5104 36.68 100.958 36.416 102.254 36.416C103.566 36.416 104.686 36.632 105.614 37.064C106.558 37.48 107.278 38.064 107.774 38.816C108.286 39.568 108.542 40.44 108.542 41.432C108.542 42.424 108.278 43.36 107.75 44.24C107.222 45.104 106.414 46.064 105.326 47.12C104.974 47.456 104.622 47.8 104.27 48.152C103.918 48.504 103.566 48.848 103.214 49.184C104.078 49.184 104.942 49.184 105.806 49.184C106.686 49.184 107.558 49.184 108.422 49.184C108.422 49.808 108.422 50.448 108.422 51.104C108.422 51.744 108.422 52.376 108.422 53C106.646 53 104.854 53 103.046 53C101.254 53 99.4704 53 97.6944 53Z" fill="#393C78"/>
<path d="M18.4452 13.356C18.7812 13.092 19.1172 12.824 19.4532 12.552C19.7972 12.28 20.1372 12.012 20.4732 11.748C20.0652 11.748 19.6492 11.748 19.2252 11.748C18.8092 11.748 18.3972 11.748 17.9892 11.748C17.9892 11.436 17.9892 11.12 17.9892 10.8C17.9892 10.472 17.9892 10.152 17.9892 9.84C18.8292 9.84 19.6732 9.84 20.5212 9.84C21.3772 9.84 22.2252 9.84 23.0652 9.84C23.0652 10.152 23.0652 10.472 23.0652 10.8C23.0652 11.12 23.0652 11.436 23.0652 11.748C22.7772 11.98 22.4892 12.216 22.2012 12.456C21.9132 12.696 21.6252 12.932 21.3372 13.164C21.9932 13.292 22.4972 13.564 22.8492 13.98C23.2092 14.388 23.3892 14.904 23.3892 15.528C23.3892 16.12 23.2452 16.608 22.9572 16.992C22.6692 17.376 22.2732 17.66 21.7692 17.844C21.2652 18.028 20.6852 18.112 20.0292 18.096C19.3812 18.08 18.6932 17.964 17.9652 17.748C17.9652 17.42 17.9652 17.088 17.9652 16.752C17.9652 16.408 17.9652 16.072 17.9652 15.744C18.5492 15.952 19.0972 16.084 19.6092 16.14C20.1212 16.196 20.5332 16.176 20.8452 16.08C21.1652 15.976 21.3252 15.796 21.3252 15.54C21.3252 15.292 21.2012 15.104 20.9532 14.976C20.7052 14.848 20.3612 14.768 19.9212 14.736C19.4892 14.696 18.9972 14.7 18.4452 14.748C18.4452 14.516 18.4452 14.284 18.4452 14.052C18.4452 13.812 18.4452 13.58 18.4452 13.356Z" fill="#393C78"/>
<path d="M23.2268 69.84C23.2268 70.152 23.2268 70.472 23.2268 70.8C23.2268 71.12 23.2268 71.436 23.2268 71.748C22.7708 72.78 22.3108 73.824 21.8468 74.88C21.3908 75.928 20.9348 76.968 20.4788 78C20.1268 78 19.7668 78 19.3988 78C19.0308 78 18.6708 78 18.3188 78C18.7748 76.968 19.2308 75.928 19.6868 74.88C20.1508 73.824 20.6108 72.78 21.0668 71.748C20.5308 71.748 19.9828 71.748 19.4228 71.748C18.8708 71.748 18.3228 71.748 17.7788 71.748C17.7788 71.436 17.7788 71.12 17.7788 70.8C17.7788 70.472 17.7788 70.152 17.7788 69.84C18.6828 69.84 19.5908 69.84 20.5028 69.84C21.4228 69.84 22.3308 69.84 23.2268 69.84Z" fill="#393C78"/>
<path d="M50.302 16.452C50.302 16.14 50.302 15.824 50.302 15.504C50.302 15.176 50.302 14.856 50.302 14.544C50.702 13.768 51.106 12.984 51.514 12.192C51.922 11.4 52.322 10.616 52.714 9.84C53.226 9.84 53.738 9.84 54.25 9.84C54.77 9.84 55.286 9.84 55.798 9.84C55.798 10.616 55.798 11.4 55.798 12.192C55.798 12.984 55.798 13.768 55.798 14.544C55.982 14.544 56.17 14.544 56.362 14.544C56.562 14.544 56.754 14.544 56.938 14.544C56.938 14.856 56.938 15.176 56.938 15.504C56.938 15.824 56.938 16.14 56.938 16.452C56.754 16.452 56.562 16.452 56.362 16.452C56.17 16.452 55.982 16.452 55.798 16.452C55.798 16.708 55.798 16.968 55.798 17.232C55.798 17.488 55.798 17.744 55.798 18C55.462 18 55.118 18 54.766 18C54.422 18 54.082 18 53.746 18C53.746 17.744 53.746 17.488 53.746 17.232C53.746 16.968 53.746 16.708 53.746 16.452C53.178 16.452 52.602 16.452 52.018 16.452C51.442 16.452 50.87 16.452 50.302 16.452ZM52.462 14.544C52.67 14.544 52.882 14.544 53.098 14.544C53.322 14.544 53.538 14.544 53.746 14.544C53.746 14.096 53.746 13.64 53.746 13.176C53.746 12.712 53.746 12.256 53.746 11.808C53.538 12.256 53.322 12.712 53.098 13.176C52.882 13.64 52.67 14.096 52.462 14.544Z" fill="#393C78"/>
<path d="M53.5146 78.18C52.9306 78.18 52.4066 78.076 51.9426 77.868C51.4786 77.652 51.1106 77.352 50.8386 76.968C50.5746 76.584 50.4426 76.136 50.4426 75.624C50.4426 75.2 50.5306 74.832 50.7066 74.52C50.8906 74.208 51.1386 73.956 51.4506 73.764C51.1866 73.58 50.9786 73.352 50.8266 73.08C50.6826 72.808 50.6106 72.488 50.6106 72.12C50.6106 71.64 50.7346 71.216 50.9826 70.848C51.2386 70.48 51.5866 70.192 52.0266 69.984C52.4666 69.768 52.9626 69.66 53.5146 69.66C54.0666 69.66 54.5586 69.768 54.9906 69.984C55.4306 70.192 55.7746 70.48 56.0226 70.848C56.2706 71.216 56.3946 71.64 56.3946 72.12C56.3946 72.488 56.3186 72.808 56.1666 73.08C56.0226 73.352 55.8226 73.58 55.5666 73.764C55.8706 73.956 56.1106 74.208 56.2866 74.52C56.4706 74.832 56.5626 75.2 56.5626 75.624C56.5626 76.136 56.4266 76.584 56.1546 76.968C55.8906 77.352 55.5306 77.652 55.0746 77.868C54.6186 78.076 54.0986 78.18 53.5146 78.18ZM53.5146 72.996C53.7706 72.996 53.9746 72.924 54.1266 72.78C54.2786 72.636 54.3546 72.452 54.3546 72.228C54.3546 72.012 54.2786 71.836 54.1266 71.7C53.9746 71.564 53.7706 71.496 53.5146 71.496C53.2586 71.496 53.0506 71.564 52.8906 71.7C52.7306 71.836 52.6506 72.012 52.6506 72.228C52.6506 72.452 52.7306 72.636 52.8906 72.78C53.0586 72.924 53.2666 72.996 53.5146 72.996ZM53.5146 76.344C53.7946 76.344 54.0266 76.26 54.2106 76.092C54.3946 75.924 54.4866 75.712 54.4866 75.456C54.4866 75.184 54.3946 74.968 54.2106 74.808C54.0266 74.64 53.7946 74.556 53.5146 74.556C53.2346 74.556 52.9986 74.64 52.8066 74.808C52.6146 74.968 52.5186 75.184 52.5186 75.456C52.5186 75.712 52.6146 75.924 52.8066 76.092C52.9986 76.26 53.2346 76.344 53.5146 76.344Z" fill="#393C78"/>
<path d="M84.0247 14.58C84.0967 13.796 84.1687 13.004 84.2407 12.204C84.3127 11.404 84.3847 10.616 84.4567 9.84C85.1927 9.84 85.9407 9.84 86.7007 9.84C87.4607 9.84 88.2087 9.84 88.9447 9.84C88.9447 10.152 88.9447 10.472 88.9447 10.8C88.9447 11.12 88.9447 11.436 88.9447 11.748C88.5047 11.748 88.0567 11.748 87.6007 11.748C87.1447 11.748 86.6927 11.748 86.2447 11.748C86.2287 11.9 86.2087 12.06 86.1847 12.228C86.1607 12.388 86.1407 12.548 86.1247 12.708C86.8047 12.7 87.3847 12.796 87.8647 12.996C88.3527 13.196 88.7247 13.492 88.9807 13.884C89.2447 14.276 89.3767 14.764 89.3767 15.348C89.3767 15.972 89.2287 16.488 88.9327 16.896C88.6367 17.296 88.2327 17.596 87.7207 17.796C87.2167 17.988 86.6367 18.08 85.9807 18.072C85.3327 18.064 84.6487 17.956 83.9287 17.748C83.9287 17.42 83.9287 17.088 83.9287 16.752C83.9287 16.408 83.9287 16.072 83.9287 15.744C84.5927 15.952 85.1767 16.088 85.6807 16.152C86.1927 16.208 86.5927 16.176 86.8807 16.056C87.1687 15.936 87.3127 15.72 87.3127 15.408C87.3127 15.096 87.1647 14.864 86.8687 14.712C86.5807 14.56 86.1887 14.476 85.6927 14.46C85.1967 14.436 84.6407 14.476 84.0247 14.58Z" fill="#393C78"/>
<path d="M83.9471 75.732C84.3631 75.924 84.7751 76.048 85.1831 76.104C85.5911 76.152 85.9631 76.136 86.2991 76.056C86.6351 75.968 86.9071 75.816 87.1151 75.6C87.3311 75.376 87.4551 75.088 87.4871 74.736C87.1991 74.96 86.8711 75.112 86.5031 75.192C86.1431 75.272 85.7791 75.28 85.4111 75.216C85.0431 75.152 84.6991 75.016 84.3791 74.808C84.0671 74.592 83.8151 74.304 83.6231 73.944C83.4311 73.576 83.3351 73.132 83.3351 72.612C83.3351 72.196 83.4071 71.812 83.5511 71.46C83.6951 71.1 83.8991 70.788 84.1631 70.524C84.4351 70.252 84.7591 70.044 85.1351 69.9C85.5111 69.748 85.9311 69.672 86.3951 69.672C86.8591 69.672 87.2831 69.756 87.6671 69.924C88.0591 70.092 88.3951 70.344 88.6751 70.68C88.9631 71.008 89.1831 71.42 89.3351 71.916C89.4951 72.412 89.5751 72.988 89.5751 73.644C89.5751 74.348 89.4871 74.972 89.3111 75.516C89.1351 76.052 88.8831 76.508 88.5551 76.884C88.2271 77.252 87.8311 77.536 87.3671 77.736C86.9031 77.928 86.3831 78.032 85.8071 78.048C85.2311 78.064 84.6111 77.984 83.9471 77.808C83.9471 77.464 83.9471 77.12 83.9471 76.776C83.9471 76.424 83.9471 76.076 83.9471 75.732ZM86.4071 71.556C86.1111 71.556 85.8711 71.652 85.6871 71.844C85.5031 72.028 85.4111 72.272 85.4111 72.576C85.4111 72.88 85.5031 73.128 85.6871 73.32C85.8711 73.504 86.1111 73.596 86.4071 73.596C86.6951 73.596 86.9271 73.508 87.1031 73.332C87.2871 73.148 87.3791 72.908 87.3791 72.612C87.3791 72.3 87.2871 72.048 87.1031 71.856C86.9271 71.656 86.6951 71.556 86.4071 71.556Z" fill="#393C78"/>
<path d="M122.047 12.096C121.631 11.904 121.219 11.784 120.811 11.736C120.403 11.68 120.031 11.696 119.695 11.784C119.359 11.864 119.083 12.016 118.867 12.24C118.659 12.456 118.539 12.74 118.507 13.092C118.795 12.868 119.119 12.716 119.479 12.636C119.847 12.556 120.215 12.548 120.583 12.612C120.951 12.676 121.291 12.816 121.603 13.032C121.923 13.24 122.179 13.528 122.371 13.896C122.563 14.256 122.659 14.696 122.659 15.216C122.659 15.632 122.587 16.02 122.443 16.38C122.299 16.732 122.091 17.044 121.819 17.316C121.555 17.58 121.235 17.788 120.859 17.94C120.483 18.084 120.063 18.156 119.599 18.156C119.135 18.156 118.707 18.072 118.315 17.904C117.931 17.736 117.595 17.488 117.307 17.16C117.027 16.824 116.807 16.408 116.647 15.912C116.495 15.416 116.419 14.84 116.419 14.184C116.419 13.48 116.507 12.86 116.683 12.324C116.859 11.78 117.111 11.324 117.439 10.956C117.767 10.58 118.163 10.296 118.627 10.104C119.091 9.904 119.611 9.796 120.187 9.78C120.763 9.764 121.383 9.844 122.047 10.02C122.047 10.364 122.047 10.712 122.047 11.064C122.047 11.408 122.047 11.752 122.047 12.096ZM119.587 16.272C119.883 16.272 120.123 16.176 120.307 15.984C120.491 15.792 120.583 15.548 120.583 15.252C120.583 14.948 120.491 14.704 120.307 14.52C120.123 14.328 119.883 14.232 119.587 14.232C119.299 14.232 119.063 14.324 118.879 14.508C118.703 14.684 118.615 14.92 118.615 15.216C118.615 15.528 118.703 15.784 118.879 15.984C119.063 16.176 119.299 16.272 119.587 16.272Z" fill="#393C78"/>
<path d="M117.103 69.696C117.103 71.064 117.103 72.448 117.103 73.848C117.103 75.248 117.103 76.632 117.103 78C116.759 78 116.411 78 116.059 78C115.707 78 115.355 78 115.003 78C115.003 77.024 115.003 76.04 115.003 75.048C115.003 74.048 115.003 73.064 115.003 72.096C114.771 72.144 114.535 72.196 114.295 72.252C114.063 72.3 113.831 72.348 113.599 72.396C113.599 72.076 113.599 71.752 113.599 71.424C113.599 71.096 113.599 70.772 113.599 70.452C114.175 70.324 114.759 70.2 115.351 70.08C115.943 69.952 116.527 69.824 117.103 69.696ZM121.759 78.168C121.231 78.168 120.747 78.064 120.307 77.856C119.867 77.64 119.487 77.34 119.167 76.956C118.855 76.572 118.611 76.12 118.435 75.6C118.267 75.08 118.183 74.516 118.183 73.908C118.183 73.3 118.267 72.74 118.435 72.228C118.611 71.708 118.855 71.26 119.167 70.884C119.487 70.5 119.867 70.204 120.307 69.996C120.747 69.78 121.231 69.672 121.759 69.672C122.287 69.672 122.767 69.78 123.199 69.996C123.639 70.204 124.019 70.5 124.339 70.884C124.659 71.26 124.903 71.708 125.071 72.228C125.247 72.74 125.335 73.3 125.335 73.908C125.335 74.516 125.247 75.08 125.071 75.6C124.903 76.12 124.659 76.572 124.339 76.956C124.019 77.34 123.639 77.64 123.199 77.856C122.767 78.064 122.287 78.168 121.759 78.168ZM121.759 76.188C122.079 76.188 122.347 76.096 122.563 75.912C122.787 75.72 122.959 75.452 123.079 75.108C123.199 74.764 123.259 74.364 123.259 73.908C123.259 73.452 123.199 73.056 123.079 72.72C122.959 72.376 122.787 72.112 122.563 71.928C122.347 71.744 122.079 71.652 121.759 71.652C121.447 71.652 121.179 71.744 120.955 71.928C120.731 72.112 120.559 72.372 120.439 72.708C120.319 73.044 120.259 73.444 120.259 73.908C120.259 74.364 120.319 74.764 120.439 75.108C120.559 75.452 120.731 75.72 120.955 75.912C121.179 76.096 121.447 76.188 121.759 76.188Z" fill="#393C78"/>
</g>
<defs>
<clipPath id="clip0_16_1910">
<rect width="140" height="88" fill="white"/>
</clipPath>
</defs>
</svg>
