<svg width="140" height="88" viewBox="0 0 140 88" fill="none" xmlns="http://www.w3.org/2000/svg">
<g clip-path="url(#clip0_16_1916)">
<g clip-path="url(#clip1_16_1916)">
<rect x="6" y="6" width="29" height="16" rx="1" fill="#5E609C"/>
<rect x="6" y="26" width="29" height="16" rx="1" fill="#5E609C"/>
<rect x="6" y="46" width="29" height="16" rx="1" fill="#5E609C"/>
<rect x="6" y="66" width="29" height="16" rx="1" fill="#5E609C"/>
<rect x="39" y="6" width="29" height="16" rx="1" fill="#5E609C"/>
<rect x="39" y="26" width="62" height="36" rx="2.13793" fill="#5E609C"/>
<rect x="39" y="66" width="29" height="16" rx="1" fill="#5E609C"/>
<rect x="72" y="6" width="29" height="16" rx="1" fill="#5E609C"/>
<rect x="72" y="66" width="29" height="16" rx="1" fill="#5E609C"/>
<rect x="105" y="6" width="29" height="16" rx="1" fill="#5E609C"/>
<rect x="105" y="26" width="29" height="16" rx="1" fill="#5E609C"/>
<rect x="105" y="46" width="29" height="16" rx="1" fill="#5E609C"/>
<rect x="105" y="66" width="29" height="16" rx="1" fill="#5E609C"/>
</g>
<path d="M72.9646 36.392C72.9646 39.128 72.9646 41.896 72.9646 44.696C72.9646 47.496 72.9646 50.264 72.9646 53C72.2766 53 71.5806 53 70.8766 53C70.1726 53 69.4686 53 68.7646 53C68.7646 51.048 68.7646 49.08 68.7646 47.096C68.7646 45.096 68.7646 43.128 68.7646 41.192C68.3006 41.288 67.8286 41.392 67.3486 41.504C66.8846 41.6 66.4206 41.696 65.9566 41.792C65.9566 41.152 65.9566 40.504 65.9566 39.848C65.9566 39.192 65.9566 38.544 65.9566 37.904C67.1086 37.648 68.2766 37.4 69.4606 37.16C70.6446 36.904 71.8126 36.648 72.9646 36.392Z" fill="#393C78"/>
<path d="M17.8472 18C17.8472 17.688 17.8472 17.372 17.8472 17.052C17.8472 16.724 17.8472 16.404 17.8472 16.092C18.1672 15.788 18.4872 15.48 18.8072 15.168C19.1272 14.848 19.4472 14.536 19.7672 14.232C20.1352 13.872 20.4152 13.584 20.6072 13.368C20.7992 13.144 20.9312 12.956 21.0032 12.804C21.0832 12.652 21.1232 12.512 21.1232 12.384C21.1232 12.12 20.9712 11.932 20.6672 11.82C20.3632 11.7 19.9712 11.664 19.4912 11.712C19.0112 11.76 18.4992 11.892 17.9552 12.108C17.9552 11.78 17.9552 11.448 17.9552 11.112C17.9552 10.768 17.9552 10.432 17.9552 10.104C18.7552 9.84 19.4792 9.708 20.1272 9.708C20.7832 9.708 21.3432 9.816 21.8072 10.032C22.2792 10.24 22.6392 10.532 22.8872 10.908C23.1432 11.284 23.2712 11.72 23.2712 12.216C23.2712 12.712 23.1392 13.18 22.8752 13.62C22.6112 14.052 22.2072 14.532 21.6632 15.06C21.4872 15.228 21.3112 15.4 21.1352 15.576C20.9592 15.752 20.7832 15.924 20.6072 16.092C21.0392 16.092 21.4712 16.092 21.9032 16.092C22.3432 16.092 22.7792 16.092 23.2112 16.092C23.2112 16.404 23.2112 16.724 23.2112 17.052C23.2112 17.372 23.2112 17.688 23.2112 18C22.3232 18 21.4272 18 20.5232 18C19.6272 18 18.7352 18 17.8472 18Z" fill="#393C78"/>
<path d="M23.0471 32.096C22.6311 31.904 22.2191 31.784 21.8111 31.736C21.4031 31.68 21.0311 31.696 20.6951 31.784C20.3591 31.864 20.0831 32.016 19.8671 32.24C19.6591 32.456 19.5391 32.74 19.5071 33.092C19.7951 32.868 20.1191 32.716 20.4791 32.636C20.8471 32.556 21.2151 32.548 21.5831 32.612C21.9511 32.676 22.2911 32.816 22.6031 33.032C22.9231 33.24 23.1791 33.528 23.3711 33.896C23.5631 34.256 23.6591 34.696 23.6591 35.216C23.6591 35.632 23.5871 36.02 23.4431 36.38C23.2991 36.732 23.0911 37.044 22.8191 37.316C22.5551 37.58 22.2351 37.788 21.8591 37.94C21.4831 38.084 21.0631 38.156 20.5991 38.156C20.1351 38.156 19.7071 38.072 19.3151 37.904C18.9311 37.736 18.5951 37.488 18.3071 37.16C18.0271 36.824 17.8071 36.408 17.6471 35.912C17.4951 35.416 17.4191 34.84 17.4191 34.184C17.4191 33.48 17.5071 32.86 17.6831 32.324C17.8591 31.78 18.1111 31.324 18.4391 30.956C18.7671 30.58 19.1631 30.296 19.6271 30.104C20.0911 29.904 20.6111 29.796 21.1871 29.78C21.7631 29.764 22.3831 29.844 23.0471 30.02C23.0471 30.364 23.0471 30.712 23.0471 31.064C23.0471 31.408 23.0471 31.752 23.0471 32.096ZM20.5871 36.272C20.8831 36.272 21.1231 36.176 21.3071 35.984C21.4911 35.792 21.5831 35.548 21.5831 35.252C21.5831 34.948 21.4911 34.704 21.3071 34.52C21.1231 34.328 20.8831 34.232 20.5871 34.232C20.2991 34.232 20.0631 34.324 19.8791 34.508C19.7031 34.684 19.6151 34.92 19.6151 35.216C19.6151 35.528 19.7031 35.784 19.8791 35.984C20.0631 36.176 20.2991 36.272 20.5871 36.272Z" fill="#393C78"/>
<path d="M20.5146 58.18C19.9306 58.18 19.4066 58.076 18.9426 57.868C18.4786 57.652 18.1106 57.352 17.8386 56.968C17.5746 56.584 17.4426 56.136 17.4426 55.624C17.4426 55.2 17.5306 54.832 17.7066 54.52C17.8906 54.208 18.1386 53.956 18.4506 53.764C18.1866 53.58 17.9786 53.352 17.8266 53.08C17.6826 52.808 17.6106 52.488 17.6106 52.12C17.6106 51.64 17.7346 51.216 17.9826 50.848C18.2386 50.48 18.5866 50.192 19.0266 49.984C19.4666 49.768 19.9626 49.66 20.5146 49.66C21.0666 49.66 21.5586 49.768 21.9906 49.984C22.4306 50.192 22.7746 50.48 23.0226 50.848C23.2706 51.216 23.3946 51.64 23.3946 52.12C23.3946 52.488 23.3186 52.808 23.1666 53.08C23.0226 53.352 22.8226 53.58 22.5666 53.764C22.8706 53.956 23.1106 54.208 23.2866 54.52C23.4706 54.832 23.5626 55.2 23.5626 55.624C23.5626 56.136 23.4266 56.584 23.1546 56.968C22.8906 57.352 22.5306 57.652 22.0746 57.868C21.6186 58.076 21.0986 58.18 20.5146 58.18ZM20.5146 52.996C20.7706 52.996 20.9746 52.924 21.1266 52.78C21.2786 52.636 21.3546 52.452 21.3546 52.228C21.3546 52.012 21.2786 51.836 21.1266 51.7C20.9746 51.564 20.7706 51.496 20.5146 51.496C20.2586 51.496 20.0506 51.564 19.8906 51.7C19.7306 51.836 19.6506 52.012 19.6506 52.228C19.6506 52.452 19.7306 52.636 19.8906 52.78C20.0586 52.924 20.2666 52.996 20.5146 52.996ZM20.5146 56.344C20.7946 56.344 21.0266 56.26 21.2106 56.092C21.3946 55.924 21.4866 55.712 21.4866 55.456C21.4866 55.184 21.3946 54.968 21.2106 54.808C21.0266 54.64 20.7946 54.556 20.5146 54.556C20.2346 54.556 19.9986 54.64 19.8066 54.808C19.6146 54.968 19.5186 55.184 19.5186 55.456C19.5186 55.712 19.6146 55.924 19.8066 56.092C19.9986 56.26 20.2346 56.344 20.5146 56.344Z" fill="#393C78"/>
<path d="M18.1034 69.696C18.1034 71.064 18.1034 72.448 18.1034 73.848C18.1034 75.248 18.1034 76.632 18.1034 78C17.7594 78 17.4114 78 17.0594 78C16.7074 78 16.3554 78 16.0034 78C16.0034 77.024 16.0034 76.04 16.0034 75.048C16.0034 74.048 16.0034 73.064 16.0034 72.096C15.7714 72.144 15.5354 72.196 15.2954 72.252C15.0634 72.3 14.8314 72.348 14.5994 72.396C14.5994 72.076 14.5994 71.752 14.5994 71.424C14.5994 71.096 14.5994 70.772 14.5994 70.452C15.1754 70.324 15.7594 70.2 16.3514 70.08C16.9434 69.952 17.5274 69.824 18.1034 69.696ZM22.7588 78.168C22.2308 78.168 21.7468 78.064 21.3068 77.856C20.8668 77.64 20.4868 77.34 20.1668 76.956C19.8548 76.572 19.6108 76.12 19.4348 75.6C19.2668 75.08 19.1828 74.516 19.1828 73.908C19.1828 73.3 19.2668 72.74 19.4348 72.228C19.6108 71.708 19.8548 71.26 20.1668 70.884C20.4868 70.5 20.8668 70.204 21.3068 69.996C21.7468 69.78 22.2308 69.672 22.7588 69.672C23.2868 69.672 23.7668 69.78 24.1988 69.996C24.6388 70.204 25.0188 70.5 25.3388 70.884C25.6588 71.26 25.9028 71.708 26.0708 72.228C26.2468 72.74 26.3348 73.3 26.3348 73.908C26.3348 74.516 26.2468 75.08 26.0708 75.6C25.9028 76.12 25.6588 76.572 25.3388 76.956C25.0188 77.34 24.6388 77.64 24.1988 77.856C23.7668 78.064 23.2868 78.168 22.7588 78.168ZM22.7588 76.188C23.0788 76.188 23.3468 76.096 23.5628 75.912C23.7868 75.72 23.9588 75.452 24.0788 75.108C24.1988 74.764 24.2588 74.364 24.2588 73.908C24.2588 73.452 24.1988 73.056 24.0788 72.72C23.9588 72.376 23.7868 72.112 23.5628 71.928C23.3468 71.744 23.0788 71.652 22.7588 71.652C22.4468 71.652 22.1788 71.744 21.9548 71.928C21.7308 72.112 21.5588 72.372 21.4388 72.708C21.3188 73.044 21.2588 73.444 21.2588 73.908C21.2588 74.364 21.3188 74.764 21.4388 75.108C21.5588 75.452 21.7308 75.72 21.9548 75.912C22.1788 76.096 22.4468 76.188 22.7588 76.188Z" fill="#393C78"/>
<path d="M52.7206 69.696C52.7206 71.064 52.7206 72.448 52.7206 73.848C52.7206 75.248 52.7206 76.632 52.7206 78C52.3766 78 52.0286 78 51.6766 78C51.3246 78 50.9726 78 50.6206 78C50.6206 77.024 50.6206 76.04 50.6206 75.048C50.6206 74.048 50.6206 73.064 50.6206 72.096C50.3886 72.144 50.1526 72.196 49.9126 72.252C49.6806 72.3 49.4486 72.348 49.2166 72.396C49.2166 72.076 49.2166 71.752 49.2166 71.424C49.2166 71.096 49.2166 70.772 49.2166 70.452C49.7926 70.324 50.3766 70.2 50.9686 70.08C51.5606 69.952 52.1446 69.824 52.7206 69.696ZM57.244 69.696C57.244 71.064 57.244 72.448 57.244 73.848C57.244 75.248 57.244 76.632 57.244 78C56.9 78 56.552 78 56.2 78C55.848 78 55.496 78 55.144 78C55.144 77.024 55.144 76.04 55.144 75.048C55.144 74.048 55.144 73.064 55.144 72.096C54.912 72.144 54.676 72.196 54.436 72.252C54.204 72.3 53.972 72.348 53.74 72.396C53.74 72.076 53.74 71.752 53.74 71.424C53.74 71.096 53.74 70.772 53.74 70.452C54.316 70.324 54.9 70.2 55.492 70.08C56.084 69.952 56.668 69.824 57.244 69.696Z" fill="#393C78"/>
<path d="M84.7655 69.696C84.7655 71.064 84.7655 72.448 84.7655 73.848C84.7655 75.248 84.7655 76.632 84.7655 78C84.4215 78 84.0735 78 83.7215 78C83.3695 78 83.0175 78 82.6655 78C82.6655 77.024 82.6655 76.04 82.6655 75.048C82.6655 74.048 82.6655 73.064 82.6655 72.096C82.4335 72.144 82.1975 72.196 81.9575 72.252C81.7255 72.3 81.4935 72.348 81.2615 72.396C81.2615 72.076 81.2615 71.752 81.2615 71.424C81.2615 71.096 81.2615 70.772 81.2615 70.452C81.8375 70.324 82.4215 70.2 83.0135 70.08C83.6055 69.952 84.1895 69.824 84.7655 69.696ZM86.1089 78C86.1089 77.688 86.1089 77.372 86.1089 77.052C86.1089 76.724 86.1089 76.404 86.1089 76.092C86.4289 75.788 86.7489 75.48 87.0689 75.168C87.3889 74.848 87.7089 74.536 88.0289 74.232C88.3969 73.872 88.6769 73.584 88.8689 73.368C89.0609 73.144 89.1929 72.956 89.2649 72.804C89.3449 72.652 89.3849 72.512 89.3849 72.384C89.3849 72.12 89.2329 71.932 88.9289 71.82C88.6249 71.7 88.2329 71.664 87.7529 71.712C87.2729 71.76 86.7609 71.892 86.2169 72.108C86.2169 71.78 86.2169 71.448 86.2169 71.112C86.2169 70.768 86.2169 70.432 86.2169 70.104C87.0169 69.84 87.7409 69.708 88.3889 69.708C89.0449 69.708 89.6049 69.816 90.0689 70.032C90.5409 70.24 90.9009 70.532 91.1489 70.908C91.4049 71.284 91.5329 71.72 91.5329 72.216C91.5329 72.712 91.4009 73.18 91.1369 73.62C90.8729 74.052 90.4689 74.532 89.9249 75.06C89.7489 75.228 89.5729 75.4 89.3969 75.576C89.2209 75.752 89.0449 75.924 88.8689 76.092C89.3009 76.092 89.7329 76.092 90.1649 76.092C90.6049 76.092 91.0409 76.092 91.4729 76.092C91.4729 76.404 91.4729 76.724 91.4729 77.052C91.4729 77.372 91.4729 77.688 91.4729 78C90.5849 78 89.6889 78 88.7849 78C87.8889 78 86.9969 78 86.1089 78Z" fill="#393C78"/>
<path d="M117.848 69.696C117.848 71.064 117.848 72.448 117.848 73.848C117.848 75.248 117.848 76.632 117.848 78C117.504 78 117.156 78 116.804 78C116.452 78 116.1 78 115.748 78C115.748 77.024 115.748 76.04 115.748 75.048C115.748 74.048 115.748 73.064 115.748 72.096C115.516 72.144 115.28 72.196 115.04 72.252C114.808 72.3 114.576 72.348 114.344 72.396C114.344 72.076 114.344 71.752 114.344 71.424C114.344 71.096 114.344 70.772 114.344 70.452C114.92 70.324 115.504 70.2 116.096 70.08C116.688 69.952 117.272 69.824 117.848 69.696ZM119.707 73.356C120.043 73.092 120.379 72.824 120.715 72.552C121.059 72.28 121.399 72.012 121.735 71.748C121.327 71.748 120.911 71.748 120.487 71.748C120.071 71.748 119.659 71.748 119.251 71.748C119.251 71.436 119.251 71.12 119.251 70.8C119.251 70.472 119.251 70.152 119.251 69.84C120.091 69.84 120.935 69.84 121.783 69.84C122.639 69.84 123.487 69.84 124.327 69.84C124.327 70.152 124.327 70.472 124.327 70.8C124.327 71.12 124.327 71.436 124.327 71.748C124.039 71.98 123.751 72.216 123.463 72.456C123.175 72.696 122.887 72.932 122.599 73.164C123.255 73.292 123.759 73.564 124.111 73.98C124.471 74.388 124.651 74.904 124.651 75.528C124.651 76.12 124.507 76.608 124.219 76.992C123.931 77.376 123.535 77.66 123.031 77.844C122.527 78.028 121.947 78.112 121.291 78.096C120.643 78.08 119.955 77.964 119.227 77.748C119.227 77.42 119.227 77.088 119.227 76.752C119.227 76.408 119.227 76.072 119.227 75.744C119.811 75.952 120.359 76.084 120.871 76.14C121.383 76.196 121.795 76.176 122.107 76.08C122.427 75.976 122.587 75.796 122.587 75.54C122.587 75.292 122.463 75.104 122.215 74.976C121.967 74.848 121.623 74.768 121.183 74.736C120.751 74.696 120.259 74.7 119.707 74.748C119.707 74.516 119.707 74.284 119.707 74.052C119.707 73.812 119.707 73.58 119.707 73.356Z" fill="#393C78"/>
<path d="M116.947 55.732C117.363 55.924 117.775 56.048 118.183 56.104C118.591 56.152 118.963 56.136 119.299 56.056C119.635 55.968 119.907 55.816 120.115 55.6C120.331 55.376 120.455 55.088 120.487 54.736C120.199 54.96 119.871 55.112 119.503 55.192C119.143 55.272 118.779 55.28 118.411 55.216C118.043 55.152 117.699 55.016 117.379 54.808C117.067 54.592 116.815 54.304 116.623 53.944C116.431 53.576 116.335 53.132 116.335 52.612C116.335 52.196 116.407 51.812 116.551 51.46C116.695 51.1 116.899 50.788 117.163 50.524C117.435 50.252 117.759 50.044 118.135 49.9C118.511 49.748 118.931 49.672 119.395 49.672C119.859 49.672 120.283 49.756 120.667 49.924C121.059 50.092 121.395 50.344 121.675 50.68C121.963 51.008 122.183 51.42 122.335 51.916C122.495 52.412 122.575 52.988 122.575 53.644C122.575 54.348 122.487 54.972 122.311 55.516C122.135 56.052 121.883 56.508 121.555 56.884C121.227 57.252 120.831 57.536 120.367 57.736C119.903 57.928 119.383 58.032 118.807 58.048C118.231 58.064 117.611 57.984 116.947 57.808C116.947 57.464 116.947 57.12 116.947 56.776C116.947 56.424 116.947 56.076 116.947 55.732ZM119.407 51.556C119.111 51.556 118.871 51.652 118.687 51.844C118.503 52.028 118.411 52.272 118.411 52.576C118.411 52.88 118.503 53.128 118.687 53.32C118.871 53.504 119.111 53.596 119.407 53.596C119.695 53.596 119.927 53.508 120.103 53.332C120.287 53.148 120.379 52.908 120.379 52.612C120.379 52.3 120.287 52.048 120.103 51.856C119.927 51.656 119.695 51.556 119.407 51.556Z" fill="#393C78"/>
<path d="M51.4452 13.356C51.7812 13.092 52.1172 12.824 52.4532 12.552C52.7972 12.28 53.1372 12.012 53.4732 11.748C53.0652 11.748 52.6492 11.748 52.2252 11.748C51.8092 11.748 51.3972 11.748 50.9892 11.748C50.9892 11.436 50.9892 11.12 50.9892 10.8C50.9892 10.472 50.9892 10.152 50.9892 9.84C51.8292 9.84 52.6732 9.84 53.5212 9.84C54.3772 9.84 55.2252 9.84 56.0652 9.84C56.0652 10.152 56.0652 10.472 56.0652 10.8C56.0652 11.12 56.0652 11.436 56.0652 11.748C55.7772 11.98 55.4892 12.216 55.2012 12.456C54.9132 12.696 54.6252 12.932 54.3372 13.164C54.9932 13.292 55.4972 13.564 55.8492 13.98C56.2092 14.388 56.3892 14.904 56.3892 15.528C56.3892 16.12 56.2452 16.608 55.9572 16.992C55.6692 17.376 55.2732 17.66 54.7692 17.844C54.2652 18.028 53.6852 18.112 53.0292 18.096C52.3812 18.08 51.6932 17.964 50.9652 17.748C50.9652 17.42 50.9652 17.088 50.9652 16.752C50.9652 16.408 50.9652 16.072 50.9652 15.744C51.5492 15.952 52.0972 16.084 52.6092 16.14C53.1212 16.196 53.5332 16.176 53.8452 16.08C54.1652 15.976 54.3252 15.796 54.3252 15.54C54.3252 15.292 54.2012 15.104 53.9532 14.976C53.7052 14.848 53.3612 14.768 52.9212 14.736C52.4892 14.696 51.9972 14.7 51.4452 14.748C51.4452 14.516 51.4452 14.284 51.4452 14.052C51.4452 13.812 51.4452 13.58 51.4452 13.356Z" fill="#393C78"/>
<path d="M83.302 16.452C83.302 16.14 83.302 15.824 83.302 15.504C83.302 15.176 83.302 14.856 83.302 14.544C83.702 13.768 84.106 12.984 84.514 12.192C84.922 11.4 85.322 10.616 85.714 9.84C86.226 9.84 86.738 9.84 87.25 9.84C87.77 9.84 88.286 9.84 88.798 9.84C88.798 10.616 88.798 11.4 88.798 12.192C88.798 12.984 88.798 13.768 88.798 14.544C88.982 14.544 89.17 14.544 89.362 14.544C89.562 14.544 89.754 14.544 89.938 14.544C89.938 14.856 89.938 15.176 89.938 15.504C89.938 15.824 89.938 16.14 89.938 16.452C89.754 16.452 89.562 16.452 89.362 16.452C89.17 16.452 88.982 16.452 88.798 16.452C88.798 16.708 88.798 16.968 88.798 17.232C88.798 17.488 88.798 17.744 88.798 18C88.462 18 88.118 18 87.766 18C87.422 18 87.082 18 86.746 18C86.746 17.744 86.746 17.488 86.746 17.232C86.746 16.968 86.746 16.708 86.746 16.452C86.178 16.452 85.602 16.452 85.018 16.452C84.442 16.452 83.87 16.452 83.302 16.452ZM85.462 14.544C85.67 14.544 85.882 14.544 86.098 14.544C86.322 14.544 86.538 14.544 86.746 14.544C86.746 14.096 86.746 13.64 86.746 13.176C86.746 12.712 86.746 12.256 86.746 11.808C86.538 12.256 86.322 12.712 86.098 13.176C85.882 13.64 85.67 14.096 85.462 14.544Z" fill="#393C78"/>
<path d="M117.025 14.58C117.097 13.796 117.169 13.004 117.241 12.204C117.313 11.404 117.385 10.616 117.457 9.84C118.193 9.84 118.941 9.84 119.701 9.84C120.461 9.84 121.209 9.84 121.945 9.84C121.945 10.152 121.945 10.472 121.945 10.8C121.945 11.12 121.945 11.436 121.945 11.748C121.505 11.748 121.057 11.748 120.601 11.748C120.145 11.748 119.693 11.748 119.245 11.748C119.229 11.9 119.209 12.06 119.185 12.228C119.161 12.388 119.141 12.548 119.125 12.708C119.805 12.7 120.385 12.796 120.865 12.996C121.353 13.196 121.725 13.492 121.981 13.884C122.245 14.276 122.377 14.764 122.377 15.348C122.377 15.972 122.229 16.488 121.933 16.896C121.637 17.296 121.233 17.596 120.721 17.796C120.217 17.988 119.637 18.08 118.981 18.072C118.333 18.064 117.649 17.956 116.929 17.748C116.929 17.42 116.929 17.088 116.929 16.752C116.929 16.408 116.929 16.072 116.929 15.744C117.593 15.952 118.177 16.088 118.681 16.152C119.193 16.208 119.593 16.176 119.881 16.056C120.169 15.936 120.313 15.72 120.313 15.408C120.313 15.096 120.165 14.864 119.869 14.712C119.581 14.56 119.189 14.476 118.693 14.46C118.197 14.436 117.641 14.476 117.025 14.58Z" fill="#393C78"/>
<path d="M122.227 29.84C122.227 30.152 122.227 30.472 122.227 30.8C122.227 31.12 122.227 31.436 122.227 31.748C121.771 32.78 121.311 33.824 120.847 34.88C120.391 35.928 119.935 36.968 119.479 38C119.127 38 118.767 38 118.399 38C118.031 38 117.671 38 117.319 38C117.775 36.968 118.231 35.928 118.687 34.88C119.151 33.824 119.611 32.78 120.067 31.748C119.531 31.748 118.983 31.748 118.423 31.748C117.871 31.748 117.323 31.748 116.779 31.748C116.779 31.436 116.779 31.12 116.779 30.8C116.779 30.472 116.779 30.152 116.779 29.84C117.683 29.84 118.591 29.84 119.503 29.84C120.423 29.84 121.331 29.84 122.227 29.84Z" fill="#393C78"/>
</g>
<defs>
<clipPath id="clip0_16_1916">
<rect width="140" height="88" fill="white"/>
</clipPath>
<clipPath id="clip1_16_1916">
<rect width="140" height="88" rx="3" fill="white"/>
</clipPath>
</defs>
</svg>
