<svg width="140" height="88" viewBox="0 0 140 88" fill="none" xmlns="http://www.w3.org/2000/svg">
<g clip-path="url(#clip0_44_2880)">
<rect x="6" y="46" width="40" height="23" rx="1.37931" fill="#5E609C"/>
<rect x="6" y="73" width="17" height="9" rx="0.62069" fill="#5E609C"/>
<rect x="62" y="73" width="16" height="9" rx="0.62069" fill="#5E609C"/>
<rect x="25" y="73" width="16" height="9" rx="0.62069" fill="#5E609C"/>
<rect x="80" y="73" width="17" height="9" rx="0.62069" fill="#5E609C"/>
<rect x="43" y="73" width="17" height="9" rx="0.62069" fill="#5E609C"/>
<rect x="99" y="73" width="16" height="9" rx="0.62069" fill="#5E609C"/>
<rect x="117" y="73" width="17" height="9" rx="0.62069" fill="#5E609C"/>
<rect x="50" y="46" width="40" height="23" rx="1.37931" fill="#5E609C"/>
<rect x="94" y="46" width="40" height="23" rx="1.37931" fill="#5E609C"/>
<rect x="6" y="6" width="62" height="36" rx="2.13793" fill="#5E609C"/>
<rect x="6" y="6" width="62" height="36" rx="2.13793" fill="#5E609C"/>
<rect x="72" y="6" width="62" height="36" rx="2.13793" fill="#5E609C"/>
<path d="M39.9646 16.392C39.9646 19.128 39.9646 21.896 39.9646 24.696C39.9646 27.496 39.9646 30.264 39.9646 33C39.2766 33 38.5806 33 37.8766 33C37.1726 33 36.4686 33 35.7646 33C35.7646 31.048 35.7646 29.08 35.7646 27.096C35.7646 25.096 35.7646 23.128 35.7646 21.192C35.3006 21.288 34.8286 21.392 34.3486 21.504C33.8846 21.6 33.4206 21.696 32.9566 21.792C32.9566 21.152 32.9566 20.504 32.9566 19.848C32.9566 19.192 32.9566 18.544 32.9566 17.904C34.1086 17.648 35.2766 17.4 36.4606 17.16C37.6446 16.904 38.8126 16.648 39.9646 16.392Z" fill="#393C78"/>
<path d="M97.6944 33C97.6944 32.376 97.6944 31.744 97.6944 31.104C97.6944 30.448 97.6944 29.808 97.6944 29.184C98.3344 28.576 98.9744 27.96 99.6144 27.336C100.254 26.696 100.894 26.072 101.534 25.464C102.27 24.744 102.83 24.168 103.214 23.736C103.598 23.288 103.862 22.912 104.006 22.608C104.166 22.304 104.246 22.024 104.246 21.768C104.246 21.24 103.942 20.864 103.334 20.64C102.726 20.4 101.942 20.328 100.982 20.424C100.022 20.52 98.9984 20.784 97.9104 21.216C97.9104 20.56 97.9104 19.896 97.9104 19.224C97.9104 18.536 97.9104 17.864 97.9104 17.208C99.5104 16.68 100.958 16.416 102.254 16.416C103.566 16.416 104.686 16.632 105.614 17.064C106.558 17.48 107.278 18.064 107.774 18.816C108.286 19.568 108.542 20.44 108.542 21.432C108.542 22.424 108.278 23.36 107.75 24.24C107.222 25.104 106.414 26.064 105.326 27.12C104.974 27.456 104.622 27.8 104.27 28.152C103.918 28.504 103.566 28.848 103.214 29.184C104.078 29.184 104.942 29.184 105.806 29.184C106.686 29.184 107.558 29.184 108.422 29.184C108.422 29.808 108.422 30.448 108.422 31.104C108.422 31.744 108.422 32.376 108.422 33C106.646 33 104.854 33 103.046 33C101.254 33 99.4704 33 97.6944 33Z" fill="#393C78"/>
<path d="M16.1981 76.064C15.9208 75.936 15.6461 75.856 15.3741 75.824C15.1021 75.7867 14.8541 75.7973 14.6301 75.856C14.4061 75.9093 14.2221 76.0107 14.0781 76.16C13.9394 76.304 13.8594 76.4933 13.8381 76.728C14.0301 76.5787 14.2461 76.4773 14.4861 76.424C14.7314 76.3707 14.9768 76.3653 15.2221 76.408C15.4674 76.4507 15.6941 76.544 15.9021 76.688C16.1154 76.8267 16.2861 77.0187 16.4141 77.264C16.5421 77.504 16.6061 77.7973 16.6061 78.144C16.6061 78.4213 16.5581 78.68 16.4621 78.92C16.3661 79.1547 16.2274 79.3627 16.0461 79.544C15.8701 79.72 15.6568 79.8587 15.4061 79.96C15.1554 80.056 14.8754 80.104 14.5661 80.104C14.2568 80.104 13.9714 80.048 13.7101 79.936C13.4541 79.824 13.2301 79.6587 13.0381 79.44C12.8514 79.216 12.7048 78.9387 12.5981 78.608C12.4968 78.2773 12.4461 77.8933 12.4461 77.456C12.4461 76.9867 12.5048 76.5733 12.6221 76.216C12.7394 75.8533 12.9074 75.5493 13.1261 75.304C13.3448 75.0533 13.6088 74.864 13.9181 74.736C14.2274 74.6027 14.5741 74.5307 14.9581 74.52C15.3421 74.5093 15.7554 74.5627 16.1981 74.68C16.1981 74.9093 16.1981 75.1413 16.1981 75.376C16.1981 75.6053 16.1981 75.8347 16.1981 76.064ZM14.5581 78.848C14.7554 78.848 14.9154 78.784 15.0381 78.656C15.1608 78.528 15.2221 78.3653 15.2221 78.168C15.2221 77.9653 15.1608 77.8027 15.0381 77.68C14.9154 77.552 14.7554 77.488 14.5581 77.488C14.3661 77.488 14.2088 77.5493 14.0861 77.672C13.9688 77.7893 13.9101 77.9467 13.9101 78.144C13.9101 78.352 13.9688 78.5227 14.0861 78.656C14.2088 78.784 14.3661 78.848 14.5581 78.848Z" fill="#393C78"/>
<path d="M51.5097 80.12C51.1204 80.12 50.7711 80.0507 50.4617 79.912C50.1524 79.768 49.9071 79.568 49.7257 79.312C49.5497 79.056 49.4617 78.7573 49.4617 78.416C49.4617 78.1333 49.5204 77.888 49.6377 77.68C49.7604 77.472 49.9257 77.304 50.1337 77.176C49.9577 77.0533 49.8191 76.9013 49.7177 76.72C49.6217 76.5387 49.5737 76.3253 49.5737 76.08C49.5737 75.76 49.6564 75.4773 49.8217 75.232C49.9924 74.9867 50.2244 74.7947 50.5177 74.656C50.8111 74.512 51.1417 74.44 51.5097 74.44C51.8777 74.44 52.2057 74.512 52.4937 74.656C52.7871 74.7947 53.0164 74.9867 53.1817 75.232C53.3471 75.4773 53.4297 75.76 53.4297 76.08C53.4297 76.3253 53.3791 76.5387 53.2777 76.72C53.1817 76.9013 53.0484 77.0533 52.8777 77.176C53.0804 77.304 53.2404 77.472 53.3577 77.68C53.4804 77.888 53.5417 78.1333 53.5417 78.416C53.5417 78.7573 53.4511 79.056 53.2697 79.312C53.0937 79.568 52.8537 79.768 52.5497 79.912C52.2457 80.0507 51.8991 80.12 51.5097 80.12ZM51.5097 76.664C51.6804 76.664 51.8164 76.616 51.9177 76.52C52.0191 76.424 52.0697 76.3013 52.0697 76.152C52.0697 76.008 52.0191 75.8907 51.9177 75.8C51.8164 75.7093 51.6804 75.664 51.5097 75.664C51.3391 75.664 51.2004 75.7093 51.0937 75.8C50.9871 75.8907 50.9337 76.008 50.9337 76.152C50.9337 76.3013 50.9871 76.424 51.0937 76.52C51.2057 76.616 51.3444 76.664 51.5097 76.664ZM51.5097 78.896C51.6964 78.896 51.8511 78.84 51.9737 78.728C52.0964 78.616 52.1577 78.4747 52.1577 78.304C52.1577 78.1227 52.0964 77.9787 51.9737 77.872C51.8511 77.76 51.6964 77.704 51.5097 77.704C51.3231 77.704 51.1657 77.76 51.0377 77.872C50.9097 77.9787 50.8457 78.1227 50.8457 78.304C50.8457 78.4747 50.9097 78.616 51.0377 78.728C51.1657 78.84 51.3231 78.896 51.5097 78.896Z" fill="#393C78"/>
<path d="M86.9023 74.464C86.9023 75.376 86.9023 76.2987 86.9023 77.232C86.9023 78.1653 86.9023 79.088 86.9023 80C86.6729 80 86.4409 80 86.2063 80C85.9716 80 85.7369 80 85.5023 80C85.5023 79.3493 85.5023 78.6933 85.5023 78.032C85.5023 77.3653 85.5023 76.7093 85.5023 76.064C85.3476 76.096 85.1903 76.1307 85.0303 76.168C84.8756 76.2 84.7209 76.232 84.5663 76.264C84.5663 76.0507 84.5663 75.8347 84.5663 75.616C84.5663 75.3973 84.5663 75.1813 84.5663 74.968C84.9503 74.8827 85.3396 74.8 85.7343 74.72C86.1289 74.6347 86.5183 74.5493 86.9023 74.464ZM90.0059 80.112C89.6539 80.112 89.3312 80.0427 89.0379 79.904C88.7445 79.76 88.4912 79.56 88.2779 79.304C88.0699 79.048 87.9072 78.7467 87.7899 78.4C87.6779 78.0533 87.6219 77.6773 87.6219 77.272C87.6219 76.8667 87.6779 76.4933 87.7899 76.152C87.9072 75.8053 88.0699 75.5067 88.2779 75.256C88.4912 75 88.7445 74.8027 89.0379 74.664C89.3312 74.52 89.6539 74.448 90.0059 74.448C90.3579 74.448 90.6779 74.52 90.9659 74.664C91.2592 74.8027 91.5125 75 91.7259 75.256C91.9392 75.5067 92.1019 75.8053 92.2139 76.152C92.3312 76.4933 92.3899 76.8667 92.3899 77.272C92.3899 77.6773 92.3312 78.0533 92.2139 78.4C92.1019 78.7467 91.9392 79.048 91.7259 79.304C91.5125 79.56 91.2592 79.76 90.9659 79.904C90.6779 80.0427 90.3579 80.112 90.0059 80.112ZM90.0059 78.792C90.2192 78.792 90.3979 78.7307 90.5419 78.608C90.6912 78.48 90.8059 78.3013 90.8859 78.072C90.9659 77.8427 91.0059 77.576 91.0059 77.272C91.0059 76.968 90.9659 76.704 90.8859 76.48C90.8059 76.2507 90.6912 76.0747 90.5419 75.952C90.3979 75.8293 90.2192 75.768 90.0059 75.768C89.7979 75.768 89.6192 75.8293 89.4699 75.952C89.3205 76.0747 89.2059 76.248 89.1259 76.472C89.0459 76.696 89.0059 76.9627 89.0059 77.272C89.0059 77.576 89.0459 77.8427 89.1259 78.072C89.2059 78.3013 89.3205 78.48 89.4699 78.608C89.6192 78.7307 89.7979 78.792 90.0059 78.792Z" fill="#393C78"/>
<path d="M34.8179 74.56C34.8179 74.768 34.8179 74.9813 34.8179 75.2C34.8179 75.4133 34.8179 75.624 34.8179 75.832C34.5139 76.52 34.2072 77.216 33.8979 77.92C33.5939 78.6187 33.2899 79.312 32.9859 80C32.7512 80 32.5112 80 32.2659 80C32.0205 80 31.7805 80 31.5459 80C31.8499 79.312 32.1539 78.6187 32.4579 77.92C32.7672 77.216 33.0739 76.52 33.3779 75.832C33.0205 75.832 32.6552 75.832 32.2819 75.832C31.9139 75.832 31.5485 75.832 31.1859 75.832C31.1859 75.624 31.1859 75.4133 31.1859 75.2C31.1859 74.9813 31.1859 74.768 31.1859 74.56C31.7885 74.56 32.3939 74.56 33.0019 74.56C33.6152 74.56 34.2205 74.56 34.8179 74.56Z" fill="#393C78"/>
<path d="M68.2981 78.488C68.5754 78.616 68.8501 78.6987 69.1221 78.736C69.3941 78.768 69.6421 78.7573 69.8661 78.704C70.0901 78.6453 70.2714 78.544 70.4101 78.4C70.5541 78.2507 70.6368 78.0587 70.6581 77.824C70.4661 77.9733 70.2474 78.0747 70.0021 78.128C69.7621 78.1813 69.5194 78.1867 69.2741 78.144C69.0288 78.1013 68.7994 78.0107 68.5861 77.872C68.3781 77.728 68.2101 77.536 68.0821 77.296C67.9541 77.0507 67.8901 76.7547 67.8901 76.408C67.8901 76.1307 67.9381 75.8747 68.0341 75.64C68.1301 75.4 68.2661 75.192 68.4421 75.016C68.6234 74.8347 68.8394 74.696 69.0901 74.6C69.3408 74.4987 69.6208 74.448 69.9301 74.448C70.2394 74.448 70.5221 74.504 70.7781 74.616C71.0394 74.728 71.2634 74.896 71.4501 75.12C71.6421 75.3387 71.7888 75.6133 71.8901 75.944C71.9968 76.2747 72.0501 76.6587 72.0501 77.096C72.0501 77.5653 71.9914 77.9813 71.8741 78.344C71.7568 78.7013 71.5888 79.0053 71.3701 79.256C71.1514 79.5013 70.8874 79.6907 70.5781 79.824C70.2688 79.952 69.9221 80.0213 69.5381 80.032C69.1541 80.0427 68.7408 79.9893 68.2981 79.872C68.2981 79.6427 68.2981 79.4133 68.2981 79.184C68.2981 78.9493 68.2981 78.7173 68.2981 78.488ZM69.9381 75.704C69.7408 75.704 69.5808 75.768 69.4581 75.896C69.3354 76.0187 69.2741 76.1813 69.2741 76.384C69.2741 76.5867 69.3354 76.752 69.4581 76.88C69.5808 77.0027 69.7408 77.064 69.9381 77.064C70.1301 77.064 70.2848 77.0053 70.4021 76.888C70.5248 76.7653 70.5861 76.6053 70.5861 76.408C70.5861 76.2 70.5248 76.032 70.4021 75.904C70.2848 75.7707 70.1301 75.704 69.9381 75.704Z" fill="#393C78"/>
<path d="M106.48 74.464C106.48 75.376 106.48 76.2987 106.48 77.232C106.48 78.1653 106.48 79.088 106.48 80C106.251 80 106.019 80 105.784 80C105.55 80 105.315 80 105.08 80C105.08 79.3493 105.08 78.6933 105.08 78.032C105.08 77.3653 105.08 76.7093 105.08 76.064C104.926 76.096 104.768 76.1307 104.608 76.168C104.454 76.2 104.299 76.232 104.144 76.264C104.144 76.0507 104.144 75.8347 104.144 75.616C104.144 75.3973 104.144 75.1813 104.144 74.968C104.528 74.8827 104.918 74.8 105.312 74.72C105.707 74.6347 106.096 74.5493 106.48 74.464ZM109.496 74.464C109.496 75.376 109.496 76.2987 109.496 77.232C109.496 78.1653 109.496 79.088 109.496 80C109.267 80 109.035 80 108.8 80C108.565 80 108.331 80 108.096 80C108.096 79.3493 108.096 78.6933 108.096 78.032C108.096 77.3653 108.096 76.7093 108.096 76.064C107.941 76.096 107.784 76.1307 107.624 76.168C107.469 76.2 107.315 76.232 107.16 76.264C107.16 76.0507 107.16 75.8347 107.16 75.616C107.16 75.3973 107.16 75.1813 107.16 74.968C107.544 74.8827 107.933 74.8 108.328 74.72C108.723 74.6347 109.112 74.5493 109.496 74.464Z" fill="#393C78"/>
<path d="M124.344 74.464C124.344 75.376 124.344 76.2987 124.344 77.232C124.344 78.1653 124.344 79.088 124.344 80C124.114 80 123.882 80 123.648 80C123.413 80 123.178 80 122.944 80C122.944 79.3493 122.944 78.6933 122.944 78.032C122.944 77.3653 122.944 76.7093 122.944 76.064C122.789 76.096 122.632 76.1307 122.472 76.168C122.317 76.2 122.162 76.232 122.008 76.264C122.008 76.0507 122.008 75.8347 122.008 75.616C122.008 75.3973 122.008 75.1813 122.008 74.968C122.392 74.8827 122.781 74.8 123.176 74.72C123.57 74.6347 123.96 74.5493 124.344 74.464ZM125.239 80C125.239 79.792 125.239 79.5813 125.239 79.368C125.239 79.1493 125.239 78.936 125.239 78.728C125.453 78.5253 125.666 78.32 125.879 78.112C126.093 77.8987 126.306 77.6907 126.519 77.488C126.765 77.248 126.951 77.056 127.079 76.912C127.207 76.7627 127.295 76.6373 127.343 76.536C127.397 76.4347 127.423 76.3413 127.423 76.256C127.423 76.08 127.322 75.9547 127.119 75.88C126.917 75.8 126.655 75.776 126.335 75.808C126.015 75.84 125.674 75.928 125.311 76.072C125.311 75.8533 125.311 75.632 125.311 75.408C125.311 75.1787 125.311 74.9547 125.311 74.736C125.845 74.56 126.327 74.472 126.759 74.472C127.197 74.472 127.57 74.544 127.879 74.688C128.194 74.8267 128.434 75.0213 128.599 75.272C128.77 75.5227 128.855 75.8133 128.855 76.144C128.855 76.4747 128.767 76.7867 128.591 77.08C128.415 77.368 128.146 77.688 127.783 78.04C127.666 78.152 127.549 78.2667 127.431 78.384C127.314 78.5013 127.197 78.616 127.079 78.728C127.367 78.728 127.655 78.728 127.943 78.728C128.237 78.728 128.527 78.728 128.815 78.728C128.815 78.936 128.815 79.1493 128.815 79.368C128.815 79.5813 128.815 79.792 128.815 80C128.223 80 127.626 80 127.023 80C126.426 80 125.831 80 125.239 80Z" fill="#393C78"/>
<path d="M23.9452 57.356C24.2812 57.092 24.6172 56.824 24.9532 56.552C25.2972 56.28 25.6372 56.012 25.9732 55.748C25.5652 55.748 25.1492 55.748 24.7252 55.748C24.3092 55.748 23.8972 55.748 23.4892 55.748C23.4892 55.436 23.4892 55.12 23.4892 54.8C23.4892 54.472 23.4892 54.152 23.4892 53.84C24.3292 53.84 25.1732 53.84 26.0212 53.84C26.8772 53.84 27.7252 53.84 28.5652 53.84C28.5652 54.152 28.5652 54.472 28.5652 54.8C28.5652 55.12 28.5652 55.436 28.5652 55.748C28.2772 55.98 27.9892 56.216 27.7012 56.456C27.4132 56.696 27.1252 56.932 26.8372 57.164C27.4932 57.292 27.9972 57.564 28.3492 57.98C28.7092 58.388 28.8892 58.904 28.8892 59.528C28.8892 60.12 28.7452 60.608 28.4572 60.992C28.1692 61.376 27.7732 61.66 27.2692 61.844C26.7652 62.028 26.1852 62.112 25.5292 62.096C24.8812 62.08 24.1932 61.964 23.4652 61.748C23.4652 61.42 23.4652 61.088 23.4652 60.752C23.4652 60.408 23.4652 60.072 23.4652 59.744C24.0492 59.952 24.5972 60.084 25.1092 60.14C25.6212 60.196 26.0332 60.176 26.3452 60.08C26.6652 59.976 26.8252 59.796 26.8252 59.54C26.8252 59.292 26.7012 59.104 26.4532 58.976C26.2052 58.848 25.8612 58.768 25.4212 58.736C24.9892 58.696 24.4972 58.7 23.9452 58.748C23.9452 58.516 23.9452 58.284 23.9452 58.052C23.9452 57.812 23.9452 57.58 23.9452 57.356Z" fill="#393C78"/>
<path d="M66.802 60.452C66.802 60.14 66.802 59.824 66.802 59.504C66.802 59.176 66.802 58.856 66.802 58.544C67.202 57.768 67.606 56.984 68.014 56.192C68.422 55.4 68.822 54.616 69.214 53.84C69.726 53.84 70.238 53.84 70.75 53.84C71.27 53.84 71.786 53.84 72.298 53.84C72.298 54.616 72.298 55.4 72.298 56.192C72.298 56.984 72.298 57.768 72.298 58.544C72.482 58.544 72.67 58.544 72.862 58.544C73.062 58.544 73.254 58.544 73.438 58.544C73.438 58.856 73.438 59.176 73.438 59.504C73.438 59.824 73.438 60.14 73.438 60.452C73.254 60.452 73.062 60.452 72.862 60.452C72.67 60.452 72.482 60.452 72.298 60.452C72.298 60.708 72.298 60.968 72.298 61.232C72.298 61.488 72.298 61.744 72.298 62C71.962 62 71.618 62 71.266 62C70.922 62 70.582 62 70.246 62C70.246 61.744 70.246 61.488 70.246 61.232C70.246 60.968 70.246 60.708 70.246 60.452C69.678 60.452 69.102 60.452 68.518 60.452C67.942 60.452 67.37 60.452 66.802 60.452ZM68.962 58.544C69.17 58.544 69.382 58.544 69.598 58.544C69.822 58.544 70.038 58.544 70.246 58.544C70.246 58.096 70.246 57.64 70.246 57.176C70.246 56.712 70.246 56.256 70.246 55.808C70.038 56.256 69.822 56.712 69.598 57.176C69.382 57.64 69.17 58.096 68.962 58.544Z" fill="#393C78"/>
<path d="M111.525 58.58C111.597 57.796 111.669 57.004 111.741 56.204C111.813 55.404 111.885 54.616 111.957 53.84C112.693 53.84 113.441 53.84 114.201 53.84C114.961 53.84 115.709 53.84 116.445 53.84C116.445 54.152 116.445 54.472 116.445 54.8C116.445 55.12 116.445 55.436 116.445 55.748C116.005 55.748 115.557 55.748 115.101 55.748C114.645 55.748 114.193 55.748 113.745 55.748C113.729 55.9 113.709 56.06 113.685 56.228C113.661 56.388 113.641 56.548 113.625 56.708C114.305 56.7 114.885 56.796 115.365 56.996C115.853 57.196 116.225 57.492 116.481 57.884C116.745 58.276 116.877 58.764 116.877 59.348C116.877 59.972 116.729 60.488 116.433 60.896C116.137 61.296 115.733 61.596 115.221 61.796C114.717 61.988 114.137 62.08 113.481 62.072C112.833 62.064 112.149 61.956 111.429 61.748C111.429 61.42 111.429 61.088 111.429 60.752C111.429 60.408 111.429 60.072 111.429 59.744C112.093 59.952 112.677 60.088 113.181 60.152C113.693 60.208 114.093 60.176 114.381 60.056C114.669 59.936 114.813 59.72 114.813 59.408C114.813 59.096 114.665 58.864 114.369 58.712C114.081 58.56 113.689 58.476 113.193 58.46C112.697 58.436 112.141 58.476 111.525 58.58Z" fill="#393C78"/>
</g>
<defs>
<clipPath id="clip0_44_2880">
<rect width="140" height="88" fill="white"/>
</clipPath>
</defs>
</svg>
