<svg width="140" height="88" viewBox="0 0 140 88" fill="none" xmlns="http://www.w3.org/2000/svg">
<rect x="6" y="14" width="21.8736" height="11.9862" rx="0.758621" fill="#5E609C"/>
<path fill-rule="evenodd" clip-rule="evenodd" d="M16.9368 19.9931C17.5443 19.9931 18.0368 19.5006 18.0368 18.8931C18.0368 18.2856 17.5443 17.7931 16.9368 17.7931C16.3292 17.7931 15.8368 18.2856 15.8368 18.8931C15.8368 19.5006 16.3292 19.9931 16.9368 19.9931ZM17.5334 20.2681H17.6701C18.2774 20.2681 18.7701 20.7855 18.7701 21.4231V21.7806V22.1931H15.1035V21.7806V21.4231C15.1035 20.7855 15.5962 20.2681 16.2035 20.2681H16.3401C16.5227 20.3558 16.724 20.4056 16.9368 20.4056C17.1496 20.4056 17.3517 20.3558 17.5334 20.2681Z" fill="#393C78"/>
<rect x="32.5236" y="14" width="21.8736" height="11.9862" rx="0.758621" fill="#5E609C"/>
<path fill-rule="evenodd" clip-rule="evenodd" d="M43.4603 19.9931C44.0678 19.9931 44.5603 19.5006 44.5603 18.8931C44.5603 18.2856 44.0678 17.7931 43.4603 17.7931C42.8528 17.7931 42.3603 18.2856 42.3603 18.8931C42.3603 19.5006 42.8528 19.9931 43.4603 19.9931ZM44.057 20.2681H44.1937C44.801 20.2681 45.2937 20.7855 45.2937 21.4231V21.7806V22.1931H41.627V21.7806V21.4231C41.627 20.7855 42.1197 20.2681 42.727 20.2681H42.8637C43.0462 20.3558 43.2475 20.4056 43.4603 20.4056C43.6731 20.4056 43.8753 20.3558 44.057 20.2681Z" fill="#393C78"/>
<rect x="59.0471" y="14" width="21.8736" height="11.9862" rx="0.758621" fill="#5E609C"/>
<path fill-rule="evenodd" clip-rule="evenodd" d="M69.9839 19.9931C70.5914 19.9931 71.0839 19.5006 71.0839 18.8931C71.0839 18.2856 70.5914 17.7931 69.9839 17.7931C69.3764 17.7931 68.8839 18.2856 68.8839 18.8931C68.8839 19.5006 69.3764 19.9931 69.9839 19.9931ZM70.5806 20.2681H70.7172C71.3245 20.2681 71.8172 20.7855 71.8172 21.4231V21.7806V22.1931H68.1506V21.7806V21.4231C68.1506 20.7855 68.6433 20.2681 69.2506 20.2681H69.3872C69.5698 20.3558 69.7711 20.4056 69.9839 20.4056C70.1967 20.4056 70.3989 20.3558 70.5806 20.2681Z" fill="#393C78"/>
<rect x="85.5707" y="14" width="21.8736" height="11.9862" rx="0.758621" fill="#5E609C"/>
<path fill-rule="evenodd" clip-rule="evenodd" d="M96.5074 19.9931C97.1149 19.9931 97.6074 19.5006 97.6074 18.8931C97.6074 18.2856 97.1149 17.7931 96.5074 17.7931C95.8999 17.7931 95.4074 18.2856 95.4074 18.8931C95.4074 19.5006 95.8999 19.9931 96.5074 19.9931ZM97.1041 20.2681H97.2408C97.8481 20.2681 98.3408 20.7855 98.3408 21.4231V21.7806V22.1931H94.6741V21.7806V21.4231C94.6741 20.7855 95.1668 20.2681 95.7741 20.2681H95.9108C96.0933 20.3558 96.2947 20.4056 96.5075 20.4056C96.7203 20.4056 96.9224 20.3558 97.1041 20.2681Z" fill="#393C78"/>
<rect x="112.094" y="14" width="21.8736" height="11.9862" rx="0.758621" fill="#5E609C"/>
<path fill-rule="evenodd" clip-rule="evenodd" d="M123.031 19.9931C123.639 19.9931 124.131 19.5006 124.131 18.8931C124.131 18.2856 123.639 17.7931 123.031 17.7931C122.423 17.7931 121.931 18.2856 121.931 18.8931C121.931 19.5006 122.423 19.9931 123.031 19.9931ZM123.628 20.2681H123.764C124.372 20.2681 124.864 20.7855 124.864 21.4231V21.7806V22.1931H121.198V21.7806V21.4231C121.198 20.7855 121.69 20.2681 122.298 20.2681H122.434C122.617 20.3558 122.818 20.4056 123.031 20.4056C123.244 20.4056 123.446 20.3558 123.628 20.2681Z" fill="#393C78"/>
<rect x="6" y="29.9862" width="21.8736" height="11.9862" rx="0.758621" fill="#5E609C"/>
<path fill-rule="evenodd" clip-rule="evenodd" d="M16.9368 35.9793C17.5443 35.9793 18.0368 35.4868 18.0368 34.8793C18.0368 34.2718 17.5443 33.7793 16.9368 33.7793C16.3292 33.7793 15.8368 34.2718 15.8368 34.8793C15.8368 35.4868 16.3292 35.9793 16.9368 35.9793ZM17.5334 36.2543H17.6701C18.2774 36.2543 18.7701 36.7717 18.7701 37.4093V37.7668V38.1793H15.1035V37.7668V37.4093C15.1035 36.7717 15.5962 36.2543 16.2035 36.2543H16.3401C16.5227 36.342 16.724 36.3918 16.9368 36.3918C17.1496 36.3918 17.3517 36.342 17.5334 36.2543Z" fill="#393C78"/>
<rect x="32.5236" y="29.9862" width="21.8736" height="11.9862" rx="0.758621" fill="#5E609C"/>
<path fill-rule="evenodd" clip-rule="evenodd" d="M43.4603 35.9793C44.0678 35.9793 44.5603 35.4868 44.5603 34.8793C44.5603 34.2718 44.0678 33.7793 43.4603 33.7793C42.8528 33.7793 42.3603 34.2718 42.3603 34.8793C42.3603 35.4868 42.8528 35.9793 43.4603 35.9793ZM44.057 36.2543H44.1937C44.801 36.2543 45.2937 36.7717 45.2937 37.4093V37.7668V38.1793H41.627V37.7668V37.4093C41.627 36.7717 42.1197 36.2543 42.727 36.2543H42.8637C43.0462 36.342 43.2475 36.3918 43.4603 36.3918C43.6731 36.3918 43.8753 36.342 44.057 36.2543Z" fill="#393C78"/>
<rect x="59.0471" y="29.9862" width="21.8736" height="11.9862" rx="0.758621" fill="#5E609C"/>
<path fill-rule="evenodd" clip-rule="evenodd" d="M69.9839 35.9793C70.5914 35.9793 71.0839 35.4868 71.0839 34.8793C71.0839 34.2718 70.5914 33.7793 69.9839 33.7793C69.3764 33.7793 68.8839 34.2718 68.8839 34.8793C68.8839 35.4868 69.3764 35.9793 69.9839 35.9793ZM70.5806 36.2543H70.7172C71.3245 36.2543 71.8172 36.7717 71.8172 37.4093V37.7668V38.1793H68.1506V37.7668V37.4093C68.1506 36.7717 68.6433 36.2543 69.2506 36.2543H69.3872C69.5698 36.342 69.7711 36.3918 69.9839 36.3918C70.1967 36.3918 70.3989 36.342 70.5806 36.2543Z" fill="#393C78"/>
<rect x="85.5707" y="29.9862" width="21.8736" height="11.9862" rx="0.758621" fill="#5E609C"/>
<path fill-rule="evenodd" clip-rule="evenodd" d="M96.5074 35.9793C97.1149 35.9793 97.6074 35.4868 97.6074 34.8793C97.6074 34.2718 97.1149 33.7793 96.5074 33.7793C95.8999 33.7793 95.4074 34.2718 95.4074 34.8793C95.4074 35.4868 95.8999 35.9793 96.5074 35.9793ZM97.1041 36.2543H97.2408C97.8481 36.2543 98.3408 36.7717 98.3408 37.4093V37.7668V38.1793H94.6741V37.7668V37.4093C94.6741 36.7717 95.1668 36.2543 95.7741 36.2543H95.9108C96.0933 36.342 96.2947 36.3918 96.5075 36.3918C96.7203 36.3918 96.9224 36.342 97.1041 36.2543Z" fill="#393C78"/>
<rect x="112.094" y="29.9862" width="21.8736" height="11.9862" rx="0.758621" fill="#5E609C"/>
<path fill-rule="evenodd" clip-rule="evenodd" d="M123.031 35.9793C123.639 35.9793 124.131 35.4868 124.131 34.8793C124.131 34.2718 123.639 33.7793 123.031 33.7793C122.423 33.7793 121.931 34.2718 121.931 34.8793C121.931 35.4868 122.423 35.9793 123.031 35.9793ZM123.628 36.2543H123.764C124.372 36.2543 124.864 36.7717 124.864 37.4093V37.7668V38.1793H121.198V37.7668V37.4093C121.198 36.7717 121.69 36.2543 122.298 36.2543H122.434C122.617 36.342 122.818 36.3918 123.031 36.3918C123.244 36.3918 123.446 36.342 123.628 36.2543Z" fill="#393C78"/>
<rect x="6" y="45.9724" width="21.8736" height="11.9862" rx="0.758621" fill="#5E609C"/>
<path fill-rule="evenodd" clip-rule="evenodd" d="M16.9368 51.9655C17.5443 51.9655 18.0368 51.473 18.0368 50.8655C18.0368 50.258 17.5443 49.7655 16.9368 49.7655C16.3292 49.7655 15.8368 50.258 15.8368 50.8655C15.8368 51.473 16.3292 51.9655 16.9368 51.9655ZM17.5334 52.2405H17.6701C18.2774 52.2405 18.7701 52.7579 18.7701 53.3955V53.753V54.1655H15.1035V53.753V53.3955C15.1035 52.7579 15.5962 52.2405 16.2035 52.2405H16.3401C16.5227 52.3282 16.724 52.378 16.9368 52.378C17.1496 52.378 17.3517 52.3282 17.5334 52.2405Z" fill="#393C78"/>
<rect x="32.5236" y="45.9724" width="21.8736" height="11.9862" rx="0.758621" fill="#5E609C"/>
<path fill-rule="evenodd" clip-rule="evenodd" d="M43.4603 51.9655C44.0678 51.9655 44.5603 51.473 44.5603 50.8655C44.5603 50.258 44.0678 49.7655 43.4603 49.7655C42.8528 49.7655 42.3603 50.258 42.3603 50.8655C42.3603 51.473 42.8528 51.9655 43.4603 51.9655ZM44.057 52.2405H44.1937C44.801 52.2405 45.2937 52.7579 45.2937 53.3955V53.753V54.1655H41.627V53.753V53.3955C41.627 52.7579 42.1197 52.2405 42.727 52.2405H42.8637C43.0462 52.3282 43.2475 52.378 43.4603 52.378C43.6731 52.378 43.8753 52.3282 44.057 52.2405Z" fill="#393C78"/>
<rect x="59.0471" y="45.9724" width="21.8736" height="11.9862" rx="0.758621" fill="#5E609C"/>
<path fill-rule="evenodd" clip-rule="evenodd" d="M69.9839 51.9655C70.5914 51.9655 71.0839 51.473 71.0839 50.8655C71.0839 50.258 70.5914 49.7655 69.9839 49.7655C69.3764 49.7655 68.8839 50.258 68.8839 50.8655C68.8839 51.473 69.3764 51.9655 69.9839 51.9655ZM70.5806 52.2405H70.7172C71.3245 52.2405 71.8172 52.7579 71.8172 53.3955V53.753V54.1655H68.1506V53.753V53.3955C68.1506 52.7579 68.6433 52.2405 69.2506 52.2405H69.3872C69.5698 52.3282 69.7711 52.378 69.9839 52.378C70.1967 52.378 70.3989 52.3282 70.5806 52.2405Z" fill="#393C78"/>
<rect x="85.5707" y="45.9724" width="21.8736" height="11.9862" rx="0.758621" fill="#5E609C"/>
<path fill-rule="evenodd" clip-rule="evenodd" d="M96.5074 51.9655C97.1149 51.9655 97.6074 51.473 97.6074 50.8655C97.6074 50.258 97.1149 49.7655 96.5074 49.7655C95.8999 49.7655 95.4074 50.258 95.4074 50.8655C95.4074 51.473 95.8999 51.9655 96.5074 51.9655ZM97.1041 52.2405H97.2408C97.8481 52.2405 98.3408 52.7579 98.3408 53.3955V53.753V54.1655H94.6741V53.753V53.3955C94.6741 52.7579 95.1668 52.2405 95.7741 52.2405H95.9108C96.0933 52.3282 96.2947 52.378 96.5075 52.378C96.7203 52.378 96.9224 52.3282 97.1041 52.2405Z" fill="#393C78"/>
<rect x="112.094" y="45.9724" width="21.8736" height="11.9862" rx="0.758621" fill="#5E609C"/>
<path fill-rule="evenodd" clip-rule="evenodd" d="M123.031 51.9655C123.639 51.9655 124.131 51.473 124.131 50.8655C124.131 50.258 123.639 49.7655 123.031 49.7655C122.423 49.7655 121.931 50.258 121.931 50.8655C121.931 51.473 122.423 51.9655 123.031 51.9655ZM123.628 52.2405H123.764C124.372 52.2405 124.864 52.7579 124.864 53.3955V53.753V54.1655H121.198V53.753V53.3955C121.198 52.7579 121.69 52.2405 122.298 52.2405H122.434C122.617 52.3282 122.818 52.378 123.031 52.378C123.244 52.378 123.446 52.3282 123.628 52.2405Z" fill="#393C78"/>
<rect x="6" y="61.9586" width="21.8736" height="11.9862" rx="0.758621" fill="#5E609C"/>
<path fill-rule="evenodd" clip-rule="evenodd" d="M16.9368 67.9517C17.5443 67.9517 18.0368 67.4592 18.0368 66.8517C18.0368 66.2442 17.5443 65.7517 16.9368 65.7517C16.3292 65.7517 15.8368 66.2442 15.8368 66.8517C15.8368 67.4592 16.3292 67.9517 16.9368 67.9517ZM17.5334 68.2268H17.6701C18.2774 68.2268 18.7701 68.7441 18.7701 69.3818V69.7393V70.1518H15.1035V69.7393V69.3818C15.1035 68.7441 15.5962 68.2268 16.2035 68.2268H16.3401C16.5227 68.3144 16.724 68.3643 16.9368 68.3643C17.1496 68.3643 17.3517 68.3144 17.5334 68.2268Z" fill="#393C78"/>
<rect x="32.5236" y="61.9586" width="21.8736" height="11.9862" rx="0.758621" fill="#5E609C"/>
<path fill-rule="evenodd" clip-rule="evenodd" d="M43.4603 67.9517C44.0678 67.9517 44.5603 67.4592 44.5603 66.8517C44.5603 66.2442 44.0678 65.7517 43.4603 65.7517C42.8528 65.7517 42.3603 66.2442 42.3603 66.8517C42.3603 67.4592 42.8528 67.9517 43.4603 67.9517ZM44.057 68.2268H44.1937C44.801 68.2268 45.2937 68.7441 45.2937 69.3818V69.7393V70.1518H41.627V69.7393V69.3818C41.627 68.7441 42.1197 68.2268 42.727 68.2268H42.8637C43.0462 68.3144 43.2475 68.3643 43.4603 68.3643C43.6731 68.3643 43.8753 68.3144 44.057 68.2268Z" fill="#393C78"/>
<rect x="59.0471" y="61.9586" width="21.8736" height="11.9862" rx="0.758621" fill="#5E609C"/>
<path fill-rule="evenodd" clip-rule="evenodd" d="M69.9839 67.9517C70.5914 67.9517 71.0839 67.4592 71.0839 66.8517C71.0839 66.2442 70.5914 65.7517 69.9839 65.7517C69.3764 65.7517 68.8839 66.2442 68.8839 66.8517C68.8839 67.4592 69.3764 67.9517 69.9839 67.9517ZM70.5806 68.2268H70.7172C71.3245 68.2268 71.8172 68.7441 71.8172 69.3818V69.7393V70.1518H68.1506V69.7393V69.3818C68.1506 68.7441 68.6433 68.2268 69.2506 68.2268H69.3872C69.5698 68.3144 69.7711 68.3643 69.9839 68.3643C70.1967 68.3643 70.3989 68.3144 70.5806 68.2268Z" fill="#393C78"/>
<rect x="85.5707" y="61.9586" width="21.8736" height="11.9862" rx="0.758621" fill="#5E609C"/>
<path fill-rule="evenodd" clip-rule="evenodd" d="M96.5074 67.9517C97.1149 67.9517 97.6074 67.4592 97.6074 66.8517C97.6074 66.2442 97.1149 65.7517 96.5074 65.7517C95.8999 65.7517 95.4074 66.2442 95.4074 66.8517C95.4074 67.4592 95.8999 67.9517 96.5074 67.9517ZM97.1041 68.2268H97.2408C97.8481 68.2268 98.3408 68.7441 98.3408 69.3818V69.7393V70.1518H94.6741V69.7393V69.3818C94.6741 68.7441 95.1668 68.2268 95.7741 68.2268H95.9108C96.0933 68.3144 96.2947 68.3643 96.5075 68.3643C96.7203 68.3643 96.9224 68.3144 97.1041 68.2268Z" fill="#393C78"/>
<rect x="112.094" y="61.9586" width="21.8736" height="11.9862" rx="0.758621" fill="#5E609C"/>
<path fill-rule="evenodd" clip-rule="evenodd" d="M123.031 67.9517C123.639 67.9517 124.131 67.4592 124.131 66.8517C124.131 66.2442 123.639 65.7517 123.031 65.7517C122.423 65.7517 121.931 66.2442 121.931 66.8517C121.931 67.4592 122.423 67.9517 123.031 67.9517ZM123.628 68.2268H123.764C124.372 68.2268 124.864 68.7441 124.864 69.3818V69.7393V70.1518H121.198V69.7393V69.3818C121.198 68.7441 121.69 68.2268 122.298 68.2268H122.434C122.617 68.3144 122.818 68.3643 123.031 68.3643C123.244 68.3643 123.446 68.3144 123.628 68.2268Z" fill="#393C78"/>
</svg>
