<svg width="140" height="88" viewBox="0 0 140 88" fill="none" xmlns="http://www.w3.org/2000/svg">
<rect x="6" y="26" width="62" height="36" rx="2.13793" fill="#5E609C"/>
<path fill-rule="evenodd" clip-rule="evenodd" d="M36.9999 44C38.7711 44 40.2068 42.5642 40.2068 40.7931C40.2068 39.022 38.7711 37.5862 36.9999 37.5862C35.2288 37.5862 33.793 39.022 33.793 40.7931C33.793 42.5642 35.2288 44 36.9999 44ZM38.7394 44.8017H39.1379C40.9084 44.8017 42.3448 46.3099 42.3448 48.1689V49.2111V50.4137H31.6552V49.2111V48.1689C31.6552 46.3099 33.0916 44.8017 34.8621 44.8017H35.2605C35.7926 45.0572 36.3796 45.2025 37 45.2025C37.6204 45.2025 38.2097 45.0572 38.7394 44.8017Z" fill="#393C78"/>
<rect x="72" y="26" width="62" height="36" rx="2.13793" fill="#5E609C"/>
<path fill-rule="evenodd" clip-rule="evenodd" d="M103 44C104.771 44 106.207 42.5642 106.207 40.7931C106.207 39.022 104.771 37.5862 103 37.5862C101.229 37.5862 99.793 39.022 99.793 40.7931C99.793 42.5642 101.229 44 103 44ZM104.739 44.8017H105.138C106.908 44.8017 108.345 46.3099 108.345 48.1689V49.2111V50.4137H97.6552V49.2111V48.1689C97.6552 46.3099 99.0916 44.8017 100.862 44.8017H101.261C101.793 45.0572 102.38 45.2025 103 45.2025C103.62 45.2025 104.21 45.0572 104.739 44.8017Z" fill="#393C78"/>
</svg>
