<svg width="140" height="88" viewBox="0 0 140 88" fill="none" xmlns="http://www.w3.org/2000/svg">
<g clip-path="url(#clip0_1_2238)">
<rect x="50" y="33" width="40" height="23" rx="1.37931" fill="#5E609C"/>
<path fill-rule="evenodd" clip-rule="evenodd" d="M70 44.5C71.1427 44.5 72.069 43.5737 72.069 42.431C72.069 41.2884 71.1427 40.3621 70 40.3621C68.8573 40.3621 67.931 41.2884 67.931 42.431C67.931 43.5737 68.8573 44.5 70 44.5ZM71.1222 45.0172H71.3793C72.5216 45.0172 73.4483 45.9903 73.4483 47.1896V47.8621V48.6379H66.5517V47.8621V47.1896C66.5517 45.9903 67.4785 45.0172 68.6207 45.0172H68.8778C69.2211 45.1821 69.5998 45.2759 70 45.2759C70.4002 45.2759 70.7805 45.1821 71.1222 45.0172Z" fill="#393C78"/>
<rect x="50" y="6" width="40" height="23" rx="1.37931" fill="#5E609C"/>
<path fill-rule="evenodd" clip-rule="evenodd" d="M70 17.5C71.1427 17.5 72.069 16.5737 72.069 15.431C72.069 14.2884 71.1427 13.3621 70 13.3621C68.8573 13.3621 67.931 14.2884 67.931 15.431C67.931 16.5737 68.8573 17.5 70 17.5ZM71.1222 18.0172H71.3793C72.5216 18.0172 73.4483 18.9903 73.4483 20.1896V20.8621V21.6379H66.5517V20.8621V20.1896C66.5517 18.9903 67.4785 18.0172 68.6207 18.0172H68.8778C69.2211 18.1821 69.5998 18.2759 70 18.2759C70.4002 18.2759 70.7805 18.1821 71.1222 18.0172Z" fill="#393C78"/>
<rect x="6" y="6" width="40" height="23" rx="1.37931" fill="#5E609C"/>
<path fill-rule="evenodd" clip-rule="evenodd" d="M26 17.5C27.1427 17.5 28.069 16.5737 28.069 15.431C28.069 14.2884 27.1427 13.3621 26 13.3621C24.8573 13.3621 23.931 14.2884 23.931 15.431C23.931 16.5737 24.8573 17.5 26 17.5ZM27.1222 18.0172H27.3793C28.5216 18.0172 29.4483 18.9903 29.4483 20.1896V20.8621V21.6379H22.5517V20.8621V20.1896C22.5517 18.9903 23.4785 18.0172 24.6207 18.0172H24.8778C25.2211 18.1821 25.5998 18.2759 26 18.2759C26.4002 18.2759 26.7805 18.1821 27.1222 18.0172Z" fill="#393C78"/>
<rect x="6" y="33" width="40" height="23" rx="1.37931" fill="#5E609C"/>
<path fill-rule="evenodd" clip-rule="evenodd" d="M26 44.5C27.1427 44.5 28.069 43.5737 28.069 42.431C28.069 41.2884 27.1427 40.3621 26 40.3621C24.8573 40.3621 23.931 41.2884 23.931 42.431C23.931 43.5737 24.8573 44.5 26 44.5ZM27.1222 45.0172H27.3793C28.5216 45.0172 29.4483 45.9903 29.4483 47.1896V47.8621V48.6379H22.5517V47.8621V47.1896C22.5517 45.9903 23.4785 45.0172 24.6207 45.0172H24.8778C25.2211 45.1821 25.5998 45.2759 26 45.2759C26.4002 45.2759 26.7805 45.1821 27.1222 45.0172Z" fill="#393C78"/>
<rect x="6" y="59" width="40" height="23" rx="1.37931" fill="#5E609C"/>
<path fill-rule="evenodd" clip-rule="evenodd" d="M26 70.5C27.1427 70.5 28.069 69.5737 28.069 68.431C28.069 67.2884 27.1427 66.3621 26 66.3621C24.8573 66.3621 23.931 67.2884 23.931 68.431C23.931 69.5737 24.8573 70.5 26 70.5ZM27.1222 71.0172H27.3793C28.5216 71.0172 29.4483 71.9903 29.4483 73.1896V73.8621V74.6379H22.5517V73.8621V73.1896C22.5517 71.9903 23.4785 71.0172 24.6207 71.0172H24.8778C25.2211 71.1821 25.5998 71.2759 26 71.2759C26.4002 71.2759 26.7805 71.1821 27.1222 71.0172Z" fill="#393C78"/>
<rect x="50" y="59" width="40" height="23" rx="1.37931" fill="#5E609C"/>
<path fill-rule="evenodd" clip-rule="evenodd" d="M70 70.5C71.1427 70.5 72.069 69.5737 72.069 68.431C72.069 67.2884 71.1427 66.3621 70 66.3621C68.8573 66.3621 67.931 67.2884 67.931 68.431C67.931 69.5737 68.8573 70.5 70 70.5ZM71.1222 71.0172H71.3793C72.5216 71.0172 73.4483 71.9903 73.4483 73.1896V73.8621V74.6379H66.5517V73.8621V73.1896C66.5517 71.9903 67.4785 71.0172 68.6207 71.0172H68.8778C69.2211 71.1821 69.5998 71.2759 70 71.2759C70.4002 71.2759 70.7805 71.1821 71.1222 71.0172Z" fill="#393C78"/>
<rect x="94" y="59" width="40" height="23" rx="1.37931" fill="#5E609C"/>
<path fill-rule="evenodd" clip-rule="evenodd" d="M114 70.5C115.143 70.5 116.069 69.5737 116.069 68.431C116.069 67.2884 115.143 66.3621 114 66.3621C112.857 66.3621 111.931 67.2884 111.931 68.431C111.931 69.5737 112.857 70.5 114 70.5ZM115.122 71.0172H115.379C116.522 71.0172 117.448 71.9903 117.448 73.1896V73.8621V74.6379H110.552V73.8621V73.1896C110.552 71.9903 111.478 71.0172 112.621 71.0172H112.878C113.221 71.1821 113.6 71.2759 114 71.2759C114.4 71.2759 114.78 71.1821 115.122 71.0172Z" fill="#393C78"/>
<rect x="94" y="6" width="40" height="23" rx="1.37931" fill="#5E609C"/>
<path fill-rule="evenodd" clip-rule="evenodd" d="M114 17.5C115.143 17.5 116.069 16.5737 116.069 15.431C116.069 14.2884 115.143 13.3621 114 13.3621C112.857 13.3621 111.931 14.2884 111.931 15.431C111.931 16.5737 112.857 17.5 114 17.5ZM115.122 18.0172H115.379C116.522 18.0172 117.448 18.9903 117.448 20.1896V20.8621V21.6379H110.552V20.8621V20.1896C110.552 18.9903 111.478 18.0172 112.621 18.0172H112.878C113.221 18.1821 113.6 18.2759 114 18.2759C114.4 18.2759 114.78 18.1821 115.122 18.0172Z" fill="#393C78"/>
<rect x="94" y="33" width="40" height="23" rx="1.37931" fill="#5E609C"/>
<path fill-rule="evenodd" clip-rule="evenodd" d="M114 44.5C115.143 44.5 116.069 43.5737 116.069 42.431C116.069 41.2884 115.143 40.3621 114 40.3621C112.857 40.3621 111.931 41.2884 111.931 42.431C111.931 43.5737 112.857 44.5 114 44.5ZM115.122 45.0172H115.379C116.522 45.0172 117.448 45.9903 117.448 47.1896V47.8621V48.6379H110.552V47.8621V47.1896C110.552 45.9903 111.478 45.0172 112.621 45.0172H112.878C113.221 45.1821 113.6 45.2759 114 45.2759C114.4 45.2759 114.78 45.1821 115.122 45.0172Z" fill="#393C78"/>
</g>
<defs>
<clipPath id="clip0_1_2238">
<rect width="140" height="88" fill="white"/>
</clipPath>
</defs>
</svg>
