<svg width="140" height="88" viewBox="0 0 140 88" fill="none" xmlns="http://www.w3.org/2000/svg">
<rect x="32" y="6" width="102" height="60" rx="3.51724" fill="#5E609C"/>
<path fill-rule="evenodd" clip-rule="evenodd" d="M82.9999 36C85.9137 36 88.2758 33.6379 88.2758 30.7241C88.2758 27.8104 85.9137 25.4483 82.9999 25.4483C80.0861 25.4483 77.724 27.8104 77.724 30.7241C77.724 33.6379 80.0861 36 82.9999 36ZM85.8617 37.3189H86.5172C89.43 37.3189 91.7931 39.8002 91.7931 42.8586V44.5732V46.5517H74.2069V44.5732V42.8586C74.2069 39.8002 76.57 37.3189 79.4828 37.3189H80.1383C81.0137 37.7393 81.9794 37.9784 83 37.9784C84.0206 37.9784 84.9902 37.7393 85.8617 37.3189Z" fill="#393C78"/>
<rect x="6" y="70" width="21.8736" height="11.9862" rx="0.758621" fill="#5E609C"/>
<path fill-rule="evenodd" clip-rule="evenodd" d="M16.9368 75.9931C17.5443 75.9931 18.0368 75.5006 18.0368 74.8931C18.0368 74.2856 17.5443 73.7931 16.9368 73.7931C16.3292 73.7931 15.8368 74.2856 15.8368 74.8931C15.8368 75.5006 16.3292 75.9931 16.9368 75.9931ZM17.5334 76.2681H17.6701C18.2774 76.2681 18.7701 76.7855 18.7701 77.4231V77.7806V78.1931H15.1034V77.7806V77.4231C15.1034 76.7855 15.5962 76.2681 16.2034 76.2681H16.3401C16.5226 76.3558 16.724 76.4056 16.9368 76.4056C17.1496 76.4056 17.3517 76.3558 17.5334 76.2681Z" fill="#393C78"/>
<rect x="32.5236" y="70" width="21.8736" height="11.9862" rx="0.758621" fill="#5E609C"/>
<path fill-rule="evenodd" clip-rule="evenodd" d="M43.4603 75.9931C44.0678 75.9931 44.5603 75.5006 44.5603 74.8931C44.5603 74.2856 44.0678 73.7931 43.4603 73.7931C42.8528 73.7931 42.3603 74.2856 42.3603 74.8931C42.3603 75.5006 42.8528 75.9931 43.4603 75.9931ZM44.057 76.2681H44.1937C44.801 76.2681 45.2937 76.7855 45.2937 77.4231V77.7806V78.1931H41.627V77.7806V77.4231C41.627 76.7855 42.1197 76.2681 42.727 76.2681H42.8637C43.0462 76.3558 43.2475 76.4056 43.4603 76.4056C43.6731 76.4056 43.8753 76.3558 44.057 76.2681Z" fill="#393C78"/>
<rect x="59.0471" y="70" width="21.8736" height="11.9862" rx="0.758621" fill="#5E609C"/>
<path fill-rule="evenodd" clip-rule="evenodd" d="M69.9839 75.9931C70.5914 75.9931 71.0839 75.5006 71.0839 74.8931C71.0839 74.2856 70.5914 73.7931 69.9839 73.7931C69.3764 73.7931 68.8839 74.2856 68.8839 74.8931C68.8839 75.5006 69.3764 75.9931 69.9839 75.9931ZM70.5806 76.2681H70.7172C71.3245 76.2681 71.8172 76.7855 71.8172 77.4231V77.7806V78.1931H68.1506V77.7806V77.4231C68.1506 76.7855 68.6433 76.2681 69.2506 76.2681H69.3873C69.5698 76.3558 69.7711 76.4056 69.9839 76.4056C70.1967 76.4056 70.3989 76.3558 70.5806 76.2681Z" fill="#393C78"/>
<rect x="85.5707" y="70" width="21.8736" height="11.9862" rx="0.758621" fill="#5E609C"/>
<path fill-rule="evenodd" clip-rule="evenodd" d="M96.5074 75.9931C97.1149 75.9931 97.6074 75.5006 97.6074 74.8931C97.6074 74.2856 97.1149 73.7931 96.5074 73.7931C95.8999 73.7931 95.4074 74.2856 95.4074 74.8931C95.4074 75.5006 95.8999 75.9931 96.5074 75.9931ZM97.1041 76.2681H97.2408C97.8481 76.2681 98.3408 76.7855 98.3408 77.4231V77.7806V78.1931H94.6741V77.7806V77.4231C94.6741 76.7855 95.1668 76.2681 95.7741 76.2681H95.9108C96.0933 76.3558 96.2947 76.4056 96.5075 76.4056C96.7203 76.4056 96.9224 76.3558 97.1041 76.2681Z" fill="#393C78"/>
<rect x="112.094" y="70" width="21.8736" height="11.9862" rx="0.758621" fill="#5E609C"/>
<path fill-rule="evenodd" clip-rule="evenodd" d="M123.031 75.9931C123.639 75.9931 124.131 75.5006 124.131 74.8931C124.131 74.2856 123.639 73.7931 123.031 73.7931C122.423 73.7931 121.931 74.2856 121.931 74.8931C121.931 75.5006 122.423 75.9931 123.031 75.9931ZM123.628 76.2681H123.764C124.372 76.2681 124.864 76.7855 124.864 77.4231V77.7806V78.1931H121.198V77.7806V77.4231C121.198 76.7855 121.69 76.2681 122.298 76.2681H122.434C122.617 76.3558 122.818 76.4056 123.031 76.4056C123.244 76.4056 123.446 76.3558 123.628 76.2681Z" fill="#393C78"/>
<rect x="6" y="54" width="21.8736" height="11.9862" rx="0.758621" fill="#5E609C"/>
<path fill-rule="evenodd" clip-rule="evenodd" d="M16.9368 59.9931C17.5443 59.9931 18.0368 59.5006 18.0368 58.8931C18.0368 58.2856 17.5443 57.7931 16.9368 57.7931C16.3292 57.7931 15.8368 58.2856 15.8368 58.8931C15.8368 59.5006 16.3292 59.9931 16.9368 59.9931ZM17.5334 60.2681H17.6701C18.2774 60.2681 18.7701 60.7855 18.7701 61.4231V61.7806V62.1931H15.1034V61.7806V61.4231C15.1034 60.7855 15.5962 60.2681 16.2034 60.2681H16.3401C16.5226 60.3558 16.724 60.4056 16.9368 60.4056C17.1496 60.4056 17.3517 60.3558 17.5334 60.2681Z" fill="#393C78"/>
<rect x="6" y="38" width="21.8736" height="11.9862" rx="0.758621" fill="#5E609C"/>
<path fill-rule="evenodd" clip-rule="evenodd" d="M16.9368 43.9931C17.5443 43.9931 18.0368 43.5006 18.0368 42.8931C18.0368 42.2856 17.5443 41.7931 16.9368 41.7931C16.3292 41.7931 15.8368 42.2856 15.8368 42.8931C15.8368 43.5006 16.3292 43.9931 16.9368 43.9931ZM17.5334 44.2681H17.6701C18.2774 44.2681 18.7701 44.7855 18.7701 45.4231V45.7806V46.1931H15.1034V45.7806V45.4231C15.1034 44.7855 15.5962 44.2681 16.2034 44.2681H16.3401C16.5226 44.3558 16.724 44.4056 16.9368 44.4056C17.1496 44.4056 17.3517 44.3558 17.5334 44.2681Z" fill="#393C78"/>
<rect x="6" y="22" width="21.8736" height="11.9862" rx="0.758621" fill="#5E609C"/>
<path fill-rule="evenodd" clip-rule="evenodd" d="M16.9368 27.9931C17.5443 27.9931 18.0368 27.5006 18.0368 26.8931C18.0368 26.2856 17.5443 25.7931 16.9368 25.7931C16.3292 25.7931 15.8368 26.2856 15.8368 26.8931C15.8368 27.5006 16.3292 27.9931 16.9368 27.9931ZM17.5334 28.2681H17.6701C18.2774 28.2681 18.7701 28.7855 18.7701 29.4231V29.7806V30.1931H15.1034V29.7806V29.4231C15.1034 28.7855 15.5962 28.2681 16.2034 28.2681H16.3401C16.5226 28.3558 16.724 28.4056 16.9368 28.4056C17.1496 28.4056 17.3517 28.3558 17.5334 28.2681Z" fill="#393C78"/>
<rect x="6" y="6" width="21.8736" height="11.9862" rx="0.758621" fill="#5E609C"/>
<path fill-rule="evenodd" clip-rule="evenodd" d="M16.9368 11.9931C17.5443 11.9931 18.0368 11.5006 18.0368 10.8931C18.0368 10.2856 17.5443 9.79309 16.9368 9.79309C16.3292 9.79309 15.8368 10.2856 15.8368 10.8931C15.8368 11.5006 16.3292 11.9931 16.9368 11.9931ZM17.5334 12.2681H17.6701C18.2774 12.2681 18.7701 12.7855 18.7701 13.4231V13.7806V14.1931H15.1034V13.7806V13.4231C15.1034 12.7855 15.5962 12.2681 16.2034 12.2681H16.3401C16.5226 12.3558 16.724 12.4056 16.9368 12.4056C17.1496 12.4056 17.3517 12.3558 17.5334 12.2681Z" fill="#393C78"/>
</svg>
