<svg width="140" height="88" viewBox="0 0 140 88" fill="none" xmlns="http://www.w3.org/2000/svg">
<g clip-path="url(#clip0_16_1894)">
<rect x="28" y="12" width="84" height="51" rx="3.40378" fill="#5E609C"/>
<rect x="4" y="67" width="18" height="9.3" rx="0.62069" fill="#5E609C"/>
<rect x="23" y="67" width="18" height="9.3" rx="0.62069" fill="#5E609C"/>
<rect x="42" y="67" width="18" height="9.3" rx="0.62069" fill="#5E609C"/>
<rect x="61" y="67" width="18" height="9.3" rx="0.62069" fill="#5E609C"/>
<rect x="80" y="67" width="18" height="9.3" rx="0.62069" fill="#5E609C"/>
<rect x="99" y="67" width="18" height="9.3" rx="0.62069" fill="#5E609C"/>
<rect x="118" y="67" width="18" height="9.3" rx="0.62069" fill="#5E609C"/>
<path d="M11.0104 75C11.0104 74.766 11.0104 74.529 11.0104 74.289C11.0104 74.043 11.0104 73.803 11.0104 73.569C11.2504 73.341 11.4904 73.11 11.7304 72.876C11.9704 72.636 12.2104 72.402 12.4504 72.174C12.7264 71.904 12.9364 71.688 13.0804 71.526C13.2244 71.358 13.3234 71.217 13.3774 71.103C13.4374 70.989 13.4674 70.884 13.4674 70.788C13.4674 70.59 13.3534 70.449 13.1254 70.365C12.8974 70.275 12.6034 70.248 12.2434 70.284C11.8834 70.32 11.4994 70.419 11.0914 70.581C11.0914 70.335 11.0914 70.086 11.0914 69.834C11.0914 69.576 11.0914 69.324 11.0914 69.078C11.6914 68.88 12.2344 68.781 12.7204 68.781C13.2124 68.781 13.6324 68.862 13.9804 69.024C14.3344 69.18 14.6044 69.399 14.7904 69.681C14.9824 69.963 15.0784 70.29 15.0784 70.662C15.0784 71.034 14.9794 71.385 14.7814 71.715C14.5834 72.039 14.2804 72.399 13.8724 72.795C13.7404 72.921 13.6084 73.05 13.4764 73.182C13.3444 73.314 13.2124 73.443 13.0804 73.569C13.4044 73.569 13.7284 73.569 14.0524 73.569C14.3824 73.569 14.7094 73.569 15.0334 73.569C15.0334 73.803 15.0334 74.043 15.0334 74.289C15.0334 74.529 15.0334 74.766 15.0334 75C14.3674 75 13.6954 75 13.0174 75C12.3454 75 11.6764 75 11.0104 75Z" fill="#393C78"/>
<path d="M30.4589 71.517C30.7109 71.319 30.9629 71.118 31.2149 70.914C31.4729 70.71 31.7279 70.509 31.9799 70.311C31.6739 70.311 31.3619 70.311 31.0439 70.311C30.7319 70.311 30.4229 70.311 30.1169 70.311C30.1169 70.077 30.1169 69.84 30.1169 69.6C30.1169 69.354 30.1169 69.114 30.1169 68.88C30.7469 68.88 31.3799 68.88 32.0159 68.88C32.6579 68.88 33.2939 68.88 33.9239 68.88C33.9239 69.114 33.9239 69.354 33.9239 69.6C33.9239 69.84 33.9239 70.077 33.9239 70.311C33.7079 70.485 33.4919 70.662 33.2759 70.842C33.0599 71.022 32.8439 71.199 32.6279 71.373C33.1199 71.469 33.4979 71.673 33.7619 71.985C34.0319 72.291 34.1669 72.678 34.1669 73.146C34.1669 73.59 34.0589 73.956 33.8429 74.244C33.6269 74.532 33.3299 74.745 32.9519 74.883C32.5739 75.021 32.1389 75.084 31.6469 75.072C31.1609 75.06 30.6449 74.973 30.0989 74.811C30.0989 74.565 30.0989 74.316 30.0989 74.064C30.0989 73.806 30.0989 73.554 30.0989 73.308C30.5369 73.464 30.9479 73.563 31.3319 73.605C31.7159 73.647 32.0249 73.632 32.2589 73.56C32.4989 73.482 32.6189 73.347 32.6189 73.155C32.6189 72.969 32.5259 72.828 32.3399 72.732C32.1539 72.636 31.8959 72.576 31.5659 72.552C31.2419 72.522 30.8729 72.525 30.4589 72.561C30.4589 72.387 30.4589 72.213 30.4589 72.039C30.4589 71.859 30.4589 71.685 30.4589 71.517Z" fill="#393C78"/>
<path d="M48.6015 73.839C48.6015 73.605 48.6015 73.368 48.6015 73.128C48.6015 72.882 48.6015 72.642 48.6015 72.408C48.9015 71.826 49.2045 71.238 49.5105 70.644C49.8165 70.05 50.1165 69.462 50.4105 68.88C50.7945 68.88 51.1785 68.88 51.5625 68.88C51.9525 68.88 52.3395 68.88 52.7235 68.88C52.7235 69.462 52.7235 70.05 52.7235 70.644C52.7235 71.238 52.7235 71.826 52.7235 72.408C52.8615 72.408 53.0025 72.408 53.1465 72.408C53.2965 72.408 53.4405 72.408 53.5785 72.408C53.5785 72.642 53.5785 72.882 53.5785 73.128C53.5785 73.368 53.5785 73.605 53.5785 73.839C53.4405 73.839 53.2965 73.839 53.1465 73.839C53.0025 73.839 52.8615 73.839 52.7235 73.839C52.7235 74.031 52.7235 74.226 52.7235 74.424C52.7235 74.616 52.7235 74.808 52.7235 75C52.4715 75 52.2135 75 51.9495 75C51.6915 75 51.4365 75 51.1845 75C51.1845 74.808 51.1845 74.616 51.1845 74.424C51.1845 74.226 51.1845 74.031 51.1845 73.839C50.7585 73.839 50.3265 73.839 49.8885 73.839C49.4565 73.839 49.0275 73.839 48.6015 73.839ZM50.2215 72.408C50.3775 72.408 50.5365 72.408 50.6985 72.408C50.8665 72.408 51.0285 72.408 51.1845 72.408C51.1845 72.072 51.1845 71.73 51.1845 71.382C51.1845 71.034 51.1845 70.692 51.1845 70.356C51.0285 70.692 50.8665 71.034 50.6985 71.382C50.5365 71.73 50.3775 72.072 50.2215 72.408Z" fill="#393C78"/>
<path d="M68.1435 72.435C68.1975 71.847 68.2515 71.253 68.3055 70.653C68.3595 70.053 68.4135 69.462 68.4675 68.88C69.0195 68.88 69.5805 68.88 70.1505 68.88C70.7205 68.88 71.2815 68.88 71.8335 68.88C71.8335 69.114 71.8335 69.354 71.8335 69.6C71.8335 69.84 71.8335 70.077 71.8335 70.311C71.5035 70.311 71.1675 70.311 70.8255 70.311C70.4835 70.311 70.1445 70.311 69.8085 70.311C69.7965 70.425 69.7815 70.545 69.7635 70.671C69.7455 70.791 69.7305 70.911 69.7185 71.031C70.2285 71.025 70.6635 71.097 71.0235 71.247C71.3895 71.397 71.6685 71.619 71.8605 71.913C72.0585 72.207 72.1575 72.573 72.1575 73.011C72.1575 73.479 72.0465 73.866 71.8245 74.172C71.6025 74.472 71.2995 74.697 70.9155 74.847C70.5375 74.991 70.1025 75.06 69.6105 75.054C69.1245 75.048 68.6115 74.967 68.0715 74.811C68.0715 74.565 68.0715 74.316 68.0715 74.064C68.0715 73.806 68.0715 73.554 68.0715 73.308C68.5695 73.464 69.0075 73.566 69.3855 73.614C69.7695 73.656 70.0695 73.632 70.2855 73.542C70.5015 73.452 70.6095 73.29 70.6095 73.056C70.6095 72.822 70.4985 72.648 70.2765 72.534C70.0605 72.42 69.7665 72.357 69.3945 72.345C69.0225 72.327 68.6055 72.357 68.1435 72.435Z" fill="#393C78"/>
<path d="M90.9104 70.572C90.5984 70.428 90.2894 70.338 89.9834 70.302C89.6774 70.26 89.3984 70.272 89.1464 70.338C88.8944 70.398 88.6874 70.512 88.5254 70.68C88.3694 70.842 88.2794 71.055 88.2554 71.319C88.4714 71.151 88.7144 71.037 88.9844 70.977C89.2604 70.917 89.5364 70.911 89.8124 70.959C90.0884 71.007 90.3434 71.112 90.5774 71.274C90.8174 71.43 91.0094 71.646 91.1534 71.922C91.2974 72.192 91.3694 72.522 91.3694 72.912C91.3694 73.224 91.3154 73.515 91.2074 73.785C91.0994 74.049 90.9434 74.283 90.7394 74.487C90.5414 74.685 90.3014 74.841 90.0194 74.955C89.7374 75.063 89.4224 75.117 89.0744 75.117C88.7264 75.117 88.4054 75.054 88.1114 74.928C87.8234 74.802 87.5714 74.616 87.3554 74.37C87.1454 74.118 86.9804 73.806 86.8604 73.434C86.7464 73.062 86.6894 72.63 86.6894 72.138C86.6894 71.61 86.7554 71.145 86.8874 70.743C87.0194 70.335 87.2084 69.993 87.4544 69.717C87.7004 69.435 87.9974 69.222 88.3454 69.078C88.6934 68.928 89.0834 68.847 89.5154 68.835C89.9474 68.823 90.4124 68.883 90.9104 69.015C90.9104 69.273 90.9104 69.534 90.9104 69.798C90.9104 70.056 90.9104 70.314 90.9104 70.572ZM89.0654 73.704C89.2874 73.704 89.4674 73.632 89.6054 73.488C89.7434 73.344 89.8124 73.161 89.8124 72.939C89.8124 72.711 89.7434 72.528 89.6054 72.39C89.4674 72.246 89.2874 72.174 89.0654 72.174C88.8494 72.174 88.6724 72.243 88.5344 72.381C88.4024 72.513 88.3364 72.69 88.3364 72.912C88.3364 73.146 88.4024 73.338 88.5344 73.488C88.6724 73.632 88.8494 73.704 89.0654 73.704Z" fill="#393C78"/>
<path d="M110.045 68.88C110.045 69.114 110.045 69.354 110.045 69.6C110.045 69.84 110.045 70.077 110.045 70.311C109.703 71.085 109.358 71.868 109.01 72.66C108.668 73.446 108.326 74.226 107.984 75C107.72 75 107.45 75 107.174 75C106.898 75 106.628 75 106.364 75C106.706 74.226 107.048 73.446 107.39 72.66C107.738 71.868 108.083 71.085 108.425 70.311C108.023 70.311 107.612 70.311 107.192 70.311C106.778 70.311 106.367 70.311 105.959 70.311C105.959 70.077 105.959 69.84 105.959 69.6C105.959 69.354 105.959 69.114 105.959 68.88C106.637 68.88 107.318 68.88 108.002 68.88C108.692 68.88 109.373 68.88 110.045 68.88Z" fill="#393C78"/>
<path d="M127.011 75.135C126.573 75.135 126.18 75.057 125.832 74.901C125.484 74.739 125.208 74.514 125.004 74.226C124.806 73.938 124.707 73.602 124.707 73.218C124.707 72.9 124.773 72.624 124.905 72.39C125.043 72.156 125.229 71.967 125.463 71.823C125.265 71.685 125.109 71.514 124.995 71.31C124.887 71.106 124.833 70.866 124.833 70.59C124.833 70.23 124.926 69.912 125.112 69.636C125.304 69.36 125.565 69.144 125.895 68.988C126.225 68.826 126.597 68.745 127.011 68.745C127.425 68.745 127.794 68.826 128.118 68.988C128.448 69.144 128.706 69.36 128.892 69.636C129.078 69.912 129.171 70.23 129.171 70.59C129.171 70.866 129.114 71.106 129 71.31C128.892 71.514 128.742 71.685 128.55 71.823C128.778 71.967 128.958 72.156 129.09 72.39C129.228 72.624 129.297 72.9 129.297 73.218C129.297 73.602 129.195 73.938 128.991 74.226C128.793 74.514 128.523 74.739 128.181 74.901C127.839 75.057 127.449 75.135 127.011 75.135ZM127.011 71.247C127.203 71.247 127.356 71.193 127.47 71.085C127.584 70.977 127.641 70.839 127.641 70.671C127.641 70.509 127.584 70.377 127.47 70.275C127.356 70.173 127.203 70.122 127.011 70.122C126.819 70.122 126.663 70.173 126.543 70.275C126.423 70.377 126.363 70.509 126.363 70.671C126.363 70.839 126.423 70.977 126.543 71.085C126.669 71.193 126.825 71.247 127.011 71.247ZM127.011 73.758C127.221 73.758 127.395 73.695 127.533 73.569C127.671 73.443 127.74 73.284 127.74 73.092C127.74 72.888 127.671 72.726 127.533 72.606C127.395 72.48 127.221 72.417 127.011 72.417C126.801 72.417 126.624 72.48 126.48 72.606C126.336 72.726 126.264 72.888 126.264 73.092C126.264 73.284 126.336 73.443 126.48 73.569C126.624 73.695 126.801 73.758 127.011 73.758Z" fill="#393C78"/>
<path d="M72.9646 29.392C72.9646 32.128 72.9646 34.896 72.9646 37.696C72.9646 40.496 72.9646 43.264 72.9646 46C72.2766 46 71.5806 46 70.8766 46C70.1726 46 69.4686 46 68.7646 46C68.7646 44.048 68.7646 42.08 68.7646 40.096C68.7646 38.096 68.7646 36.128 68.7646 34.192C68.3006 34.288 67.8286 34.392 67.3486 34.504C66.8846 34.6 66.4206 34.696 65.9566 34.792C65.9566 34.152 65.9566 33.504 65.9566 32.848C65.9566 32.192 65.9566 31.544 65.9566 30.904C67.1086 30.648 68.2766 30.4 69.4606 30.16C70.6446 29.904 71.8126 29.648 72.9646 29.392Z" fill="#393C78"/>
</g>
<defs>
<clipPath id="clip0_16_1894">
<rect width="140" height="88" rx="3" fill="white"/>
</clipPath>
</defs>
</svg>
