<svg width="140" height="88" viewBox="0 0 140 88" fill="none" xmlns="http://www.w3.org/2000/svg">
<g clip-path="url(#clip0_11_1132)">
<rect x="6" y="46" width="40" height="23" rx="1.37931" fill="#484848"/>
<path fill-rule="evenodd" clip-rule="evenodd" d="M26 57.5C27.1427 57.5 28.069 56.5737 28.069 55.431C28.069 54.2884 27.1427 53.3621 26 53.3621C24.8573 53.3621 23.931 54.2884 23.931 55.431C23.931 56.5737 24.8573 57.5 26 57.5ZM27.1222 58.0172H27.3793C28.5216 58.0172 29.4483 58.9903 29.4483 60.1896V60.8621V61.6379H22.5517V60.8621V60.1896C22.5517 58.9903 23.4785 58.0172 24.6207 58.0172H24.8778C25.2211 58.1821 25.5998 58.2759 26 58.2759C26.4002 58.2759 26.7805 58.1821 27.1222 58.0172Z" fill="#3E3E3E"/>
<rect x="6" y="73" width="18" height="9.3" rx="0.62069" fill="#484848"/>
<path fill-rule="evenodd" clip-rule="evenodd" d="M14.9483 77.65C15.4453 77.65 15.8483 77.2471 15.8483 76.75C15.8483 76.2529 15.4453 75.85 14.9483 75.85C14.4512 75.85 14.0483 76.2529 14.0483 76.75C14.0483 77.2471 14.4512 77.65 14.9483 77.65ZM15.4364 77.875H15.5483C16.0451 77.875 16.4483 78.2983 16.4483 78.82V79.1125V79.45H13.4483V79.1125V78.82C13.4483 78.2983 13.8514 77.875 14.3483 77.875H14.4601C14.6094 77.9467 14.7742 77.9875 14.9483 77.9875C15.1224 77.9875 15.2878 77.9467 15.4364 77.875Z" fill="#3E3E3E"/>
<rect x="72" y="73" width="18" height="9.3" rx="0.62069" fill="#484848"/>
<path fill-rule="evenodd" clip-rule="evenodd" d="M80.9483 77.65C81.4453 77.65 81.8483 77.2471 81.8483 76.75C81.8483 76.2529 81.4453 75.85 80.9483 75.85C80.4512 75.85 80.0483 76.2529 80.0483 76.75C80.0483 77.2471 80.4512 77.65 80.9483 77.65ZM81.4364 77.875H81.5483C82.0451 77.875 82.4483 78.2983 82.4483 78.82V79.1125V79.45H79.4483V79.1125V78.82C79.4483 78.2983 79.8514 77.875 80.3483 77.875H80.4601C80.6094 77.9467 80.7742 77.9875 80.9483 77.9875C81.1224 77.9875 81.2878 77.9467 81.4364 77.875Z" fill="#3E3E3E"/>
<rect x="28" y="73" width="18" height="9.3" rx="0.62069" fill="#484848"/>
<path fill-rule="evenodd" clip-rule="evenodd" d="M36.9483 77.65C37.4453 77.65 37.8483 77.2471 37.8483 76.75C37.8483 76.2529 37.4453 75.85 36.9483 75.85C36.4512 75.85 36.0483 76.2529 36.0483 76.75C36.0483 77.2471 36.4512 77.65 36.9483 77.65ZM37.4364 77.875H37.5483C38.0451 77.875 38.4483 78.2983 38.4483 78.82V79.1125V79.45H35.4483V79.1125V78.82C35.4483 78.2983 35.8514 77.875 36.3483 77.875H36.4601C36.6094 77.9467 36.7742 77.9875 36.9483 77.9875C37.1224 77.9875 37.2878 77.9467 37.4364 77.875Z" fill="#3E3E3E"/>
<rect x="94" y="73" width="18" height="9.3" rx="0.62069" fill="#484848"/>
<path fill-rule="evenodd" clip-rule="evenodd" d="M102.948 77.65C103.445 77.65 103.848 77.2471 103.848 76.75C103.848 76.2529 103.445 75.85 102.948 75.85C102.451 75.85 102.048 76.2529 102.048 76.75C102.048 77.2471 102.451 77.65 102.948 77.65ZM103.436 77.875H103.548C104.045 77.875 104.448 78.2983 104.448 78.82V79.1125V79.45H101.448V79.1125V78.82C101.448 78.2983 101.851 77.875 102.348 77.875H102.46C102.609 77.9467 102.774 77.9875 102.948 77.9875C103.122 77.9875 103.288 77.9467 103.436 77.875Z" fill="#3E3E3E"/>
<rect x="50" y="73" width="18" height="9.3" rx="0.62069" fill="#484848"/>
<path fill-rule="evenodd" clip-rule="evenodd" d="M58.9483 77.65C59.4453 77.65 59.8483 77.2471 59.8483 76.75C59.8483 76.2529 59.4453 75.85 58.9483 75.85C58.4512 75.85 58.0483 76.2529 58.0483 76.75C58.0483 77.2471 58.4512 77.65 58.9483 77.65ZM59.4364 77.875H59.5483C60.0451 77.875 60.4483 78.2983 60.4483 78.82V79.1125V79.45H57.4483V79.1125V78.82C57.4483 78.2983 57.8514 77.875 58.3483 77.875H58.4601C58.6094 77.9467 58.7742 77.9875 58.9483 77.9875C59.1224 77.9875 59.2878 77.9467 59.4364 77.875Z" fill="#3E3E3E"/>
<rect x="116" y="73" width="18" height="9.3" rx="0.62069" fill="#484848"/>
<path fill-rule="evenodd" clip-rule="evenodd" d="M124.948 77.65C125.445 77.65 125.848 77.2471 125.848 76.75C125.848 76.2529 125.445 75.85 124.948 75.85C124.451 75.85 124.048 76.2529 124.048 76.75C124.048 77.2471 124.451 77.65 124.948 77.65ZM125.436 77.875H125.548C126.045 77.875 126.448 78.2983 126.448 78.82V79.1125V79.45H123.448V79.1125V78.82C123.448 78.2983 123.851 77.875 124.348 77.875H124.46C124.609 77.9467 124.774 77.9875 124.948 77.9875C125.122 77.9875 125.288 77.9467 125.436 77.875Z" fill="#3E3E3E"/>
<rect x="50" y="46" width="40" height="23" rx="1.37931" fill="#484848"/>
<path fill-rule="evenodd" clip-rule="evenodd" d="M70 57.5C71.1427 57.5 72.069 56.5737 72.069 55.431C72.069 54.2884 71.1427 53.3621 70 53.3621C68.8573 53.3621 67.931 54.2884 67.931 55.431C67.931 56.5737 68.8573 57.5 70 57.5ZM71.1222 58.0172H71.3793C72.5216 58.0172 73.4483 58.9903 73.4483 60.1896V60.8621V61.6379H66.5517V60.8621V60.1896C66.5517 58.9903 67.4785 58.0172 68.6207 58.0172H68.8778C69.2211 58.1821 69.5998 58.2759 70 58.2759C70.4002 58.2759 70.7805 58.1821 71.1222 58.0172Z" fill="#3E3E3E"/>
<rect x="94" y="46" width="40" height="23" rx="1.37931" fill="#484848"/>
<path fill-rule="evenodd" clip-rule="evenodd" d="M114 57.5C115.143 57.5 116.069 56.5737 116.069 55.431C116.069 54.2884 115.143 53.3621 114 53.3621C112.857 53.3621 111.931 54.2884 111.931 55.431C111.931 56.5737 112.857 57.5 114 57.5ZM115.122 58.0172H115.379C116.522 58.0172 117.448 58.9903 117.448 60.1896V60.8621V61.6379H110.552V60.8621V60.1896C110.552 58.9903 111.478 58.0172 112.621 58.0172H112.878C113.221 58.1821 113.6 58.2759 114 58.2759C114.4 58.2759 114.78 58.1821 115.122 58.0172Z" fill="#3E3E3E"/>
<rect x="6" y="6" width="62" height="36" rx="2.13793" fill="#484848"/>
<path fill-rule="evenodd" clip-rule="evenodd" d="M37 24C38.7711 24 40.2068 22.5642 40.2068 20.7931C40.2068 19.022 38.7711 17.5862 37 17.5862C35.2288 17.5862 33.7931 19.022 33.7931 20.7931C33.7931 22.5642 35.2288 24 37 24ZM38.7395 24.8017H39.1379C40.9084 24.8017 42.3448 26.3099 42.3448 28.1689V29.2111V30.4137H31.6552V29.2111V28.1689C31.6552 26.3099 33.0916 24.8017 34.8621 24.8017H35.2606C35.7927 25.0572 36.3796 25.2025 37 25.2025C37.6204 25.2025 38.2098 25.0572 38.7395 24.8017Z" fill="#3E3E3E"/>
<rect x="6" y="6" width="62" height="36" rx="2.13793" fill="#484848"/>
<path fill-rule="evenodd" clip-rule="evenodd" d="M37 24C38.7711 24 40.2068 22.5642 40.2068 20.7931C40.2068 19.022 38.7711 17.5862 37 17.5862C35.2288 17.5862 33.7931 19.022 33.7931 20.7931C33.7931 22.5642 35.2288 24 37 24ZM38.7395 24.8017H39.1379C40.9084 24.8017 42.3448 26.3099 42.3448 28.1689V29.2111V30.4137H31.6552V29.2111V28.1689C31.6552 26.3099 33.0916 24.8017 34.8621 24.8017H35.2606C35.7927 25.0572 36.3796 25.2025 37 25.2025C37.6204 25.2025 38.2098 25.0572 38.7395 24.8017Z" fill="#3E3E3E"/>
<rect x="72" y="6" width="62" height="36" rx="2.13793" fill="#484848"/>
<path fill-rule="evenodd" clip-rule="evenodd" d="M103 24C104.771 24 106.207 22.5642 106.207 20.7931C106.207 19.022 104.771 17.5862 103 17.5862C101.229 17.5862 99.7931 19.022 99.7931 20.7931C99.7931 22.5642 101.229 24 103 24ZM104.739 24.8017H105.138C106.908 24.8017 108.345 26.3099 108.345 28.1689V29.2111V30.4137H97.6552V29.2111V28.1689C97.6552 26.3099 99.0916 24.8017 100.862 24.8017H101.261C101.793 25.0572 102.38 25.2025 103 25.2025C103.62 25.2025 104.21 25.0572 104.739 24.8017Z" fill="#3E3E3E"/>
<line x1="-8.47928" y1="1.25992" x2="140.532" y2="92.1463" stroke="#2D2D2D" stroke-width="2"/>
<line x1="-8.47928" y1="-0.85373" x2="140.532" y2="90.0326" stroke="#1D1F2E" stroke-width="2"/>
<line x1="-8.47928" y1="-0.85373" x2="140.532" y2="90.0326" stroke="#4F4F4F" stroke-width="2"/>
</g>
<defs>
<clipPath id="clip0_11_1132">
<rect width="140" height="88" fill="white"/>
</clipPath>
</defs>
</svg>
