<svg width="140" height="88" viewBox="0 0 140 88" fill="none" xmlns="http://www.w3.org/2000/svg">
<g clip-path="url(#clip0_16_1906)">
<rect x="6" y="14" width="21.8736" height="11.9862" rx="0.758621" fill="#5E609C"/>
<rect x="32.5236" y="14" width="21.8736" height="11.9862" rx="0.758621" fill="#5E609C"/>
<rect x="59.0471" y="14" width="21.8736" height="11.9862" rx="0.758621" fill="#5E609C"/>
<rect x="85.5707" y="14" width="21.8736" height="11.9862" rx="0.758621" fill="#5E609C"/>
<rect x="112.094" y="14" width="21.8736" height="11.9862" rx="0.758621" fill="#5E609C"/>
<rect x="6" y="29.9862" width="21.8736" height="11.9862" rx="0.758621" fill="#5E609C"/>
<rect x="32.5236" y="29.9862" width="21.8736" height="11.9862" rx="0.758621" fill="#5E609C"/>
<rect x="59.0471" y="29.9862" width="21.8736" height="11.9862" rx="0.758621" fill="#5E609C"/>
<rect x="85.5707" y="29.9862" width="21.8736" height="11.9862" rx="0.758621" fill="#5E609C"/>
<rect x="112.094" y="29.9862" width="21.8736" height="11.9862" rx="0.758621" fill="#5E609C"/>
<rect x="6" y="45.9724" width="21.8736" height="11.9862" rx="0.758621" fill="#5E609C"/>
<rect x="32.5236" y="45.9724" width="21.8736" height="11.9862" rx="0.758621" fill="#5E609C"/>
<rect x="59.0471" y="45.9724" width="21.8736" height="11.9862" rx="0.758621" fill="#5E609C"/>
<rect x="85.5707" y="45.9724" width="21.8736" height="11.9862" rx="0.758621" fill="#5E609C"/>
<rect x="112.094" y="45.9724" width="21.8736" height="11.9862" rx="0.758621" fill="#5E609C"/>
<rect x="6" y="61.9586" width="21.8736" height="11.9862" rx="0.758621" fill="#5E609C"/>
<rect x="32.5236" y="61.9586" width="21.8736" height="11.9862" rx="0.758621" fill="#5E609C"/>
<rect x="59.0471" y="61.9586" width="21.8736" height="11.9862" rx="0.758621" fill="#5E609C"/>
<rect x="85.5707" y="61.9586" width="21.8736" height="11.9862" rx="0.758621" fill="#5E609C"/>
<rect x="112.094" y="61.9586" width="21.8736" height="11.9862" rx="0.758621" fill="#5E609C"/>
<path d="M18.2352 17.08C18.2352 18.22 18.2352 19.3733 18.2352 20.54C18.2352 21.7067 18.2352 22.86 18.2352 24C17.9486 24 17.6586 24 17.3652 24C17.0719 24 16.7786 24 16.4852 24C16.4852 23.1867 16.4852 22.3667 16.4852 21.54C16.4852 20.7067 16.4852 19.8867 16.4852 19.08C16.2919 19.12 16.0952 19.1633 15.8952 19.21C15.7019 19.25 15.5086 19.29 15.3152 19.33C15.3152 19.0633 15.3152 18.7933 15.3152 18.52C15.3152 18.2467 15.3152 17.9767 15.3152 17.71C15.7952 17.6033 16.2819 17.5 16.7752 17.4C17.2686 17.2933 17.7552 17.1867 18.2352 17.08Z" fill="#393C78"/>
<path d="M19.1226 35.08C18.776 34.92 18.4326 34.82 18.0926 34.78C17.7526 34.7333 17.4426 34.7467 17.1626 34.82C16.8826 34.8867 16.6526 35.0133 16.4726 35.2C16.2993 35.38 16.1993 35.6167 16.1726 35.91C16.4126 35.7233 16.6826 35.5967 16.9826 35.53C17.2893 35.4633 17.596 35.4567 17.9026 35.51C18.2093 35.5633 18.4926 35.68 18.7526 35.86C19.0193 36.0333 19.2326 36.2733 19.3926 36.58C19.5526 36.88 19.6326 37.2467 19.6326 37.68C19.6326 38.0267 19.5726 38.35 19.4526 38.65C19.3326 38.9433 19.1593 39.2033 18.9326 39.43C18.7126 39.65 18.446 39.8233 18.1326 39.95C17.8193 40.07 17.4693 40.13 17.0826 40.13C16.696 40.13 16.3393 40.06 16.0126 39.92C15.6926 39.78 15.4126 39.5733 15.1726 39.3C14.9393 39.02 14.756 38.6733 14.6226 38.26C14.496 37.8467 14.4326 37.3667 14.4326 36.82C14.4326 36.2333 14.506 35.7167 14.6526 35.27C14.7993 34.8167 15.0093 34.4367 15.2826 34.13C15.556 33.8167 15.886 33.58 16.2726 33.42C16.6593 33.2533 17.0926 33.1633 17.5726 33.15C18.0526 33.1367 18.5693 33.2033 19.1226 33.35C19.1226 33.6367 19.1226 33.9267 19.1226 34.22C19.1226 34.5067 19.1226 34.7933 19.1226 35.08ZM17.0726 38.56C17.3193 38.56 17.5193 38.48 17.6726 38.32C17.826 38.16 17.9026 37.9567 17.9026 37.71C17.9026 37.4567 17.826 37.2533 17.6726 37.1C17.5193 36.94 17.3193 36.86 17.0726 36.86C16.8326 36.86 16.636 36.9367 16.4826 37.09C16.336 37.2367 16.2626 37.4333 16.2626 37.68C16.2626 37.94 16.336 38.1533 16.4826 38.32C16.636 38.48 16.8326 38.56 17.0726 38.56Z" fill="#393C78"/>
<path d="M16.3505 49.08C16.3505 50.22 16.3505 51.3733 16.3505 52.54C16.3505 53.7067 16.3505 54.86 16.3505 56C16.0638 56 15.7738 56 15.4805 56C15.1871 56 14.8938 56 14.6005 56C14.6005 55.1867 14.6005 54.3667 14.6005 53.54C14.6005 52.7067 14.6005 51.8867 14.6005 51.08C14.4071 51.12 14.2105 51.1633 14.0105 51.21C13.8171 51.25 13.6238 51.29 13.4305 51.33C13.4305 51.0633 13.4305 50.7933 13.4305 50.52C13.4305 50.2467 13.4305 49.9767 13.4305 49.71C13.9105 49.6033 14.3971 49.5 14.8905 49.4C15.3838 49.2933 15.8705 49.1867 16.3505 49.08ZM20.12 49.08C20.12 50.22 20.12 51.3733 20.12 52.54C20.12 53.7067 20.12 54.86 20.12 56C19.8333 56 19.5433 56 19.25 56C18.9567 56 18.6633 56 18.37 56C18.37 55.1867 18.37 54.3667 18.37 53.54C18.37 52.7067 18.37 51.8867 18.37 51.08C18.1767 51.12 17.98 51.1633 17.78 51.21C17.5867 51.25 17.3933 51.29 17.2 51.33C17.2 51.0633 17.2 50.7933 17.2 50.52C17.2 50.2467 17.2 49.9767 17.2 49.71C17.68 49.6033 18.1667 49.5 18.66 49.4C19.1533 49.2933 19.64 49.1867 20.12 49.08Z" fill="#393C78"/>
<path d="M15.4179 65.08C15.4179 66.22 15.4179 67.3733 15.4179 68.54C15.4179 69.7067 15.4179 70.86 15.4179 72C15.1312 72 14.8412 72 14.5479 72C14.2545 72 13.9612 72 13.6679 72C13.6679 71.1867 13.6679 70.3667 13.6679 69.54C13.6679 68.7067 13.6679 67.8867 13.6679 67.08C13.4745 67.12 13.2779 67.1633 13.0779 67.21C12.8845 67.25 12.6912 67.29 12.4979 67.33C12.4979 67.0633 12.4979 66.7933 12.4979 66.52C12.4979 66.2467 12.4979 65.9767 12.4979 65.71C12.9779 65.6033 13.4645 65.5 13.9579 65.4C14.4512 65.2933 14.9379 65.1867 15.4179 65.08ZM21.0074 67.08C20.6607 66.92 20.3174 66.82 19.9774 66.78C19.6374 66.7333 19.3274 66.7467 19.0474 66.82C18.7674 66.8867 18.5374 67.0133 18.3574 67.2C18.184 67.38 18.084 67.6167 18.0574 67.91C18.2974 67.7233 18.5674 67.5967 18.8674 67.53C19.174 67.4633 19.4807 67.4567 19.7874 67.51C20.094 67.5633 20.3774 67.68 20.6374 67.86C20.904 68.0333 21.1174 68.2733 21.2774 68.58C21.4374 68.88 21.5174 69.2467 21.5174 69.68C21.5174 70.0267 21.4574 70.35 21.3374 70.65C21.2174 70.9433 21.044 71.2033 20.8174 71.43C20.5974 71.65 20.3307 71.8233 20.0174 71.95C19.704 72.07 19.354 72.13 18.9674 72.13C18.5807 72.13 18.224 72.06 17.8974 71.92C17.5774 71.78 17.2974 71.5733 17.0574 71.3C16.824 71.02 16.6407 70.6733 16.5074 70.26C16.3807 69.8467 16.3174 69.3667 16.3174 68.82C16.3174 68.2333 16.3907 67.7167 16.5374 67.27C16.684 66.8167 16.894 66.4367 17.1674 66.13C17.4407 65.8167 17.7707 65.58 18.1574 65.42C18.544 65.2533 18.9774 65.1633 19.4574 65.15C19.9374 65.1367 20.454 65.2033 21.0074 65.35C21.0074 65.6367 21.0074 65.9267 21.0074 66.22C21.0074 66.5067 21.0074 66.7933 21.0074 67.08ZM18.9574 70.56C19.204 70.56 19.404 70.48 19.5574 70.32C19.7107 70.16 19.7874 69.9567 19.7874 69.71C19.7874 69.4567 19.7107 69.2533 19.5574 69.1C19.404 68.94 19.204 68.86 18.9574 68.86C18.7174 68.86 18.5207 68.9367 18.3674 69.09C18.2207 69.2367 18.1474 69.4333 18.1474 69.68C18.1474 69.94 18.2207 70.1533 18.3674 70.32C18.5207 70.48 18.7174 70.56 18.9574 70.56Z" fill="#393C78"/>
<path d="M41.7893 24C41.7893 23.74 41.7893 23.4767 41.7893 23.21C41.7893 22.9367 41.7893 22.67 41.7893 22.41C42.056 22.1567 42.3227 21.9 42.5893 21.64C42.856 21.3733 43.1227 21.1133 43.3893 20.86C43.696 20.56 43.9293 20.32 44.0893 20.14C44.2493 19.9533 44.3593 19.7967 44.4193 19.67C44.486 19.5433 44.5193 19.4267 44.5193 19.32C44.5193 19.1 44.3927 18.9433 44.1393 18.85C43.886 18.75 43.5593 18.72 43.1593 18.76C42.7593 18.8 42.3327 18.91 41.8793 19.09C41.8793 18.8167 41.8793 18.54 41.8793 18.26C41.8793 17.9733 41.8793 17.6933 41.8793 17.42C42.546 17.2 43.1493 17.09 43.6893 17.09C44.236 17.09 44.7027 17.18 45.0893 17.36C45.4827 17.5333 45.7827 17.7767 45.9893 18.09C46.2027 18.4033 46.3093 18.7667 46.3093 19.18C46.3093 19.5933 46.1993 19.9833 45.9793 20.35C45.7593 20.71 45.4227 21.11 44.9693 21.55C44.8227 21.69 44.676 21.8333 44.5293 21.98C44.3827 22.1267 44.236 22.27 44.0893 22.41C44.4493 22.41 44.8093 22.41 45.1693 22.41C45.536 22.41 45.8993 22.41 46.2593 22.41C46.2593 22.67 46.2593 22.9367 46.2593 23.21C46.2593 23.4767 46.2593 23.74 46.2593 24C45.5193 24 44.7727 24 44.0193 24C43.2727 24 42.5293 24 41.7893 24Z" fill="#393C78"/>
<path d="M46.2723 33.2C46.2723 33.46 46.2723 33.7267 46.2723 34C46.2723 34.2667 46.2723 34.53 46.2723 34.79C45.8923 35.65 45.509 36.52 45.1223 37.4C44.7423 38.2733 44.3623 39.14 43.9823 40C43.689 40 43.389 40 43.0823 40C42.7757 40 42.4757 40 42.1823 40C42.5623 39.14 42.9423 38.2733 43.3223 37.4C43.709 36.52 44.0923 35.65 44.4723 34.79C44.0257 34.79 43.569 34.79 43.1023 34.79C42.6423 34.79 42.1857 34.79 41.7323 34.79C41.7323 34.53 41.7323 34.2667 41.7323 34C41.7323 33.7267 41.7323 33.46 41.7323 33.2C42.4857 33.2 43.2423 33.2 44.0023 33.2C44.769 33.2 45.5257 33.2 46.2723 33.2Z" fill="#393C78"/>
<path d="M42.5546 49.08C42.5546 50.22 42.5546 51.3733 42.5546 52.54C42.5546 53.7067 42.5546 54.86 42.5546 56C42.2679 56 41.9779 56 41.6846 56C41.3912 56 41.0979 56 40.8046 56C40.8046 55.1867 40.8046 54.3667 40.8046 53.54C40.8046 52.7067 40.8046 51.8867 40.8046 51.08C40.6112 51.12 40.4146 51.1633 40.2146 51.21C40.0212 51.25 39.8279 51.29 39.6346 51.33C39.6346 51.0633 39.6346 50.7933 39.6346 50.52C39.6346 50.2467 39.6346 49.9767 39.6346 49.71C40.1146 49.6033 40.6012 49.5 41.0946 49.4C41.5879 49.2933 42.0746 49.1867 42.5546 49.08ZM43.6741 56C43.6741 55.74 43.6741 55.4767 43.6741 55.21C43.6741 54.9367 43.6741 54.67 43.6741 54.41C43.9408 54.1567 44.2074 53.9 44.4741 53.64C44.7408 53.3733 45.0074 53.1133 45.2741 52.86C45.5808 52.56 45.8141 52.32 45.9741 52.14C46.1341 51.9533 46.2441 51.7967 46.3041 51.67C46.3708 51.5433 46.4041 51.4267 46.4041 51.32C46.4041 51.1 46.2774 50.9433 46.0241 50.85C45.7708 50.75 45.4441 50.72 45.0441 50.76C44.6441 50.8 44.2174 50.91 43.7641 51.09C43.7641 50.8167 43.7641 50.54 43.7641 50.26C43.7641 49.9733 43.7641 49.6933 43.7641 49.42C44.4308 49.2 45.0341 49.09 45.5741 49.09C46.1208 49.09 46.5874 49.18 46.9741 49.36C47.3674 49.5333 47.6674 49.7767 47.8741 50.09C48.0874 50.4033 48.1941 50.7667 48.1941 51.18C48.1941 51.5933 48.0841 51.9833 47.8641 52.35C47.6441 52.71 47.3074 53.11 46.8541 53.55C46.7074 53.69 46.5608 53.8333 46.4141 53.98C46.2674 54.1267 46.1208 54.27 45.9741 54.41C46.3341 54.41 46.6941 54.41 47.0541 54.41C47.4208 54.41 47.7841 54.41 48.1441 54.41C48.1441 54.67 48.1441 54.9367 48.1441 55.21C48.1441 55.4767 48.1441 55.74 48.1441 56C47.4041 56 46.6574 56 45.9041 56C45.1574 56 44.4141 56 43.6741 56Z" fill="#393C78"/>
<path d="M42.6376 65.08C42.6376 66.22 42.6376 67.3733 42.6376 68.54C42.6376 69.7067 42.6376 70.86 42.6376 72C42.3509 72 42.0609 72 41.7676 72C41.4742 72 41.1809 72 40.8876 72C40.8876 71.1867 40.8876 70.3667 40.8876 69.54C40.8876 68.7067 40.8876 67.8867 40.8876 67.08C40.6942 67.12 40.4976 67.1633 40.2976 67.21C40.1042 67.25 39.9109 67.29 39.7176 67.33C39.7176 67.0633 39.7176 66.7933 39.7176 66.52C39.7176 66.2467 39.7176 65.9767 39.7176 65.71C40.1976 65.6033 40.6842 65.5 41.1776 65.4C41.6709 65.2933 42.1576 65.1867 42.6376 65.08ZM48.1571 65.2C48.1571 65.46 48.1571 65.7267 48.1571 66C48.1571 66.2667 48.1571 66.53 48.1571 66.79C47.7771 67.65 47.3938 68.52 47.0071 69.4C46.6271 70.2733 46.2471 71.14 45.8671 72C45.5738 72 45.2738 72 44.9671 72C44.6604 72 44.3604 72 44.0671 72C44.4471 71.14 44.8271 70.2733 45.2071 69.4C45.5938 68.52 45.9771 67.65 46.3571 66.79C45.9104 66.79 45.4538 66.79 44.9871 66.79C44.5271 66.79 44.0704 66.79 43.6171 66.79C43.6171 66.53 43.6171 66.2667 43.6171 66C43.6171 65.7267 43.6171 65.46 43.6171 65.2C44.3704 65.2 45.1271 65.2 45.8871 65.2C46.6538 65.2 47.4104 65.2 48.1571 65.2Z" fill="#393C78"/>
<path d="M68.2877 20.13C68.5677 19.91 68.8477 19.6867 69.1277 19.46C69.4144 19.2333 69.6977 19.01 69.9777 18.79C69.6377 18.79 69.291 18.79 68.9377 18.79C68.591 18.79 68.2477 18.79 67.9077 18.79C67.9077 18.53 67.9077 18.2667 67.9077 18C67.9077 17.7267 67.9077 17.46 67.9077 17.2C68.6077 17.2 69.311 17.2 70.0177 17.2C70.731 17.2 71.4377 17.2 72.1377 17.2C72.1377 17.46 72.1377 17.7267 72.1377 18C72.1377 18.2667 72.1377 18.53 72.1377 18.79C71.8977 18.9833 71.6577 19.18 71.4177 19.38C71.1777 19.58 70.9377 19.7767 70.6977 19.97C71.2444 20.0767 71.6644 20.3033 71.9577 20.65C72.2577 20.99 72.4077 21.42 72.4077 21.94C72.4077 22.4333 72.2877 22.84 72.0477 23.16C71.8077 23.48 71.4777 23.7167 71.0577 23.87C70.6377 24.0233 70.1544 24.0933 69.6077 24.08C69.0677 24.0667 68.4944 23.97 67.8877 23.79C67.8877 23.5167 67.8877 23.24 67.8877 22.96C67.8877 22.6733 67.8877 22.3933 67.8877 22.12C68.3744 22.2933 68.831 22.4033 69.2577 22.45C69.6844 22.4967 70.0277 22.48 70.2877 22.4C70.5544 22.3133 70.6877 22.1633 70.6877 21.95C70.6877 21.7433 70.5844 21.5867 70.3777 21.48C70.171 21.3733 69.8844 21.3067 69.5177 21.28C69.1577 21.2467 68.7477 21.25 68.2877 21.29C68.2877 21.0967 68.2877 20.9033 68.2877 20.71C68.2877 20.51 68.2877 20.3167 68.2877 20.13Z" fill="#393C78"/>
<path d="M70.0121 40.15C69.5255 40.15 69.0888 40.0633 68.7021 39.89C68.3155 39.71 68.0088 39.46 67.7821 39.14C67.5621 38.82 67.4521 38.4467 67.4521 38.02C67.4521 37.6667 67.5255 37.36 67.6721 37.1C67.8255 36.84 68.0321 36.63 68.2921 36.47C68.0721 36.3167 67.8988 36.1267 67.7721 35.9C67.6521 35.6733 67.5921 35.4067 67.5921 35.1C67.5921 34.7 67.6955 34.3467 67.9021 34.04C68.1155 33.7333 68.4055 33.4933 68.7721 33.32C69.1388 33.14 69.5521 33.05 70.0121 33.05C70.4721 33.05 70.8821 33.14 71.2421 33.32C71.6088 33.4933 71.8955 33.7333 72.1021 34.04C72.3088 34.3467 72.4121 34.7 72.4121 35.1C72.4121 35.4067 72.3488 35.6733 72.2221 35.9C72.1021 36.1267 71.9355 36.3167 71.7221 36.47C71.9755 36.63 72.1755 36.84 72.3221 37.1C72.4755 37.36 72.5521 37.6667 72.5521 38.02C72.5521 38.4467 72.4388 38.82 72.2121 39.14C71.9921 39.46 71.6921 39.71 71.3121 39.89C70.9321 40.0633 70.4988 40.15 70.0121 40.15ZM70.0121 35.83C70.2255 35.83 70.3955 35.77 70.5221 35.65C70.6488 35.53 70.7121 35.3767 70.7121 35.19C70.7121 35.01 70.6488 34.8633 70.5221 34.75C70.3955 34.6367 70.2255 34.58 70.0121 34.58C69.7988 34.58 69.6255 34.6367 69.4921 34.75C69.3588 34.8633 69.2921 35.01 69.2921 35.19C69.2921 35.3767 69.3588 35.53 69.4921 35.65C69.6321 35.77 69.8055 35.83 70.0121 35.83ZM70.0121 38.62C70.2455 38.62 70.4388 38.55 70.5921 38.41C70.7455 38.27 70.8221 38.0933 70.8221 37.88C70.8221 37.6533 70.7455 37.4733 70.5921 37.34C70.4388 37.2 70.2455 37.13 70.0121 37.13C69.7788 37.13 69.5821 37.2 69.4221 37.34C69.2621 37.4733 69.1821 37.6533 69.1821 37.88C69.1821 38.0933 69.2621 38.27 69.4221 38.41C69.5821 38.55 69.7788 38.62 70.0121 38.62Z" fill="#393C78"/>
<path d="M68.6229 49.08C68.6229 50.22 68.6229 51.3733 68.6229 52.54C68.6229 53.7067 68.6229 54.86 68.6229 56C68.3363 56 68.0463 56 67.7529 56C67.4596 56 67.1663 56 66.8729 56C66.8729 55.1867 66.8729 54.3667 66.8729 53.54C66.8729 52.7067 66.8729 51.8867 66.8729 51.08C66.6796 51.12 66.4829 51.1633 66.2829 51.21C66.0896 51.25 65.8963 51.29 65.7029 51.33C65.7029 51.0633 65.7029 50.7933 65.7029 50.52C65.7029 50.2467 65.7029 49.9767 65.7029 49.71C66.1829 49.6033 66.6696 49.5 67.1629 49.4C67.6563 49.2933 68.1429 49.1867 68.6229 49.08ZM70.1725 52.13C70.4525 51.91 70.7325 51.6867 71.0125 51.46C71.2991 51.2333 71.5825 51.01 71.8625 50.79C71.5225 50.79 71.1758 50.79 70.8225 50.79C70.4758 50.79 70.1325 50.79 69.7925 50.79C69.7925 50.53 69.7925 50.2667 69.7925 50C69.7925 49.7267 69.7925 49.46 69.7925 49.2C70.4925 49.2 71.1958 49.2 71.9025 49.2C72.6158 49.2 73.3225 49.2 74.0225 49.2C74.0225 49.46 74.0225 49.7267 74.0225 50C74.0225 50.2667 74.0225 50.53 74.0225 50.79C73.7825 50.9833 73.5425 51.18 73.3025 51.38C73.0625 51.58 72.8225 51.7767 72.5825 51.97C73.1291 52.0767 73.5491 52.3033 73.8425 52.65C74.1425 52.99 74.2925 53.42 74.2925 53.94C74.2925 54.4333 74.1725 54.84 73.9325 55.16C73.6925 55.48 73.3625 55.7167 72.9425 55.87C72.5225 56.0233 72.0391 56.0933 71.4925 56.08C70.9525 56.0667 70.3791 55.97 69.7725 55.79C69.7725 55.5167 69.7725 55.24 69.7725 54.96C69.7725 54.6733 69.7725 54.3933 69.7725 54.12C70.2591 54.2933 70.7158 54.4033 71.1425 54.45C71.5691 54.4967 71.9125 54.48 72.1725 54.4C72.4391 54.3133 72.5725 54.1633 72.5725 53.95C72.5725 53.7433 72.4691 53.5867 72.2625 53.48C72.0558 53.3733 71.7691 53.3067 71.4025 53.28C71.0425 53.2467 70.6325 53.25 70.1725 53.29C70.1725 53.0967 70.1725 52.9033 70.1725 52.71C70.1725 52.51 70.1725 52.3167 70.1725 52.13Z" fill="#393C78"/>
<path d="M68.4374 65.08C68.4374 66.22 68.4374 67.3733 68.4374 68.54C68.4374 69.7067 68.4374 70.86 68.4374 72C68.1507 72 67.8607 72 67.5674 72C67.274 72 66.9807 72 66.6874 72C66.6874 71.1867 66.6874 70.3667 66.6874 69.54C66.6874 68.7067 66.6874 67.8867 66.6874 67.08C66.494 67.12 66.2974 67.1633 66.0974 67.21C65.904 67.25 65.7107 67.29 65.5174 67.33C65.5174 67.0633 65.5174 66.7933 65.5174 66.52C65.5174 66.2467 65.5174 65.9767 65.5174 65.71C65.9974 65.6033 66.484 65.5 66.9774 65.4C67.4707 65.2933 67.9574 65.1867 68.4374 65.08ZM71.8969 72.15C71.4102 72.15 70.9736 72.0633 70.5869 71.89C70.2002 71.71 69.8936 71.46 69.6669 71.14C69.4469 70.82 69.3369 70.4467 69.3369 70.02C69.3369 69.6667 69.4102 69.36 69.5569 69.1C69.7102 68.84 69.9169 68.63 70.1769 68.47C69.9569 68.3167 69.7836 68.1267 69.6569 67.9C69.5369 67.6733 69.4769 67.4067 69.4769 67.1C69.4769 66.7 69.5802 66.3467 69.7869 66.04C70.0002 65.7333 70.2902 65.4933 70.6569 65.32C71.0236 65.14 71.4369 65.05 71.8969 65.05C72.3569 65.05 72.7669 65.14 73.1269 65.32C73.4936 65.4933 73.7802 65.7333 73.9869 66.04C74.1936 66.3467 74.2969 66.7 74.2969 67.1C74.2969 67.4067 74.2336 67.6733 74.1069 67.9C73.9869 68.1267 73.8202 68.3167 73.6069 68.47C73.8602 68.63 74.0602 68.84 74.2069 69.1C74.3602 69.36 74.4369 69.6667 74.4369 70.02C74.4369 70.4467 74.3236 70.82 74.0969 71.14C73.8769 71.46 73.5769 71.71 73.1969 71.89C72.8169 72.0633 72.3836 72.15 71.8969 72.15ZM71.8969 67.83C72.1102 67.83 72.2802 67.77 72.4069 67.65C72.5336 67.53 72.5969 67.3767 72.5969 67.19C72.5969 67.01 72.5336 66.8633 72.4069 66.75C72.2802 66.6367 72.1102 66.58 71.8969 66.58C71.6836 66.58 71.5102 66.6367 71.3769 66.75C71.2436 66.8633 71.1769 67.01 71.1769 67.19C71.1769 67.3767 71.2436 67.53 71.3769 67.65C71.5169 67.77 71.6902 67.83 71.8969 67.83ZM71.8969 70.62C72.1302 70.62 72.3236 70.55 72.4769 70.41C72.6302 70.27 72.7069 70.0933 72.7069 69.88C72.7069 69.6533 72.6302 69.4733 72.4769 69.34C72.3236 69.2 72.1302 69.13 71.8969 69.13C71.6636 69.13 71.4669 69.2 71.3069 69.34C71.1469 69.4733 71.0669 69.6533 71.0669 69.88C71.0669 70.0933 71.1469 70.27 71.3069 70.41C71.4669 70.55 71.6636 70.62 71.8969 70.62Z" fill="#393C78"/>
<path d="M94.335 22.71C94.335 22.45 94.335 22.1867 94.335 21.92C94.335 21.6467 94.335 21.38 94.335 21.12C94.6683 20.4733 95.005 19.82 95.345 19.16C95.685 18.5 96.0183 17.8467 96.345 17.2C96.7716 17.2 97.1983 17.2 97.625 17.2C98.0583 17.2 98.4883 17.2 98.915 17.2C98.915 17.8467 98.915 18.5 98.915 19.16C98.915 19.82 98.915 20.4733 98.915 21.12C99.0683 21.12 99.225 21.12 99.385 21.12C99.5516 21.12 99.7116 21.12 99.865 21.12C99.865 21.38 99.865 21.6467 99.865 21.92C99.865 22.1867 99.865 22.45 99.865 22.71C99.7116 22.71 99.5516 22.71 99.385 22.71C99.225 22.71 99.0683 22.71 98.915 22.71C98.915 22.9233 98.915 23.14 98.915 23.36C98.915 23.5733 98.915 23.7867 98.915 24C98.635 24 98.3483 24 98.055 24C97.7683 24 97.485 24 97.205 24C97.205 23.7867 97.205 23.5733 97.205 23.36C97.205 23.14 97.205 22.9233 97.205 22.71C96.7316 22.71 96.2516 22.71 95.765 22.71C95.285 22.71 94.8083 22.71 94.335 22.71ZM96.135 21.12C96.3083 21.12 96.485 21.12 96.665 21.12C96.8516 21.12 97.0316 21.12 97.205 21.12C97.205 20.7467 97.205 20.3667 97.205 19.98C97.205 19.5933 97.205 19.2133 97.205 18.84C97.0316 19.2133 96.8516 19.5933 96.665 19.98C96.485 20.3667 96.3083 20.7467 96.135 21.12Z" fill="#393C78"/>
<path d="M94.8726 38.11C95.2193 38.27 95.5626 38.3733 95.9026 38.42C96.2426 38.46 96.5526 38.4467 96.8326 38.38C97.1126 38.3067 97.3393 38.18 97.5126 38C97.6926 37.8133 97.796 37.5733 97.8226 37.28C97.5826 37.4667 97.3093 37.5933 97.0026 37.66C96.7026 37.7267 96.3993 37.7333 96.0926 37.68C95.786 37.6267 95.4993 37.5133 95.2326 37.34C94.9726 37.16 94.7626 36.92 94.6026 36.62C94.4426 36.3133 94.3626 35.9433 94.3626 35.51C94.3626 35.1633 94.4226 34.8433 94.5426 34.55C94.6626 34.25 94.8326 33.99 95.0526 33.77C95.2793 33.5433 95.5493 33.37 95.8626 33.25C96.176 33.1233 96.526 33.06 96.9126 33.06C97.2993 33.06 97.6526 33.13 97.9726 33.27C98.2993 33.41 98.5793 33.62 98.8126 33.9C99.0526 34.1733 99.236 34.5167 99.3626 34.93C99.496 35.3433 99.5626 35.8233 99.5626 36.37C99.5626 36.9567 99.4893 37.4767 99.3426 37.93C99.196 38.3767 98.986 38.7567 98.7126 39.07C98.4393 39.3767 98.1093 39.6133 97.7226 39.78C97.336 39.94 96.9026 40.0267 96.4226 40.04C95.9426 40.0533 95.426 39.9867 94.8726 39.84C94.8726 39.5533 94.8726 39.2667 94.8726 38.98C94.8726 38.6867 94.8726 38.3967 94.8726 38.11ZM96.9226 34.63C96.676 34.63 96.476 34.71 96.3226 34.87C96.1693 35.0233 96.0926 35.2267 96.0926 35.48C96.0926 35.7333 96.1693 35.94 96.3226 36.1C96.476 36.2533 96.676 36.33 96.9226 36.33C97.1626 36.33 97.356 36.2567 97.5026 36.11C97.656 35.9567 97.7326 35.7567 97.7326 35.51C97.7326 35.25 97.656 35.04 97.5026 34.88C97.356 34.7133 97.1626 34.63 96.9226 34.63Z" fill="#393C78"/>
<path d="M95.3202 49.08C95.3202 50.22 95.3202 51.3733 95.3202 52.54C95.3202 53.7067 95.3202 54.86 95.3202 56C95.0335 56 94.7435 56 94.4502 56C94.1569 56 93.8635 56 93.5702 56C93.5702 55.1867 93.5702 54.3667 93.5702 53.54C93.5702 52.7067 93.5702 51.8867 93.5702 51.08C93.3769 51.12 93.1802 51.1633 92.9802 51.21C92.7869 51.25 92.5935 51.29 92.4002 51.33C92.4002 51.0633 92.4002 50.7933 92.4002 50.52C92.4002 50.2467 92.4002 49.9767 92.4002 49.71C92.8802 49.6033 93.3669 49.5 93.8602 49.4C94.3535 49.2933 94.8402 49.1867 95.3202 49.08ZM96.2197 54.71C96.2197 54.45 96.2197 54.1867 96.2197 53.92C96.2197 53.6467 96.2197 53.38 96.2197 53.12C96.5531 52.4733 96.8897 51.82 97.2297 51.16C97.5697 50.5 97.9031 49.8467 98.2297 49.2C98.6564 49.2 99.0831 49.2 99.5097 49.2C99.9431 49.2 100.373 49.2 100.8 49.2C100.8 49.8467 100.8 50.5 100.8 51.16C100.8 51.82 100.8 52.4733 100.8 53.12C100.953 53.12 101.11 53.12 101.27 53.12C101.436 53.12 101.596 53.12 101.75 53.12C101.75 53.38 101.75 53.6467 101.75 53.92C101.75 54.1867 101.75 54.45 101.75 54.71C101.596 54.71 101.436 54.71 101.27 54.71C101.11 54.71 100.953 54.71 100.8 54.71C100.8 54.9233 100.8 55.14 100.8 55.36C100.8 55.5733 100.8 55.7867 100.8 56C100.52 56 100.233 56 99.9397 56C99.6531 56 99.3697 56 99.0897 56C99.0897 55.7867 99.0897 55.5733 99.0897 55.36C99.0897 55.14 99.0897 54.9233 99.0897 54.71C98.6164 54.71 98.1364 54.71 97.6497 54.71C97.1697 54.71 96.6931 54.71 96.2197 54.71ZM98.0197 53.12C98.1931 53.12 98.3697 53.12 98.5497 53.12C98.7364 53.12 98.9164 53.12 99.0897 53.12C99.0897 52.7467 99.0897 52.3667 99.0897 51.98C99.0897 51.5933 99.0897 51.2133 99.0897 50.84C98.9164 51.2133 98.7364 51.5933 98.5497 51.98C98.3697 52.3667 98.1931 52.7467 98.0197 53.12Z" fill="#393C78"/>
<path d="M95.4179 65.08C95.4179 66.22 95.4179 67.3733 95.4179 68.54C95.4179 69.7067 95.4179 70.86 95.4179 72C95.1312 72 94.8412 72 94.5479 72C94.2545 72 93.9612 72 93.6679 72C93.6679 71.1867 93.6679 70.3667 93.6679 69.54C93.6679 68.7067 93.6679 67.8867 93.6679 67.08C93.4745 67.12 93.2779 67.1633 93.0779 67.21C92.8845 67.25 92.6912 67.29 92.4979 67.33C92.4979 67.0633 92.4979 66.7933 92.4979 66.52C92.4979 66.2467 92.4979 65.9767 92.4979 65.71C92.9779 65.6033 93.4645 65.5 93.9579 65.4C94.4512 65.2933 94.9379 65.1867 95.4179 65.08ZM96.7574 70.11C97.104 70.27 97.4474 70.3733 97.7874 70.42C98.1274 70.46 98.4374 70.4467 98.7174 70.38C98.9974 70.3067 99.224 70.18 99.3974 70C99.5774 69.8133 99.6807 69.5733 99.7074 69.28C99.4674 69.4667 99.194 69.5933 98.8874 69.66C98.5874 69.7267 98.284 69.7333 97.9774 69.68C97.6707 69.6267 97.384 69.5133 97.1174 69.34C96.8574 69.16 96.6474 68.92 96.4874 68.62C96.3274 68.3133 96.2474 67.9433 96.2474 67.51C96.2474 67.1633 96.3074 66.8433 96.4274 66.55C96.5474 66.25 96.7174 65.99 96.9374 65.77C97.164 65.5433 97.434 65.37 97.7474 65.25C98.0607 65.1233 98.4107 65.06 98.7974 65.06C99.184 65.06 99.5374 65.13 99.8574 65.27C100.184 65.41 100.464 65.62 100.697 65.9C100.937 66.1733 101.121 66.5167 101.247 66.93C101.381 67.3433 101.447 67.8233 101.447 68.37C101.447 68.9567 101.374 69.4767 101.227 69.93C101.081 70.3767 100.871 70.7567 100.597 71.07C100.324 71.3767 99.994 71.6133 99.6074 71.78C99.2207 71.94 98.7874 72.0267 98.3074 72.04C97.8274 72.0533 97.3107 71.9867 96.7574 71.84C96.7574 71.5533 96.7574 71.2667 96.7574 70.98C96.7574 70.6867 96.7574 70.3967 96.7574 70.11ZM98.8074 66.63C98.5607 66.63 98.3607 66.71 98.2074 66.87C98.054 67.0233 97.9774 67.2267 97.9774 67.48C97.9774 67.7333 98.054 67.94 98.2074 68.1C98.3607 68.2533 98.5607 68.33 98.8074 68.33C99.0474 68.33 99.2407 68.2567 99.3874 68.11C99.5407 67.9567 99.6174 67.7567 99.6174 67.51C99.6174 67.25 99.5407 67.04 99.3874 66.88C99.2407 66.7133 99.0474 66.63 98.8074 66.63Z" fill="#393C78"/>
<path d="M120.937 21.15C120.997 20.4967 121.057 19.8367 121.117 19.17C121.177 18.5033 121.237 17.8467 121.297 17.2C121.911 17.2 122.534 17.2 123.167 17.2C123.801 17.2 124.424 17.2 125.037 17.2C125.037 17.46 125.037 17.7267 125.037 18C125.037 18.2667 125.037 18.53 125.037 18.79C124.671 18.79 124.297 18.79 123.917 18.79C123.537 18.79 123.161 18.79 122.787 18.79C122.774 18.9167 122.757 19.05 122.737 19.19C122.717 19.3233 122.701 19.4567 122.687 19.59C123.254 19.5833 123.737 19.6633 124.137 19.83C124.544 19.9967 124.854 20.2433 125.067 20.57C125.287 20.8967 125.397 21.3033 125.397 21.79C125.397 22.31 125.274 22.74 125.027 23.08C124.781 23.4133 124.444 23.6633 124.017 23.83C123.597 23.99 123.114 24.0667 122.567 24.06C122.027 24.0533 121.457 23.9633 120.857 23.79C120.857 23.5167 120.857 23.24 120.857 22.96C120.857 22.6733 120.857 22.3933 120.857 22.12C121.411 22.2933 121.897 22.4067 122.317 22.46C122.744 22.5067 123.077 22.48 123.317 22.38C123.557 22.28 123.677 22.1 123.677 21.84C123.677 21.58 123.554 21.3867 123.307 21.26C123.067 21.1333 122.741 21.0633 122.327 21.05C121.914 21.03 121.451 21.0633 120.937 21.15Z" fill="#393C78"/>
<path d="M121.003 33.08C121.003 34.22 121.003 35.3733 121.003 36.54C121.003 37.7067 121.003 38.86 121.003 40C120.716 40 120.426 40 120.133 40C119.839 40 119.546 40 119.253 40C119.253 39.1867 119.253 38.3667 119.253 37.54C119.253 36.7067 119.253 35.8867 119.253 35.08C119.059 35.12 118.863 35.1633 118.663 35.21C118.469 35.25 118.276 35.29 118.083 35.33C118.083 35.0633 118.083 34.7933 118.083 34.52C118.083 34.2467 118.083 33.9767 118.083 33.71C118.563 33.6033 119.049 33.5 119.543 33.4C120.036 33.2933 120.523 33.1867 121.003 33.08ZM124.882 40.14C124.442 40.14 124.039 40.0533 123.672 39.88C123.306 39.7 122.989 39.45 122.722 39.13C122.462 38.81 122.259 38.4333 122.112 38C121.972 37.5667 121.902 37.0967 121.902 36.59C121.902 36.0833 121.972 35.6167 122.112 35.19C122.259 34.7567 122.462 34.3833 122.722 34.07C122.989 33.75 123.306 33.5033 123.672 33.33C124.039 33.15 124.442 33.06 124.882 33.06C125.322 33.06 125.722 33.15 126.082 33.33C126.449 33.5033 126.766 33.75 127.032 34.07C127.299 34.3833 127.502 34.7567 127.642 35.19C127.789 35.6167 127.862 36.0833 127.862 36.59C127.862 37.0967 127.789 37.5667 127.642 38C127.502 38.4333 127.299 38.81 127.032 39.13C126.766 39.45 126.449 39.7 126.082 39.88C125.722 40.0533 125.322 40.14 124.882 40.14ZM124.882 38.49C125.149 38.49 125.372 38.4133 125.552 38.26C125.739 38.1 125.882 37.8767 125.982 37.59C126.082 37.3033 126.132 36.97 126.132 36.59C126.132 36.21 126.082 35.88 125.982 35.6C125.882 35.3133 125.739 35.0933 125.552 34.94C125.372 34.7867 125.149 34.71 124.882 34.71C124.622 34.71 124.399 34.7867 124.212 34.94C124.026 35.0933 123.882 35.31 123.782 35.59C123.682 35.87 123.632 36.2033 123.632 36.59C123.632 36.97 123.682 37.3033 123.782 37.59C123.882 37.8767 124.026 38.1 124.212 38.26C124.399 38.4133 124.622 38.49 124.882 38.49Z" fill="#393C78"/>
<path d="M121.642 49.08C121.642 50.22 121.642 51.3733 121.642 52.54C121.642 53.7067 121.642 54.86 121.642 56C121.356 56 121.066 56 120.772 56C120.479 56 120.186 56 119.892 56C119.892 55.1867 119.892 54.3667 119.892 53.54C119.892 52.7067 119.892 51.8867 119.892 51.08C119.699 51.12 119.502 51.1633 119.302 51.21C119.109 51.25 118.916 51.29 118.722 51.33C118.722 51.0633 118.722 50.7933 118.722 50.52C118.722 50.2467 118.722 49.9767 118.722 49.71C119.202 49.6033 119.689 49.5 120.182 49.4C120.676 49.2933 121.162 49.1867 121.642 49.08ZM122.822 53.15C122.882 52.4967 122.942 51.8367 123.002 51.17C123.062 50.5033 123.122 49.8467 123.182 49.2C123.795 49.2 124.419 49.2 125.052 49.2C125.685 49.2 126.309 49.2 126.922 49.2C126.922 49.46 126.922 49.7267 126.922 50C126.922 50.2667 126.922 50.53 126.922 50.79C126.555 50.79 126.182 50.79 125.802 50.79C125.422 50.79 125.045 50.79 124.672 50.79C124.659 50.9167 124.642 51.05 124.622 51.19C124.602 51.3233 124.585 51.4567 124.572 51.59C125.139 51.5833 125.622 51.6633 126.022 51.83C126.429 51.9967 126.739 52.2433 126.952 52.57C127.172 52.8967 127.282 53.3033 127.282 53.79C127.282 54.31 127.159 54.74 126.912 55.08C126.665 55.4133 126.329 55.6633 125.902 55.83C125.482 55.99 124.999 56.0667 124.452 56.06C123.912 56.0533 123.342 55.9633 122.742 55.79C122.742 55.5167 122.742 55.24 122.742 54.96C122.742 54.6733 122.742 54.3933 122.742 54.12C123.295 54.2933 123.782 54.4067 124.202 54.46C124.629 54.5067 124.962 54.48 125.202 54.38C125.442 54.28 125.562 54.1 125.562 53.84C125.562 53.58 125.439 53.3867 125.192 53.26C124.952 53.1333 124.625 53.0633 124.212 53.05C123.799 53.03 123.335 53.0633 122.822 53.15Z" fill="#393C78"/>
<path d="M117.557 72C117.557 71.74 117.557 71.4767 117.557 71.21C117.557 70.9367 117.557 70.67 117.557 70.41C117.824 70.1567 118.09 69.9 118.357 69.64C118.624 69.3733 118.89 69.1133 119.157 68.86C119.464 68.56 119.697 68.32 119.857 68.14C120.017 67.9533 120.127 67.7967 120.187 67.67C120.254 67.5433 120.287 67.4267 120.287 67.32C120.287 67.1 120.16 66.9433 119.907 66.85C119.654 66.75 119.327 66.72 118.927 66.76C118.527 66.8 118.1 66.91 117.647 67.09C117.647 66.8167 117.647 66.54 117.647 66.26C117.647 65.9733 117.647 65.6933 117.647 65.42C118.314 65.2 118.917 65.09 119.457 65.09C120.004 65.09 120.47 65.18 120.857 65.36C121.25 65.5333 121.55 65.7767 121.757 66.09C121.97 66.4033 122.077 66.7667 122.077 67.18C122.077 67.5933 121.967 67.9833 121.747 68.35C121.527 68.71 121.19 69.11 120.737 69.55C120.59 69.69 120.444 69.8333 120.297 69.98C120.15 70.1267 120.004 70.27 119.857 70.41C120.217 70.41 120.577 70.41 120.937 70.41C121.304 70.41 121.667 70.41 122.027 70.41C122.027 70.67 122.027 70.9367 122.027 71.21C122.027 71.4767 122.027 71.74 122.027 72C121.287 72 120.54 72 119.787 72C119.04 72 118.297 72 117.557 72ZM125.678 72.14C125.238 72.14 124.835 72.0533 124.468 71.88C124.102 71.7 123.785 71.45 123.518 71.13C123.258 70.81 123.055 70.4333 122.908 70C122.768 69.5667 122.698 69.0967 122.698 68.59C122.698 68.0833 122.768 67.6167 122.908 67.19C123.055 66.7567 123.258 66.3833 123.518 66.07C123.785 65.75 124.102 65.5033 124.468 65.33C124.835 65.15 125.238 65.06 125.678 65.06C126.118 65.06 126.518 65.15 126.878 65.33C127.245 65.5033 127.562 65.75 127.828 66.07C128.095 66.3833 128.298 66.7567 128.438 67.19C128.585 67.6167 128.658 68.0833 128.658 68.59C128.658 69.0967 128.585 69.5667 128.438 70C128.298 70.4333 128.095 70.81 127.828 71.13C127.562 71.45 127.245 71.7 126.878 71.88C126.518 72.0533 126.118 72.14 125.678 72.14ZM125.678 70.49C125.945 70.49 126.168 70.4133 126.348 70.26C126.535 70.1 126.678 69.8767 126.778 69.59C126.878 69.3033 126.928 68.97 126.928 68.59C126.928 68.21 126.878 67.88 126.778 67.6C126.678 67.3133 126.535 67.0933 126.348 66.94C126.168 66.7867 125.945 66.71 125.678 66.71C125.418 66.71 125.195 66.7867 125.008 66.94C124.822 67.0933 124.678 67.31 124.578 67.59C124.478 67.87 124.428 68.2033 124.428 68.59C124.428 68.97 124.478 69.3033 124.578 69.59C124.678 69.8767 124.822 70.1 125.008 70.26C125.195 70.4133 125.418 70.49 125.678 70.49Z" fill="#393C78"/>
</g>
<defs>
<clipPath id="clip0_16_1906">
<rect width="140" height="88" fill="white"/>
</clipPath>
</defs>
</svg>
