<svg width="140" height="88" viewBox="0 0 140 88" fill="none" xmlns="http://www.w3.org/2000/svg">
<rect x="28" y="12" width="84" height="51" rx="3.40378" fill="#5E609C"/>
<path fill-rule="evenodd" clip-rule="evenodd" d="M69.9999 37.5C72.7257 37.5 74.9354 35.2903 74.9354 32.5645C74.9354 29.8387 72.7257 27.629 69.9999 27.629C67.2741 27.629 65.0644 29.8387 65.0644 32.5645C65.0644 35.2903 67.2741 37.5 69.9999 37.5ZM72.6771 38.7338H73.2903C76.0151 38.7338 78.2258 41.0551 78.2258 43.9161V45.5201V47.3709H61.7742V45.5201V43.9161C61.7742 41.0551 63.9849 38.7338 66.7097 38.7338H67.3229C68.1419 39.1271 69.0452 39.3508 70 39.3508C70.9548 39.3508 71.8618 39.1271 72.6771 38.7338Z" fill="#393C78"/>
<rect x="6" y="67" width="18" height="9.3" rx="0.62069" fill="#5E609C"/>
<path fill-rule="evenodd" clip-rule="evenodd" d="M14.9483 71.65C15.4453 71.65 15.8483 71.2471 15.8483 70.75C15.8483 70.2529 15.4453 69.85 14.9483 69.85C14.4512 69.85 14.0483 70.2529 14.0483 70.75C14.0483 71.2471 14.4512 71.65 14.9483 71.65ZM15.4364 71.875H15.5483C16.0451 71.875 16.4483 72.2983 16.4483 72.82V73.1125V73.45H13.4483V73.1125V72.82C13.4483 72.2983 13.8514 71.875 14.3483 71.875H14.4601C14.6094 71.9467 14.7742 71.9875 14.9483 71.9875C15.1224 71.9875 15.2878 71.9467 15.4364 71.875Z" fill="#393C78"/>
<rect x="28" y="67" width="18" height="9.3" rx="0.62069" fill="#5E609C"/>
<path fill-rule="evenodd" clip-rule="evenodd" d="M36.9483 71.65C37.4453 71.65 37.8483 71.2471 37.8483 70.75C37.8483 70.2529 37.4453 69.85 36.9483 69.85C36.4512 69.85 36.0483 70.2529 36.0483 70.75C36.0483 71.2471 36.4512 71.65 36.9483 71.65ZM37.4364 71.875H37.5483C38.0451 71.875 38.4483 72.2983 38.4483 72.82V73.1125V73.45H35.4483V73.1125V72.82C35.4483 72.2983 35.8514 71.875 36.3483 71.875H36.4601C36.6094 71.9467 36.7742 71.9875 36.9483 71.9875C37.1224 71.9875 37.2878 71.9467 37.4364 71.875Z" fill="#393C78"/>
<rect x="50" y="67" width="18" height="9.3" rx="0.62069" fill="#5E609C"/>
<path fill-rule="evenodd" clip-rule="evenodd" d="M58.9483 71.65C59.4453 71.65 59.8483 71.2471 59.8483 70.75C59.8483 70.2529 59.4453 69.85 58.9483 69.85C58.4512 69.85 58.0483 70.2529 58.0483 70.75C58.0483 71.2471 58.4512 71.65 58.9483 71.65ZM59.4364 71.875H59.5483C60.0451 71.875 60.4483 72.2983 60.4483 72.82V73.1125V73.45H57.4483V73.1125V72.82C57.4483 72.2983 57.8514 71.875 58.3483 71.875H58.4601C58.6094 71.9467 58.7742 71.9875 58.9483 71.9875C59.1224 71.9875 59.2878 71.9467 59.4364 71.875Z" fill="#393C78"/>
<rect x="72" y="67" width="18" height="9.3" rx="0.62069" fill="#5E609C"/>
<path fill-rule="evenodd" clip-rule="evenodd" d="M80.9483 71.65C81.4453 71.65 81.8483 71.2471 81.8483 70.75C81.8483 70.2529 81.4453 69.85 80.9483 69.85C80.4512 69.85 80.0483 70.2529 80.0483 70.75C80.0483 71.2471 80.4512 71.65 80.9483 71.65ZM81.4364 71.875H81.5483C82.0451 71.875 82.4483 72.2983 82.4483 72.82V73.1125V73.45H79.4483V73.1125V72.82C79.4483 72.2983 79.8514 71.875 80.3483 71.875H80.4601C80.6094 71.9467 80.7742 71.9875 80.9483 71.9875C81.1224 71.9875 81.2878 71.9467 81.4364 71.875Z" fill="#393C78"/>
<rect x="94" y="67" width="18" height="9.3" rx="0.62069" fill="#5E609C"/>
<path fill-rule="evenodd" clip-rule="evenodd" d="M102.948 71.65C103.445 71.65 103.848 71.2471 103.848 70.75C103.848 70.2529 103.445 69.85 102.948 69.85C102.451 69.85 102.048 70.2529 102.048 70.75C102.048 71.2471 102.451 71.65 102.948 71.65ZM103.436 71.875H103.548C104.045 71.875 104.448 72.2983 104.448 72.82V73.1125V73.45H101.448V73.1125V72.82C101.448 72.2983 101.851 71.875 102.348 71.875H102.46C102.609 71.9467 102.774 71.9875 102.948 71.9875C103.122 71.9875 103.288 71.9467 103.436 71.875Z" fill="#393C78"/>
<rect x="116" y="67" width="18" height="9.3" rx="0.62069" fill="#5E609C"/>
<path fill-rule="evenodd" clip-rule="evenodd" d="M124.948 71.65C125.445 71.65 125.848 71.2471 125.848 70.75C125.848 70.2529 125.445 69.85 124.948 69.85C124.451 69.85 124.048 70.2529 124.048 70.75C124.048 71.2471 124.451 71.65 124.948 71.65ZM125.436 71.875H125.548C126.045 71.875 126.448 72.2983 126.448 72.82V73.1125V73.45H123.448V73.1125V72.82C123.448 72.2983 123.851 71.875 124.348 71.875H124.46C124.609 71.9467 124.774 71.9875 124.948 71.9875C125.122 71.9875 125.288 71.9467 125.436 71.875Z" fill="#393C78"/>
</svg>
