<svg width="140" height="88" viewBox="0 0 140 88" fill="none" xmlns="http://www.w3.org/2000/svg">
<rect x="6" y="6" width="29" height="16" rx="1" fill="#5E609C"/>
<path fill-rule="evenodd" clip-rule="evenodd" d="M20.5 14C21.3284 14 22 13.3284 22 12.5C22 11.6716 21.3284 11 20.5 11C19.6716 11 19 11.6716 19 12.5C19 13.3284 19.6716 14 20.5 14ZM21.3136 14.375H21.5C22.3281 14.375 23 15.0805 23 15.95V16.4375V17H18V16.4375V15.95C18 15.0805 18.6719 14.375 19.5 14.375H19.6864C19.9353 14.4945 20.2098 14.5625 20.5 14.5625C20.7902 14.5625 21.0658 14.4945 21.3136 14.375Z" fill="#393C78"/>
<rect x="39" y="6" width="29" height="16" rx="1" fill="#5E609C"/>
<path fill-rule="evenodd" clip-rule="evenodd" d="M53.5 14C54.3284 14 55 13.3284 55 12.5C55 11.6716 54.3284 11 53.5 11C52.6716 11 52 11.6716 52 12.5C52 13.3284 52.6716 14 53.5 14ZM54.3136 14.375H54.5C55.3281 14.375 56 15.0805 56 15.95V16.4375V17H51V16.4375V15.95C51 15.0805 51.6719 14.375 52.5 14.375H52.6864C52.9353 14.4945 53.2098 14.5625 53.5 14.5625C53.7902 14.5625 54.0658 14.4945 54.3136 14.375Z" fill="#393C78"/>
<rect x="72" y="6" width="29" height="16" rx="1" fill="#5E609C"/>
<path fill-rule="evenodd" clip-rule="evenodd" d="M86.5 14C87.3284 14 88 13.3284 88 12.5C88 11.6716 87.3284 11 86.5 11C85.6716 11 85 11.6716 85 12.5C85 13.3284 85.6716 14 86.5 14ZM87.3136 14.375H87.5C88.3281 14.375 89 15.0805 89 15.95V16.4375V17H84V16.4375V15.95C84 15.0805 84.6719 14.375 85.5 14.375H85.6864C85.9353 14.4945 86.2098 14.5625 86.5 14.5625C86.7902 14.5625 87.0658 14.4945 87.3136 14.375Z" fill="#393C78"/>
<rect x="105" y="6" width="29" height="16" rx="1" fill="#5E609C"/>
<path fill-rule="evenodd" clip-rule="evenodd" d="M119.5 14C120.328 14 121 13.3284 121 12.5C121 11.6716 120.328 11 119.5 11C118.672 11 118 11.6716 118 12.5C118 13.3284 118.672 14 119.5 14ZM120.314 14.375H120.5C121.328 14.375 122 15.0805 122 15.95V16.4375V17H117V16.4375V15.95C117 15.0805 117.672 14.375 118.5 14.375H118.686C118.935 14.4945 119.21 14.5625 119.5 14.5625C119.79 14.5625 120.066 14.4945 120.314 14.375Z" fill="#393C78"/>
<rect x="6" y="26" width="62" height="36" rx="2.13793" fill="#5E609C"/>
<path fill-rule="evenodd" clip-rule="evenodd" d="M36.9999 44C38.7711 44 40.2068 42.5642 40.2068 40.7931C40.2068 39.022 38.7711 37.5862 36.9999 37.5862C35.2288 37.5862 33.793 39.022 33.793 40.7931C33.793 42.5642 35.2288 44 36.9999 44ZM38.7394 44.8017H39.1379C40.9084 44.8017 42.3448 46.3099 42.3448 48.1689V49.2111V50.4137H31.6552V49.2111V48.1689C31.6552 46.3099 33.0916 44.8017 34.8621 44.8017H35.2605C35.7926 45.0572 36.3796 45.2025 37 45.2025C37.6204 45.2025 38.2097 45.0572 38.7394 44.8017Z" fill="#393C78"/>
<rect x="72" y="26" width="62" height="36" rx="2.13793" fill="#5E609C"/>
<path fill-rule="evenodd" clip-rule="evenodd" d="M103 44C104.771 44 106.207 42.5642 106.207 40.7931C106.207 39.022 104.771 37.5862 103 37.5862C101.229 37.5862 99.793 39.022 99.793 40.7931C99.793 42.5642 101.229 44 103 44ZM104.739 44.8017H105.138C106.908 44.8017 108.345 46.3099 108.345 48.1689V49.2111V50.4137H97.6552V49.2111V48.1689C97.6552 46.3099 99.0916 44.8017 100.862 44.8017H101.261C101.793 45.0572 102.38 45.2025 103 45.2025C103.62 45.2025 104.21 45.0572 104.739 44.8017Z" fill="#393C78"/>
<rect x="6" y="66" width="29" height="16" rx="1" fill="#5E609C"/>
<path fill-rule="evenodd" clip-rule="evenodd" d="M20.5 74C21.3284 74 22 73.3284 22 72.5C22 71.6716 21.3284 71 20.5 71C19.6716 71 19 71.6716 19 72.5C19 73.3284 19.6716 74 20.5 74ZM21.3136 74.375H21.5C22.3281 74.375 23 75.0805 23 75.95V76.4375V77H18V76.4375V75.95C18 75.0805 18.6719 74.375 19.5 74.375H19.6864C19.9353 74.4945 20.2098 74.5625 20.5 74.5625C20.7902 74.5625 21.0658 74.4945 21.3136 74.375Z" fill="#393C78"/>
<rect x="39" y="66" width="29" height="16" rx="1" fill="#5E609C"/>
<path fill-rule="evenodd" clip-rule="evenodd" d="M53.5 74C54.3284 74 55 73.3284 55 72.5C55 71.6716 54.3284 71 53.5 71C52.6716 71 52 71.6716 52 72.5C52 73.3284 52.6716 74 53.5 74ZM54.3136 74.375H54.5C55.3281 74.375 56 75.0805 56 75.95V76.4375V77H51V76.4375V75.95C51 75.0805 51.6719 74.375 52.5 74.375H52.6864C52.9353 74.4945 53.2098 74.5625 53.5 74.5625C53.7902 74.5625 54.0658 74.4945 54.3136 74.375Z" fill="#393C78"/>
<rect x="72" y="66" width="29" height="16" rx="1" fill="#5E609C"/>
<path fill-rule="evenodd" clip-rule="evenodd" d="M86.5 74C87.3284 74 88 73.3284 88 72.5C88 71.6716 87.3284 71 86.5 71C85.6716 71 85 71.6716 85 72.5C85 73.3284 85.6716 74 86.5 74ZM87.3136 74.375H87.5C88.3281 74.375 89 75.0805 89 75.95V76.4375V77H84V76.4375V75.95C84 75.0805 84.6719 74.375 85.5 74.375H85.6864C85.9353 74.4945 86.2098 74.5625 86.5 74.5625C86.7902 74.5625 87.0658 74.4945 87.3136 74.375Z" fill="#393C78"/>
<rect x="105" y="66" width="29" height="16" rx="1" fill="#5E609C"/>
<path fill-rule="evenodd" clip-rule="evenodd" d="M119.5 74C120.328 74 121 73.3284 121 72.5C121 71.6716 120.328 71 119.5 71C118.672 71 118 71.6716 118 72.5C118 73.3284 118.672 74 119.5 74ZM120.314 74.375H120.5C121.328 74.375 122 75.0805 122 75.95V76.4375V77H117V76.4375V75.95C117 75.0805 117.672 74.375 118.5 74.375H118.686C118.935 74.4945 119.21 74.5625 119.5 74.5625C119.79 74.5625 120.066 74.4945 120.314 74.375Z" fill="#393C78"/>
</svg>
