<svg width="140" height="88" viewBox="0 0 140 88" fill="none" xmlns="http://www.w3.org/2000/svg">
<g clip-path="url(#clip0_16_1900)">
<rect x="72" y="46" width="62" height="36" rx="2.13793" fill="#5E609C"/>
<rect x="6" y="46" width="62" height="36" rx="2.13793" fill="#5E609C"/>
<rect x="6" y="6" width="62" height="36" rx="2.13793" fill="#5E609C"/>
<rect x="72" y="6" width="62" height="36" rx="2.13793" fill="#5E609C"/>
<path d="M39.9646 16.392C39.9646 19.128 39.9646 21.896 39.9646 24.696C39.9646 27.496 39.9646 30.264 39.9646 33C39.2766 33 38.5806 33 37.8766 33C37.1726 33 36.4686 33 35.7646 33C35.7646 31.048 35.7646 29.08 35.7646 27.096C35.7646 25.096 35.7646 23.128 35.7646 21.192C35.3006 21.288 34.8286 21.392 34.3486 21.504C33.8846 21.6 33.4206 21.696 32.9566 21.792C32.9566 21.152 32.9566 20.504 32.9566 19.848C32.9566 19.192 32.9566 18.544 32.9566 17.904C34.1086 17.648 35.2766 17.4 36.4606 17.16C37.6446 16.904 38.8126 16.648 39.9646 16.392Z" fill="#393C78"/>
<path d="M97.6944 33C97.6944 32.376 97.6944 31.744 97.6944 31.104C97.6944 30.448 97.6944 29.808 97.6944 29.184C98.3344 28.576 98.9744 27.96 99.6144 27.336C100.254 26.696 100.894 26.072 101.534 25.464C102.27 24.744 102.83 24.168 103.214 23.736C103.598 23.288 103.862 22.912 104.006 22.608C104.166 22.304 104.246 22.024 104.246 21.768C104.246 21.24 103.942 20.864 103.334 20.64C102.726 20.4 101.942 20.328 100.982 20.424C100.022 20.52 98.9984 20.784 97.9104 21.216C97.9104 20.56 97.9104 19.896 97.9104 19.224C97.9104 18.536 97.9104 17.864 97.9104 17.208C99.5104 16.68 100.958 16.416 102.254 16.416C103.566 16.416 104.686 16.632 105.614 17.064C106.558 17.48 107.278 18.064 107.774 18.816C108.286 19.568 108.542 20.44 108.542 21.432C108.542 22.424 108.278 23.36 107.75 24.24C107.222 25.104 106.414 26.064 105.326 27.12C104.974 27.456 104.622 27.8 104.27 28.152C103.918 28.504 103.566 28.848 103.214 29.184C104.078 29.184 104.942 29.184 105.806 29.184C106.686 29.184 107.558 29.184 108.422 29.184C108.422 29.808 108.422 30.448 108.422 31.104C108.422 31.744 108.422 32.376 108.422 33C106.646 33 104.854 33 103.046 33C101.254 33 99.4704 33 97.6944 33Z" fill="#393C78"/>
<path d="M32.8905 63.712C33.5625 63.184 34.2345 62.648 34.9065 62.104C35.5945 61.56 36.2745 61.024 36.9465 60.496C36.1305 60.496 35.2985 60.496 34.4505 60.496C33.6185 60.496 32.7945 60.496 31.9785 60.496C31.9785 59.872 31.9785 59.24 31.9785 58.6C31.9785 57.944 31.9785 57.304 31.9785 56.68C33.6585 56.68 35.3465 56.68 37.0425 56.68C38.7545 56.68 40.4505 56.68 42.1305 56.68C42.1305 57.304 42.1305 57.944 42.1305 58.6C42.1305 59.24 42.1305 59.872 42.1305 60.496C41.5545 60.96 40.9785 61.432 40.4025 61.912C39.8265 62.392 39.2505 62.864 38.6745 63.328C39.9865 63.584 40.9945 64.128 41.6985 64.96C42.4185 65.776 42.7785 66.808 42.7785 68.056C42.7785 69.24 42.4905 70.216 41.9145 70.984C41.3385 71.752 40.5465 72.32 39.5385 72.688C38.5305 73.056 37.3705 73.224 36.0585 73.192C34.7625 73.16 33.3865 72.928 31.9305 72.496C31.9305 71.84 31.9305 71.176 31.9305 70.504C31.9305 69.816 31.9305 69.144 31.9305 68.488C33.0985 68.904 34.1945 69.168 35.2185 69.28C36.2425 69.392 37.0665 69.352 37.6905 69.16C38.3305 68.952 38.6505 68.592 38.6505 68.08C38.6505 67.584 38.4025 67.208 37.9065 66.952C37.4105 66.696 36.7225 66.536 35.8425 66.472C34.9785 66.392 33.9945 66.4 32.8905 66.496C32.8905 66.032 32.8905 65.568 32.8905 65.104C32.8905 64.624 32.8905 64.16 32.8905 63.712Z" fill="#393C78"/>
<path d="M96.6039 69.904C96.6039 69.28 96.6039 68.648 96.6039 68.008C96.6039 67.352 96.6039 66.712 96.6039 66.088C97.4039 64.536 98.2119 62.968 99.0279 61.384C99.8439 59.8 100.644 58.232 101.428 56.68C102.452 56.68 103.476 56.68 104.5 56.68C105.54 56.68 106.572 56.68 107.596 56.68C107.596 58.232 107.596 59.8 107.596 61.384C107.596 62.968 107.596 64.536 107.596 66.088C107.964 66.088 108.34 66.088 108.724 66.088C109.124 66.088 109.508 66.088 109.876 66.088C109.876 66.712 109.876 67.352 109.876 68.008C109.876 68.648 109.876 69.28 109.876 69.904C109.508 69.904 109.124 69.904 108.724 69.904C108.34 69.904 107.964 69.904 107.596 69.904C107.596 70.416 107.596 70.936 107.596 71.464C107.596 71.976 107.596 72.488 107.596 73C106.924 73 106.236 73 105.532 73C104.844 73 104.164 73 103.492 73C103.492 72.488 103.492 71.976 103.492 71.464C103.492 70.936 103.492 70.416 103.492 69.904C102.356 69.904 101.204 69.904 100.036 69.904C98.8839 69.904 97.7399 69.904 96.6039 69.904ZM100.924 66.088C101.34 66.088 101.764 66.088 102.196 66.088C102.644 66.088 103.076 66.088 103.492 66.088C103.492 65.192 103.492 64.28 103.492 63.352C103.492 62.424 103.492 61.512 103.492 60.616C103.076 61.512 102.644 62.424 102.196 63.352C101.764 64.28 101.34 65.192 100.924 66.088Z" fill="#393C78"/>
</g>
<defs>
<clipPath id="clip0_16_1900">
<rect width="140" height="88" rx="3" fill="white"/>
</clipPath>
</defs>
</svg>
