<svg width="140" height="88" viewBox="0 0 140 88" fill="none" xmlns="http://www.w3.org/2000/svg">
<g clip-path="url(#clip0_1_2646)">
<rect x="6" y="6" width="29" height="16" rx="1" fill="#5E609C"/>
<path fill-rule="evenodd" clip-rule="evenodd" d="M20.5 14C21.3284 14 22 13.3284 22 12.5C22 11.6716 21.3284 11 20.5 11C19.6716 11 19 11.6716 19 12.5C19 13.3284 19.6716 14 20.5 14ZM21.3136 14.375H21.5C22.3281 14.375 23 15.0805 23 15.95V16.4375V17H18V16.4375V15.95C18 15.0805 18.6719 14.375 19.5 14.375H19.6864C19.9353 14.4945 20.2098 14.5625 20.5 14.5625C20.7902 14.5625 21.0658 14.4945 21.3136 14.375Z" fill="#393C78"/>
<rect x="6" y="26" width="29" height="16" rx="1" fill="#5E609C"/>
<path fill-rule="evenodd" clip-rule="evenodd" d="M20.5 34C21.3284 34 22 33.3284 22 32.5C22 31.6716 21.3284 31 20.5 31C19.6716 31 19 31.6716 19 32.5C19 33.3284 19.6716 34 20.5 34ZM21.3136 34.375H21.5C22.3281 34.375 23 35.0805 23 35.95V36.4375V37H18V36.4375V35.95C18 35.0805 18.6719 34.375 19.5 34.375H19.6864C19.9353 34.4945 20.2098 34.5625 20.5 34.5625C20.7902 34.5625 21.0658 34.4945 21.3136 34.375Z" fill="#393C78"/>
<rect x="6" y="46" width="29" height="16" rx="1" fill="#5E609C"/>
<path fill-rule="evenodd" clip-rule="evenodd" d="M20.5 54C21.3284 54 22 53.3284 22 52.5C22 51.6716 21.3284 51 20.5 51C19.6716 51 19 51.6716 19 52.5C19 53.3284 19.6716 54 20.5 54ZM21.3136 54.375H21.5C22.3281 54.375 23 55.0805 23 55.95V56.4375V57H18V56.4375V55.95C18 55.0805 18.6719 54.375 19.5 54.375H19.6864C19.9353 54.4945 20.2098 54.5625 20.5 54.5625C20.7902 54.5625 21.0658 54.4945 21.3136 54.375Z" fill="#393C78"/>
<rect x="6" y="66" width="29" height="16" rx="1" fill="#5E609C"/>
<path fill-rule="evenodd" clip-rule="evenodd" d="M20.5 74C21.3284 74 22 73.3284 22 72.5C22 71.6716 21.3284 71 20.5 71C19.6716 71 19 71.6716 19 72.5C19 73.3284 19.6716 74 20.5 74ZM21.3136 74.375H21.5C22.3281 74.375 23 75.0805 23 75.95V76.4375V77H18V76.4375V75.95C18 75.0805 18.6719 74.375 19.5 74.375H19.6864C19.9353 74.4945 20.2098 74.5625 20.5 74.5625C20.7902 74.5625 21.0658 74.4945 21.3136 74.375Z" fill="#393C78"/>
<rect x="39" y="6" width="29" height="16" rx="1" fill="#5E609C"/>
<path fill-rule="evenodd" clip-rule="evenodd" d="M53.5 14C54.3284 14 55 13.3284 55 12.5C55 11.6716 54.3284 11 53.5 11C52.6716 11 52 11.6716 52 12.5C52 13.3284 52.6716 14 53.5 14ZM54.3136 14.375H54.5C55.3281 14.375 56 15.0805 56 15.95V16.4375V17H51V16.4375V15.95C51 15.0805 51.6719 14.375 52.5 14.375H52.6864C52.9353 14.4945 53.2098 14.5625 53.5 14.5625C53.7902 14.5625 54.0658 14.4945 54.3136 14.375Z" fill="#393C78"/>
<rect x="39" y="26" width="62" height="36" rx="2.13793" fill="#5E609C"/>
<path fill-rule="evenodd" clip-rule="evenodd" d="M69.9999 44C71.7711 44 73.2068 42.5642 73.2068 40.7931C73.2068 39.022 71.7711 37.5862 69.9999 37.5862C68.2288 37.5862 66.793 39.022 66.793 40.7931C66.793 42.5642 68.2288 44 69.9999 44ZM71.7394 44.8017H72.1379C73.9084 44.8017 75.3448 46.3099 75.3448 48.1689V49.2112V50.4138H64.6552V49.2112V48.1689C64.6552 46.3099 66.0916 44.8017 67.8621 44.8017H68.2605C68.7926 45.0572 69.3796 45.2026 70 45.2026C70.6204 45.2026 71.2097 45.0572 71.7394 44.8017Z" fill="#393C78"/>
<rect x="39" y="66" width="29" height="16" rx="1" fill="#5E609C"/>
<path fill-rule="evenodd" clip-rule="evenodd" d="M53.5 74C54.3284 74 55 73.3284 55 72.5C55 71.6716 54.3284 71 53.5 71C52.6716 71 52 71.6716 52 72.5C52 73.3284 52.6716 74 53.5 74ZM54.3136 74.375H54.5C55.3281 74.375 56 75.0805 56 75.95V76.4375V77H51V76.4375V75.95C51 75.0805 51.6719 74.375 52.5 74.375H52.6864C52.9353 74.4945 53.2098 74.5625 53.5 74.5625C53.7902 74.5625 54.0658 74.4945 54.3136 74.375Z" fill="#393C78"/>
<rect x="72" y="6" width="29" height="16" rx="1" fill="#5E609C"/>
<path fill-rule="evenodd" clip-rule="evenodd" d="M86.5 14C87.3284 14 88 13.3284 88 12.5C88 11.6716 87.3284 11 86.5 11C85.6716 11 85 11.6716 85 12.5C85 13.3284 85.6716 14 86.5 14ZM87.3136 14.375H87.5C88.3281 14.375 89 15.0805 89 15.95V16.4375V17H84V16.4375V15.95C84 15.0805 84.6719 14.375 85.5 14.375H85.6864C85.9353 14.4945 86.2098 14.5625 86.5 14.5625C86.7902 14.5625 87.0658 14.4945 87.3136 14.375Z" fill="#393C78"/>
<rect x="72" y="66" width="29" height="16" rx="1" fill="#5E609C"/>
<path fill-rule="evenodd" clip-rule="evenodd" d="M86.5 74C87.3284 74 88 73.3284 88 72.5C88 71.6716 87.3284 71 86.5 71C85.6716 71 85 71.6716 85 72.5C85 73.3284 85.6716 74 86.5 74ZM87.3136 74.375H87.5C88.3281 74.375 89 75.0805 89 75.95V76.4375V77H84V76.4375V75.95C84 75.0805 84.6719 74.375 85.5 74.375H85.6864C85.9353 74.4945 86.2098 74.5625 86.5 74.5625C86.7902 74.5625 87.0658 74.4945 87.3136 74.375Z" fill="#393C78"/>
<rect x="105" y="6" width="29" height="16" rx="1" fill="#5E609C"/>
<path fill-rule="evenodd" clip-rule="evenodd" d="M119.5 14C120.328 14 121 13.3284 121 12.5C121 11.6716 120.328 11 119.5 11C118.672 11 118 11.6716 118 12.5C118 13.3284 118.672 14 119.5 14ZM120.314 14.375H120.5C121.328 14.375 122 15.0805 122 15.95V16.4375V17H117V16.4375V15.95C117 15.0805 117.672 14.375 118.5 14.375H118.686C118.935 14.4945 119.21 14.5625 119.5 14.5625C119.79 14.5625 120.066 14.4945 120.314 14.375Z" fill="#393C78"/>
<rect x="105" y="26" width="29" height="16" rx="1" fill="#5E609C"/>
<path fill-rule="evenodd" clip-rule="evenodd" d="M119.5 34C120.328 34 121 33.3284 121 32.5C121 31.6716 120.328 31 119.5 31C118.672 31 118 31.6716 118 32.5C118 33.3284 118.672 34 119.5 34ZM120.314 34.375H120.5C121.328 34.375 122 35.0805 122 35.95V36.4375V37H117V36.4375V35.95C117 35.0805 117.672 34.375 118.5 34.375H118.686C118.935 34.4945 119.21 34.5625 119.5 34.5625C119.79 34.5625 120.066 34.4945 120.314 34.375Z" fill="#393C78"/>
<rect x="105" y="46" width="29" height="16" rx="1" fill="#5E609C"/>
<path fill-rule="evenodd" clip-rule="evenodd" d="M119.5 54C120.328 54 121 53.3284 121 52.5C121 51.6716 120.328 51 119.5 51C118.672 51 118 51.6716 118 52.5C118 53.3284 118.672 54 119.5 54ZM120.314 54.375H120.5C121.328 54.375 122 55.0805 122 55.95V56.4375V57H117V56.4375V55.95C117 55.0805 117.672 54.375 118.5 54.375H118.686C118.935 54.4945 119.21 54.5625 119.5 54.5625C119.79 54.5625 120.066 54.4945 120.314 54.375Z" fill="#393C78"/>
<rect x="105" y="66" width="29" height="16" rx="1" fill="#5E609C"/>
<path fill-rule="evenodd" clip-rule="evenodd" d="M119.5 74C120.328 74 121 73.3284 121 72.5C121 71.6716 120.328 71 119.5 71C118.672 71 118 71.6716 118 72.5C118 73.3284 118.672 74 119.5 74ZM120.314 74.375H120.5C121.328 74.375 122 75.0805 122 75.95V76.4375V77H117V76.4375V75.95C117 75.0805 117.672 74.375 118.5 74.375H118.686C118.935 74.4945 119.21 74.5625 119.5 74.5625C119.79 74.5625 120.066 74.4945 120.314 74.375Z" fill="#393C78"/>
</g>
<defs>
<clipPath id="clip0_1_2646">
<rect width="140" height="88" rx="3" fill="white"/>
</clipPath>
</defs>
</svg>
