<svg width="140" height="88" viewBox="0 0 140 88" fill="none" xmlns="http://www.w3.org/2000/svg">
<g clip-path="url(#clip0_1_2661)">
<rect x="6" y="59" width="15" height="9" rx="0.62069" fill="#5E609C"/>
<path fill-rule="evenodd" clip-rule="evenodd" d="M13.5 63.5C13.9971 63.5 14.4 63.0971 14.4 62.6C14.4 62.1029 13.9971 61.7 13.5 61.7C13.0029 61.7 12.6 62.1029 12.6 62.6C12.6 63.0971 13.0029 63.5 13.5 63.5ZM13.9882 63.725H14.1C14.5969 63.725 15 64.1483 15 64.67V64.9625V65.3H12V64.9625V64.67C12 64.1483 12.4031 63.725 12.9 63.725H13.0118C13.1612 63.7967 13.3259 63.8375 13.5 63.8375C13.6741 63.8375 13.8395 63.7967 13.9882 63.725Z" fill="#393C78"/>
<rect x="24.8" y="59" width="15" height="9" rx="0.62069" fill="#5E609C"/>
<path fill-rule="evenodd" clip-rule="evenodd" d="M32.3 63.5C32.7971 63.5 33.2 63.0971 33.2 62.6C33.2 62.1029 32.7971 61.7 32.3 61.7C31.803 61.7 31.4 62.1029 31.4 62.6C31.4 63.0971 31.803 63.5 32.3 63.5ZM32.7882 63.725H32.9C33.3969 63.725 33.8 64.1483 33.8 64.67V64.9625V65.3H30.8V64.9625V64.67C30.8 64.1483 31.2031 63.725 31.7 63.725H31.8118C31.9612 63.7967 32.1259 63.8375 32.3 63.8375C32.4741 63.8375 32.6395 63.7967 32.7882 63.725Z" fill="#393C78"/>
<rect x="43.6" y="59" width="15" height="9" rx="0.62069" fill="#5E609C"/>
<path fill-rule="evenodd" clip-rule="evenodd" d="M51.1 63.5C51.5971 63.5 52 63.0971 52 62.6C52 62.1029 51.5971 61.7 51.1 61.7C50.6029 61.7 50.2 62.1029 50.2 62.6C50.2 63.0971 50.6029 63.5 51.1 63.5ZM51.5882 63.725H51.7C52.1969 63.725 52.6 64.1483 52.6 64.67V64.9625V65.3H49.6V64.9625V64.67C49.6 64.1483 50.0031 63.725 50.5 63.725H50.6118C50.7612 63.7967 50.9259 63.8375 51.1 63.8375C51.2741 63.8375 51.4395 63.7967 51.5882 63.725Z" fill="#393C78"/>
<rect x="62.4" y="59" width="15" height="9" rx="0.62069" fill="#5E609C"/>
<path fill-rule="evenodd" clip-rule="evenodd" d="M69.9 63.5C70.3971 63.5 70.8 63.0971 70.8 62.6C70.8 62.1029 70.3971 61.7 69.9 61.7C69.4029 61.7 69 62.1029 69 62.6C69 63.0971 69.4029 63.5 69.9 63.5ZM70.3882 63.725H70.5C70.9969 63.725 71.4 64.1483 71.4 64.67V64.9625V65.3H68.4V64.9625V64.67C68.4 64.1483 68.8031 63.725 69.3 63.725H69.4118C69.5612 63.7967 69.7259 63.8375 69.9 63.8375C70.0741 63.8375 70.2395 63.7967 70.3882 63.725Z" fill="#393C78"/>
<rect x="81.2" y="59" width="15" height="9" rx="0.62069" fill="#5E609C"/>
<path fill-rule="evenodd" clip-rule="evenodd" d="M88.7 63.5C89.1971 63.5 89.6 63.0971 89.6 62.6C89.6 62.1029 89.1971 61.7 88.7 61.7C88.2029 61.7 87.8 62.1029 87.8 62.6C87.8 63.0971 88.2029 63.5 88.7 63.5ZM89.1882 63.725H89.3C89.7969 63.725 90.2 64.1483 90.2 64.67V64.9625V65.3H87.2V64.9625V64.67C87.2 64.1483 87.6031 63.725 88.1 63.725H88.2118C88.3612 63.7967 88.5259 63.8375 88.7 63.8375C88.8741 63.8375 89.0395 63.7967 89.1882 63.725Z" fill="#393C78"/>
<rect x="100" y="59" width="15" height="9" rx="0.62069" fill="#5E609C"/>
<path fill-rule="evenodd" clip-rule="evenodd" d="M107.5 63.5C107.997 63.5 108.4 63.0971 108.4 62.6C108.4 62.1029 107.997 61.7 107.5 61.7C107.003 61.7 106.6 62.1029 106.6 62.6C106.6 63.0971 107.003 63.5 107.5 63.5ZM107.988 63.725H108.1C108.597 63.725 109 64.1483 109 64.67V64.9625V65.3H106V64.9625V64.67C106 64.1483 106.403 63.725 106.9 63.725H107.012C107.161 63.7967 107.326 63.8375 107.5 63.8375C107.674 63.8375 107.84 63.7967 107.988 63.725Z" fill="#393C78"/>
<rect x="118.8" y="59" width="15" height="9" rx="0.62069" fill="#5E609C"/>
<path fill-rule="evenodd" clip-rule="evenodd" d="M126.3 63.5C126.797 63.5 127.2 63.0971 127.2 62.6C127.2 62.1029 126.797 61.7 126.3 61.7C125.803 61.7 125.4 62.1029 125.4 62.6C125.4 63.0971 125.803 63.5 126.3 63.5ZM126.788 63.725H126.9C127.397 63.725 127.8 64.1483 127.8 64.67V64.9625V65.3H124.8V64.9625V64.67C124.8 64.1483 125.203 63.725 125.7 63.725H125.812C125.961 63.7967 126.126 63.8375 126.3 63.8375C126.474 63.8375 126.64 63.7967 126.788 63.725Z" fill="#393C78"/>
<rect x="6" y="20" width="15" height="9" rx="0.62069" fill="#5E609C"/>
<path fill-rule="evenodd" clip-rule="evenodd" d="M13.5 24.5C13.9971 24.5 14.4 24.0971 14.4 23.6C14.4 23.1029 13.9971 22.7 13.5 22.7C13.0029 22.7 12.6 23.1029 12.6 23.6C12.6 24.0971 13.0029 24.5 13.5 24.5ZM13.9882 24.725H14.1C14.5969 24.725 15 25.1483 15 25.67V25.9625V26.3H12V25.9625V25.67C12 25.1483 12.4031 24.725 12.9 24.725H13.0118C13.1612 24.7967 13.3259 24.8375 13.5 24.8375C13.6741 24.8375 13.8395 24.7967 13.9882 24.725Z" fill="#393C78"/>
<rect x="24.8" y="20" width="15" height="9" rx="0.62069" fill="#5E609C"/>
<path fill-rule="evenodd" clip-rule="evenodd" d="M32.3 24.5C32.7971 24.5 33.2 24.0971 33.2 23.6C33.2 23.1029 32.7971 22.7 32.3 22.7C31.803 22.7 31.4 23.1029 31.4 23.6C31.4 24.0971 31.803 24.5 32.3 24.5ZM32.7882 24.725H32.9C33.3969 24.725 33.8 25.1483 33.8 25.67V25.9625V26.3H30.8V25.9625V25.67C30.8 25.1483 31.2031 24.725 31.7 24.725H31.8118C31.9612 24.7967 32.1259 24.8375 32.3 24.8375C32.4741 24.8375 32.6395 24.7967 32.7882 24.725Z" fill="#393C78"/>
<rect x="6" y="33" width="15" height="9" rx="0.62069" fill="#5E609C"/>
<path fill-rule="evenodd" clip-rule="evenodd" d="M13.5 37.5C13.9971 37.5 14.4 37.0971 14.4 36.6C14.4 36.1029 13.9971 35.7 13.5 35.7C13.0029 35.7 12.6 36.1029 12.6 36.6C12.6 37.0971 13.0029 37.5 13.5 37.5ZM13.9882 37.725H14.1C14.5969 37.725 15 38.1483 15 38.67V38.9625V39.3H12V38.9625V38.67C12 38.1483 12.4031 37.725 12.9 37.725H13.0118C13.1612 37.7967 13.3259 37.8375 13.5 37.8375C13.6741 37.8375 13.8395 37.7967 13.9882 37.725Z" fill="#393C78"/>
<rect x="24.8" y="33" width="15" height="9" rx="0.62069" fill="#5E609C"/>
<path fill-rule="evenodd" clip-rule="evenodd" d="M32.3 37.5C32.7971 37.5 33.2 37.0971 33.2 36.6C33.2 36.1029 32.7971 35.7 32.3 35.7C31.803 35.7 31.4 36.1029 31.4 36.6C31.4 37.0971 31.803 37.5 32.3 37.5ZM32.7882 37.725H32.9C33.3969 37.725 33.8 38.1483 33.8 38.67V38.9625V39.3H30.8V38.9625V38.67C30.8 38.1483 31.2031 37.725 31.7 37.725H31.8118C31.9612 37.7967 32.1259 37.8375 32.3 37.8375C32.4741 37.8375 32.6395 37.7967 32.7882 37.725Z" fill="#393C78"/>
<rect x="6" y="46" width="15" height="9" rx="0.62069" fill="#5E609C"/>
<path fill-rule="evenodd" clip-rule="evenodd" d="M13.5 50.5C13.9971 50.5 14.4 50.0971 14.4 49.6C14.4 49.1029 13.9971 48.7 13.5 48.7C13.0029 48.7 12.6 49.1029 12.6 49.6C12.6 50.0971 13.0029 50.5 13.5 50.5ZM13.9882 50.725H14.1C14.5969 50.725 15 51.1483 15 51.67V51.9625V52.3H12V51.9625V51.67C12 51.1483 12.4031 50.725 12.9 50.725H13.0118C13.1612 50.7967 13.3259 50.8375 13.5 50.8375C13.6741 50.8375 13.8395 50.7967 13.9882 50.725Z" fill="#393C78"/>
<rect x="24.8" y="46" width="15" height="9" rx="0.62069" fill="#5E609C"/>
<path fill-rule="evenodd" clip-rule="evenodd" d="M32.3 50.5C32.7971 50.5 33.2 50.0971 33.2 49.6C33.2 49.1029 32.7971 48.7 32.3 48.7C31.803 48.7 31.4 49.1029 31.4 49.6C31.4 50.0971 31.803 50.5 32.3 50.5ZM32.7882 50.725H32.9C33.3969 50.725 33.8 51.1483 33.8 51.67V51.9625V52.3H30.8V51.9625V51.67C30.8 51.1483 31.2031 50.725 31.7 50.725H31.8118C31.9612 50.7967 32.1259 50.8375 32.3 50.8375C32.4741 50.8375 32.6395 50.7967 32.7882 50.725Z" fill="#393C78"/>
<rect x="100" y="20" width="15" height="9" rx="0.62069" fill="#5E609C"/>
<path fill-rule="evenodd" clip-rule="evenodd" d="M107.5 24.5C107.997 24.5 108.4 24.0971 108.4 23.6C108.4 23.1029 107.997 22.7 107.5 22.7C107.003 22.7 106.6 23.1029 106.6 23.6C106.6 24.0971 107.003 24.5 107.5 24.5ZM107.988 24.725H108.1C108.597 24.725 109 25.1483 109 25.67V25.9625V26.3H106V25.9625V25.67C106 25.1483 106.403 24.725 106.9 24.725H107.012C107.161 24.7967 107.326 24.8375 107.5 24.8375C107.674 24.8375 107.84 24.7967 107.988 24.725Z" fill="#393C78"/>
<rect x="118.8" y="20" width="15" height="9" rx="0.62069" fill="#5E609C"/>
<path fill-rule="evenodd" clip-rule="evenodd" d="M126.3 24.5C126.797 24.5 127.2 24.0971 127.2 23.6C127.2 23.1029 126.797 22.7 126.3 22.7C125.803 22.7 125.4 23.1029 125.4 23.6C125.4 24.0971 125.803 24.5 126.3 24.5ZM126.788 24.725H126.9C127.397 24.725 127.8 25.1483 127.8 25.67V25.9625V26.3H124.8V25.9625V25.67C124.8 25.1483 125.203 24.725 125.7 24.725H125.812C125.961 24.7967 126.126 24.8375 126.3 24.8375C126.474 24.8375 126.64 24.7967 126.788 24.725Z" fill="#393C78"/>
<rect x="100" y="33" width="15" height="9" rx="0.62069" fill="#5E609C"/>
<path fill-rule="evenodd" clip-rule="evenodd" d="M107.5 37.5C107.997 37.5 108.4 37.0971 108.4 36.6C108.4 36.1029 107.997 35.7 107.5 35.7C107.003 35.7 106.6 36.1029 106.6 36.6C106.6 37.0971 107.003 37.5 107.5 37.5ZM107.988 37.725H108.1C108.597 37.725 109 38.1483 109 38.67V38.9625V39.3H106V38.9625V38.67C106 38.1483 106.403 37.725 106.9 37.725H107.012C107.161 37.7967 107.326 37.8375 107.5 37.8375C107.674 37.8375 107.84 37.7967 107.988 37.725Z" fill="#393C78"/>
<rect x="118.8" y="33" width="15" height="9" rx="0.62069" fill="#5E609C"/>
<path fill-rule="evenodd" clip-rule="evenodd" d="M126.3 37.5C126.797 37.5 127.2 37.0971 127.2 36.6C127.2 36.1029 126.797 35.7 126.3 35.7C125.803 35.7 125.4 36.1029 125.4 36.6C125.4 37.0971 125.803 37.5 126.3 37.5ZM126.788 37.725H126.9C127.397 37.725 127.8 38.1483 127.8 38.67V38.9625V39.3H124.8V38.9625V38.67C124.8 38.1483 125.203 37.725 125.7 37.725H125.812C125.961 37.7967 126.126 37.8375 126.3 37.8375C126.474 37.8375 126.64 37.7967 126.788 37.725Z" fill="#393C78"/>
<rect x="100" y="46" width="15" height="9" rx="0.62069" fill="#5E609C"/>
<path fill-rule="evenodd" clip-rule="evenodd" d="M107.5 50.5C107.997 50.5 108.4 50.0971 108.4 49.6C108.4 49.1029 107.997 48.7 107.5 48.7C107.003 48.7 106.6 49.1029 106.6 49.6C106.6 50.0971 107.003 50.5 107.5 50.5ZM107.988 50.725H108.1C108.597 50.725 109 51.1483 109 51.67V51.9625V52.3H106V51.9625V51.67C106 51.1483 106.403 50.725 106.9 50.725H107.012C107.161 50.7967 107.326 50.8375 107.5 50.8375C107.674 50.8375 107.84 50.7967 107.988 50.725Z" fill="#393C78"/>
<rect x="118.8" y="46" width="15" height="9" rx="0.62069" fill="#5E609C"/>
<path fill-rule="evenodd" clip-rule="evenodd" d="M126.3 50.5C126.797 50.5 127.2 50.0971 127.2 49.6C127.2 49.1029 126.797 48.7 126.3 48.7C125.803 48.7 125.4 49.1029 125.4 49.6C125.4 50.0971 125.803 50.5 126.3 50.5ZM126.788 50.725H126.9C127.397 50.725 127.8 51.1483 127.8 51.67V51.9625V52.3H124.8V51.9625V51.67C124.8 51.1483 125.203 50.725 125.7 50.725H125.812C125.961 50.7967 126.126 50.8375 126.3 50.8375C126.474 50.8375 126.64 50.7967 126.788 50.725Z" fill="#393C78"/>
<rect x="44" y="20" width="52" height="35" rx="2.13793" fill="#5E609C"/>
<path fill-rule="evenodd" clip-rule="evenodd" d="M69.9999 37.5C71.7711 37.5 73.2068 36.0642 73.2068 34.2931C73.2068 32.522 71.7711 31.0862 69.9999 31.0862C68.2288 31.0862 66.793 32.522 66.793 34.2931C66.793 36.0642 68.2288 37.5 69.9999 37.5ZM71.7394 38.3017H72.1379C73.9084 38.3017 75.3448 39.8099 75.3448 41.6689V42.7112V43.9138H64.6552V42.7112V41.6689C64.6552 39.8099 66.0916 38.3017 67.8621 38.3017H68.2605C68.7926 38.5572 69.3796 38.7026 70 38.7026C70.6204 38.7026 71.2097 38.5572 71.7394 38.3017Z" fill="#393C78"/>
</g>
<defs>
<clipPath id="clip0_1_2661">
<rect width="140" height="88" fill="white"/>
</clipPath>
</defs>
</svg>
